<?xml version="1.0" standalone="no"?>
<!DOCTYPE svg PUBLIC "-//W3C//DTD SVG 1.1//EN" "http://www.w3.org/Graphics/SVG/1.1/DTD/svg11.dtd" >
<svg xmlns="http://www.w3.org/2000/svg" xmlns:xlink="http://www.w3.org/1999/xlink" version="1.1">
<metadata>
Created by FontForge 20170731 at Sun Jul  4 21:50:10 2021
 By Aleksey,,,
Copyright (c) 2020 by Ilhamherry. All rights reserved.
</metadata>
<defs>
<font id="BudgeRegular" horiz-adv-x="436" >
  <font-face 
    font-family="Budge Regular"
    font-weight="400"
    font-style="italic"
    font-stretch="normal"
    units-per-em="1000"
    panose-1="0 0 0 0 0 0 0 0 0 0"
    ascent="800"
    descent="-200"
    x-height="507"
    cap-height="794"
    bbox="-888 -329 1214 1006"
    underline-thickness="50"
    underline-position="-175"
    slope="-15"
    unicode-range="U+000D-FB02"
  />
<missing-glyph horiz-adv-x="600" 
 />
    <glyph glyph-name="uniE02F" unicode="ffi" horiz-adv-x="734" 
d="M-34 -196q-48 0 -73.5 26t-25.5 65q0 19 8 43q79 0 104 94l91 345h-14q-8 0 -11.5 7.5t-3.5 18.5t3 23t9 23t14 18t17 7h11l25 95q29 108 88 158t145 50q45 0 74 -20t43 -48q37 35 83 51.5t95 16.5q38 0 69 -10t53.5 -27t35 -39.5t12.5 -47.5q0 -20 -7.5 -39t-21 -33.5
t-31 -23.5t-37.5 -9q-38 0 -62 25t-24 56q0 6 2 16q-5 2 -10 3t-10 1q-24 0 -42 -22t-28 -59l-24 -93h21q17 0 29.5 0.5t23.5 1.5q16 8 35 13.5t37 9.5t34 5.5t26 1.5q18 0 26 -8t8 -21v-7.5t-2 -8.5l-78 -274q-6 -21 -6 -36q0 -12 5.5 -18.5t19.5 -6.5v-12q0 -31 -12 -54
t-29.5 -38t-38.5 -22.5t-39 -7.5q-42 0 -60 25t-18 63q0 32 10 65l11 41l49 184q1 3 1 5.5t1 4.5h-78l-99 -383l-11 -41q-8 -30 -22 -57.5t-33.5 -49t-44 -34t-53.5 -12.5q-48 0 -73.5 26t-25.5 65q0 19 8 43q79 0 104 94l91 346h-112l-98 -380l-11 -41q-8 -30 -22 -57.5
t-33.5 -49t-44 -34t-53.5 -12.5zM365 475l25 94q2 9 5 18t6 17q0 18 -14.5 32t-38.5 14q-12 0 -22 -3.5t-19 -12.5t-16.5 -25t-13.5 -41l-24 -94z" />
    <glyph glyph-name="fi" unicode="fi" horiz-adv-x="464" 
d="M-34 -196q-48 0 -73.5 26t-25.5 65q0 19 8 43q79 0 104 94l91 345h-14q-8 0 -11.5 7.5t-3.5 18.5t3 23t9 23t14 18t17 7h11l25 95q14 54 40.5 93t60.5 64.5t74.5 38t82.5 12.5q38 0 69 -10t53.5 -27t35 -39.5t12.5 -47.5q0 -20 -7.5 -39t-21 -33.5t-31 -23.5t-37.5 -9
q-38 0 -62 25t-24 56q0 6 2 16q-5 2 -10 3t-10 1q-24 0 -42 -22t-28 -59l-24 -93q17 0 36.5 0.5t38.5 2.5q16 8 34.5 13t37 9t34 5.5t25.5 1.5q18 0 26 -8t8 -21v-7.5t-2 -8.5l-26 -92l-52 -182q-6 -21 -6 -36q0 -12 5.5 -18.5t19.5 -6.5v-12q0 -31 -12 -54t-29.5 -38
t-38.5 -22.5t-39 -7.5q-42 0 -60 25t-18 63q0 32 10 65l60 225q1 3 1 5.5t1 4.5h-78l-99 -383l-11 -41q-8 -30 -22 -57.5t-33.5 -49t-44 -34t-53.5 -12.5z" />
    <glyph glyph-name="fl" unicode="fl" horiz-adv-x="501" 
d="M-34 -196q-48 0 -73.5 26t-25.5 65q0 19 8 43q79 0 104 94l91 345h-14q-8 0 -11.5 7.5t-3.5 18.5t3 23t9 23t14 18t17 7h11l25 95q29 108 88 158t145 50q42 0 71.5 -17t46.5 -43q25 6 47.5 9t35.5 3q18 0 26 -8t8 -21v-7.5t-2 -8.5l-26 -92l-111 -404q-6 -21 -6 -36
q0 -12 5.5 -18.5t19.5 -6.5v-12q0 -31 -12 -54t-29.5 -38t-38.5 -22.5t-39 -7.5q-42 0 -60 25t-18 63q0 32 10 65l114 429q1 4 2 8.5t3 9.5q0 2 1 3q3 20 -11.5 37t-41.5 17q-12 0 -22 -3.5t-19 -12.5t-16.5 -25t-13.5 -41l-24 -92q22 1 38.5 4t37.5 10q11 3 11 -16
q0 -11 -4.5 -27t-12.5 -30.5t-19.5 -25t-25.5 -10.5h-49l-99 -383l-11 -41q-8 -30 -22 -57.5t-33.5 -49t-44 -34t-53.5 -12.5z" />
    <glyph glyph-name=".notdef" horiz-adv-x="600" 
 />
    <glyph glyph-name=".null" horiz-adv-x="0" 
 />
    <glyph glyph-name=".null" horiz-adv-x="0" 
 />
    <glyph glyph-name="uni000D" unicode="&#xd;" horiz-adv-x="250" 
 />
    <glyph glyph-name="space" unicode=" " horiz-adv-x="201" 
 />
    <glyph glyph-name="exclam" unicode="!" horiz-adv-x="241" 
d="M121 212q-11 0 -22.5 5.5t-9.5 16.5q8 48 10.5 102.5t5 108t6 100.5t12.5 80q12 41 39.5 68t69.5 27q22 0 40 -8.5t29.5 -24t15 -36.5t-2.5 -47q-6 -25 -25.5 -66t-44.5 -92t-52.5 -109t-51.5 -117q-3 -8 -19 -8zM74 -7q-21 0 -37 8t-26.5 21.5t-14 31.5t1.5 38
q9 34 33 52t54 18q21 0 37 -8.5t26 -22t14 -31t-1 -36.5q-7 -28 -29.5 -49.5t-57.5 -21.5z" />
    <glyph glyph-name="quotedbl" unicode="&#x22;" horiz-adv-x="292" 
d="M143 774q2 11 10.5 18.5t19.5 7.5h71q16 0 20 -13t-1 -27l-78 -244h-76zM295 774q2 11 10.5 18.5t19.5 7.5h71q16 0 20 -13t-1 -27l-78 -244h-76z" />
    <glyph glyph-name="numbersign" unicode="#" horiz-adv-x="600" 
d="M148 0q-20 0 -31.5 15t-6.5 35l46 167h-96l18 50q8 21 31 21h67l39 141h-96l18 50q8 21 31 21h67l55 200h42q20 0 31.5 -15t6.5 -35l-42 -150h113l55 200h42q20 0 31.5 -15t6.5 -35l-42 -150h94l-18 -50q-4 -11 -12 -16t-19 -5h-64l-39 -141h93l-18 -50q-4 -11 -12 -16
t-19 -5h-64l-60 -217h-42q-20 0 -31.5 15t-6.5 35l46 167h-112l-60 -217h-42zM382 288l39 141h-112l-39 -141h112z" />
    <glyph glyph-name="dollar" unicode="$" horiz-adv-x="380" 
d="M111 115q-47 16 -73 48.5t-26 77.5q0 18 3.5 34.5t10.5 29.5t16 21t20 8t13 -11q3 -16 10.5 -31t19 -27t26 -19t30.5 -7q21 0 31 5t14 13q5 10 2 16.5t-10 11t-15.5 8.5t-16.5 8q-28 17 -47.5 41t-29.5 52.5t-10 60t9 62.5q7 24 21 41.5t33 30t41 20t45 9.5l19 113h128
l-57 -119q51 -15 72 -56t4 -92q-11 -32 -28 -53t-48 -21q-35 0 -50.5 22.5t2.5 66.5q16 40 -16 40q-14 0 -25.5 -8t-16.5 -25q-7 -25 3 -52t34 -44q28 -20 49 -36.5t33 -34t15.5 -39t-4.5 -51.5q-11 -46 -45.5 -78t-89.5 -42l-19 -109h-123z" />
    <glyph glyph-name="percent" unicode="%" horiz-adv-x="648" 
d="M166 327q-36 0 -57 18.5t-30 48.5t-6.5 68.5t12.5 79.5q20 82 57.5 128t103.5 46q37 0 57.5 -16t29 -43t6 -63t-12.5 -77q-9 -39 -22 -74t-32 -60.5t-45 -40.5t-61 -15zM556 691h89l-505 -691h-89zM182 421q9 0 17 8.5t15.5 22.5t13.5 32t11 37q5 18 8 36.5t3 33.5
t-4.5 24.5t-16.5 9.5q-19 0 -33 -27t-22 -61q-5 -18 -8.5 -38t-3.5 -37.5t4.5 -29t15.5 -11.5zM461 -10q-36 0 -56.5 18.5t-29.5 48.5t-7 68.5t12 79.5q20 82 58 128t103 46q37 0 57.5 -16t29 -43t6 -63t-11.5 -77q-9 -39 -22.5 -74t-32.5 -60.5t-45 -40.5t-61 -15zM477 84
q9 0 17 8.5t15.5 22t14 32t11.5 37.5q5 18 8 36.5t2.5 33.5t-5 24.5t-16.5 9.5q-19 0 -32.5 -27t-22.5 -61q-4 -18 -7.5 -38t-3.5 -37.5t4 -29t15 -11.5z" />
    <glyph glyph-name="ampersand" unicode="&#x26;" horiz-adv-x="600" 
d="M428 -56q-44 0 -78.5 24t-62.5 63q-26 -17 -54 -27.5t-57 -10.5q-51 0 -88 15.5t-61.5 41.5t-36 59.5t-11.5 69.5q0 40 13 79.5t38.5 72t62.5 55t85 28.5v23q0 55 10 105.5t33 88.5t59.5 61t90.5 23q34 0 61.5 -11.5t46.5 -31t29 -44.5t10 -52q0 -20 -6 -40
q-9 -35 -31.5 -65t-55 -54t-72 -41t-83.5 -27q6 -45 19 -89t32 -80q15 15 24 34.5t9 43.5q0 10 -5 16.5t-19 6.5q-2 10 -2 15q0 15 8 29t21 24t29 16t31 6q32 0 60 -6t52 -6q16 0 30.5 5.5t26.5 19.5q16 -19 16 -45q0 -18 -7.5 -36.5t-21 -33.5t-31 -24.5t-37.5 -9.5
q-16 0 -28.5 6.5t-23 16t-20 19t-19.5 15.5q8 -19 8 -41q0 -31 -13.5 -66.5t-37.5 -70.5q30 -24 61 -24q32 0 56 20t24 49q0 6 -1 9q35 -20 44.5 -45.5t9.5 -48.5q0 -45 -19 -71t-43 -39t-46.5 -16.5t-28.5 -3.5zM265 418q27 9 47 23.5t33.5 31.5t20 35t6.5 33q0 19 -9.5 28
t-23.5 9q-18 0 -36 -14.5t-26 -43.5q-14 -45 -12 -102zM233 139q-17 47 -28.5 96t-18.5 94q-29 -17 -43.5 -46.5t-14.5 -63.5q0 -23 9 -39.5t23.5 -26t33.5 -13t39 -1.5z" />
    <glyph glyph-name="quotesingle" unicode="'" horiz-adv-x="140" 
d="M143 774q2 11 10.5 18.5t19.5 7.5h71q16 0 20 -13t-1 -27l-78 -244h-76z" />
    <glyph glyph-name="parenleft" unicode="(" horiz-adv-x="296" 
d="M183 -91q-25 0 -47 28.5t-38 73.5t-25 100.5t-9 109.5q0 46 6 93t19 94q18 69 51.5 138t75.5 124t89 89t92 34q15 0 24.5 -8t6.5 -25q-59 -30 -106 -87t-80 -130t-52 -156t-23 -165.5t7.5 -159t39.5 -134.5q-15 -19 -31 -19z" />
    <glyph glyph-name="parenright" unicode=")" horiz-adv-x="306" 
d="M174 794q26 0 47.5 -28.5t37.5 -73.5t25 -100.5t9 -109.5q0 -46 -6 -93t-19 -94q-18 -69 -51.5 -138t-75.5 -124t-89 -89t-92 -34q-15 0 -24.5 8t-6.5 25q59 30 106 87t80 130t52 156t23 165.5t-7.5 159t-39.5 134.5q15 19 31 19z" />
    <glyph glyph-name="asterisk" unicode="*" horiz-adv-x="600" 
d="M237 338q-19 0 -35 12.5t-16 36.5q0 16 5 29t11.5 25.5t14.5 26.5t14 33q-15 -12 -25.5 -23t-19.5 -21.5t-18.5 -19t-23.5 -15.5q-10 -5 -23 -5q-21 0 -35 16.5t-14 36.5q0 13 7 24.5t22 18.5q14 6 26.5 7.5t26.5 2t29.5 1.5t34.5 5q-18 7 -33 10.5t-28.5 6.5t-26 7
t-24.5 12t-17 18.5t-5 21.5q0 20 15 36.5t35 16.5q16 0 30 -10q12 -9 20 -19t15 -22t15 -25t21 -27q-3 19 -7.5 33.5t-8.5 27.5t-6.5 26t-1.5 28q2 23 17 34t32 11q20 0 35.5 -12.5t15.5 -36.5q0 -16 -4.5 -29t-11.5 -25.5t-15 -26.5t-14 -33q15 12 25.5 23t20 21.5t19.5 19
t23 15.5q10 5 22 5q22 0 36 -16.5t14 -36.5q0 -13 -7 -25t-23 -19q-13 -6 -26 -7.5t-27 -2t-29.5 -1t-33.5 -4.5q17 -7 32.5 -10t29 -6t26 -7t24.5 -13q11 -8 16.5 -18.5t5.5 -21.5q0 -20 -15 -36.5t-36 -16.5q-7 0 -14.5 2t-15.5 8q-12 9 -20 19t-15 22t-15 25t-21 27
q3 -19 7.5 -33.5t9 -27.5t7.5 -26t1 -28q-2 -23 -17 -34t-33 -11z" />
    <glyph glyph-name="plus" unicode="+" horiz-adv-x="622" 
d="M242 223h-219l32 122h220l57 214h122l-57 -214h220l-33 -122h-220l-59 -223h-122z" />
    <glyph glyph-name="comma" unicode="," horiz-adv-x="243" 
d="M0 -151q-14 0 -19 7.5t-2 16.5q2 8 9 14t17 14.5t22 21t24 33.5q5 8 8.5 17t8.5 20h-6q-16 0 -28 8.5t-19.5 22.5t-9.5 31.5t3 36.5q9 34 33 52t54 18q42 0 63 -33t8 -90q-8 -34 -27.5 -68.5t-43.5 -61.5t-49.5 -43.5t-45.5 -16.5z" />
    <glyph glyph-name="hyphen" unicode="-" horiz-adv-x="472" 
d="M82 295q11 40 41.5 64t72.5 24h242l-17 -62q-11 -40 -41.5 -64t-72.5 -24h-242z" />
    <glyph glyph-name="period" unicode="." horiz-adv-x="241" 
d="M84 -7q-21 0 -37 8t-26.5 21.5t-14 31.5t1.5 38q9 34 33 52t54 18q21 0 37 -8.5t26 -22t14 -31t-1 -36.5q-7 -28 -29.5 -49.5t-57.5 -21.5z" />
    <glyph glyph-name="slash" unicode="/" horiz-adv-x="300" 
d="M288 773q8 21 30 21h68l-325 -883q-8 -21 -30 -21h-68z" />
    <glyph glyph-name="zero" unicode="0" horiz-adv-x="519" 
d="M216 -22q-47 0 -80 17.5t-54 48.5t-30.5 72.5t-9.5 90.5q0 59 10 121t29 120.5t47 111t64 92t79.5 62.5t94.5 23q48 0 81.5 -15.5t55 -44.5t31 -70t9.5 -92q0 -117 -24.5 -215.5t-68.5 -170t-103.5 -111.5t-130.5 -40zM244 158q19 0 37 15.5t34 42.5t29.5 62t22.5 74
t17 79.5t8 74.5q0 44 -10.5 70t-37.5 26q-22 0 -40.5 -19t-34 -49.5t-28.5 -68.5t-23 -76q-9 -33 -15 -73t-5 -75.5t11.5 -59t34.5 -23.5z" />
    <glyph glyph-name="one" unicode="1" horiz-adv-x="310" 
d="M152 -7q-29 0 -46.5 12.5t-25 33.5t-6 49t9.5 58l70 262q6 22 12.5 44t14.5 44q-15 -14 -33.5 -23.5t-39.5 -9.5q-32 0 -48 20.5t-16 46.5q0 22 11 43.5t34 33.5q14 -13 38 -13q19 0 39.5 9t38 25t28.5 39.5t10 51.5q14 5 27.5 8t30.5 3q39 0 55.5 -22.5t16.5 -55.5
q0 -26 -7 -50l-114 -414q-8 -28 -6 -44.5t25 -16.5v-12q0 -31 -12 -54t-29.5 -38t-38.5 -22.5t-39 -7.5z" />
    <glyph glyph-name="two" unicode="2" horiz-adv-x="490" 
d="M57 -7q-30 0 -48.5 19.5t-18.5 63.5q0 62 29.5 109.5t73.5 86t95 70.5t95 64.5t73.5 67.5t29.5 79q0 74 -77 74q-33 0 -49 -19t-16 -40q0 -17 10 -30t29 -13q14 0 24 7q-1 -27 -10 -47t-23.5 -33.5t-33 -20.5t-37.5 -7q-20 0 -39 7.5t-34 22t-24 36t-9 50.5
q0 39 15.5 74.5t45.5 63t74.5 43.5t102.5 16q55 0 93 -13.5t62 -36.5t34.5 -53.5t10.5 -63.5q0 -56 -22 -99.5t-57 -78t-77.5 -63t-84.5 -54.5t-77.5 -52t-56.5 -57q26 -1 51.5 -8t54.5 -7q19 0 32 6.5t20 16.5t8.5 21t-3.5 21q26 20 63 20q38 0 57 -24t19 -59
q0 -26 -11 -54.5t-33.5 -52t-56 -38.5t-78.5 -15q-22 0 -43.5 6.5t-42 15t-38.5 15t-35 6.5q-21 0 -26.5 -11.5t-1.5 -24.5q-14 -7 -39 -7z" />
    <glyph glyph-name="three" unicode="3" horiz-adv-x="480" 
d="M195 -22q-45 0 -81 14.5t-61 39.5t-38.5 58t-13.5 69q0 33 10 62t28.5 50.5t44.5 34t58 12.5q43 0 66 -22t23 -51v-6.5t-1 -6.5q-5 8 -12.5 11t-16.5 3q-24 0 -36 -14t-12 -33q0 -22 16.5 -41.5t50.5 -19.5q26 0 46 9.5t33.5 25t20.5 35.5t7 41q0 39 -25.5 64.5
t-73.5 23.5l14 48q33 0 59.5 17.5t45 43.5t29 55t10.5 51q0 74 -77 74q-33 0 -49 -19t-16 -40q0 -17 10 -30t29 -13q14 0 24 7q-1 -27 -10 -47t-23.5 -33.5t-33 -20.5t-37.5 -7q-20 0 -39 7.5t-34 22t-24 36t-9 50.5q0 39 15.5 75t45.5 63t74.5 43.5t102.5 16.5
q94 0 144 -42t50 -114q0 -37 -11 -72t-31 -65t-47.5 -52t-59.5 -32q39 -20 57 -56t18 -84q0 -45 -19 -88.5t-53 -77.5t-82 -55t-106 -21z" />
    <glyph glyph-name="four" unicode="4" horiz-adv-x="511" 
d="M305 -17q-29 0 -46.5 12.5t-25 33.5t-6 49t9.5 58l14 51l21 77q-29 5 -60 9t-63 4q-57 0 -86.5 -12.5t-41.5 -29.5q-7 8 -11 18.5t-4 27.5q0 34 26 71t57 74.5t57 73.5t26 67q0 24 -13.5 36.5t-30.5 12.5q-9 0 -17 -3q-4 12 -4 27q0 18 7 34t20 28.5t31.5 20t41.5 7.5
q51 0 78 -33t27 -82q0 -29 -13 -64t-34 -70.5t-47.5 -68.5t-53.5 -57q39 12 95 12q9 0 18.5 -1t20.5 -3l47 168q11 39 27 75t38 63.5t51 44t66 16.5q33 0 51.5 -16.5t18.5 -39.5q0 -8 -1 -12q-19 -7 -34 -21.5t-26 -32.5t-19 -38t-13 -39l-56 -195q32 2 52.5 11.5t34.5 20.5
q15 -18 15 -42q0 -15 -7 -30.5t-22 -28t-37 -20.5t-52 -8h-10l-14 -51q-10 -35 -8.5 -53t24.5 -18v-12q0 -31 -12 -54t-29.5 -38.5t-38.5 -22.5t-39 -7z" />
    <glyph glyph-name="five" unicode="5" horiz-adv-x="453" 
d="M195 -22q-45 0 -81 14.5t-61 39t-38.5 57.5t-13.5 69q0 33 10 62t28.5 50.5t44.5 34t58 12.5q43 0 66 -22t23 -51v-6.5t-1 -6.5q-5 8 -12.5 11t-16.5 3q-24 0 -36 -14t-12 -33q0 -22 16.5 -41.5t50.5 -19.5q26 0 46 11.5t33.5 31.5t20.5 46.5t7 55.5q0 53 -30.5 80.5
t-79.5 27.5q-34 0 -60 -11.5t-33 -25.5l-46 53l81 203q18 46 26 71t8 40q0 6 -2 14q23 -1 41 -10.5t26 -27.5q11 11 28.5 18t46.5 7q19 0 35.5 -4t32 -8.5t31 -8.5t32.5 -4q23 0 40 7t28 18q11 -12 16 -27.5t5 -32.5q0 -24 -9 -48.5t-25.5 -44t-40.5 -32t-53 -12.5
q-25 0 -48 7t-45.5 16t-45.5 17t-48 9l-53 -117q38 11 73 11q94 0 145.5 -54t51.5 -146q0 -57 -19 -109.5t-53 -92.5t-82 -63.5t-106 -23.5z" />
    <glyph glyph-name="six" unicode="6" horiz-adv-x="495" 
d="M230 -22q-49 0 -84 20t-57 55t-32 83.5t-10 105.5q0 61 10 121t29.5 115t47.5 102.5t64.5 82t80.5 54.5t94 20q43 0 74 -12.5t50.5 -32.5t28.5 -45t9 -50q0 -21 -6 -40t-16.5 -34t-26 -23.5t-35.5 -8.5q-29 0 -56 16q11 8 16.5 20t5.5 25q0 21 -14.5 39t-40.5 18
q-21 0 -43.5 -14t-42 -41t-34.5 -65.5t-23 -86.5q26 39 57 53.5t60 14.5q65 0 102 -50t37 -140q0 -63 -17.5 -118t-50 -96t-77.5 -64.5t-100 -23.5zM238 116q34 0 57 30.5t34 72.5q8 32 8 59q0 33 -13 55.5t-42 22.5q-35 0 -59 -26.5t-33 -61.5q-7 -24 -7 -51
q0 -18 3.5 -36.5t10.5 -32.5t17.5 -23t23.5 -9z" />
    <glyph glyph-name="seven" unicode="7" horiz-adv-x="471" 
d="M192 -12q-51 0 -80 28.5t-29 86.5q0 75 32 146t82.5 134t113 117t123.5 96q-44 -24 -77 -30t-59 -4.5t-47.5 7t-41.5 5.5t-35 -10t-27 -38l-43 1l63 203h27l-16 -35q21 20 40.5 27.5t39.5 7.5q22 0 43 -6t43 -13t45.5 -13t51.5 -6q50 0 85 6.5t49 26.5q23 -20 23 -47
q0 -25 -23.5 -56.5t-58.5 -68t-76 -78t-76 -87.5t-58.5 -96.5t-23.5 -103.5q0 -35 15.5 -48.5t44.5 0.5q2 -28 -7 -55.5t-28.5 -49t-48 -34.5t-66.5 -13z" />
    <glyph glyph-name="eight" unicode="8" horiz-adv-x="488" 
d="M222 -22q-50 0 -88.5 16t-65 43.5t-40.5 64.5t-14 78q0 38 12.5 73.5t35 65.5t54.5 51.5t71 30.5q-25 29 -41 67.5t-16 78.5q0 44 16 79.5t44 60t67 37.5t85 13q41 0 74 -12.5t56 -34.5t35 -51t12 -61q0 -23 -7 -52.5t-24.5 -57.5t-48 -51t-78.5 -34q45 -39 71.5 -86.5
t26.5 -103.5q0 -51 -17.5 -90.5t-49 -67.5t-75 -42.5t-95.5 -14.5zM321 416q23 21 42 48.5t19 59.5t-15.5 52.5t-48.5 20.5q-32 0 -48 -23t-16 -54q0 -30 20 -56t47 -48zM227 128q23 0 40.5 9.5t29 24.5t17 33.5t5.5 35.5q0 33 -25 65t-57 58q-16 -10 -31 -26t-25.5 -34.5
t-17 -39t-6.5 -40.5q0 -34 19 -60t51 -26z" />
    <glyph glyph-name="nine" unicode="9" horiz-adv-x="529" 
d="M206 -22q-43 0 -74 12.5t-50.5 32.5t-28.5 45t-9 50q0 21 6 40t16.5 34t26.5 23.5t35 8.5q29 0 56 -16q-11 -8 -16.5 -20t-5.5 -25q0 -21 14.5 -39t40.5 -18q21 0 43.5 14t42 41t35 65.5t22.5 86.5q-26 -39 -57 -53.5t-60 -14.5q-33 0 -58.5 14.5t-43.5 40.5t-27.5 61
t-9.5 75q0 57 18 111.5t50 96.5t77.5 67.5t99.5 25.5q51 0 86.5 -17.5t58 -49t33 -75.5t10.5 -98q0 -93 -23 -185.5t-65.5 -167t-104 -120.5t-138.5 -46zM297 359q23 0 41.5 16t31.5 40t20 52.5t7 53.5q0 42 -13 66t-43 24q-24 0 -42.5 -17.5t-31 -43.5t-19 -56.5
t-6.5 -56.5q0 -33 13 -55.5t42 -22.5z" />
    <glyph glyph-name="colon" unicode=":" horiz-adv-x="244" 
d="M180 338q-21 0 -37 8t-26.5 21.5t-14 31.5t1.5 38q9 34 33 52t54 18q21 0 37 -8.5t26 -22t14 -31t-1 -36.5q-7 -28 -29.5 -49.5t-57.5 -21.5zM84 -7q-21 0 -37 8t-26.5 21.5t-14 31.5t1.5 38q9 34 33 52t54 18q21 0 37 -8.5t26 -22t14 -31t-1 -36.5q-7 -28 -29.5 -49.5
t-57.5 -21.5z" />
    <glyph glyph-name="semicolon" unicode=";" horiz-adv-x="244" 
d="M180 338q-21 0 -37 8t-26.5 21.5t-14 31.5t1.5 38q9 34 33 52t54 18q21 0 37 -8.5t26 -22t14 -31t-1 -36.5q-7 -28 -29.5 -49.5t-57.5 -21.5zM0 -151q-14 0 -19 7.5t-2 16.5q2 8 9 14t17 14.5t22 21t24 33.5q5 8 8.5 17t8.5 20h-6q-16 0 -28 8.5t-19.5 22.5t-9.5 31.5
t3 36.5q9 34 33 52t54 18q42 0 63 -33t8 -90q-8 -34 -27.5 -68.5t-43.5 -61.5t-49.5 -43.5t-45.5 -16.5z" />
    <glyph glyph-name="less" unicode="&#x3c;" horiz-adv-x="582" 
d="M28 243l33 122l576 202l-33 -122l-401 -141l326 -140l-33 -122z" />
    <glyph glyph-name="equal" unicode="=" horiz-adv-x="582" 
d="M71 477h562l-33 -122h-562zM11 254h562l-33 -122h-561z" />
    <glyph glyph-name="greater" unicode="&#x3e;" horiz-adv-x="582" 
d="M7 164l401 140l-326 141l33 122l468 -202l-33 -122l-576 -201z" />
    <glyph glyph-name="question" unicode="?" horiz-adv-x="460" 
d="M217 187q-17 0 -31 8t-23 20.5t-12 29.5t2 35q11 41 37.5 66t56.5 48t57 50.5t39 72.5q9 37 -5 60t-40 23q-30 0 -42.5 -16t-12.5 -33t6 -30t17 -13q7 0 10 1q-5 -39 -31 -59t-52 -20q-36 0 -60 13.5t-37 35.5t-14.5 50t5.5 56q17 63 72 99t140 36q60 0 103 -16.5
t68.5 -44t33.5 -64.5t-3 -78q-10 -40 -32 -69t-49 -50.5t-56 -38t-54 -32t-43 -31.5t-23 -38q-2 -10 1 -17.5t9 -11.5t14 -4.5t15 3.5l3 -6q-9 -14 -26 -24.5t-43 -10.5zM193 -7q-21 0 -37 8t-26.5 21.5t-14 31.5t1.5 38q9 34 33 52t54 18q21 0 37 -8.5t26 -22t14 -31
t-1 -36.5q-7 -28 -29.5 -49.5t-57.5 -21.5z" />
    <glyph glyph-name="at" unicode="@" horiz-adv-x="749" 
d="M467 -120q-77 -37 -146 -43.5t-126 12t-99 60t-66 100t-27 132t19 155.5q20 74 57 139.5t90 115t123 78.5t156 29q96 0 160.5 -36.5t100 -96.5t41.5 -136.5t-16 -156.5q-35 -118 -93.5 -178.5t-147.5 -60.5q-27 0 -50.5 10t-40.5 27.5t-26 41t-7 50.5q-33 -67 -70.5 -98
t-76.5 -31q-68 0 -80 66t21 193l10 36q31 115 77 167t107 52q41 0 62 -17.5t29 -49.5q17 24 46.5 42t67.5 18q27 0 34.5 -19t1.5 -40l-57 -213q-14 -53 -5 -81.5t40 -28.5q35 0 55.5 27.5t39.5 84.5q19 71 16 139t-29.5 121t-78 85.5t-131.5 32.5q-73 0 -133 -24.5
t-106.5 -66t-78 -96.5t-48.5 -117q-19 -71 -17.5 -135t19.5 -116.5t52 -90t80.5 -56t103.5 -15.5t121 32zM325 144q17 0 32 22t23 47l38 153q-2 11 -8 17.5t-18 6.5q-7 0 -14.5 -3.5t-15.5 -16t-17.5 -37t-19.5 -65.5l-10 -36q-13 -49 -10 -68.5t20 -19.5z" />
    <glyph glyph-name="A" unicode="A" horiz-adv-x="820" 
d="M175 -30q-45 0 -77.5 14t-53 36.5t-30 50.5t-9.5 57q0 27 8 52.5t23.5 46.5t38 36t51.5 20q1 -22 18.5 -40t50.5 -18q31 0 70 17t82 69q-42 20 -76.5 47t-59.5 59.5t-39 70.5t-14 81q0 33 10 62t29 50.5t46.5 34.5t62.5 13q50 0 74.5 -29.5t32.5 -71.5q-10 0 -20 -4
t-18.5 -12.5t-14 -22.5t-5.5 -35q0 -42 16 -76.5t45 -61.5l2 4l3 6l2 4q56 110 105.5 181.5t98.5 113.5t101.5 58.5t113.5 16.5q50 0 85 -23q7 -5 10.5 -14t-10.5 -20q-23 -17 -41.5 -48t-30.5 -78l-92 -360q-17 -67 -5.5 -98.5t39.5 -31.5q0 -8 -1 -12q-16 -63 -44 -92.5
t-77 -29.5q-75 0 -104.5 52.5t-3.5 146.5l16 60q-57 3 -109 15l-48 -96t-61 -96.5t-81.5 -74.5t-108.5 -30zM694 593q5 17 11.5 33t16.5 33q-31 -13 -58.5 -43.5t-52.5 -71t-47.5 -88t-44.5 -94.5q22 -6 45.5 -9.5t49.5 -4.5z" />
    <glyph glyph-name="B" unicode="B" horiz-adv-x="681" 
d="M142 -27q-39 0 -69 13.5t-50.5 36t-30.5 50.5t-10 58q0 28 9 55t26 48.5t42 35.5t57 17q1 -22 13.5 -40.5t43.5 -18.5q34 0 58.5 24t38.5 78l53 199q14 51 43 75.5t66 24.5q30 0 49.5 -10t24.5 -24q-7 -7 -12.5 -18.5t-9.5 -32.5q-5 -22 -11 -47t-14 -52q24 1 44.5 11.5
t35.5 28.5t23.5 41.5t8.5 48.5q0 24 -9 44.5t-30 36t-54.5 24.5t-82.5 9q-54 0 -91.5 -15t-60 -37.5t-32.5 -49t-8.5 -49t12 -37.5t28.5 -15q12 0 21 6q8 -31 3 -61t-21 -53.5t-42 -38t-60 -14.5q-33 0 -59 13t-43.5 35t-26.5 51.5t-9 63.5q0 53 23.5 110.5t72.5 105
t125 78.5t181 31q76 0 131.5 -18t92 -48t54.5 -69.5t18 -81.5q0 -63 -32.5 -113.5t-90.5 -75.5q44 -23 67.5 -63.5t23.5 -95.5q0 -36 -10 -75q-10 -38 -29.5 -72.5t-48 -60.5t-66 -41.5t-82.5 -15.5q-63 0 -95.5 26t-40.5 64q-14 -23 -33.5 -41.5t-40.5 -31.5t-42.5 -20
t-41.5 -7zM408 159q25 0 44 12.5t32 32t19.5 43t6.5 46.5q0 37 -19 59t-51 27q-8 -26 -14.5 -51t-12.5 -49q-7 -29 -16.5 -58.5t-23.5 -52.5q14 -9 35 -9z" />
    <glyph glyph-name="C" unicode="C" horiz-adv-x="630" 
d="M380 -30q-58 0 -102.5 20.5t-75 57.5t-46 87.5t-15.5 111.5q0 75 19.5 153t55.5 149q-12 2 -23 3.5t-22 1.5q-32 0 -54.5 -8.5t-37 -22.5t-21 -32t-6.5 -37q0 -31 18 -47t40 -16q15 0 28 8q-1 -39 -14 -68t-33 -47.5t-45.5 -27.5t-52.5 -9q-33 0 -61.5 12.5t-49.5 35
t-33 52.5t-12 66q0 50 22 95.5t61.5 80t95.5 55.5t123 21q44 0 76.5 -6t58.5 -16q53 70 121 113.5t149 43.5q40 0 71 -11.5t52.5 -30.5t32.5 -44.5t11 -52.5q0 -40 -20 -74.5t-53 -59.5t-76.5 -39t-90.5 -14q-31 0 -56 4t-47 10q-20 -51 -31 -101.5t-11 -88.5
q0 -122 82 -122q24 0 42 14.5t28.5 35.5t12.5 46t-4 46q5 1 8.5 1h7.5q25 0 44 -10t32 -27.5t19.5 -41t6.5 -50.5q0 -47 -18.5 -87.5t-49.5 -70t-72 -46t-85 -16.5zM464 570q22 0 42 4.5t35.5 12.5t24.5 20.5t9 27.5t-12.5 25t-32.5 10q-33 0 -63 -26t-55 -68q24 -6 52 -6z
" />
    <glyph glyph-name="D" unicode="D" horiz-adv-x="714" 
d="M172 -17q-39 0 -69 13.5t-50.5 36t-30.5 50.5t-10 58q0 28 9 55t26 48.5t42 35.5t57 17q1 -22 13.5 -40.5t43.5 -18.5q34 0 58.5 24t38.5 78l53 199q14 51 43 75.5t66 24.5q30 0 49.5 -10t24.5 -24q-7 -7 -12.5 -18.5t-9.5 -32.5q-11 -56 -32.5 -126.5t-38.5 -138.5
q-8 -32 -16.5 -59.5t-18.5 -52.5q14 -8 30 -8q23 0 43.5 17.5t37.5 46.5t30 66t22.5 76t14.5 76.5t5 66.5q0 86 -40 133.5t-126 47.5q-51 0 -87 -15t-59 -37.5t-33.5 -48.5t-10.5 -49t10 -38t28 -15q12 0 21 6q8 -31 3 -61t-21 -53.5t-42 -38t-60 -14.5q-33 0 -59 13
t-43.5 35t-26.5 51.5t-9 63.5q0 53 23.5 110.5t72.5 105t125 78.5t181 31q70 0 126.5 -23t96.5 -67.5t62 -109t22 -147.5q0 -103 -21 -191.5t-58.5 -153t-88.5 -101.5t-111 -37q-38 0 -61.5 10t-36.5 26.5t-17.5 39t-4.5 47.5q-12 -31 -32 -55.5t-44 -41.5t-49.5 -26.5
t-48.5 -9.5z" />
    <glyph glyph-name="E" unicode="E" horiz-adv-x="498" 
d="M252 -27q-62 0 -110.5 24t-78 65t-38 94.5t7.5 113.5q22 72 81 118t139 60q-38 20 -54 64t-11 94q-18 5 -37 5q-41 0 -60 -20.5t-14 -52.5q4 -24 19 -35.5t32 -11.5q12 0 20 4q-4 -21 -16 -37.5t-29 -28t-38 -18t-42 -6.5q-30 0 -54 11t-41 30.5t-26 45.5t-9 57
q0 36 13.5 69t38 57.5t60 39.5t79.5 15q45 0 77 -9.5t57 -24.5q29 49 84.5 83.5t139.5 34.5q38 0 66 -11t46.5 -29.5t27.5 -42t9 -49.5q0 -28 -10.5 -55t-31 -49t-51 -35.5t-70.5 -13.5q-58 0 -103 20q0 -26 6.5 -48.5t22.5 -36.5q17 5 37.5 9t41.5 4q33 0 46.5 -15.5
t6.5 -37.5q-7 -23 -30 -41t-71 -18q-20 0 -38 6.5t-32 18.5q-36 -12 -54.5 -37t-26.5 -51q-7 -24 -7 -46t8.5 -39.5t24.5 -27.5t40 -10q23 0 39.5 11t26.5 27.5t12 36t-5 36.5q5 2 10 2h9q37 0 64.5 -26.5t27.5 -77.5q0 -39 -15.5 -77.5t-45.5 -69t-73 -49.5t-98 -19z
M417 614q23 0 38.5 12.5t19 27.5t-7 27.5t-39.5 12.5q-28 0 -50.5 -15.5t-35.5 -45.5q36 -19 75 -19z" />
    <glyph glyph-name="F" unicode="F" horiz-adv-x="558" 
d="M168 -30q-39 0 -70 13.5t-52 36t-32.5 50.5t-13.5 58q-2 28 6 55t24 48.5t40 35.5t56 17q2 -22 15.5 -40.5t44.5 -18.5q34 0 60.5 27.5t37.5 87.5l3 16q-22 -1 -43.5 -4.5t-41.5 -11.5q-8 13 -9 31t6.5 34t24.5 27t45 11h17.5t16.5 1l3 19q12 68 34 120.5t51 91.5
q-26 10 -53.5 17.5t-61.5 7.5q-32 0 -54.5 -8.5t-37 -22.5t-21 -32t-6.5 -37q0 -31 18 -47t40 -16q15 0 28 8q-1 -39 -14 -68t-33 -47.5t-45.5 -27.5t-52.5 -9q-33 0 -61.5 12.5t-49.5 35t-33 52.5t-12 66q0 50 22 95.5t61.5 80t95.5 55.5t123 21q46 0 78.5 -6t57.5 -15
t45.5 -19.5t41.5 -19.5q44 32 91.5 46t95.5 14q36 0 59.5 -7.5t38 -19.5t20.5 -27.5t6 -30.5q0 -48 -43 -77t-115 -29q-48 0 -107 13q-13 -29 -24.5 -69t-22.5 -91l-3 -15q20 3 31 8.5t17 11t9.5 9.5t8.5 4q14 0 22 -11t10.5 -27t-2.5 -35t-16.5 -35t-31.5 -27t-48 -11h-11
t-12 1l-11 -57q-33 -165 -97.5 -242t-163.5 -77zM647 725q17 0 27.5 5.5t10.5 12.5q0 13 -34 13q-17 0 -36 -5.5t-39 -22.5q20 -2 39 -2.5t32 -0.5z" />
    <glyph glyph-name="G" unicode="G" horiz-adv-x="652" 
d="M264 -223q-53 0 -91 15.5t-62.5 41t-36 57t-11.5 64.5q0 26 6.5 50.5t19 45t31 35t41.5 20.5q2 -49 37 -80t98 -31q35 0 64.5 12.5t52.5 32.5t39 45.5t23 51.5h-4q-23 -31 -51 -46.5t-70 -15.5q-35 0 -64 14.5t-50 41t-33 64.5t-12 86q0 28 5 60t13.5 65t19 64.5
t21.5 58.5q-10 2 -19.5 3t-19.5 2q-30 2 -53 -6.5t-38 -23t-22 -33t-6 -37.5q0 -31 18 -47t40 -16q15 0 28 8q-1 -39 -14 -68t-33 -47.5t-45.5 -27.5t-52.5 -9q-33 0 -61.5 12.5t-49.5 35t-33 52.5t-12 66q0 50 22 97t63 83t99 56t130 16q31 -2 56.5 -8t48.5 -15
q21 36 49 68t63.5 56.5t79 39t96.5 14.5q43 0 74.5 -10.5t52 -29t30.5 -44t10 -54.5q0 -48 -18.5 -88t-50.5 -69t-76 -45t-95 -16q-35 0 -63 6t-51 15q-10 -29 -17.5 -65t-7.5 -63q0 -48 18.5 -65.5t41.5 -17.5q33 0 53.5 28t32.5 72l1 4q11 41 35.5 55t55.5 14
q28 0 45.5 -10t22.5 -25q-6 -7 -12 -18.5t-11 -31.5q-4 -18 -13 -50.5t-20 -73t-23.5 -85t-23.5 -87.5q-16 -57 -44 -106t-67 -85.5t-89 -57t-111 -20.5zM504 550q23 0 43 6.5t35 17.5t23.5 26t8.5 33q0 17 -12 27t-32 10q-37 0 -70.5 -31t-60.5 -79q15 -5 31 -7.5t34 -2.5z
" />
    <glyph glyph-name="H" unicode="H" horiz-adv-x="767" 
d="M195 -30q-45 0 -77.5 14t-53 36.5t-30 50.5t-9.5 57q0 27 8 52.5t23.5 46.5t38 36t51.5 20q1 -22 18.5 -40t50.5 -18q21 0 36.5 8.5t27.5 23t19.5 33t11.5 38.5q11 40 23.5 88t27 95t31 87.5t34.5 64.5q-8 -1 -15.5 -1.5t-14.5 -0.5q-23 0 -40 2.5t-33 2.5
q-28 0 -48.5 -8t-34 -20.5t-20.5 -28.5t-7 -33q0 -29 14 -47t39 -18q16 0 30 8q1 -5 1 -9v-9q0 -59 -38 -97t-107 -38q-37 0 -66 14.5t-48 39t-29 57t-10 67.5q0 44 15.5 88.5t47 80.5t79.5 58.5t113 22.5q33 0 71.5 -6t73 -12.5t62 -12.5t39.5 -6t22 0.5t21.5 2t25.5 4
t35 7.5l9 -26q-6 -11 -16.5 -34.5t-22 -50.5t-21 -54t-14.5 -45q-5 -17 -11.5 -42t-15.5 -57q10 1 19.5 1h18.5h22.5t21.5 -2l37 138q30 120 83 173t122 53q57 0 86.5 -30t29.5 -71q0 -31 -16 -60q-8 2 -16 3t-16 1q-42 0 -71.5 -27.5t-43.5 -79.5q-5 -18 -13.5 -52
t-19 -75.5t-22.5 -87.5t-23 -89q-9 -39 -9 -66q0 -32 11.5 -48t31.5 -16q0 -8 -1 -12q-14 -63 -43 -92.5t-78 -29.5q-57 0 -84.5 34.5t-27.5 89.5q0 16 2 30.5t8 38t16 60.5t26 97q-20 0 -42 -2t-43 -6l-12 -46q-12 -51 -31.5 -107t-51 -103.5t-77.5 -78t-111 -30.5z" />
    <glyph glyph-name="I" unicode="I" horiz-adv-x="493" 
d="M195 -30q-45 0 -77.5 14t-53 36.5t-30 50.5t-9.5 57q0 27 8 52.5t23.5 46.5t38 36t51.5 20q3 -23 20 -40.5t49 -17.5q21 0 36.5 8.5t27.5 23t19.5 33t11.5 38.5q11 40 23.5 88t27 95t31 87.5t34.5 64.5q-8 -1 -15.5 -1.5t-14.5 -0.5q-23 0 -40 2.5t-33 2.5
q-28 0 -48.5 -8t-34 -20.5t-20.5 -28.5t-7 -33q0 -29 14 -47t39 -18q16 0 30 8q1 -5 1 -9v-9q0 -59 -38 -97t-107 -38q-37 0 -66 14.5t-48 39t-29 57t-10 67.5q0 44 15.5 88.5t47 80.5t79.5 58.5t113 22.5q50 0 84 -5.5t61 -12.5t51.5 -12.5t55.5 -5.5q20 0 43.5 2.5
t54.5 10.5l9 -26q-6 -11 -16.5 -34.5t-22 -50.5t-21 -54t-14.5 -45t-12.5 -47t-17.5 -64.5t-21 -76.5t-22 -84q-12 -51 -31.5 -107t-51 -103.5t-77.5 -78t-111 -30.5z" />
    <glyph glyph-name="J" unicode="J" horiz-adv-x="490" 
d="M125 -142q-47 0 -84.5 14t-63 38t-39 56t-13.5 69q0 28 8 57t24 53t40 40.5t55 19.5q1 -37 21.5 -64.5t71.5 -27.5q111 0 149 143q11 42 25.5 100t32 117t37 111t39.5 80q-10 -2 -18.5 -2h-16.5q-21 0 -37.5 2t-32.5 2q-28 0 -48.5 -8t-34 -20.5t-20.5 -28.5t-7 -33
q0 -29 14 -47t39 -18q16 0 30 8q1 -5 1 -9v-9q0 -59 -38 -97t-107 -38q-37 0 -66 14.5t-48 39t-29 57t-10 67.5q0 44 15.5 88.5t47 80.5t79.5 58.5t113 22.5q33 0 71.5 -6t73 -12.5t62 -12.5t39.5 -6t22 0.5t21.5 2t25.5 4t35 7.5l9 -26q-6 -11 -16.5 -34.5t-22 -50.5
t-21 -54t-14.5 -45t-15.5 -58t-23.5 -89t-26.5 -101.5t-23.5 -95.5q-14 -58 -37 -121t-61 -116t-93.5 -87.5t-133.5 -34.5z" />
    <glyph glyph-name="K" unicode="K" horiz-adv-x="723" 
d="M195 -30q-45 0 -77.5 14t-53 36.5t-30 50.5t-9.5 57q0 27 8 52.5t23.5 46.5t38 36t51.5 20q3 -23 20 -40.5t49 -17.5q21 0 36.5 9t26.5 23t19 33t13 38q10 40 22.5 88t27 95t31 87.5t35.5 64.5q-8 -1 -15.5 -1.5t-14.5 -0.5q-23 0 -40 2.5t-33 2.5q-28 0 -48.5 -8
t-34 -20.5t-20.5 -28.5t-7 -33q0 -29 14 -47t39 -18q16 0 30 8q1 -5 1 -9v-9q0 -59 -38 -97t-107 -38q-37 0 -66 14.5t-48 39t-29 57t-10 67.5q0 44 15.5 88.5t47 80.5t79.5 58.5t113 22.5q33 0 71.5 -6t73 -12.5t62 -12.5t39.5 -6t22 0.5t21.5 2t25.5 4t35 7.5l9 -26
q-6 -11 -16.5 -34.5t-22 -50.5t-21 -54t-14.5 -45q-6 -22 -16 -56.5t-22 -79.5q19 1 33.5 11.5t28 30t27 48.5t31.5 68q24 55 44 99.5t43.5 76t55.5 48.5t80 17q56 0 80.5 -28.5t24.5 -65.5q0 -43 -26 -77q-11 13 -27.5 19t-32.5 6q-25 0 -44 -13.5t-33 -35.5t-25 -49
l-22 -54q-21 -48 -53.5 -90.5t-77.5 -59.5q28 -15 47 -44t15 -79q-2 -14 -2 -26.5v-23.5q0 -40 9.5 -59t33.5 -15q-3 -22 -12 -46t-25.5 -44t-40.5 -33t-59 -13q-41 0 -62 30t-21 81q0 28 5.5 53t12 49t12 47.5t5.5 47.5q0 50 -43 56q-5 -17 -9 -34l-8 -34
q-12 -51 -31.5 -107t-51 -103.5t-77.5 -78t-111 -30.5z" />
    <glyph glyph-name="L" unicode="L" horiz-adv-x="610" 
d="M63 -30q-64 0 -94 28t-30 64q0 21 10.5 43t30.5 39t48.5 28t65.5 11q38 0 76 -8q10 30 22 70.5l28 94.5l3 10q-45 12 -84.5 32.5t-69 48t-46 62.5t-16.5 75q0 33 10 62t29 50.5t46.5 34.5t62.5 13q50 0 74.5 -29.5t32.5 -71.5q-10 0 -20 -4t-18.5 -12.5t-14 -22.5
t-5.5 -35q0 -60 51 -94l41 138q11 38 32 74.5t50.5 65t67 46t82.5 17.5q70 0 107 -41.5t37 -110.5q0 -62 -21 -116t-58.5 -95.5t-90 -68t-115.5 -32.5l-14 -47q-11 -43 -25 -79t-31 -67q8 -1 14.5 -1.5t14.5 -0.5q57 0 84.5 19.5t27.5 43.5q0 18 -12 27q13 11 26 14.5
t26 3.5q44 0 65.5 -30.5t21.5 -72.5q0 -34 -11 -66t-32.5 -56.5t-55 -39t-78.5 -14.5q-51 0 -92.5 22t-77.5 49q-41 -36 -85.5 -53.5t-89.5 -17.5zM416 435q34 6 61.5 24t47 43.5t30 56t10.5 62.5q0 23 -8.5 36t-28.5 13q-41 0 -69 -90zM93 71q16 0 27.5 8t22.5 29
q-26 13 -49 13q-16 0 -24.5 -8t-8.5 -18q0 -9 7.5 -16.5t24.5 -7.5z" />
    <glyph glyph-name="M" unicode="M" horiz-adv-x="924" 
d="M762 -20q-21 0 -41 8.5t-35.5 25.5t-24.5 42t-9 57q0 23 6 57.5t20 84t36.5 117t55.5 155.5h-4q-23 -34 -47 -81.5t-47.5 -99t-48 -102t-48 -90.5t-47.5 -65t-47 -25q-32 0 -26 41q9 62 13 119t5.5 110t1.5 101.5t1 91.5h-2q-8 -33 -17 -68t-16.5 -67t-14 -59t-10.5 -44
q-11 -49 -27.5 -103t-44 -99t-71 -74.5t-108.5 -29.5q-45 0 -77.5 14t-53 36.5t-30 50.5t-9.5 57q0 27 8 52.5t23.5 46.5t38 36t51.5 20q1 -22 18.5 -40t50.5 -18q44 0 68.5 22.5t36.5 67.5q11 41 23.5 88t28.5 92.5t35 86.5t42 69q-26 -2 -52 0t-44 2q-55 0 -82.5 -29
t-27.5 -65q0 -26 14 -43.5t39 -17.5q16 0 30 8q1 -5 1 -9v-9q0 -59 -38 -97t-107 -38q-37 0 -66 14.5t-48 39t-29 57t-10 67.5q0 44 15.5 88.5t47 80.5t79.5 58.5t113 22.5q37 0 73 -5.5t72 -11.5t72.5 -11.5t73.5 -5.5q31 0 53.5 -9t22.5 -38q0 -8 -3 -20
q-12 -48 -17.5 -84t-7.5 -65.5t-1.5 -56t-0.5 -55.5h3q11 32 21.5 59.5t22.5 53.5q38 82 76 132t76 77.5t76 36.5t74 9q15 0 32 -3t31.5 -8.5t23.5 -12.5t9 -16t-11 -17q-48 -34 -72 -126l-92 -360q-9 -42 -9 -71q0 -35 11 -52t29 -17q0 -63 -35.5 -100t-94.5 -37z" />
    <glyph glyph-name="N" unicode="N" horiz-adv-x="770" 
d="M195 -17q-45 0 -77.5 14t-53 36.5t-30 50.5t-9.5 57q0 27 8 52.5t23.5 46.5t38 36t51.5 20q1 -22 18.5 -40t50.5 -18q21 0 37 7.5t27.5 20t19 28.5t11.5 34q10 38 21 85.5t24 94.5t28 88t33 66q-5 -1 -9 -1h-9q-21 0 -39.5 2.5t-35.5 2.5q-28 0 -48.5 -8t-34 -20.5
t-20.5 -28.5t-7 -33q0 -29 14 -47t39 -18q16 0 30 8q1 -5 1 -9v-9q0 -59 -38 -97t-107 -38q-37 0 -66 14.5t-48 39t-29 57t-10 67.5q0 44 15.5 88.5t47 80.5t79.5 58.5t113 22.5q35 0 66.5 -6t59.5 -12.5t52 -12.5t45 -6t40.5 2.5t36.5 2.5q23 0 36.5 -9.5t13.5 -39.5
q0 -14 2.5 -48t6.5 -79t9.5 -97.5t11.5 -103.5h6q5 76 21.5 154t44.5 141.5t68.5 104t94.5 40.5q47 0 72 -25t25 -71q0 -16 -4 -32.5t-13 -32.5q-6 2 -12 2h-11q-51 0 -85 -47.5t-59 -141.5l-58 -220q-13 -49 -13 -82q0 -48 34 -48q0 -8 -1 -12q-14 -63 -43 -92.5t-78 -29.5
h-1q-29 0 -51 23.5t-38 62.5t-26 91t-16 108t-9 113.5t-4 108.5h-3q-8 -65 -18.5 -120t-20.5 -91q-12 -49 -26.5 -103t-40.5 -99t-67.5 -74.5t-106.5 -29.5z" />
    <glyph glyph-name="O" unicode="O" horiz-adv-x="470" 
d="M190 -7q-46 0 -79 16.5t-53.5 44t-30 63t-9.5 73.5q0 54 17 106t46 87q-26 20 -41.5 55t-15.5 79q0 49 17 93.5t50.5 78.5t82.5 54t113 20q104 0 157.5 -60.5t53.5 -175.5q0 -58 -9.5 -120t-27 -121.5t-44 -112.5t-61 -93t-76 -63.5t-90.5 -23.5zM207 186q17 0 33.5 19
t31 49.5t26.5 69t21 77.5t14 75.5t5 62.5q0 79 -59 79q-20 0 -35.5 -7.5t-25.5 -19.5t-15 -27t-5 -30q0 -23 11.5 -39.5t34.5 -16.5q19 0 28 11q2 -29 -10.5 -61t-44.5 -51q-8 -13 -14.5 -30t-11.5 -35.5t-7.5 -37t-2.5 -34.5q0 -23 6 -38.5t20 -15.5z" />
    <glyph glyph-name="P" unicode="P" horiz-adv-x="671" 
d="M163 -17q-39 0 -69 13.5t-50.5 36t-30.5 50.5t-10 58q0 28 9 55t26 48.5t42 35.5t57 17q1 -22 13.5 -40.5t43.5 -18.5q34 0 58.5 24t38.5 78l53 199q14 51 43 75.5t66 24.5q30 0 49.5 -10t24.5 -24q-7 -7 -12.5 -18.5t-9.5 -32.5q-8 -39 -21 -85.5t-27 -95.5q8 -3 16 -3
q23 0 40.5 22t30 54t19 67t6.5 61q0 125 -153 125q-52 0 -89 -14t-60 -36t-33.5 -47t-10.5 -48q0 -25 11 -41.5t30 -16.5q12 0 21 6q2 -10 3.5 -19t1.5 -18q0 -26 -9 -49.5t-25 -41.5t-39 -28.5t-52 -10.5q-33 0 -59 13t-43.5 35t-26.5 51.5t-9 63.5q0 53 23.5 110.5
t72.5 105t125 78.5t181 31q75 0 129.5 -18.5t89.5 -51.5t52 -78t17 -99q0 -57 -14 -114.5t-40.5 -103.5t-65.5 -74.5t-90 -28.5q-28 0 -46.5 5.5t-29.5 16.5q-39 -154 -105 -224t-163 -70z" />
    <glyph glyph-name="Q" unicode="Q" horiz-adv-x="569" 
d="M532 -230q-53 0 -92.5 22.5t-70.5 57t-55.5 76.5t-47.5 82q-64 -25 -132 -25q-40 0 -69.5 11.5t-49.5 30t-30 42t-10 47.5q0 22 8.5 43t26 37.5t43.5 26.5t61 10q53 0 93.5 -18t74.5 -46q30 29 56.5 71t46 89.5t30.5 95t11 86.5q0 45 -16.5 72t-51.5 27
q-27 0 -48.5 -15.5t-36.5 -39t-23.5 -52t-8.5 -54.5q0 -30 14 -46.5t38 -16.5q19 0 32 15q2 -10 2 -17q0 -19 -8.5 -39.5t-25 -38t-40 -29t-54.5 -11.5q-34 0 -60.5 13.5t-45 36.5t-28.5 55.5t-10 69.5q0 70 26 135t71 115.5t105.5 80.5t129.5 30q55 0 96 -19t68 -52
t40.5 -77.5t13.5 -95.5q0 -60 -18 -128.5t-49.5 -134t-73.5 -123.5t-90 -97q23 -25 46 -48.5t48.5 -42t55 -29.5t63.5 -11q28 0 48 5.5t34 13.5q14 -22 14 -54q0 -23 -8 -47t-26 -44t-47 -33t-70 -13zM140 103q13 0 25.5 2t24.5 5q-16 14 -34 22.5t-40 8.5q-13 0 -20.5 -5
t-7.5 -12q0 -8 12 -14.5t40 -6.5z" />
    <glyph glyph-name="R" unicode="R" horiz-adv-x="686" 
d="M156 -17q-39 0 -69 13.5t-50.5 36t-30.5 50.5t-10 58q0 28 9 55t26 48.5t42 35.5t57 17q1 -22 13.5 -40.5t43.5 -18.5q34 0 59.5 24t37.5 78l53 199q14 51 43 75.5t66 24.5q30 0 49.5 -10t24.5 -24q-7 -7 -12.5 -18.5t-9.5 -32.5q-5 -29 -13.5 -61.5t-18.5 -67.5
q26 2 46 17t34 38.5t21.5 51t7.5 52.5q0 53 -36 84t-114 31q-54 0 -92 -15t-61.5 -37.5t-34.5 -48.5t-11 -49t10 -38t28 -15q12 0 21 6q2 -10 3.5 -19t1.5 -18q0 -26 -9 -49.5t-25 -41.5t-39 -28.5t-52 -10.5q-33 0 -59 13t-43.5 35t-26.5 51.5t-9 63.5q0 53 23.5 110.5
t72.5 105t125 78.5t181 31q77 0 134 -19.5t94.5 -52.5t56 -76t18.5 -90q0 -38 -11 -73t-31 -63.5t-48.5 -48t-63.5 -26.5q26 -15 38 -32t15.5 -37.5t2.5 -45.5t-1 -56q0 -40 9.5 -59t33.5 -15q1 -23 -6 -47.5t-23 -44t-41 -32t-60 -12.5q-41 0 -65.5 30t-24.5 81
q0 28 5.5 53t12 49t12 47.5t5.5 47.5q0 52 -45 56q-5 -17 -9.5 -34t-9.5 -34q-40 -160 -106 -233t-165 -73z" />
    <glyph glyph-name="S" unicode="S" horiz-adv-x="550" 
d="M272 -30q-55 0 -99 17.5t-74.5 47.5t-46.5 70t-16 85q0 41 12 76t34.5 61.5t54 41.5t70.5 15q52 0 80.5 -27t28.5 -62v-8t-1 -8q-5 9 -15 13t-21 4q-28 0 -43 -19t-15 -44q0 -29 19.5 -49t52.5 -20q23 0 40.5 9.5t29 25.5t17.5 36.5t6 41.5q0 30 -10.5 53.5t-25.5 44.5
t-33.5 42.5t-33.5 46.5t-25.5 56.5t-10.5 72.5q0 10 1 15q-4 1 -11 1q-34 0 -54.5 -18t-20.5 -41q0 -22 12.5 -32.5t29.5 -10.5q8 0 17 3q-1 -21 -10.5 -37.5t-25 -28.5t-35 -18.5t-40.5 -6.5q-29 0 -51.5 11t-38.5 30t-24 44.5t-8 55.5q0 34 12 64.5t35 53.5t56 36.5
t75 13.5q32 0 59 -7.5t50 -19.5q29 54 82 84.5t123 30.5q41 0 71.5 -10.5t51 -28t31 -40t10.5 -47.5q0 -34 -14 -60.5t-38.5 -45t-57.5 -28.5t-71 -10q-43 0 -77 10q13 -39 38.5 -70.5t51.5 -66t45.5 -76.5t19.5 -102q0 -51 -19.5 -99.5t-54.5 -87t-85 -61.5t-110 -23z
M453 624q29 0 51 11t22 34q0 14 -13 22.5t-39 8.5q-29 0 -56 -14.5t-37 -45.5q38 -16 72 -16z" />
    <glyph glyph-name="T" unicode="T" horiz-adv-x="479" 
d="M182 -27q-39 0 -69 13.5t-50.5 36t-30.5 50.5t-10 58q0 28 9 55t26 48.5t42 35.5t57 17q1 -22 13.5 -40.5t43.5 -18.5q34 0 58.5 24t38.5 78l79 299q16 58 54 83q-27 8 -56 13t-61 5t-54.5 -9.5t-37 -25t-21 -35t-6.5 -40.5q0 -41 18 -62t40 -21q15 0 28 8
q-1 -39 -14 -68t-33 -47.5t-45.5 -27.5t-52.5 -9q-33 0 -61.5 14t-49.5 39t-33 59t-12 74q0 51 22 98.5t61.5 84t95.5 58t123 21.5q53 0 95 -7t77.5 -16t67 -16t63.5 -7q51 0 81.5 17t30.5 46q0 15 -13 28q13 9 27.5 13t29.5 4q44 0 65.5 -26.5t21.5 -61.5q0 -26 -12 -54.5
t-35 -52t-56.5 -39t-77.5 -15.5q-26 0 -51 5.5t-50 13.5q-2 -6 -4 -13t-4 -16q-5 -28 -18 -76t-27.5 -100.5t-29 -103t-22.5 -85.5q-39 -160 -105.5 -233t-165.5 -73z" />
    <glyph glyph-name="U" unicode="U" horiz-adv-x="580" 
d="M136 -7q-52 0 -79 32.5t-27 94.5q0 42 13 96t40 120q10 24 23.5 57t26 68.5t21 71t8.5 65.5q0 36 -16.5 58.5t-58.5 22.5q-19 0 -34 -7.5t-24.5 -19t-14.5 -26.5t-5 -30q0 -28 16 -50t49 -22q6 0 10 1q1 -5 1 -16q0 -28 -10 -50t-26.5 -37t-38 -23t-44.5 -8
q-27 0 -54.5 11t-49.5 34t-35.5 57.5t-13.5 82.5t16 96t49.5 86.5t85 63t123.5 24.5q64 0 109 -14.5t73.5 -42t42 -67t13.5 -89.5q0 -64 -20 -143.5t-55 -173.5q-16 -42 -16 -68q0 -23 9 -33t23 -10q9 0 22 7.5t29.5 31.5t36.5 69.5t43 121.5l56 210q3 12 3 20
q0 16 -5.5 25.5t-5.5 26.5q0 21 20.5 35.5t49 24.5t58 14.5t48.5 4.5q17 0 24 -8t7 -21q0 -4 -0.5 -7.5t-1.5 -8.5q-24 -90 -43 -162t-34.5 -131.5t-28 -108.5t-23.5 -92q-9 -39 -9 -66q0 -32 11.5 -48t31.5 -16q0 -8 -1 -12q-14 -63 -43 -92.5t-78 -29.5q-54 0 -76.5 30.5
t-22.5 80.5q0 20 3.5 42t9.5 46l2 7q-27 -60 -54 -100t-53.5 -63.5t-53 -33t-52.5 -9.5z" />
    <glyph glyph-name="V" unicode="V" horiz-adv-x="459" 
d="M92 -28q-45 0 -74 8.5t-46 22.5q29 37 50.5 87t36.5 104t22.5 106t7.5 93t-6 76.5t-20 62.5t-37 42.5t-58 15.5q-8 0 -16.5 -2.5t-16.5 -10.5q1 62 16 105t38 70t51.5 39t58.5 12q48 0 79.5 -22t50 -58t25.5 -82.5t7 -94.5t-7 -109t-20.5 -120.5t-32.5 -111t-42 -81.5
q60 19 106 112t86 244q20 73 40.5 144t51 127t74.5 90.5t110 34.5q33 0 58 -11.5t41 -31t24 -44.5t8 -52q0 -26 -6.5 -51.5t-20.5 -48.5q-14 9 -25.5 11.5t-24.5 2.5q-45 0 -77 -23t-56 -61.5t-43 -89t-38 -106.5q-23 -70 -50.5 -141t-69.5 -128.5t-103.5 -93.5t-151.5 -36z
" />
    <glyph glyph-name="W" unicode="W" horiz-adv-x="752" 
d="M53 -28q-35 0 -60.5 5.5t-42.5 14.5q44 36 74.5 87t49.5 107t27.5 110.5t8.5 96.5q0 91 -30.5 143.5t-79.5 52.5q-8 0 -19 -2t-25 -8q2 62 16 104.5t36 69t51 38.5t61 12q48 0 79.5 -22t50 -58t25.5 -82.5t7 -94.5q0 -32 -3.5 -70t-9.5 -77t-14 -76.5t-17 -69.5
q28 52 48.5 112.5t39 122t38.5 118.5t49 101t69.5 70.5t98.5 26.5q26 0 35.5 -11t9.5 -27q0 -18 -7.5 -29.5t-16.5 -24.5t-16.5 -29.5t-7.5 -45.5q0 -40 8 -93.5t8 -121.5q0 -23 -1 -41t-3 -35.5t-5.5 -35t-9.5 -40.5q22 48 37 101.5t29 108.5q20 73 40.5 144t51 127
t74.5 90.5t110 34.5q33 0 58 -11.5t41 -31t24 -44.5t8 -52q0 -26 -6.5 -51.5t-20.5 -48.5q-14 9 -25.5 11.5t-24.5 2.5q-45 0 -77 -23t-56 -61.5t-43 -89t-38 -106.5q-22 -69 -46 -139.5t-61 -128.5t-91 -94.5t-136 -36.5q-35 0 -58.5 8.5t-31.5 22.5q67 116 90.5 217
t23.5 187q0 36 -3 67q-16 -52 -33.5 -109t-39.5 -113t-50 -106.5t-66 -89t-87.5 -61.5t-114.5 -23z" />
    <glyph glyph-name="X" unicode="X" horiz-adv-x="789" 
d="M149 -27q-41 0 -71 14t-49.5 36.5t-29 50.5t-9.5 57q0 27 8 52.5t23.5 46.5t38 36t51.5 20q1 -22 18.5 -40t50.5 -18q48 0 85.5 27t63.5 69.5t40 94.5t14 103q0 47 -15.5 76t-49.5 29q-35 0 -52.5 -22t-17.5 -57q0 -29 18 -47.5t39 -18.5q7 0 10 1q-2 -23 -9.5 -44.5
t-21 -38t-33.5 -26t-47 -9.5q-36 0 -62.5 13.5t-44 37.5t-26.5 55.5t-9 67.5q0 55 17 102.5t47 83t72 55.5t93 20q73 0 120.5 -48t56.5 -150q38 97 97.5 147.5t135.5 50.5q38 0 64 -13.5t42.5 -35t24 -48t7.5 -52.5q0 -46 -20.5 -83.5t-55.5 -60.5q-4 27 -25.5 48.5
t-58.5 21.5q-41 0 -71.5 -25t-50.5 -64.5t-30 -88.5t-10 -98q0 -44 12.5 -73t41.5 -29q14 0 25.5 7t19.5 17.5t12.5 24t4.5 26.5q0 18 -9 32t-28 17q7 31 31 49.5t59 17.5q27 0 47.5 -11t33.5 -30t19.5 -44t6.5 -54q0 -43 -14 -89t-41.5 -83.5t-68 -61.5t-92.5 -24
q-48 0 -79.5 19t-51 51.5t-28 74.5t-10.5 88q-26 -74 -57.5 -123t-65 -78t-68.5 -40.5t-68 -11.5z" />
    <glyph glyph-name="Y" unicode="Y" horiz-adv-x="540" 
d="M117 -223q-53 0 -91 15.5t-62.5 41t-36 57t-11.5 64.5q0 26 6.5 50.5t19 45t31 35t41.5 20.5q2 -49 37 -80t98 -31q35 0 70.5 15.5t67 50.5t57.5 91.5t42 137.5h-5q-18 -59 -42 -100t-51 -67t-55.5 -38t-57.5 -12q-64 0 -98 35t-34 99q0 56 18.5 104.5t41 95t41 94.5
t18.5 103q0 36 -16.5 55.5t-58.5 19.5q-19 0 -34 -7.5t-24.5 -19t-14.5 -26.5t-5 -30q0 -28 16 -50t49 -22q3 0 6 0.5t7 0.5q1 -20 -7 -41t-23 -38t-37 -27.5t-49 -10.5q-35 0 -64.5 13.5t-50.5 37t-32.5 56t-11.5 71.5q0 47 17 93t51 83.5t85.5 60.5t121.5 23
q64 0 109 -14.5t73.5 -42t42 -67t13.5 -89.5t-11 -96t-24 -85.5t-24 -71t-11 -52.5q0 -23 9 -33t23 -10q9 0 23 7t31 31t36.5 69.5t40.5 122.5l35 130q3 12 3 21q0 16 -5.5 25t-5.5 26q0 21 20.5 35.5t49 24.5t58 14.5t48.5 4.5q17 0 24 -8t7 -21q0 -4 -0.5 -7.5t-1.5 -8.5
l-108 -414q-5 -18 -13.5 -51t-19 -73t-23 -85t-24.5 -87q-16 -57 -49.5 -105.5t-79 -83.5t-100.5 -55t-116 -20z" />
    <glyph glyph-name="Z" unicode="Z" horiz-adv-x="550" 
d="M-39 -17q-42 0 -64.5 21t-22.5 48q0 15 8 30.5t24.5 27.5t42.5 19.5t61 7.5q11 0 22.5 0.5t24.5 1.5q36 41 78 106t87.5 138t93.5 146.5t96 133.5q-32 11 -63 23t-70 12q-29 0 -49.5 -6.5t-33.5 -17.5t-19 -25t-6 -28q0 -31 18 -47t40 -16q15 0 28 8q-1 -39 -14 -68
t-33 -47.5t-45.5 -27.5t-52.5 -9q-33 0 -61.5 12.5t-49.5 35t-33 52.5t-12 66q0 45 19 86.5t56 73t91.5 50.5t124.5 19q47 0 81 -7t60.5 -17.5t49 -22.5t45.5 -23q31 29 61 45t59 16q34 0 51.5 -14t17.5 -40q0 -23 -9.5 -42.5t-25.5 -33.5t-37.5 -22.5t-45.5 -10.5
q-23 -34 -55 -91.5t-71.5 -124.5t-85.5 -137.5t-99 -131.5q13 1 25.5 1.5t23.5 0.5q57 0 84.5 19.5t27.5 43.5q0 18 -12 27q13 11 26 14.5t26 3.5q44 0 65.5 -30.5t21.5 -72.5q0 -34 -13.5 -66t-37 -56.5t-56 -39t-70.5 -14.5q-56 0 -115.5 18.5t-116.5 38.5
q-38 -26 -78.5 -41.5t-82.5 -15.5z" />
    <glyph glyph-name="bracketleft" unicode="[" horiz-adv-x="268" 
d="M199 794h213l-22 -84q-3 -12 -12 -18.5t-20 -6.5h-87l-186 -686h112l-21 -84q-3 -12 -12 -18.5t-20 -6.5h-191z" />
    <glyph glyph-name="backslash" unicode="\" horiz-adv-x="261" 
d="M58 755q-1 17 9 28t27 11h45l57 -865q1 -17 -9 -28t-27 -11h-45z" />
    <glyph glyph-name="bracketright" unicode="]" horiz-adv-x="268" 
d="M119 -108h-213l22 84q3 12 12 18.5t20 6.5h87l186 686h-112l21 84q3 12 12 18.5t20 6.5h191z" />
    <glyph glyph-name="asciicircum" unicode="^" horiz-adv-x="620" 
d="M253 800h153l11 -349h-120l3 231l-126 -231h-120z" />
    <glyph glyph-name="underscore" unicode="_" horiz-adv-x="458" 
d="M-49 -47q5 21 21.5 34t39.5 13h349l-9 -33q-6 -21 -22 -34t-39 -13h-349z" />
    <glyph glyph-name="grave" unicode="`" horiz-adv-x="283" 
d="M362 603q-11 0 -30.5 6.5t-42 16t-45.5 22t-41.5 24t-30.5 21t-12 14.5q0 10 10.5 26t24 31t27 25.5t19.5 10.5q4 0 18 -9.5t32.5 -24t38.5 -31.5t37 -32.5t28 -27t11 -14.5q0 -5 -5.5 -14.5t-12.5 -19.5t-14.5 -17t-11.5 -7z" />
    <glyph glyph-name="a" unicode="a" 
d="M77 -7q-68 0 -80 66t21 193l10 36q31 115 77 167t107 52q41 0 62 -17.5t29 -49.5q17 24 46.5 42t67.5 18q21 0 30 -11.5t9 -28.5q0 -10 -3 -19l-69 -253q-6 -21 -6 -35q0 -26 26 -26v-12q0 -31 -12 -54t-29.5 -38t-38.5 -22.5t-39 -7.5q-35 0 -51.5 24.5t-16.5 61.5
q0 17 3 35q-32 -63 -68.5 -92t-74.5 -29zM180 144q17 0 32 22t23 47l38 153q-2 11 -8 17.5t-18 6.5q-7 0 -14.5 -3.5t-15.5 -16t-17.5 -37t-19.5 -65.5l-10 -36q-13 -49 -10 -68.5t20 -19.5z" />
    <glyph glyph-name="b" unicode="b" horiz-adv-x="430" 
d="M358 507q43 0 64 -24.5t21 -78.5q0 -20 -2 -39t-6 -41.5t-11 -49.5t-16 -62q-31 -114 -72.5 -166.5t-106.5 -52.5q-36 0 -59 19.5t-32 55.5q-6 -15 -18.5 -28.5t-29 -24t-36.5 -16.5t-41 -6t-29.5 12t-8.5 28v9.5t2 9.5l144 541q3 14 1 21.5t-6.5 13t-8.5 11.5t-4 16
q0 20 21 34t49.5 23t57.5 13t44 4q23 0 30 -12.5t2 -32.5l-22 -78l-9 -32q-11 -37 -21.5 -71t-23.5 -67q60 71 127 71zM192 127q18 0 33.5 27t27.5 63t19 72.5t7 54.5q0 19 -6 24t-14 5q-15 0 -24.5 -5.5t-19.5 -16.5v-3l-55 -201q4 -10 10.5 -15t21.5 -5z" />
    <glyph glyph-name="c" unicode="c" horiz-adv-x="378" 
d="M166 -7q-80 0 -122 42.5t-42 127.5q0 62 24 144q16 55 34.5 93t43.5 62t58 35t76 11q47 0 76.5 -11.5t46 -30.5t23 -42.5t6.5 -47.5q0 -27 -6 -56.5t-19.5 -53.5t-36 -39.5t-55.5 -15.5q-50 0 -50 53q0 24 10 53q2 8 7 23.5t5 27.5q0 15 -11 15q-17 0 -28.5 -24
t-26.5 -81q-6 -21 -8.5 -38.5t-2.5 -31.5q0 -38 17 -53.5t46 -15.5q32 0 56 8.5t38 25.5q6 7 12 7t10.5 -8t4.5 -22q0 -31 -14 -59.5t-39 -50.5t-59 -34.5t-74 -12.5z" />
    <glyph glyph-name="d" unicode="d" horiz-adv-x="437" 
d="M77 -7q-68 0 -80 66t21 193l10 36q31 115 77 167t107 52q70 0 88 -55q8 47 20 95l13 46q3 14 1 21.5t-6.5 13t-8.5 11.5t-4 16q0 20 21 34t49.5 23t57.5 13t44 4q23 0 30 -12.5t2 -32.5l-26 -92l-108 -404q-8 -28 -6 -44.5t25 -16.5v-12q0 -53 -33 -87.5t-84 -34.5
q-22 0 -36.5 9.5t-23 26t-10 38.5t2.5 47q-32 -63 -68.5 -92t-74.5 -29zM180 144q17 0 32 22t23 47l38 153q-2 11 -8 17.5t-18 6.5q-7 0 -14.5 -3.5t-15.5 -16t-17.5 -37t-19.5 -65.5l-10 -36q-13 -49 -10 -68.5t20 -19.5z" />
    <glyph glyph-name="e" unicode="e" horiz-adv-x="378" 
d="M166 -7q-80 0 -122 42.5t-42 126.5q0 34 7.5 73t23.5 96q12 43 29.5 76t41.5 55.5t57 34t77 11.5q42 0 69.5 -12t44.5 -30.5t24 -42t7 -47.5q0 -36 -12.5 -69t-34.5 -58.5t-52.5 -41t-66.5 -15.5q-35 0 -56 12q-1 -5 -1 -14q0 -26 15.5 -38.5t37.5 -12.5q32 0 64.5 10
t47.5 27q5 5 10 5q16 0 16 -32q0 -34 -15 -62.5t-40 -49.5t-58.5 -32.5t-71.5 -11.5zM177 267q23 -1 36.5 5.5t21 17t11.5 23t7 24.5q6 26 6 38q0 13 -5 17.5t-13 4.5q-15 0 -26.5 -16t-22.5 -56l-13 -48q-2 -6 -2 -10z" />
    <glyph glyph-name="f" unicode="f" horiz-adv-x="299" 
d="M-34 -196q-48 0 -73.5 26t-25.5 65q0 19 8 43q79 0 104 94l91 345h-14q-8 0 -11.5 7.5t-3.5 18.5t3 23t9 23t14 18t17 7h11l25 95q29 108 88 158t145 50q56 0 86.5 -29.5t30.5 -69.5q0 -22 -9 -41t-24.5 -33.5t-36 -23t-44.5 -8.5q-32 0 -32 28q0 10 3.5 23.5t3.5 16.5
q0 10 -11 10q-5 0 -10 -3.5t-10 -12.5t-11 -25t-12 -41l-24 -92q22 1 38.5 4t37.5 10q11 3 11 -16q0 -11 -4.5 -27t-12.5 -30.5t-19.5 -25t-25.5 -10.5h-49l-99 -383l-11 -41q-8 -30 -22 -57.5t-33.5 -49t-44 -34t-53.5 -12.5z" />
    <glyph glyph-name="g" unicode="g" horiz-adv-x="427" 
d="M417 500q21 0 30 -11.5t9 -28.5q0 -4 -1 -10t-3.5 -16t-7 -25.5t-10.5 -38.5l-77 -284q-25 -90 -55.5 -151.5t-65 -99.5t-73 -55t-80.5 -17q-36 0 -60.5 9.5t-40 25.5t-22.5 36.5t-7 41.5q0 30 12 57.5t32 41.5q3 -8 10.5 -15t18 -12t22 -8t22.5 -3q49 0 86 41.5
t67 141.5q-33 -66 -70 -96.5t-76 -30.5q-68 0 -80 66t21 193l10 36q31 115 77 167t107 52q41 0 62 -17.5t29 -49.5q17 24 46.5 42t67.5 18zM180 144q15 0 28.5 17.5t21.5 39.5l43 165q-2 11 -8 17.5t-18 6.5q-7 0 -14.5 -3.5t-15.5 -16t-17.5 -37t-19.5 -65.5l-10 -36
q-13 -49 -10 -68.5t20 -19.5z" />
    <glyph glyph-name="h" unicode="h" 
d="M389 188q-8 -28 -6 -44.5t25 -16.5v-12q0 -31 -12 -54t-29.5 -38t-38.5 -22.5t-39 -7.5q-29 0 -46.5 12.5t-25 34t-6.5 49t10 57.5l54 201q8 26 -18 26q-13 0 -26 -6.5t-21 -18.5l-45 -160q-8 -28 -6 -44.5t25 -16.5v-12q0 -31 -12 -54t-29.5 -38t-38.5 -22.5t-39 -7.5
q-29 0 -46.5 12.5t-25 34t-6.5 49t10 57.5l11 41l108 406q3 14 1 21.5t-6.5 13t-8.5 11.5t-4 16q0 20 21 34t49.5 23t57.5 13t44 4q23 0 30 -12.5t2 -32.5l-26 -92l-5 -18q-11 -38 -21.5 -71t-22.5 -66h1q28 34 60 52t67 18q32 0 51 -15t27 -38t7 -52t-9 -57z" />
    <glyph glyph-name="i" unicode="i" horiz-adv-x="220" 
d="M200 548q-38 0 -61.5 23.5t-23.5 61.5q0 47 29 76t76 29q38 0 61.5 -23.5t23.5 -61.5q0 -47 -29 -76t-76 -29zM69 -7q-29 0 -46.5 12.5t-25 34t-6.5 49t10 57.5l60 225q3 14 1 21.5t-6.5 13t-8.5 11.5t-4 16q0 20 21 34t49.5 23t57.5 13t44 4q23 0 30 -12.5t2 -32.5
l-78 -274q-8 -28 -6 -44.5t25 -16.5v-12q0 -31 -12 -54t-29.5 -38t-38.5 -22.5t-39 -7.5z" />
    <glyph glyph-name="j" unicode="j" horiz-adv-x="227" 
d="M224 738q38 0 61.5 -23.5t23.5 -61.5q0 -47 -29 -76t-76 -29q-38 0 -61.5 23.5t-23.5 61.5q0 47 29 76t76 29zM219 507q23 0 30 -12.5t2 -32.5l-26 -92l-78 -284q-24 -89 -54 -150.5t-64.5 -99.5t-74 -55.5t-81.5 -17.5q-36 0 -60.5 9.5t-40 25.5t-22.5 36.5t-7 41.5
q0 30 12 57.5t32 41.5q3 -8 10.5 -15t18 -12t22 -8t22.5 -3q22 0 42 9.5t37 32t32.5 59t29.5 89.5l64 244q3 14 1 21.5t-6.5 13t-8.5 11.5t-4 16q0 20 21 34t49.5 23t57.5 13t44 4z" />
    <glyph glyph-name="k" unicode="k" horiz-adv-x="426" 
d="M358 196q8 -28 18 -48.5t33 -20.5l-1 -12q-5 -52 -35.5 -87t-80.5 -35q-45 0 -64.5 30.5t-19.5 92.5q0 12 1.5 29t3 34.5t3 31.5t1.5 20q0 16 -6 26.5t-23 15.5l-23 -85q-8 -28 -6 -44.5t25 -16.5v-12q0 -31 -12 -54t-29.5 -38t-38.5 -22.5t-39 -7.5q-29 0 -46.5 12.5
t-25 34t-6.5 49t10 57.5l11 41l108 406q3 14 1 21.5t-6.5 13t-8.5 11.5t-4 16q0 20 21 34t49.5 23t57.5 13t44 4q23 0 30 -12.5t2 -32.5l-26 -92l-77 -279q19 7 32.5 21.5t23.5 30.5t15.5 31t8.5 24q4 11 5 26t-3 23q14 18 38 28t53 10q36 0 59 -16t23 -47q0 -27 -15 -53.5
t-38.5 -47t-50.5 -33.5t-51 -13v-1q10 0 17.5 -3t14.5 -13.5t13.5 -30.5t13.5 -53z" />
    <glyph glyph-name="l" unicode="l" horiz-adv-x="217" 
d="M270 729q23 0 30 -12.5t2 -32.5l-26 -92l-111 -404q-8 -28 -6 -44.5t25 -16.5v-12q0 -31 -12 -54t-29.5 -38t-38.5 -22.5t-39 -7.5q-29 0 -46.5 12.5t-25 34t-6.5 49t10 57.5l11 41l108 406q3 14 1 21.5t-6.5 13t-8.5 11.5t-4 16q0 20 21 34t49.5 23t57.5 13t44 4z" />
    <glyph glyph-name="m" unicode="m" horiz-adv-x="661" 
d="M69 -7q-29 0 -46.5 12.5t-25 34t-6.5 49t10 57.5l11 41l49 184q3 14 1 21.5t-6.5 13t-8.5 11.5t-4 16q0 20 18 34t42.5 23t50.5 13t41 4q21 0 27.5 -12.5t1.5 -32.5l-15 -54h2q31 48 68.5 73.5t79.5 25.5t61.5 -24t22.5 -59q29 40 64 61.5t73 21.5q32 0 51 -15t27 -38
t7 -52t-9 -57l-42 -157q-8 -28 -6 -44.5t25 -16.5v-12q0 -31 -12 -54t-29.5 -38t-38.5 -22.5t-39 -7.5q-29 0 -46.5 12.5t-25 34t-6.5 49t10 57.5l54 201q8 26 -18 26q-12 0 -25 -6t-21 -17q0 -2 -0.5 -2.5t-0.5 -2.5l-42 -157q-8 -28 -6 -44.5t25 -16.5v-12q0 -31 -12 -54
t-29.5 -38t-38.5 -22.5t-39 -7.5q-29 0 -46.5 12.5t-25 34t-6.5 49t10 57.5l54 201q8 26 -18 26q-12 0 -25 -6t-21 -17l-46 -162q-8 -28 -6 -44.5t25 -16.5v-12q0 -31 -12 -54t-29.5 -38t-38.5 -22.5t-39 -7.5z" />
    <glyph glyph-name="n" unicode="n" horiz-adv-x="440" 
d="M69 -7q-42 0 -60 25t-18 63q0 32 10 65l60 225q3 14 1 21.5t-6.5 13t-8.5 11.5t-4 16q0 20 18 34t42.5 23t50.5 13t41 4q21 0 27.5 -12.5t1.5 -32.5l-15 -54h2q31 48 68.5 73.5t79.5 25.5q23 0 39.5 -8t26.5 -21.5t14.5 -31.5t4.5 -38q0 -31 -9 -63l-42 -157
q-8 -28 -6 -44.5t25 -16.5v-12q0 -31 -12 -54t-29.5 -38t-38.5 -22.5t-39 -7.5q-42 0 -60 25t-18 63q0 32 10 65l54 201q8 26 -18 26q-12 0 -25 -6t-21 -17l-46 -162q-8 -28 -6 -44.5t25 -16.5v-12q0 -31 -12 -54t-29.5 -38t-38.5 -22.5t-39 -7.5z" />
    <glyph glyph-name="o" unicode="o" horiz-adv-x="402" 
d="M166 -7q-90 0 -130 40.5t-40 113.5q0 18 2 35.5t6 38.5t11.5 47.5t17.5 62.5q12 43 29.5 76t41.5 55.5t57 34t77 11.5q85 0 126.5 -40.5t41.5 -117.5q0 -18 -1.5 -33.5t-5.5 -34.5t-10.5 -44t-16.5 -62q-13 -48 -30 -82.5t-41.5 -57t-57 -33t-77.5 -10.5zM170 118
q6 0 11.5 2.5t11.5 13t13.5 31t16.5 56.5q9 35 15 58.5t9 39.5t4.5 25t1.5 16q0 23 -19 23q-6 0 -11.5 -2.5t-11.5 -11.5t-13 -27t-15 -48q-10 -38 -16.5 -63t-10 -41.5t-5 -26.5t-1.5 -19q0 -15 5 -20.5t15 -5.5z" />
    <glyph glyph-name="p" unicode="p" horiz-adv-x="419" 
d="M13 -202q-29 0 -46.5 12.5t-25 34t-6.5 49t10 57.5l116 420q3 14 1 21.5t-6.5 13t-8.5 11.5t-4 16q0 20 18 34t42.5 23t50.5 13t41 4q21 0 27.5 -12.5t1.5 -32.5l-13 -45h1q30 44 64.5 67t69.5 23q45 0 65.5 -26t20.5 -77q0 -60 -26 -156l-10 -36q-31 -114 -72.5 -166.5
t-106.5 -52.5q-37 0 -58 24.5t-27 69.5q-2 -20 -5.5 -41t-10.5 -43l-3 -10q-8 -28 -6 -44.5t25 -16.5v-12q0 -32 -12 -55t-29.5 -38t-38.5 -22t-39 -7zM180 127q6 0 13.5 3t15.5 14t16.5 31.5t18.5 56.5l10 36q13 53 13 76q0 19 -6 24t-14 5q-17 0 -29 -15l-62 -214
q6 -17 24 -17z" />
    <glyph glyph-name="q" unicode="q" horiz-adv-x="426" 
d="M233 -202q-29 0 -46.5 12.5t-25 34t-6.5 49t10 57.5l11 41q9 32 16.5 56t16.5 45q-31 -52 -64 -76t-68 -24q-68 0 -80 66t21 193l10 36q31 115 77 167t107 52q41 0 62 -17.5t29 -49.5q17 24 46.5 42t67.5 18q21 0 30 -11.5t9 -28.5q0 -10 -3 -19l-120 -448
q-8 -28 -6 -44.5t25 -16.5v-12q0 -32 -12 -55t-29.5 -38t-38.5 -22t-39 -7zM180 144q15 0 28.5 17.5t21.5 39.5l43 165q-2 11 -8 17.5t-18 6.5q-7 0 -14.5 -3.5t-15.5 -16t-17.5 -37t-19.5 -65.5l-10 -36q-13 -49 -10 -68.5t20 -19.5z" />
    <glyph glyph-name="r" unicode="r" horiz-adv-x="391" 
d="M66 -7q-29 0 -46.5 12.5t-25 34t-6.5 49t10 57.5l11 41l49 184q3 14 1 21.5t-6.5 13t-8.5 11.5t-4 16q0 20 18 34t42.5 23t50.5 13t41 4q21 0 27.5 -12.5t1.5 -32.5l-13 -46h1q27 44 59.5 67.5t67.5 23.5q21 0 36 -8t24.5 -21.5t13.5 -32t4 -38.5q0 -30 -7 -58.5
t-20.5 -50t-33.5 -35t-47 -13.5q-36 0 -49 16.5t-13 40.5q0 9 2 19t4 21q6 26 -12 26q-16 0 -25 -20l-47 -165q-8 -28 -6 -44.5t25 -16.5v-12q0 -31 -12 -54t-29.5 -38t-38.5 -22.5t-39 -7.5z" />
    <glyph glyph-name="s" unicode="s" horiz-adv-x="348" 
d="M143 -7q-37 0 -66.5 10.5t-50.5 28.5t-32.5 42.5t-11.5 53.5q0 18 3.5 34.5t10.5 29.5t16 21t20 8t13 -11q2 -16 9.5 -31t19.5 -27t26.5 -19t30.5 -7q23 0 35.5 7.5t12.5 21.5q0 13 -15 19t-28 14q-44 26 -66 66.5t-22 87.5q0 79 49.5 122t132.5 43q67 0 104 -32t37 -81
q0 -21 -6 -41.5t-16.5 -37.5t-26 -27.5t-34.5 -10.5q-26 0 -41.5 12.5t-15.5 36.5q0 18 9 40q16 40 -16 40q-27 0 -37.5 -22.5t-10.5 -46.5q0 -16 8.5 -31t34.5 -29q47 -26 72.5 -54.5t25.5 -67.5q0 -36 -13 -65.5t-36.5 -51t-55 -33.5t-69.5 -12z" />
    <glyph glyph-name="t" unicode="t" horiz-adv-x="286" 
d="M111 -7q-51 0 -81 32.5t-30 86.5q0 33 10 69l12 45l45 168q3 14 -2.5 21.5t-13.5 13t-15 11.5t-7 16q0 13 13.5 30.5t34.5 36.5t46.5 38t50 33.5t45 23.5t30.5 9q23 0 30 -12.5t2 -32.5l-18 -65l-12 -41q16 2 28.5 5.5t29.5 8.5q11 3 11 -16q0 -11 -4.5 -27t-12.5 -30.5
t-19.5 -25t-25.5 -10.5h-34l-45 -154q-8 -30 -4 -49.5t15 -30.5t27 -15.5t33 -4.5v-12q0 -26 -10.5 -48.5t-29.5 -39t-44 -25.5t-55 -9z" />
    <glyph glyph-name="u" unicode="u" horiz-adv-x="438" 
d="M79 -7q-31 0 -49.5 16t-26.5 44.5t-5.5 67.5t14.5 84l43 166q3 14 1 21.5t-6.5 13t-8.5 11.5t-4 16q0 20 21 34t49.5 23t57.5 13t44 4q23 0 30 -12.5t2 -32.5l-26 -92l-47 -165q-11 -34 -5.5 -47.5t17.5 -13.5q17 0 32 19t23 43l44 165q3 14 1 21.5t-6.5 13t-8.5 11.5
t-4 16q0 20 21 34t49.5 23t57.5 13t44 4q23 0 30 -12.5t2 -32.5l-26 -92l-52 -182q-8 -28 -6 -44.5t25 -16.5v-12q0 -31 -12 -54t-29.5 -38t-38.5 -22.5t-39 -7.5q-44 0 -62 27.5t-16 69.5q-30 -51 -62.5 -74t-67.5 -23z" />
    <glyph glyph-name="v" unicode="v" horiz-adv-x="415" 
d="M147 -7q-58 0 -87 47t-29 127q0 9 0.5 18.5t1.5 19.5l14 166q1 15 -1.5 22.5t-6.5 12.5t-7 11t-3 16q0 20 19 34t45 23t52 13t40 4q23 0 28.5 -12.5t3.5 -32.5l-28 -257q-3 -24 -3 -37q0 -14 3.5 -19t11.5 -5q15 0 28 25t23 60.5t16 74t6 65.5q0 26 -6.5 37t-6.5 18
q0 12 13 26.5t33.5 26.5t46 20.5t49.5 8.5q18 0 25.5 -11.5t7.5 -31.5q0 -37 -12 -86t-32.5 -101.5t-48.5 -103t-60 -90.5t-67 -64.5t-69 -24.5z" />
    <glyph glyph-name="w" unicode="w" horiz-adv-x="634" 
d="M146 -7q-58 0 -87 47t-29 127q0 9 0.5 18.5t1.5 19.5l14 166q1 15 -1.5 22.5t-6.5 12.5t-7 11t-3 16q0 20 19 34t45 23t52 13t40 4q23 0 28.5 -12.5t3.5 -32.5l-28 -257q-3 -24 -3 -37q0 -14 3.5 -19t11.5 -5q15 0 28 25.5t23 61t16 74.5t6 66q1 15 -1.5 22.5t-6.5 12.5
t-7 11t-3 16q0 20 19 34t45 23t52 13t40 4q23 0 28.5 -12.5t3.5 -32.5l-28 -257q-3 -24 -3 -37q0 -14 3.5 -19t11.5 -5q15 0 28 25t23 60.5t16 74t6 65.5q0 26 -6.5 37t-6.5 18q0 12 13 26.5t33.5 26.5t46 20.5t49.5 8.5q18 0 25.5 -11.5t7.5 -31.5q0 -37 -12 -86
t-32.5 -101.5t-48.5 -103t-60 -90.5t-67 -64.5t-69 -24.5q-29 0 -53.5 27t-35.5 80q-30 -51 -67.5 -79t-70.5 -28z" />
    <glyph glyph-name="x" unicode="x" horiz-adv-x="504" 
d="M88 -7q-45 0 -75 32t-30 80q0 39 9.5 73t26.5 59t40 39t50 14q50 0 50 -53q0 -15 -3.5 -28.5t-7.5 -26.5t-7.5 -25.5t-3.5 -23.5q0 -15 11 -15q6 0 10 2.5t9 12t10.5 28.5t14.5 51q8 29 11.5 48.5t3.5 33.5q0 32 -14.5 45t-41.5 13q-24 0 -42 -5t-31 -10.5t-21 -10.5
t-12 -5q-15 0 -15 30q0 26 10.5 54t29.5 51t46 37.5t60 14.5q89 0 106 -98q23 54 53.5 76t79.5 22q31 0 50.5 -10.5t31 -27.5t15.5 -37t4 -40q0 -39 -9 -72.5t-25.5 -57.5t-38.5 -38t-48 -14q-50 0 -50 53q0 15 3.5 28.5t7.5 26.5t7.5 25.5t3.5 23.5q0 15 -11 15
q-6 0 -10.5 -2.5t-9 -12t-10.5 -28.5t-15 -51q-8 -29 -11.5 -48t-3.5 -33q0 -59 57 -59q32 0 56 6t38 18q6 7 12 7t10.5 -8t4.5 -22q0 -26 -10.5 -54t-29.5 -51t-44.5 -37.5t-55.5 -14.5q-43 0 -70.5 27t-36.5 78q-17 -48 -55 -76.5t-84 -28.5z" />
    <glyph glyph-name="y" unicode="y" horiz-adv-x="426" 
d="M83 -237q-36 0 -60.5 9.5t-40 25.5t-22.5 36.5t-7 41.5q0 30 12 57.5t32 41.5q3 -8 10.5 -15t18 -12t22 -8t22.5 -3q47 0 83.5 39t66.5 135q-32 -62 -67.5 -90t-73.5 -28q-43 0 -62.5 29.5t-19.5 80.5q0 45 15 102l43 166q3 14 1 21.5t-6.5 13t-8.5 11.5t-4 16
q0 20 21 34t49.5 23t57.5 13t44 4q23 0 30 -12.5t2 -32.5l-73 -257q-7 -21 -7 -36q0 -25 19 -25q16 0 30.5 17.5t23.5 40.5l45 169q3 14 1 21.5t-6.5 13t-8.5 11.5t-4 16q0 20 21 34t49.5 23t57.5 13t44 4q23 0 30 -12.5t2 -32.5l-108 -376q-25 -90 -55.5 -151.5t-65 -99.5
t-73 -55t-80.5 -17z" />
    <glyph glyph-name="z" unicode="z" horiz-adv-x="395" 
d="M34 -16q-10 0 -19.5 7.5t-16.5 20t-11 28t-4 31.5q0 39 15 70t39 57t55.5 49t64 46t64.5 47t58 53q-10 0 -20 0.5t-22 0.5q-40 0 -57.5 -8t-17.5 -26q0 -20 16 -27q-11 -9 -27.5 -16t-35.5 -7q-36 0 -56 25.5t-20 61.5q0 54 33 85.5t92 31.5q26 0 44.5 -4.5t35.5 -10.5
t35 -10.5t41 -4.5q21 0 36.5 5.5t19.5 17.5q1 7 8 7q13 0 22 -19.5t9 -42.5q0 -30 -15 -60t-47.5 -64.5t-82.5 -75.5t-121 -93q7 1 13.5 1.5t13.5 0.5q10 0 19.5 -0.5t20.5 -0.5q29 0 45.5 12t16.5 33v5q8 4 19 4q13 0 26 -6.5t23.5 -18t17 -27.5t6.5 -35q0 -26 -11 -50
t-29.5 -42t-43 -29t-52.5 -11q-34 0 -54 7t-35 15t-31 15t-42 7q-11 0 -17.5 -5.5t-6.5 -13.5q0 -3 2 -9.5t2 -9.5q0 -9 -5.5 -13t-12.5 -4z" />
    <glyph glyph-name="braceleft" unicode="{" horiz-adv-x="340" 
d="M273 -44q-4 -23 -20.5 -39t-38.5 -23t-46.5 -5t-44.5 15t-33.5 37.5t-13.5 61.5q0 36 6.5 75.5t14 78t14 73.5t5.5 61.5t-12 42t-37 15.5l9 41q36 0 60 26t40.5 68t29 94.5t25.5 104.5q11 38 31.5 62.5t45.5 36.5t51 12.5t47.5 -8.5t35 -27t13.5 -44q-40 6 -65 -2.5
t-40 -27.5t-23 -46.5t-14.5 -59.5t-13 -67.5t-18.5 -69.5q-10 -26 -28.5 -50t-51.5 -36q20 -17 28 -41t2 -60q-5 -29 -13.5 -63t-15.5 -68t-10 -65.5t3.5 -55t24.5 -36.5t53 -11z" />
    <glyph glyph-name="bar" unicode="|" horiz-adv-x="150" 
d="M180 808h89l-256 -958h-89z" />
    <glyph glyph-name="braceright" unicode="}" horiz-adv-x="340" 
d="M102 727q5 23 21 39t38 23t46.5 5t44.5 -15t33.5 -37t13.5 -62q0 -36 -6.5 -75.5t-14 -78t-14 -73.5t-5.5 -61.5t12 -42t37 -15.5l-9 -41q-36 0 -60 -26t-40.5 -68t-28.5 -94.5t-26 -104.5q-10 -38 -31 -62.5t-46 -36.5t-51 -12.5t-47.5 8.5t-35 27.5t-13.5 43.5
q40 -6 65 2.5t40 27.5t23 46.5t14.5 59.5t13 67.5t18.5 69.5q10 26 28.5 50t51.5 36q-20 17 -28 41t-2 60q5 29 13.5 63t15.5 68t10 65.5t-3.5 55t-24.5 36.5t-53 11z" />
    <glyph glyph-name="asciitilde" unicode="~" horiz-adv-x="544" 
d="M443 291q-46 0 -79 16t-60 34.5t-52.5 34.5t-57.5 16q-36 0 -60.5 -24.5t-38.5 -66.5l-96 59q9 32 28.5 62t46 52.5t58.5 36t67 13.5q42 0 72 -16t55.5 -34.5t51 -34.5t57.5 -16q38 0 64 24.5t35 56.5l98 -63q-25 -72 -74.5 -111t-114.5 -39z" />
    <glyph glyph-name="exclamdown" unicode="&#xa1;" horiz-adv-x="241" 
d="M207 639q21 0 37 -8t26.5 -21.5t14 -31.5t-1.5 -38q-9 -34 -33 -52t-54 -18q-21 0 -37 8.5t-26 22t-13.5 31t0.5 36.5q7 28 29.5 49.5t57.5 21.5zM160 420q11 0 22.5 -5.5t9.5 -16.5q-8 -48 -10.5 -102.5t-5 -108t-6 -100.5t-12.5 -80q-12 -41 -39.5 -68t-69.5 -27
q-22 0 -40 8.5t-29.5 24t-15 37t2.5 46.5t25.5 66t44.5 92t52.5 109t51.5 117q3 8 19 8z" />
    <glyph glyph-name="cent" unicode="&#xa2;" horiz-adv-x="600" 
d="M204 117h-1q-136 52 -69 303l4 15q22 83 62.5 126.5t109.5 56.5l19 113h128l-56 -116h1q45 -11 66 -37t27 -56.5t1.5 -61.5t-10.5 -52q-10 -34 -37 -59t-68 -25q-37 0 -45.5 28t5.5 78q2 6 5.5 17t5.5 22t0.5 19t-10.5 8q-6 0 -11.5 -2.5t-11.5 -12t-13 -28.5t-16 -51
l-3 -11q-10 -39 -10.5 -65.5t7 -43t22 -23.5t33.5 -7q32 0 56 8.5t38 25.5q7 8 13.5 7t10 -10t3 -24.5t-7.5 -35.5q-19 -54 -57.5 -85.5t-96.5 -31.5l-18 -106h-123z" />
    <glyph glyph-name="sterling" unicode="&#xa3;" horiz-adv-x="600" 
d="M381 -7q-57 0 -105.5 7t-93.5 12.5t-89.5 4.5t-94.5 -17l-9 82q25 0 49.5 15t45 43.5t36.5 70.5t25 97h-64l29 99h43v14q0 58 9 113.5t34.5 99t71.5 70.5t120 27q62 0 95.5 -23t48.5 -55.5t15 -67.5t-7 -59q-10 -34 -37 -48.5t-54.5 -11.5t-45.5 22t-10 52q3 11 3.5 22.5
t-3 21t-11.5 16t-22 6.5q-22 0 -35 -19t-20.5 -48t-10 -64t-3.5 -68h163l-28 -99h-138q-7 -41 -26.5 -89t-50.5 -85q36 0 73 -10t68 -10q28 0 42 8t18.5 19t2 23.5t-7.5 22.5q39 20 67 13.5t42.5 -28t15 -52.5t-15.5 -59t-49 -48t-86 -20z" />
    <glyph glyph-name="currency" unicode="&#xa4;" horiz-adv-x="600" 
d="M320 137q-14 -3 -29.5 -5t-32.5 -2q-36 0 -62.5 6.5t-45.5 17.5l-78 -85l-66 62l89 96q-7 24 -7 53q0 24 5 56t14 65.5t22.5 66t31.5 56.5l-40 98l83 35l32 -77q33 13 80 13q70 0 110 -27l75 73l63 -65l-86 -83q6 -25 6 -56q0 -33 -7.5 -71t-19.5 -73.5t-27.5 -64.5
t-30.5 -45l43 -94l-82 -38zM259 241q17 0 32 18t27 44.5t19.5 58t8.5 58t-6 44.5t-24 18q-18 0 -34 -18t-28.5 -44.5t-20 -58t-7.5 -58t7.5 -44.5t25.5 -18z" />
    <glyph glyph-name="yen" unicode="&#xa5;" horiz-adv-x="600" 
d="M285 -7q-42 0 -59.5 25.5t-17.5 63.5q0 31 9 64l11 41l12 47h-136l22 82h136l10 38h-134l22 82h125q1 32 -5 59t-18.5 47.5t-32.5 32t-47 11.5q-16 0 -25 -6.5t-14 -14.5q-6 -9 -8 -21q-14 5 -22.5 22.5t-8.5 41.5q0 20 7 42t23.5 40t42.5 29.5t64 11.5q33 0 62.5 -19.5
t52.5 -55t37 -85t14 -109.5q19 51 46 99.5t59 86t68 60.5t72 23q40 0 57 -24t17 -56q0 -19 -5.5 -38t-15.5 -34.5t-23.5 -25t-29.5 -9.5q0 12 -5 22q-3 8 -11 15t-24 7q-19 0 -38.5 -11.5t-39 -31.5t-38 -48t-33.5 -61h142l-22 -82h-152l-10 -38h150l-22 -82h-151l-13 -46
q-6 -21 -6 -36q0 -12 5.5 -18.5t19.5 -6.5v-12q0 -31 -12 -54t-29.5 -38t-38.5 -22.5t-39 -7.5z" />
    <glyph glyph-name="brokenbar" unicode="&#xa6;" horiz-adv-x="150" 
d="M180 808h89l-103 -388h-89zM33 256h89l-109 -406h-89z" />
    <glyph glyph-name="section" unicode="&#xa7;" horiz-adv-x="450" 
d="M182 -7q-37 0 -66.5 10.5t-50.5 28.5t-32.5 42.5t-11.5 53.5q0 18 3.5 34.5t10.5 29.5t16 21t20 8t13 -11q2 -16 9.5 -31t19.5 -27t26.5 -19t30.5 -7q21 0 31 5t14 13q5 10 2 16.5t-9.5 11t-15.5 8.5t-17 8q-29 17 -48.5 41t-29 52.5t-10 60t9.5 62.5q8 27 26 45t41 27
q-8 23 -8 50t11 62q9 27 26.5 46.5t41 32t50.5 18.5t54 6q41 0 70.5 -12.5t47.5 -33.5t22.5 -49.5t-6.5 -60.5t-28 -53t-48 -21q-35 0 -50.5 22.5t2.5 66.5q16 40 -16 40q-14 0 -25.5 -8t-16.5 -25q-7 -25 3 -52t34 -44q28 -20 49 -36t33 -34t15.5 -39.5t-4.5 -51.5
q-8 -35 -30.5 -55t-56.5 -28q14 -22 19.5 -46.5t-2.5 -54.5q-13 -53 -56 -88t-113 -35zM276 275q29 0 39.5 17t-12.5 40q-17 17 -46.5 36.5t-55.5 47.5q-10 -9 -13 -23.5t1 -30.5t16.5 -32.5t34.5 -30.5q20 -12 36 -24z" />
    <glyph glyph-name="dieresis" unicode="&#xa8;" horiz-adv-x="382" 
d="M243 662q-35 0 -54.5 24.5t-10.5 59.5q7 29 27.5 44t46.5 15q18 0 31.5 -7t22.5 -18.5t12 -26.5t-1 -31q-6 -23 -25 -41.5t-49 -18.5zM421 662q-36 0 -55 24.5t-10 59.5q7 29 27.5 44t45.5 15q18 0 32 -7t22.5 -18.5t11.5 -26.5t-1 -31q-5 -23 -24 -41.5t-49 -18.5z" />
    <glyph glyph-name="copyright" unicode="&#xa9;" horiz-adv-x="712" 
d="M332 -20q-85 0 -144.5 32.5t-95 86t-47.5 121.5t-2 139.5t40.5 139.5t80 121.5t117.5 86t152 32.5q82 0 141 -30t95.5 -79.5t51.5 -113.5t9.5 -132t-31.5 -135.5t-71 -123.5q-54 -69 -129.5 -107t-166.5 -38zM332 37q80 0 143.5 34t108 89t68 123.5t23.5 138.5
q0 56 -15.5 104t-46 82.5t-75.5 54t-105 19.5q-79 0 -141.5 -34.5t-106 -90t-66.5 -124t-23 -137.5q0 -55 15 -102.5t44.5 -82.5t73.5 -54.5t103 -19.5zM344 99q-109 0 -147 79.5t7 234.5l4 15q14 46 31.5 81t42 58t57.5 35t77 12q46 0 75 -11.5t46 -29.5t24 -41t7 -47
t-4 -46t-8 -38q-10 -34 -37 -59t-68 -25q-37 0 -47 28.5t7 77.5q2 6 5.5 17t5.5 22t0.5 19t-10.5 8q-6 0 -11.5 -2.5t-11.5 -12t-13 -28.5t-16 -51l-3 -11q-10 -39 -10.5 -65.5t7 -43t22 -23.5t33.5 -7q32 0 56 8.5t38 25.5q7 8 13.5 7t10 -10t3 -24.5t-7.5 -35.5
q-43 -117 -178 -117z" />
    <glyph glyph-name="ordfeminine" unicode="&#xaa;" horiz-adv-x="285" 
d="M118 373q-45 0 -53 44t14 129l7 24q20 76 50.5 111t71.5 35q27 0 41.5 -11.5t19.5 -33.5q11 17 31 28.5t45 11.5q14 0 20 -7.5t6 -18.5q0 -5 -2 -13l-46 -169q-4 -12 -4 -23q0 -17 17 -17v-8q0 -21 -8 -36.5t-19.5 -25.5t-25.5 -15t-26 -5q-23 0 -34 16.5t-11 41.5v11
t2 12q-22 -42 -46 -61.5t-50 -19.5zM187 474q11 0 21 14.5t16 31.5l25 102q-3 16 -17 16q-4 0 -9.5 -2.5t-11 -10.5t-11.5 -24.5t-13 -43.5l-7 -24q-8 -33 -6 -46t13 -13z" />
    <glyph glyph-name="guillemotleft" unicode="&#xab;" horiz-adv-x="498" 
d="M170 96q-20 0 -38 10.5t-29 29.5l-85 146l133 145q19 21 49 21h124l-170 -174l106 -178h-90zM362 96q-20 0 -38 10.5t-29 29.5l-85 146l133 145q19 21 49 21h124l-170 -174l106 -178h-90z" />
    <glyph glyph-name="logicalnot" unicode="&#xac;" horiz-adv-x="543" 
d="M447 387h-400l33 122h522l-75 -277h-121z" />
    <glyph glyph-name="uni00AD" unicode="&#xad;" horiz-adv-x="472" 
d="M82 295q11 40 41.5 64t72.5 24h242l-17 -62q-11 -40 -41.5 -64t-72.5 -24h-242z" />
    <glyph glyph-name="registered" unicode="&#xae;" horiz-adv-x="412" 
d="M247 302q-64 0 -102.5 31.5t-53.5 79.5t-7.5 103t35.5 103t75 79.5t110 31.5q46 0 79.5 -17t54 -45t29 -64t5.5 -74.5t-18 -76.5t-40 -70q-31 -38 -73.5 -59.5t-93.5 -21.5zM250 348q41 0 73.5 18t55.5 46.5t35.5 64t12.5 71.5q0 59 -31.5 97.5t-93.5 38.5q-41 0 -73 -18
t-54.5 -47t-34.5 -64.5t-12 -71.5q0 -58 30 -96.5t92 -38.5zM307 389q-23 0 -28.5 23t1.5 61q2 12 -6 21.5t-23 6.5q-2 -7 -4 -13.5t-4 -14.5q-4 -11 2 -19t15 -8v-4q0 -26 -17 -38t-31 -12q-19 0 -26 10t-7 24t3.5 28t5.5 21l26 100q5 17 9.5 35.5t-3.5 28.5q3 0 11 0.5
t18.5 1.5t22 1.5t20.5 0.5q41 0 59.5 -17.5t18.5 -40.5q0 -29 -20 -47t-45 -22q16 -2 24 -14t6 -32q-2 -21 9.5 -26t18.5 0q-3 -18 -15.5 -36.5t-40.5 -18.5zM260 537q9 -2 18 1t16 9t11 14t4 15q0 25 -34 24z" />
    <glyph glyph-name="macron" unicode="&#xaf;" horiz-adv-x="401" 
d="M198 800h330l-21 -77h-330z" />
    <glyph glyph-name="degree" unicode="&#xb0;" horiz-adv-x="273" 
d="M208 434q-43 0 -69 20.5t-36 51t-5 66.5t22.5 66.5t46 51t66.5 20.5q46 0 73 -20.5t37 -51t5 -66.5t-23.5 -66.5t-48 -51t-68.5 -20.5zM208 507q30 0 48.5 21t23 46t-6.5 46t-40 21q-28 0 -45.5 -21t-22 -46t5.5 -46t37 -21z" />
    <glyph glyph-name="plusminus" unicode="&#xb1;" horiz-adv-x="634" 
d="M292 360h-224l32 122h224l34 127h122l-34 -127h216l-33 -122h-215l-42 -156h-122zM-4 122h562l-33 -122h-562z" />
    <glyph glyph-name="twosuperior" unicode="&#xb2;" horiz-adv-x="331" 
d="M86 235q-20 0 -32.5 13.5t-12.5 42.5q0 42 19.5 72.5t49 54.5t63.5 44t63.5 40.5t49 43t19.5 51.5q0 50 -51 50q-22 0 -32.5 -13t-10.5 -27q0 -11 6.5 -19.5t19.5 -8.5q9 0 16 4q-2 -36 -23 -54t-47 -18t-48 19.5t-22 58.5q0 26 10 49.5t30 41.5t49.5 29t68.5 11
q37 0 62.5 -9t41.5 -24.5t23 -35.5t7 -42q0 -38 -14.5 -66t-38 -50t-52 -39t-56.5 -33t-51.5 -32.5t-37.5 -37.5q17 -1 33.5 -5.5t36.5 -4.5q26 0 35 15t3 28q17 13 42 13q26 0 38.5 -16t12.5 -39q0 -18 -7.5 -36.5t-22.5 -34.5t-37 -26t-52 -10q-15 0 -29.5 4.5t-28 10
t-25.5 10t-23 4.5q-14 0 -17.5 -8t-1.5 -16q-8 -5 -26 -5z" />
    <glyph glyph-name="threesuperior" unicode="&#xb3;" horiz-adv-x="329" 
d="M177 233q-30 0 -54 10t-40.5 26.5t-25.5 38t-9 45.5q0 45 25 75.5t69 30.5q29 0 44 -14.5t15 -33.5q0 -6 -1 -9q-5 9 -19 9q-16 0 -24 -9t-8 -22q0 -14 11 -27.5t34 -13.5q35 0 53 22.5t18 51.5q0 24 -17 38.5t-49 13.5l9 32q22 0 39.5 10t30 25t19.5 32.5t7 32.5
q0 50 -51 50q-22 0 -32.5 -13t-10.5 -27q0 -11 6.5 -19.5t19.5 -8.5q9 0 16 4q-2 -36 -23 -54t-47 -18t-48 19.5t-22 58.5q0 26 10 50t30 42t49.5 29t68.5 11q63 0 96.5 -28t33.5 -76q0 -50 -28 -86.5t-72 -50.5q26 -13 38 -35t12 -51q0 -30 -12.5 -59t-35.5 -51.5
t-54.5 -36.5t-70.5 -14z" />
    <glyph glyph-name="acute" unicode="&#xb4;" horiz-adv-x="288" 
d="M204 603q-4 0 -11.5 7t-14.5 17t-12.5 19.5t-5.5 14.5q0 3 11 14.5t28 27t37 32.5t38.5 31.5t32.5 24t18 9.5q6 0 19.5 -10.5t27 -25.5t24 -31t10.5 -26q0 -5 -12 -14.5t-30.5 -21t-41.5 -24t-45.5 -22t-42 -16t-30.5 -6.5z" />
    <glyph glyph-name="paragraph" unicode="&#xb6;" horiz-adv-x="600" 
d="M277 328q-50 -17 -88.5 -6.5t-62 41t-29.5 77t9 102.5q12 47 39.5 93t66.5 82.5t87.5 59.5t103.5 23h93l-254 -946h-92zM564 800h93l-254 -946h-92z" />
    <glyph glyph-name="periodcentered" unicode="&#xb7;" horiz-adv-x="240" 
d="M136 190q-21 0 -37 8t-26.5 21.5t-14 31.5t1.5 38q9 34 33 52t54 18q21 0 37 -8.5t26 -22t14 -31t-1 -36.5q-7 -28 -29.5 -49.5t-57.5 -21.5z" />
    <glyph glyph-name="cedilla" unicode="&#xb8;" horiz-adv-x="252" 
d="M38 -199q-16 0 -31 5t-27 14.5t-19 24t-7 34.5q0 36 18.5 53.5t40.5 17.5q5 0 8 -1q-4 -5 -5.5 -10t-1.5 -10q0 -14 9 -21.5t20 -7.5q17 0 24.5 12.5t12 29.5t10 36t19.5 33q15 15 32 19l11 -26q-13 -5 -21.5 -16t-8.5 -31q0 -13 5 -29.5t5 -36.5q0 -23 -8 -39.5
t-21.5 -28t-30.5 -17t-34 -5.5z" />
    <glyph glyph-name="onesuperior" unicode="&#xb9;" horiz-adv-x="195" 
d="M132 235q-19 0 -30.5 8.5t-16.5 22.5t-4.5 32.5t6.5 38.5l45 168l8 30t10 29q-11 -10 -23 -16t-26 -6q-22 0 -32.5 13.5t-10.5 31.5q0 14 7.5 28.5t22.5 22.5q11 -9 26 -9q12 0 26 6t25.5 17t18.5 26.5t7 34.5q10 3 18.5 5t20.5 2q26 0 37 -15t11 -37q0 -15 -5 -33
l-74 -270q-5 -18 -3.5 -29t16.5 -11v-8q0 -21 -8 -36.5t-20 -25.5t-26 -15t-26 -5z" />
    <glyph glyph-name="ordmasculine" unicode="&#xba;" horiz-adv-x="274" 
d="M193 373q-60 0 -87 27t-27 76q0 24 5.5 49.5t19.5 73.5q17 57 47.5 87.5t89.5 30.5q57 0 84.5 -27.5t27.5 -78.5q0 -12 -1 -22.5t-3.5 -23t-7 -29t-11.5 -41.5q-17 -63 -47.5 -92.5t-89.5 -29.5zM195 457q4 0 7.5 2t8 8.5t9.5 20t11 37.5q12 47 16 65.5t4 27.5
q0 15 -13 15q-4 0 -7.5 -1.5t-7.5 -7.5t-8.5 -18t-10.5 -32q-7 -25 -11 -42t-6.5 -28t-3.5 -17.5t-1 -12.5q0 -17 13 -17z" />
    <glyph glyph-name="guillemotright" unicode="&#xbb;" horiz-adv-x="498" 
d="M148 448q20 0 38 -10.5t29 -29.5l85 -146l-133 -145q-19 -21 -49 -21h-124l170 174l-106 178h90zM340 448q20 0 38 -10.5t29 -29.5l85 -146l-133 -145q-19 -21 -49 -21h-124l170 174l-106 178h90z" />
    <glyph glyph-name="onequarter" unicode="&#xbc;" horiz-adv-x="764" 
d="M569 808h89l-561 -958h-89zM132 235q-19 0 -30.5 8.5t-16.5 22.5t-4.5 32.5t6.5 38.5l47 175q4 14 8 29t10 30q-11 -10 -23 -16t-26 -6q-22 0 -32.5 13.5t-10.5 30.5q0 15 7.5 29.5t22.5 22.5q11 -9 26 -9q12 0 26 6t25.5 17t18.5 26t7 34q10 3 18.5 5.5t20.5 2.5
q26 0 37 -15t11 -37q0 -14 -5 -34l-76 -276q-5 -18 -3.5 -29t16.5 -11v-8q0 -21 -8 -36.5t-20 -25.5t-26 -15t-26 -5zM609 -20q-19 0 -30.5 8.5t-16.5 22.5t-4.5 32.5t6.5 38.5l9 34l14 51q-20 4 -40 6.5t-42 2.5q-38 0 -57.5 -8.5t-27.5 -19.5q-10 10 -10 30q0 23 17.5 48
t38 49.5t38 48.5t17.5 45q0 16 -9 24.5t-21 8.5q-5 0 -11 -2q-3 9 -3 18q0 23 18 41.5t49 18.5q34 0 52 -22.5t18 -54.5q0 -19 -8.5 -42.5t-22.5 -47.5t-32 -45.5t-36 -37.5q29 8 64 8q6 0 12 -1t14 -2l31 112q7 26 17.5 50t25.5 42.5t34.5 29.5t43.5 11q23 0 35 -11t12 -27
q0 -5 -1 -8q-26 -10 -40 -36t-21 -51l-37 -130q21 2 35 8t23 13q10 -13 10 -28q0 -20 -19.5 -39t-59.5 -19h-7l-9 -34q-7 -23 -5.5 -35t16.5 -12v-8q0 -21 -8 -36.5t-20 -25t-26 -14.5t-26 -5z" />
    <glyph glyph-name="onehalf" unicode="&#xbd;" horiz-adv-x="738" 
d="M569 808h89l-561 -958h-89zM132 235q-19 0 -30.5 8.5t-16.5 22.5t-4.5 32.5t6.5 38.5l47 175q4 14 8 29t10 30q-11 -10 -23 -16t-26 -6q-22 0 -32.5 13.5t-10.5 30.5q0 15 7.5 29.5t22.5 22.5q11 -9 26 -9q12 0 26 6t25.5 17t18.5 26t7 34q10 3 18.5 5.5t20.5 2.5
q26 0 37 -15t11 -37q0 -14 -5 -34l-76 -276q-5 -18 -3.5 -29t16.5 -11v-8q0 -21 -8 -36.5t-20 -25.5t-26 -15t-26 -5zM426 -15q-20 0 -32.5 13.5t-12.5 42.5q0 42 19.5 73.5t49 57t63.5 47t63.5 43t49 45t19.5 52.5q0 49 -51 49q-22 0 -32.5 -12.5t-10.5 -26.5
q0 -12 6.5 -20.5t19.5 -8.5q10 0 16 5q-2 -36 -23 -54t-47 -18t-48 19.5t-22 57.5q0 26 10 49.5t30 41.5t49.5 29t68.5 11q37 0 62.5 -9t41.5 -24.5t23 -35.5t7 -42q0 -38 -14.5 -67t-38 -52t-52 -41.5t-56.5 -36t-51.5 -35t-37.5 -37.5q17 -1 33.5 -5.5t36.5 -4.5
q26 0 35 15t3 28q17 13 42 13q26 0 38.5 -16t12.5 -39q0 -18 -7.5 -36.5t-22.5 -34.5t-37 -26t-52 -10q-15 0 -29.5 4.5t-28 10t-25.5 10t-23 4.5q-14 0 -17.5 -8t-1.5 -16q-8 -5 -26 -5z" />
    <glyph glyph-name="threequarters" unicode="&#xbe;" horiz-adv-x="866" 
d="M669 808h89l-561 -958h-89zM177 225q-30 0 -54 10t-40.5 26.5t-25.5 38.5t-9 46q0 45 25 75.5t69 30.5q29 0 44 -14.5t15 -34.5v-4t-1 -4q-6 9 -19 9q-16 0 -24 -9.5t-8 -21.5q0 -15 11 -28t34 -13q35 0 53 22.5t18 51.5q0 26 -17 43t-49 16l9 32q22 0 39.5 11.5t30 29
t19.5 36.5t7 34q0 49 -51 49q-22 0 -32.5 -12.5t-10.5 -26.5q0 -11 6.5 -20t19.5 -9q8 0 16 5q-2 -36 -23 -54t-47 -18t-48 19.5t-22 57.5q0 26 10 50t30 42t49.5 29t68.5 11q63 0 96.5 -28t33.5 -76q0 -24 -7.5 -47.5t-21 -43.5t-31.5 -34.5t-40 -21.5q26 -13 38 -37
t12 -56q0 -30 -12.5 -59.5t-35.5 -52t-54.5 -36.5t-70.5 -14zM711 -20q-19 0 -30.5 8.5t-16.5 22.5t-4.5 32.5t6.5 38.5l9 34l14 51q-20 4 -40 6.5t-42 2.5q-38 0 -57.5 -8.5t-27.5 -19.5q-10 10 -10 30q0 23 17.5 48t38 49.5t38 48.5t17.5 45q0 16 -9 24.5t-21 8.5
q-5 0 -11 -2q-3 9 -3 18q0 23 18 41.5t49 18.5q34 0 52 -22.5t18 -54.5q0 -19 -8.5 -42.5t-22.5 -47.5t-32 -45.5t-36 -37.5q29 8 64 8q6 0 12 -1t14 -2l31 112q7 26 17.5 50t25.5 42.5t34.5 29.5t43.5 11q23 0 35 -11t12 -27q0 -5 -1 -8q-26 -10 -40 -36t-21 -51l-37 -130
q21 2 35 8t23 13q10 -13 10 -28q0 -20 -19.5 -39t-59.5 -19h-7l-9 -34q-7 -23 -5.5 -35t16.5 -12v-8q0 -21 -8 -36.5t-20 -25t-26 -14.5t-26 -5z" />
    <glyph glyph-name="questiondown" unicode="&#xbf;" horiz-adv-x="520" 
d="M273 636q21 0 37 -8t26.5 -21.5t14 -31.5t-1.5 -38q-9 -34 -33 -52t-54 -18q-21 0 -37 8.5t-26 22t-13.5 31t0.5 36.5q7 28 29.5 49.5t57.5 21.5zM249 442q17 0 31 -8t23 -20.5t12 -29.5t-2 -35q-11 -41 -37.5 -66t-56.5 -48t-57 -50.5t-39 -72.5q-9 -37 5 -60t40 -23
q30 0 42.5 16t12.5 33t-6 30t-17 13q-7 0 -10 -1q5 39 31 59t52 20q36 0 60 -13.5t37 -35.5t15 -50t-6 -56q-17 -63 -72 -99t-140 -36q-60 0 -103 16.5t-68.5 44t-33.5 64.5t3 78q10 40 32 69t49 50.5t56 38t54 32t43 31.5t23 38q2 11 -1 18t-9 11t-14 4.5t-15 -3.5l-3 6
q9 14 26 24.5t43 10.5z" />
    <glyph glyph-name="Agrave" unicode="&#xc0;" horiz-adv-x="820" 
d="M927 777q7 -5 10.5 -14t-10.5 -20q-23 -17 -41.5 -48t-30.5 -78l-92 -360q-17 -67 -5.5 -98.5t39.5 -31.5q0 -8 -1 -12q-16 -63 -44 -92.5t-77 -29.5q-75 0 -104.5 52.5t-3.5 146.5l16 60q-57 3 -109 15l-48 -96t-61 -96.5t-81.5 -74.5t-108.5 -30q-45 0 -77.5 14
t-53 36.5t-30 50.5t-9.5 57q0 27 8 52.5t23.5 46.5t38 36t51.5 20q1 -22 18.5 -40t50.5 -18q31 0 70 17t82 69q-42 20 -76.5 47t-59.5 59.5t-39 70.5t-14 81q0 33 10 62t29 50.5t46.5 34.5t62.5 13q50 0 74.5 -29.5t32.5 -71.5q-10 0 -20 -4t-18.5 -12.5t-14 -22.5t-5.5 -35
q0 -42 16 -76.5t45 -61.5l3.5 7l3.5 7q56 110 105.5 181.5t98.5 113.5t101.5 58.5t113.5 16.5h9t9 -1q-24 8 -53.5 21.5t-56 28.5t-44.5 28.5t-18 19.5q0 10 10.5 26t24 31t27 25.5t19.5 10.5q4 0 18 -9.5t32.5 -24t38.5 -31.5t37 -32.5t28 -27t11 -14.5q0 -4 -5 -13.5
t-11.5 -18.5t-13.5 -16.5t-12 -9.5q19 -6 35 -16zM694 593q5 17 11.5 33t16.5 33q-31 -13 -58.5 -43.5t-52.5 -71t-47.5 -88t-44.5 -94.5q22 -6 45.5 -9.5t49.5 -4.5z" />
    <glyph glyph-name="Aacute" unicode="&#xc1;" horiz-adv-x="820" 
d="M729 793q-4 0 -11.5 7t-14.5 17t-12.5 19.5t-5.5 14.5q0 3 11 14.5t28 27t37 32.5t38.5 31.5t32.5 24t18 9.5q6 0 19.5 -10.5t27 -25.5t24 -31t10.5 -26q0 -5 -12 -14.5t-30.5 -21t-41.5 -24t-45.5 -22t-42 -16t-30.5 -6.5zM175 -30q-45 0 -77.5 14t-53 36.5t-30 50.5
t-9.5 57q0 27 8 52.5t23.5 46.5t38 36t51.5 20q1 -22 18.5 -40t50.5 -18q31 0 70 17t82 69q-42 20 -76.5 47t-59.5 59.5t-39 70.5t-14 81q0 33 10 62t29 50.5t46.5 34.5t62.5 13q50 0 74.5 -29.5t32.5 -71.5q-10 0 -20 -4t-18.5 -12.5t-14 -22.5t-5.5 -35q0 -42 16 -76.5
t45 -61.5l3.5 7l3.5 7q56 110 105.5 181.5t98.5 113.5t101.5 58.5t113.5 16.5q50 0 85 -23q7 -5 10.5 -14t-10.5 -20q-23 -17 -41.5 -48t-30.5 -78l-92 -360q-17 -67 -5.5 -98.5t39.5 -31.5q0 -8 -1 -12q-16 -63 -44 -92.5t-77 -29.5q-75 0 -104.5 52.5t-3.5 146.5l16 60
q-57 3 -109 15l-48 -96t-61 -96.5t-81.5 -74.5t-108.5 -30zM694 593q5 17 11.5 33t16.5 33q-31 -13 -58.5 -43.5t-52.5 -71t-47.5 -88t-44.5 -94.5q22 -6 45.5 -9.5t49.5 -4.5z" />
    <glyph glyph-name="Acircumflex" unicode="&#xc2;" horiz-adv-x="820" 
d="M698 809q-4 0 -9 6t-10 13.5t-8.5 15.5t-3.5 12q0 2 9 13.5t22.5 26.5t31 32.5t34 32.5t31.5 24.5t24 9.5q15 0 33.5 -20.5t35 -46t27 -47.5t9.5 -25q-1 -4 -6.5 -12t-11.5 -15.5t-12 -13.5t-10 -6q-10 0 -22 8t-23.5 20t-22 25.5t-18.5 23.5q-10 -10 -22.5 -23.5
t-25 -25.5t-26 -20t-26.5 -8zM175 -30q-45 0 -77.5 14t-53 36.5t-30 50.5t-9.5 57q0 27 8 52.5t23.5 46.5t38 36t51.5 20q1 -22 18.5 -40t50.5 -18q31 0 70 17t82 69q-42 20 -76.5 47t-59.5 59.5t-39 70.5t-14 81q0 33 10 62t29 50.5t46.5 34.5t62.5 13q50 0 74.5 -29.5
t32.5 -71.5q-10 0 -20 -4t-18.5 -12.5t-14 -22.5t-5.5 -35q0 -42 16 -76.5t45 -61.5l3.5 7l3.5 7q56 110 105.5 181.5t98.5 113.5t101.5 58.5t113.5 16.5q50 0 85 -23q7 -5 10.5 -14t-10.5 -20q-23 -17 -41.5 -48t-30.5 -78l-92 -360q-17 -67 -5.5 -98.5t39.5 -31.5
q0 -8 -1 -12q-16 -63 -44 -92.5t-77 -29.5q-75 0 -104.5 52.5t-3.5 146.5l16 60q-57 3 -109 15l-48 -96t-61 -96.5t-81.5 -74.5t-108.5 -30zM694 593q5 17 11.5 33t16.5 33q-31 -13 -58.5 -43.5t-52.5 -71t-47.5 -88t-44.5 -94.5q22 -6 45.5 -9.5t49.5 -4.5z" />
    <glyph glyph-name="Atilde" unicode="&#xc3;" horiz-adv-x="820" 
d="M927 777q7 -5 10.5 -14t-10.5 -20q-23 -17 -41.5 -48t-30.5 -78l-92 -360q-17 -67 -5.5 -98.5t39.5 -31.5q0 -8 -1 -12q-16 -63 -44 -92.5t-77 -29.5q-75 0 -104.5 52.5t-3.5 146.5l16 60q-57 3 -109 15l-48 -96t-61 -96.5t-81.5 -74.5t-108.5 -30q-45 0 -77.5 14
t-53 36.5t-30 50.5t-9.5 57q0 27 8 52.5t23.5 46.5t38 36t51.5 20q1 -22 18.5 -40t50.5 -18q31 0 70 17t82 69q-42 20 -76.5 47t-59.5 59.5t-39 70.5t-14 81q0 33 10 62t29 50.5t46.5 34.5t62.5 13q50 0 74.5 -29.5t32.5 -71.5q-10 0 -20 -4t-18.5 -12.5t-14 -22.5t-5.5 -35
q0 -42 16 -76.5t45 -61.5l3.5 7l3.5 7q55 108 103.5 178.5t96.5 113t99 60t111 18.5q-18 3 -36.5 11.5t-36 17.5t-32.5 16.5t-26 7.5q-10 0 -19.5 -6.5t-18.5 -15t-18 -15t-17 -6.5q-6 0 -11 5.5t-8.5 13t-6 15.5t-2.5 13q0 11 11.5 28.5t28.5 34t37 28.5t36 12
q14 0 33 -8.5t39 -18.5t38.5 -18.5t31.5 -8.5q12 0 24 7.5t22.5 17t19 17t15.5 7.5q8 0 17.5 -15.5t9.5 -28.5q0 -10 -9 -28t-24 -35.5t-35 -31t-42 -16.5q42 -3 73 -23zM694 593q5 17 11.5 33t16.5 33q-31 -13 -58.5 -43.5t-52.5 -71t-47.5 -88t-44.5 -94.5
q22 -6 45.5 -9.5t49.5 -4.5z" />
    <glyph glyph-name="Adieresis" unicode="&#xc4;" horiz-adv-x="820" 
d="M721 822q-35 0 -54.5 24.5t-10.5 59.5q7 29 27.5 44t46.5 15q18 0 31.5 -7t22.5 -18.5t12 -26.5t-1 -31q-6 -23 -25 -41.5t-49 -18.5zM899 822q-36 0 -55 24.5t-10 59.5q7 29 27.5 44t45.5 15q18 0 32 -7t22.5 -18.5t11.5 -26.5t-1 -31q-5 -23 -24 -41.5t-49 -18.5z
M175 -30q-45 0 -77.5 14t-53 36.5t-30 50.5t-9.5 57q0 27 8 52.5t23.5 46.5t38 36t51.5 20q1 -22 18.5 -40t50.5 -18q31 0 70 17t82 69q-42 20 -76.5 47t-59.5 59.5t-39 70.5t-14 81q0 33 10 62t29 50.5t46.5 34.5t62.5 13q50 0 74.5 -29.5t32.5 -71.5q-10 0 -20 -4
t-18.5 -12.5t-14 -22.5t-5.5 -35q0 -42 16 -76.5t45 -61.5l3.5 7l3.5 7q56 110 105.5 181.5t98.5 113.5t101.5 58.5t113.5 16.5q50 0 85 -23q7 -5 10.5 -14t-10.5 -20q-23 -17 -41.5 -48t-30.5 -78l-92 -360q-17 -67 -5.5 -98.5t39.5 -31.5q0 -8 -1 -12q-16 -63 -44 -92.5
t-77 -29.5q-75 0 -104.5 52.5t-3.5 146.5l16 60q-57 3 -109 15l-48 -96t-61 -96.5t-81.5 -74.5t-108.5 -30zM694 593q5 17 11.5 33t16.5 33q-31 -13 -58.5 -43.5t-52.5 -71t-47.5 -88t-44.5 -94.5q22 -6 45.5 -9.5t49.5 -4.5z" />
    <glyph glyph-name="Aring" unicode="&#xc5;" horiz-adv-x="820" 
d="M927 777q7 -5 10.5 -14t-10.5 -20q-23 -17 -41.5 -48t-30.5 -78l-92 -360q-17 -67 -5.5 -98.5t39.5 -31.5q0 -8 -1 -12q-16 -63 -44 -92.5t-77 -29.5q-75 0 -104.5 52.5t-3.5 146.5l16 60q-57 3 -109 15l-48 -96t-61 -96.5t-81.5 -74.5t-108.5 -30q-45 0 -77.5 14
t-53 36.5t-30 50.5t-9.5 57q0 27 8 52.5t23.5 46.5t38 36t51.5 20q1 -22 18.5 -40t50.5 -18q31 0 70 17t82 69q-42 20 -76.5 47t-59.5 59.5t-39 70.5t-14 81q0 33 10 62t29 50.5t46.5 34.5t62.5 13q50 0 74.5 -29.5t32.5 -71.5q-10 0 -20 -4t-18.5 -12.5t-14 -22.5t-5.5 -35
q0 -42 16 -76.5t45 -61.5l3.5 7l3.5 7q47 91 88.5 155.5t82 107.5t82 67t87.5 33q-22 5 -39 16.5t-27.5 28t-13.5 37t3 42.5q14 43 45.5 66t73.5 23q28 0 50 -10.5t36 -28t18.5 -40t-1.5 -46.5q-7 -25 -24 -47t-44 -34h2q50 0 85 -23zM800 941q-19 0 -30.5 -13.5t-13 -29.5
t7.5 -29.5t31 -13.5q20 0 31 13.5t12 29.5t-8.5 29.5t-29.5 13.5zM694 593q5 17 11.5 33t16.5 33q-31 -13 -58.5 -43.5t-52.5 -71t-47.5 -88t-44.5 -94.5q22 -6 45.5 -9.5t49.5 -4.5z" />
    <glyph glyph-name="AE" unicode="&#xc6;" horiz-adv-x="1058" 
d="M175 -30q-45 0 -77.5 14t-53 36.5t-30 50.5t-9.5 57q0 27 8 52.5t23.5 46.5t38 36t51.5 20q1 -22 18.5 -40t50.5 -18q31 0 69.5 17t82.5 69q-42 21 -76.5 47.5t-59.5 59t-39 70.5t-14 81q0 33 10 62t29 50.5t46.5 34.5t62.5 13q50 0 74.5 -29.5t32.5 -71.5q-10 0 -20 -4
t-18.5 -12.5t-14 -22.5t-5.5 -35q0 -42 16 -76.5t45 -60.5q2 3 3.5 6l3.5 7q53 105 100 173t91 108t86.5 56t87.5 16q41 0 54 -28q30 26 70 42.5t90 16.5q53 0 84 -19.5t44.5 -50.5t13 -69t-11.5 -74q-10 -34 -37 -59t-68 -25q-37 0 -46 28t6 78q12 38 -0.5 56.5t-33.5 17.5
t-44 -21t-34 -59q-5 -19 -7 -41.5t1 -44t12 -39.5t25 -30q17 5 40.5 10t46.5 5q33 0 46.5 -15.5t6.5 -37.5q-7 -23 -30 -41t-71 -18q-20 0 -38 6.5t-32 18.5q-36 -12 -54.5 -37t-26.5 -51q-7 -24 -7 -46t8.5 -39.5t24.5 -27.5t40 -10q23 0 39.5 11t26.5 27.5t12 36t-5 36.5
q5 2 10 2h9q37 0 64.5 -26.5t27.5 -77.5q0 -39 -15.5 -77.5t-45.5 -69t-73 -49.5t-98 -19q-60 0 -107.5 22.5t-77.5 60.5t-41 88.5t2 107.5q-58 3 -114 15q-14 -29 -30.5 -62.5t-35.5 -66.5t-42.5 -63.5t-52 -53.5t-63 -37t-75.5 -14zM694 593q5 17 11.5 33t16.5 33
q-31 -13 -58.5 -43.5t-52.5 -71t-47.5 -88t-44.5 -94.5q22 -6 45.5 -9.5t49.5 -4.5z" />
    <glyph glyph-name="Ccedilla" unicode="&#xc7;" horiz-adv-x="630" 
d="M471 474q-31 0 -56 4t-47 10q-20 -51 -31 -101.5t-11 -88.5q0 -122 82 -122q24 0 42 14.5t28.5 35.5t12.5 46t-4 46q5 1 8.5 1h7.5q25 0 44 -10t32 -27.5t19.5 -41t6.5 -50.5q0 -47 -18.5 -87.5t-49.5 -70t-72 -46t-85 -16.5q-10 0 -19 0.5t-18 1.5q2 -11 5 -24t3 -27
q0 -23 -8 -39.5t-21.5 -28t-30.5 -17t-34 -5.5q-16 0 -31 5t-27 14.5t-19 24t-7 34.5q0 36 18.5 53.5t40.5 17.5q5 0 8 -1q-4 -5 -5.5 -10t-1.5 -10q0 -14 9 -21.5t20 -7.5q20 0 27 15.5t12 36.5q-78 25 -119 95t-41 170q0 75 19.5 153t55.5 149q-12 2 -23 3.5t-22 1.5
q-32 0 -54.5 -8.5t-37 -22.5t-21 -32t-6.5 -37q0 -31 18 -47t40 -16q15 0 28 8q-1 -39 -14 -68t-33 -47.5t-45.5 -27.5t-52.5 -9q-33 0 -61.5 12.5t-49.5 35t-33 52.5t-12 66q0 50 22 95.5t61.5 80t95.5 55.5t123 21q44 0 76.5 -6t58.5 -16q53 70 121 113.5t149 43.5
q40 0 71 -11.5t52.5 -30.5t32.5 -44.5t11 -52.5q0 -40 -20 -74.5t-53 -59.5t-76.5 -39t-90.5 -14zM530 670q-33 0 -63 -26t-55 -68q24 -6 52 -6q22 0 42 4.5t35.5 12.5t24.5 20.5t9 27.5t-12.5 25t-32.5 10z" />
    <glyph glyph-name="Egrave" unicode="&#xc8;" horiz-adv-x="498" 
d="M591 682q0 -28 -10.5 -55t-31 -49t-51 -35.5t-70.5 -13.5q-58 0 -103 20q0 -26 6.5 -48.5t22.5 -36.5q17 5 37.5 9t41.5 4q33 0 46.5 -15.5t6.5 -37.5q-7 -23 -30 -41t-71 -18q-20 0 -38 6.5t-32 18.5q-36 -12 -54.5 -37t-26.5 -51q-7 -24 -7 -46t8.5 -39.5t24.5 -27.5
t40 -10q23 0 39.5 11t26.5 27.5t12 36t-5 36.5q5 2 10 2h9q37 0 64.5 -26.5t27.5 -77.5q0 -39 -15.5 -77.5t-45.5 -69t-73 -49.5t-98 -19q-62 0 -110.5 24t-78 65t-38 94.5t7.5 113.5q22 72 81 118t139 60q-38 20 -54 64t-11 94q-18 5 -37 5q-41 0 -60 -20.5t-14 -52.5
t27.5 -41.5t43.5 -1.5q-4 -21 -16 -37.5t-29 -28t-38 -18t-42 -6.5q-30 0 -54 11t-41 30.5t-26 45.5t-9 57q0 36 13.5 69t38 57.5t60 39.5t79.5 15q45 0 77 -9.5t57 -24.5q29 49 84.5 83.5t139.5 34.5h10t10 -1q-23 10 -47 22.5t-43.5 24.5t-32 22t-12.5 15q0 10 10.5 26
t24 31t27 25.5t19.5 10.5q4 0 18 -9.5t32.5 -24t38.5 -31.5t37 -32.5t28 -27t11 -14.5q0 -5 -5 -14.5t-12.5 -19t-14.5 -17t-12 -7.5q32 -18 47 -48t15 -63zM342 633q36 -19 75 -19q23 0 38.5 12.5t19 27.5t-7 27.5t-39.5 12.5q-28 0 -50.5 -15.5t-35.5 -45.5z" />
    <glyph glyph-name="Eacute" unicode="&#xc9;" horiz-adv-x="498" 
d="M591 682q0 -28 -10.5 -55t-31 -49t-51 -35.5t-70.5 -13.5q-58 0 -103 20q0 -26 6.5 -48.5t22.5 -36.5q17 5 37.5 9t41.5 4q33 0 46.5 -15.5t6.5 -37.5q-7 -23 -30 -41t-71 -18q-20 0 -38 6.5t-32 18.5q-36 -12 -54.5 -37t-26.5 -51q-7 -24 -7 -46t8.5 -39.5t24.5 -27.5
t40 -10q23 0 39.5 11t26.5 27.5t12 36t-5 36.5q5 2 10 2h9q37 0 64.5 -26.5t27.5 -77.5q0 -39 -15.5 -77.5t-45.5 -69t-73 -49.5t-98 -19q-62 0 -110.5 24t-78 65t-38 94.5t7.5 113.5q22 72 81 118t139 60q-38 20 -54 64t-11 94q-18 5 -37 5q-41 0 -60 -20.5t-14 -52.5
t27.5 -41.5t43.5 -1.5q-4 -21 -16 -37.5t-29 -28t-38 -18t-42 -6.5q-30 0 -54 11t-41 30.5t-26 45.5t-9 57q0 36 13.5 69t38 57.5t60 39.5t79.5 15q45 0 77 -9.5t57 -24.5q20 35 54.5 63t82.5 43q-11 11 -21 26.5t-10 22.5q0 3 11 14.5t28 27t37 32.5t38.5 31.5t32.5 24
t18 9.5q6 0 19.5 -10.5t27 -25.5t24 -31t10.5 -26q0 -5 -12.5 -15t-31.5 -22t-42.5 -24t-46.5 -22h5q38 0 66 -11t46.5 -29.5t27.5 -42t9 -49.5zM342 633q36 -19 75 -19q23 0 38.5 12.5t19 27.5t-7 27.5t-39.5 12.5q-28 0 -50.5 -15.5t-35.5 -45.5z" />
    <glyph glyph-name="Ecircumflex" unicode="&#xca;" horiz-adv-x="498" 
d="M337 809q-4 0 -9 6t-10 13.5t-8.5 15.5t-3.5 12q0 2 9 13.5t22.5 26.5t31 32.5t34 32.5t31.5 24.5t24 9.5q15 0 33.5 -20.5t35 -46t27 -47.5t9.5 -25q-1 -4 -6.5 -12t-11.5 -15.5t-12 -13.5t-10 -6q-10 0 -22 8t-23.5 20t-22 25.5t-18.5 23.5q-10 -10 -22.5 -23.5
t-25 -25.5t-26 -20t-26.5 -8zM252 -27q-62 0 -110.5 24t-78 65t-38 94.5t7.5 113.5q22 72 81 118t139 60q-38 20 -54 64t-11 94q-18 5 -37 5q-41 0 -60 -20.5t-14 -52.5t27.5 -41.5t43.5 -1.5q-4 -21 -16 -37.5t-29 -28t-38 -18t-42 -6.5q-30 0 -54 11t-41 30.5t-26 45.5
t-9 57q0 36 13.5 69t38 57.5t60 39.5t79.5 15q45 0 77 -9.5t57 -24.5q29 49 84.5 83.5t139.5 34.5q38 0 66 -11t46.5 -29.5t27.5 -42t9 -49.5q0 -28 -10.5 -55t-31 -49t-51 -35.5t-70.5 -13.5q-58 0 -103 20q0 -26 6.5 -48.5t22.5 -36.5q17 5 37.5 9t41.5 4q33 0 46.5 -15.5
t6.5 -37.5q-7 -23 -30 -41t-71 -18q-20 0 -38 6.5t-32 18.5q-36 -12 -54.5 -37t-26.5 -51q-7 -24 -7 -46t8.5 -39.5t24.5 -27.5t40 -10q23 0 39.5 11t26.5 27.5t12 36t-5 36.5q5 2 10 2h9q37 0 64.5 -26.5t27.5 -77.5q0 -39 -15.5 -77.5t-45.5 -69t-73 -49.5t-98 -19z
M417 614q23 0 38.5 12.5t19 27.5t-7 27.5t-39.5 12.5q-28 0 -50.5 -15.5t-35.5 -45.5q36 -19 75 -19z" />
    <glyph glyph-name="Edieresis" unicode="&#xcb;" horiz-adv-x="498" 
d="M360 822q-35 0 -54.5 24.5t-10.5 59.5q7 29 27.5 44t46.5 15q18 0 31.5 -7t22.5 -18.5t12 -26.5t-1 -31q-6 -23 -25 -41.5t-49 -18.5zM538 822q-36 0 -55 24.5t-10 59.5q7 29 27.5 44t45.5 15q18 0 32 -7t22.5 -18.5t11.5 -26.5t-1 -31q-5 -23 -24 -41.5t-49 -18.5z
M252 -27q-62 0 -110.5 24t-78 65t-38 94.5t7.5 113.5q22 72 81 118t139 60q-38 20 -54 64t-11 94q-18 5 -37 5q-41 0 -60 -20.5t-14 -52.5t27.5 -41.5t43.5 -1.5q-4 -21 -16 -37.5t-29 -28t-38 -18t-42 -6.5q-30 0 -54 11t-41 30.5t-26 45.5t-9 57q0 36 13.5 69t38 57.5
t60 39.5t79.5 15q45 0 77 -9.5t57 -24.5q29 49 84.5 83.5t139.5 34.5q38 0 66 -11t46.5 -29.5t27.5 -42t9 -49.5q0 -28 -10.5 -55t-31 -49t-51 -35.5t-70.5 -13.5q-58 0 -103 20q0 -26 6.5 -48.5t22.5 -36.5q17 5 37.5 9t41.5 4q33 0 46.5 -15.5t6.5 -37.5q-7 -23 -30 -41
t-71 -18q-20 0 -38 6.5t-32 18.5q-36 -12 -54.5 -37t-26.5 -51q-7 -24 -7 -46t8.5 -39.5t24.5 -27.5t40 -10q23 0 39.5 11t26.5 27.5t12 36t-5 36.5q5 2 10 2h9q37 0 64.5 -26.5t27.5 -77.5q0 -39 -15.5 -77.5t-45.5 -69t-73 -49.5t-98 -19zM417 614q23 0 38.5 12.5t19 27.5
t-7 27.5t-39.5 12.5q-28 0 -50.5 -15.5t-35.5 -45.5q36 -19 75 -19z" />
    <glyph glyph-name="Igrave" unicode="&#xcc;" horiz-adv-x="493" 
d="M482 793q-11 0 -30.5 6.5t-42 16t-45.5 22t-41.5 24t-30.5 21t-12 14.5q0 10 10.5 26t24 31t27 25.5t19.5 10.5q4 0 18 -9.5t32.5 -24t38.5 -31.5t37 -32.5t28 -27t11 -14.5q0 -5 -5.5 -14.5t-12.5 -19.5t-14.5 -17t-11.5 -7zM195 -30q-45 0 -77.5 14t-53 36.5t-30 50.5
t-9.5 57q0 27 8 52.5t23.5 46.5t38 36t51.5 20q3 -23 20 -40.5t49 -17.5q21 0 36.5 8.5t27.5 23t19.5 33t11.5 38.5q11 40 23.5 88t27 95t31 87.5t34.5 64.5q-8 -1 -15.5 -1.5t-14.5 -0.5q-23 0 -40 2.5t-33 2.5q-28 0 -48.5 -8t-34 -20.5t-20.5 -28.5t-7 -33q0 -29 14 -47
t39 -18q16 0 30 8q1 -5 1 -9v-9q0 -59 -38 -97t-107 -38q-37 0 -66 14.5t-48 39t-29 57t-10 67.5q0 44 15.5 88.5t47 80.5t79.5 58.5t113 22.5q50 0 84 -5.5t61 -12.5t51.5 -12.5t55.5 -5.5q20 0 43.5 2.5t54.5 10.5l9 -26q-6 -11 -16.5 -34.5t-22 -50.5t-21 -54t-14.5 -45
t-12.5 -47t-17.5 -64.5t-21 -76.5t-22 -84q-12 -51 -31.5 -107t-51 -103.5t-77.5 -78t-111 -30.5z" />
    <glyph glyph-name="Iacute" unicode="&#xcd;" horiz-adv-x="493" 
d="M321 793q-4 0 -11.5 7t-14.5 17t-12.5 19.5t-5.5 14.5q0 3 11 14.5t28 27t37 32.5t38.5 31.5t32.5 24t18 9.5q6 0 19.5 -10.5t27 -25.5t24 -31t10.5 -26q0 -5 -12 -14.5t-30.5 -21t-41.5 -24t-45.5 -22t-42 -16t-30.5 -6.5zM195 -30q-45 0 -77.5 14t-53 36.5t-30 50.5
t-9.5 57q0 27 8 52.5t23.5 46.5t38 36t51.5 20q3 -23 20 -40.5t49 -17.5q21 0 36.5 8.5t27.5 23t19.5 33t11.5 38.5q11 40 23.5 88t27 95t31 87.5t34.5 64.5q-8 -1 -15.5 -1.5t-14.5 -0.5q-23 0 -40 2.5t-33 2.5q-28 0 -48.5 -8t-34 -20.5t-20.5 -28.5t-7 -33q0 -29 14 -47
t39 -18q16 0 30 8q1 -5 1 -9v-9q0 -59 -38 -97t-107 -38q-37 0 -66 14.5t-48 39t-29 57t-10 67.5q0 44 15.5 88.5t47 80.5t79.5 58.5t113 22.5q50 0 84 -5.5t61 -12.5t51.5 -12.5t55.5 -5.5q20 0 43.5 2.5t54.5 10.5l9 -26q-6 -11 -16.5 -34.5t-22 -50.5t-21 -54t-14.5 -45
t-12.5 -47t-17.5 -64.5t-21 -76.5t-22 -84q-12 -51 -31.5 -107t-51 -103.5t-77.5 -78t-111 -30.5z" />
    <glyph glyph-name="Icircumflex" unicode="&#xce;" horiz-adv-x="493" 
d="M290 809q-4 0 -9 6t-10 13.5t-8.5 15.5t-3.5 12q0 2 9 13.5t22.5 26.5t31 32.5t34 32.5t31.5 24.5t24 9.5q15 0 33.5 -20.5t35 -46t27 -47.5t9.5 -25q-1 -4 -6.5 -12t-11.5 -15.5t-12 -13.5t-10 -6q-10 0 -22 8t-23.5 20t-22 25.5t-18.5 23.5q-10 -10 -22.5 -23.5
t-25 -25.5t-26 -20t-26.5 -8zM195 -30q-45 0 -77.5 14t-53 36.5t-30 50.5t-9.5 57q0 27 8 52.5t23.5 46.5t38 36t51.5 20q3 -23 20 -40.5t49 -17.5q21 0 36.5 8.5t27.5 23t19.5 33t11.5 38.5q11 40 23.5 88t27 95t31 87.5t34.5 64.5q-8 -1 -15.5 -1.5t-14.5 -0.5
q-23 0 -40 2.5t-33 2.5q-28 0 -48.5 -8t-34 -20.5t-20.5 -28.5t-7 -33q0 -29 14 -47t39 -18q16 0 30 8q1 -5 1 -9v-9q0 -59 -38 -97t-107 -38q-37 0 -66 14.5t-48 39t-29 57t-10 67.5q0 44 15.5 88.5t47 80.5t79.5 58.5t113 22.5q50 0 84 -5.5t61 -12.5t51.5 -12.5
t55.5 -5.5q20 0 43.5 2.5t54.5 10.5l9 -26q-6 -11 -16.5 -34.5t-22 -50.5t-21 -54t-14.5 -45t-12.5 -47t-17.5 -64.5t-21 -76.5t-22 -84q-12 -51 -31.5 -107t-51 -103.5t-77.5 -78t-111 -30.5z" />
    <glyph glyph-name="Idieresis" unicode="&#xcf;" horiz-adv-x="493" 
d="M313 822q-35 0 -54.5 24.5t-10.5 59.5q7 29 27.5 44t46.5 15q18 0 31.5 -7t22.5 -18.5t12 -26.5t-1 -31q-6 -23 -25 -41.5t-49 -18.5zM491 822q-36 0 -55 24.5t-10 59.5q7 29 27.5 44t45.5 15q18 0 32 -7t22.5 -18.5t11.5 -26.5t-1 -31q-5 -23 -24 -41.5t-49 -18.5z
M195 -30q-45 0 -77.5 14t-53 36.5t-30 50.5t-9.5 57q0 27 8 52.5t23.5 46.5t38 36t51.5 20q3 -23 20 -40.5t49 -17.5q21 0 36.5 8.5t27.5 23t19.5 33t11.5 38.5q11 40 23.5 88t27 95t31 87.5t34.5 64.5q-8 -1 -15.5 -1.5t-14.5 -0.5q-23 0 -40 2.5t-33 2.5q-28 0 -48.5 -8
t-34 -20.5t-20.5 -28.5t-7 -33q0 -29 14 -47t39 -18q16 0 30 8q1 -5 1 -9v-9q0 -59 -38 -97t-107 -38q-37 0 -66 14.5t-48 39t-29 57t-10 67.5q0 44 15.5 88.5t47 80.5t79.5 58.5t113 22.5q50 0 84 -5.5t61 -12.5t51.5 -12.5t55.5 -5.5q20 0 43.5 2.5t54.5 10.5l9 -26
q-6 -11 -16.5 -34.5t-22 -50.5t-21 -54t-14.5 -45t-12.5 -47t-17.5 -64.5t-21 -76.5t-22 -84q-12 -51 -31.5 -107t-51 -103.5t-77.5 -78t-111 -30.5z" />
    <glyph glyph-name="Eth" unicode="&#xd0;" horiz-adv-x="694" 
d="M152 -17q-39 0 -69 13.5t-50.5 36t-30.5 50.5t-10 58q0 28 9 55t26 48.5t42 35.5t57 17q1 -22 13.5 -40.5t43.5 -18.5q43 0 69 38h-60l7 27q5 18 18.5 28.5t31.5 10.5h32l52 197q14 51 43 75.5t66 24.5q30 0 49.5 -10t24.5 -24q-7 -7 -12.5 -18.5t-9.5 -32.5
q-8 -45 -24.5 -100t-32.5 -112h55l-7 -27q-5 -18 -18.5 -28.5t-31.5 -10.5h-15q-8 -28 -15.5 -52t-16.5 -47q14 -8 30 -8q23 0 43.5 17.5t37.5 46.5t30 66t22.5 76t14.5 76.5t5 66.5q0 86 -40 133.5t-126 47.5q-51 0 -87 -15t-59 -37.5t-33.5 -48.5t-10.5 -49t10 -38t28 -15
q12 0 21 6q8 -31 3 -61t-21 -53.5t-42 -38t-60 -14.5q-33 0 -59 13t-43.5 35t-26.5 51.5t-9 63.5q0 53 23.5 110.5t72.5 105t125 78.5t181 31q70 0 126.5 -23t96.5 -67.5t62 -109t22 -147.5q0 -103 -21 -191.5t-58.5 -153t-88.5 -101.5t-111 -37q-38 0 -61.5 10t-36.5 26.5
t-17.5 39t-4.5 47.5q-12 -31 -32 -55.5t-44 -41.5t-49.5 -26.5t-48.5 -9.5z" />
    <glyph glyph-name="Ntilde" unicode="&#xd1;" horiz-adv-x="770" 
d="M645 799q-18 0 -38.5 8.5t-40 18.5t-36 18.5t-28.5 8.5q-10 0 -19.5 -6.5t-18.5 -15t-18 -15t-17 -6.5q-6 0 -11 5.5t-8.5 13t-6 15.5t-2.5 13q0 11 11.5 28.5t28.5 34t37 28.5t36 12q14 0 33 -8.5t39 -18.5t38.5 -18.5t31.5 -8.5q12 0 24 7.5t22.5 17t19 17t15.5 7.5
q8 0 17.5 -15.5t9.5 -28.5q0 -11 -10 -30t-26.5 -37t-38 -31.5t-44.5 -13.5zM195 -17q-45 0 -77.5 14t-53 36.5t-30 50.5t-9.5 57q0 27 8 52.5t23.5 46.5t38 36t51.5 20q1 -22 18.5 -40t50.5 -18q21 0 37 7.5t27.5 20t19 28.5t11.5 34q10 38 21 85.5t24 94.5t28 88t33 66
q-5 -1 -9 -1h-9q-21 0 -39.5 2.5t-35.5 2.5q-28 0 -48.5 -8t-34 -20.5t-20.5 -28.5t-7 -33q0 -29 14 -47t39 -18q16 0 30 8q1 -5 1 -9v-9q0 -59 -38 -97t-107 -38q-37 0 -66 14.5t-48 39t-29 57t-10 67.5q0 44 15.5 88.5t47 80.5t79.5 58.5t113 22.5q35 0 66.5 -6
t59.5 -12.5t52 -12.5t45 -6t40.5 2.5t36.5 2.5q23 0 36.5 -9.5t13.5 -39.5q0 -14 2.5 -48t6.5 -79t9.5 -97.5t11.5 -103.5h6q5 76 21.5 154t44.5 141.5t68.5 104t94.5 40.5q47 0 72 -25t25 -71q0 -16 -4 -32.5t-13 -32.5q-6 2 -12 2h-11q-51 0 -85 -47.5t-59 -141.5
l-58 -220q-13 -49 -13 -82q0 -48 34 -48q0 -8 -1 -12q-14 -63 -43 -92.5t-78 -29.5h-1q-29 0 -51 23.5t-38 62.5t-26 91t-16 108t-9 113.5t-4 108.5h-3q-8 -65 -18.5 -120t-20.5 -91q-12 -49 -26.5 -103t-40.5 -99t-67.5 -74.5t-106.5 -29.5z" />
    <glyph glyph-name="Ograve" unicode="&#xd2;" horiz-adv-x="470" 
d="M410 793q-11 0 -30.5 6.5t-42 16t-45.5 22t-41.5 24t-30.5 21t-12 14.5q0 10 10.5 26t24 31t27 25.5t19.5 10.5q4 0 18 -9.5t32.5 -24t38.5 -31.5t37 -32.5t28 -27t11 -14.5q0 -5 -5.5 -14.5t-12.5 -19.5t-14.5 -17t-11.5 -7zM190 -7q-46 0 -79 16.5t-53.5 44t-30 63
t-9.5 73.5q0 54 17 106t46 87q-26 20 -41.5 55t-15.5 79q0 49 17 93.5t50.5 78.5t82.5 54t113 20q104 0 157.5 -60.5t53.5 -175.5q0 -58 -9.5 -120t-27 -121.5t-44 -112.5t-61 -93t-76 -63.5t-90.5 -23.5zM207 186q17 0 33.5 19t31 49.5t26.5 69t21 77.5t14 75.5t5 62.5
q0 79 -59 79q-20 0 -35.5 -7.5t-25.5 -19.5t-15 -27t-5 -30q0 -23 11.5 -39.5t34.5 -16.5q19 0 28 11q2 -29 -10.5 -61t-44.5 -51q-8 -13 -14.5 -30t-11.5 -35.5t-7.5 -37t-2.5 -34.5q0 -23 6 -38.5t20 -15.5z" />
    <glyph glyph-name="Oacute" unicode="&#xd3;" horiz-adv-x="470" 
d="M249 793q-4 0 -11.5 7t-14.5 17t-12.5 19.5t-5.5 14.5q0 3 11 14.5t28 27t37 32.5t38.5 31.5t32.5 24t18 9.5q6 0 19.5 -10.5t27 -25.5t24 -31t10.5 -26q0 -5 -12 -14.5t-30.5 -21t-41.5 -24t-45.5 -22t-42 -16t-30.5 -6.5zM190 -7q-46 0 -79 16.5t-53.5 44t-30 63
t-9.5 73.5q0 54 17 106t46 87q-26 20 -41.5 55t-15.5 79q0 49 17 93.5t50.5 78.5t82.5 54t113 20q104 0 157.5 -60.5t53.5 -175.5q0 -58 -9.5 -120t-27 -121.5t-44 -112.5t-61 -93t-76 -63.5t-90.5 -23.5zM207 186q17 0 33.5 19t31 49.5t26.5 69t21 77.5t14 75.5t5 62.5
q0 79 -59 79q-20 0 -35.5 -7.5t-25.5 -19.5t-15 -27t-5 -30q0 -23 11.5 -39.5t34.5 -16.5q19 0 28 11q2 -29 -10.5 -61t-44.5 -51q-8 -13 -14.5 -30t-11.5 -35.5t-7.5 -37t-2.5 -34.5q0 -23 6 -38.5t20 -15.5z" />
    <glyph glyph-name="Ocircumflex" unicode="&#xd4;" horiz-adv-x="470" 
d="M218 809q-4 0 -9 6t-10 13.5t-8.5 15.5t-3.5 12q0 2 9 13.5t22.5 26.5t31 32.5t34 32.5t31.5 24.5t24 9.5q15 0 33.5 -20.5t35 -46t27 -47.5t9.5 -25q-1 -4 -6.5 -12t-11.5 -15.5t-12 -13.5t-10 -6q-10 0 -22 8t-23.5 20t-22 25.5t-18.5 23.5q-10 -10 -22.5 -23.5
t-25 -25.5t-26 -20t-26.5 -8zM190 -7q-46 0 -79 16.5t-53.5 44t-30 63t-9.5 73.5q0 54 17 106t46 87q-26 20 -41.5 55t-15.5 79q0 49 17 93.5t50.5 78.5t82.5 54t113 20q104 0 157.5 -60.5t53.5 -175.5q0 -58 -9.5 -120t-27 -121.5t-44 -112.5t-61 -93t-76 -63.5
t-90.5 -23.5zM207 186q17 0 33.5 19t31 49.5t26.5 69t21 77.5t14 75.5t5 62.5q0 79 -59 79q-20 0 -35.5 -7.5t-25.5 -19.5t-15 -27t-5 -30q0 -23 11.5 -39.5t34.5 -16.5q19 0 28 11q2 -29 -10.5 -61t-44.5 -51q-8 -13 -14.5 -30t-11.5 -35.5t-7.5 -37t-2.5 -34.5
q0 -23 6 -38.5t20 -15.5z" />
    <glyph glyph-name="Otilde" unicode="&#xd5;" horiz-adv-x="470" 
d="M365 799q-18 0 -38.5 8.5t-40 18.5t-36 18.5t-28.5 8.5q-10 0 -19.5 -6.5t-18.5 -15t-18 -15t-17 -6.5q-6 0 -11 5.5t-8.5 13t-6 15.5t-2.5 13q0 11 11.5 28.5t28.5 34t37 28.5t36 12q14 0 33 -8.5t39 -18.5t38.5 -18.5t31.5 -8.5q12 0 24 7.5t22.5 17t19 17t15.5 7.5
q8 0 17.5 -15.5t9.5 -28.5q0 -11 -10 -30t-26.5 -37t-38 -31.5t-44.5 -13.5zM190 -7q-46 0 -79 16.5t-53.5 44t-30 63t-9.5 73.5q0 54 17 106t46 87q-26 20 -41.5 55t-15.5 79q0 49 17 93.5t50.5 78.5t82.5 54t113 20q104 0 157.5 -60.5t53.5 -175.5q0 -58 -9.5 -120
t-27 -121.5t-44 -112.5t-61 -93t-76 -63.5t-90.5 -23.5zM207 186q17 0 33.5 19t31 49.5t26.5 69t21 77.5t14 75.5t5 62.5q0 79 -59 79q-20 0 -35.5 -7.5t-25.5 -19.5t-15 -27t-5 -30q0 -23 11.5 -39.5t34.5 -16.5q19 0 28 11q2 -29 -10.5 -61t-44.5 -51q-8 -13 -14.5 -30
t-11.5 -35.5t-7.5 -37t-2.5 -34.5q0 -23 6 -38.5t20 -15.5z" />
    <glyph glyph-name="Odieresis" unicode="&#xd6;" horiz-adv-x="470" 
d="M241 822q-35 0 -54.5 24.5t-10.5 59.5q7 29 27.5 44t46.5 15q18 0 31.5 -7t22.5 -18.5t12 -26.5t-1 -31q-6 -23 -25 -41.5t-49 -18.5zM419 822q-36 0 -55 24.5t-10 59.5q7 29 27.5 44t45.5 15q18 0 32 -7t22.5 -18.5t11.5 -26.5t-1 -31q-5 -23 -24 -41.5t-49 -18.5z
M190 -7q-46 0 -79 16.5t-53.5 44t-30 63t-9.5 73.5q0 54 17 106t46 87q-26 20 -41.5 55t-15.5 79q0 49 17 93.5t50.5 78.5t82.5 54t113 20q104 0 157.5 -60.5t53.5 -175.5q0 -58 -9.5 -120t-27 -121.5t-44 -112.5t-61 -93t-76 -63.5t-90.5 -23.5zM207 186q17 0 33.5 19
t31 49.5t26.5 69t21 77.5t14 75.5t5 62.5q0 79 -59 79q-20 0 -35.5 -7.5t-25.5 -19.5t-15 -27t-5 -30q0 -23 11.5 -39.5t34.5 -16.5q19 0 28 11q2 -29 -10.5 -61t-44.5 -51q-8 -13 -14.5 -30t-11.5 -35.5t-7.5 -37t-2.5 -34.5q0 -23 6 -38.5t20 -15.5z" />
    <glyph glyph-name="multiply" unicode="&#xd7;" horiz-adv-x="537" 
d="M-21 132l218 172l-126 172l109 87l126 -172l218 172l63 -87l-218 -172l126 -172l-109 -86l-126 172l-218 -172z" />
    <glyph glyph-name="Oslash" unicode="&#xd8;" horiz-adv-x="470" 
d="M190 -7q-46 0 -79 16.5t-53.5 44t-30 63t-9.5 73.5q0 54 17 106t46 87q-26 20 -41.5 55t-15.5 79q0 49 17 93.5t50.5 78.5t82.5 54t113 20q104 0 157.5 -60.5t53.5 -175.5q0 -58 -9.5 -120t-27 -121.5t-44 -112.5t-61 -93t-76 -63.5t-90.5 -23.5zM244 478q6 0 14 2
l63 122q-13 16 -42 16q-20 0 -35.5 -7.5t-25.5 -19.5t-15 -27t-5 -30q0 -23 11.5 -39.5t34.5 -16.5zM207 186q16 0 31.5 17.5t30 45.5t26.5 64t21 74t14.5 73.5t7.5 63.5l-157 -290q1 -21 7 -34.5t19 -13.5z" />
    <glyph glyph-name="Ugrave" unicode="&#xd9;" horiz-adv-x="580" 
d="M500 793q-11 0 -30.5 6.5t-42 16t-45.5 22t-41.5 24t-30.5 21t-12 14.5q0 10 10.5 26t24 31t27 25.5t19.5 10.5q4 0 18 -9.5t32.5 -24t38.5 -31.5t37 -32.5t28 -27t11 -14.5q0 -5 -5.5 -14.5t-12.5 -19.5t-14.5 -17t-11.5 -7zM136 -7q-52 0 -79 32.5t-27 94.5q0 42 13 96
t40 120q10 24 23.5 57t26 68.5t21 71t8.5 65.5q0 36 -16.5 58.5t-58.5 22.5q-19 0 -34 -7.5t-24.5 -19t-14.5 -26.5t-5 -30q0 -28 16 -50t49 -22q6 0 10 1q1 -5 1 -16q0 -28 -10 -50t-26.5 -37t-38 -23t-44.5 -8q-27 0 -54.5 11t-49.5 34t-35.5 57.5t-13.5 82.5t16 96
t49.5 86.5t85 63t123.5 24.5q64 0 109 -14.5t73.5 -42t42 -67t13.5 -89.5q0 -64 -20 -143.5t-55 -173.5q-16 -42 -16 -68q0 -23 9 -33t23 -10q9 0 22 7.5t29.5 31.5t36.5 69.5t43 121.5l56 210q3 12 3 20q0 16 -5.5 25.5t-5.5 26.5q0 21 20.5 35.5t49 24.5t58 14.5t48.5 4.5
q17 0 24 -8t7 -21q0 -4 -0.5 -7.5t-1.5 -8.5q-24 -90 -43 -162t-34.5 -131.5t-28 -108.5t-23.5 -92q-9 -39 -9 -66q0 -32 11.5 -48t31.5 -16q0 -8 -1 -12q-14 -63 -43 -92.5t-78 -29.5q-54 0 -76.5 30.5t-22.5 80.5q0 20 3.5 42t9.5 46l2 7q-27 -60 -54 -100t-53.5 -63.5
t-53 -33t-52.5 -9.5z" />
    <glyph glyph-name="Uacute" unicode="&#xda;" horiz-adv-x="580" 
d="M339 793q-4 0 -11.5 7t-14.5 17t-12.5 19.5t-5.5 14.5q0 3 11 14.5t28 27t37 32.5t38.5 31.5t32.5 24t18 9.5q6 0 19.5 -10.5t27 -25.5t24 -31t10.5 -26q0 -5 -12 -14.5t-30.5 -21t-41.5 -24t-45.5 -22t-42 -16t-30.5 -6.5zM136 -7q-52 0 -79 32.5t-27 94.5q0 42 13 96
t40 120q10 24 23.5 57t26 68.5t21 71t8.5 65.5q0 36 -16.5 58.5t-58.5 22.5q-19 0 -34 -7.5t-24.5 -19t-14.5 -26.5t-5 -30q0 -28 16 -50t49 -22q6 0 10 1q1 -5 1 -16q0 -28 -10 -50t-26.5 -37t-38 -23t-44.5 -8q-27 0 -54.5 11t-49.5 34t-35.5 57.5t-13.5 82.5t16 96
t49.5 86.5t85 63t123.5 24.5q64 0 109 -14.5t73.5 -42t42 -67t13.5 -89.5q0 -64 -20 -143.5t-55 -173.5q-16 -42 -16 -68q0 -23 9 -33t23 -10q9 0 22 7.5t29.5 31.5t36.5 69.5t43 121.5l56 210q3 12 3 20q0 16 -5.5 25.5t-5.5 26.5q0 21 20.5 35.5t49 24.5t58 14.5t48.5 4.5
q17 0 24 -8t7 -21q0 -4 -0.5 -7.5t-1.5 -8.5q-24 -90 -43 -162t-34.5 -131.5t-28 -108.5t-23.5 -92q-9 -39 -9 -66q0 -32 11.5 -48t31.5 -16q0 -8 -1 -12q-14 -63 -43 -92.5t-78 -29.5q-54 0 -76.5 30.5t-22.5 80.5q0 20 3.5 42t9.5 46l2 7q-27 -60 -54 -100t-53.5 -63.5
t-53 -33t-52.5 -9.5z" />
    <glyph glyph-name="Ucircumflex" unicode="&#xdb;" horiz-adv-x="580" 
d="M308 809q-4 0 -9 6t-10 13.5t-8.5 15.5t-3.5 12q0 2 9 13.5t22.5 26.5t31 32.5t34 32.5t31.5 24.5t24 9.5q15 0 33.5 -20.5t35 -46t27 -47.5t9.5 -25q-1 -4 -6.5 -12t-11.5 -15.5t-12 -13.5t-10 -6q-10 0 -22 8t-23.5 20t-22 25.5t-18.5 23.5q-10 -10 -22.5 -23.5
t-25 -25.5t-26 -20t-26.5 -8zM136 -7q-52 0 -79 32.5t-27 94.5q0 42 13 96t40 120q10 24 23.5 57t26 68.5t21 71t8.5 65.5q0 36 -16.5 58.5t-58.5 22.5q-19 0 -34 -7.5t-24.5 -19t-14.5 -26.5t-5 -30q0 -28 16 -50t49 -22q6 0 10 1q1 -5 1 -16q0 -28 -10 -50t-26.5 -37
t-38 -23t-44.5 -8q-27 0 -54.5 11t-49.5 34t-35.5 57.5t-13.5 82.5t16 96t49.5 86.5t85 63t123.5 24.5q64 0 109 -14.5t73.5 -42t42 -67t13.5 -89.5q0 -64 -20 -143.5t-55 -173.5q-16 -42 -16 -68q0 -23 9 -33t23 -10q9 0 22 7.5t29.5 31.5t36.5 69.5t43 121.5l56 210
q3 12 3 20q0 16 -5.5 25.5t-5.5 26.5q0 21 20.5 35.5t49 24.5t58 14.5t48.5 4.5q17 0 24 -8t7 -21q0 -4 -0.5 -7.5t-1.5 -8.5q-24 -90 -43 -162t-34.5 -131.5t-28 -108.5t-23.5 -92q-9 -39 -9 -66q0 -32 11.5 -48t31.5 -16q0 -8 -1 -12q-14 -63 -43 -92.5t-78 -29.5
q-54 0 -76.5 30.5t-22.5 80.5q0 20 3.5 42t9.5 46l2 7q-27 -60 -54 -100t-53.5 -63.5t-53 -33t-52.5 -9.5z" />
    <glyph glyph-name="Udieresis" unicode="&#xdc;" horiz-adv-x="580" 
d="M331 822q-35 0 -54.5 24.5t-10.5 59.5q7 29 27.5 44t46.5 15q18 0 31.5 -7t22.5 -18.5t12 -26.5t-1 -31q-6 -23 -25 -41.5t-49 -18.5zM509 822q-36 0 -55 24.5t-10 59.5q7 29 27.5 44t45.5 15q18 0 32 -7t22.5 -18.5t11.5 -26.5t-1 -31q-5 -23 -24 -41.5t-49 -18.5z
M136 -7q-52 0 -79 32.5t-27 94.5q0 42 13 96t40 120q10 24 23.5 57t26 68.5t21 71t8.5 65.5q0 36 -16.5 58.5t-58.5 22.5q-19 0 -34 -7.5t-24.5 -19t-14.5 -26.5t-5 -30q0 -28 16 -50t49 -22q6 0 10 1q1 -5 1 -16q0 -28 -10 -50t-26.5 -37t-38 -23t-44.5 -8q-27 0 -54.5 11
t-49.5 34t-35.5 57.5t-13.5 82.5t16 96t49.5 86.5t85 63t123.5 24.5q64 0 109 -14.5t73.5 -42t42 -67t13.5 -89.5q0 -64 -20 -143.5t-55 -173.5q-16 -42 -16 -68q0 -23 9 -33t23 -10q9 0 22 7.5t29.5 31.5t36.5 69.5t43 121.5l56 210q3 12 3 20q0 16 -5.5 25.5t-5.5 26.5
q0 21 20.5 35.5t49 24.5t58 14.5t48.5 4.5q17 0 24 -8t7 -21q0 -4 -0.5 -7.5t-1.5 -8.5q-24 -90 -43 -162t-34.5 -131.5t-28 -108.5t-23.5 -92q-9 -39 -9 -66q0 -32 11.5 -48t31.5 -16q0 -8 -1 -12q-14 -63 -43 -92.5t-78 -29.5q-54 0 -76.5 30.5t-22.5 80.5q0 20 3.5 42
t9.5 46l2 7q-27 -60 -54 -100t-53.5 -63.5t-53 -33t-52.5 -9.5z" />
    <glyph glyph-name="Yacute" unicode="&#xdd;" horiz-adv-x="540" 
d="M349 793q-4 0 -11.5 7t-14.5 17t-12.5 19.5t-5.5 14.5q0 3 11 14.5t28 27t37 32.5t38.5 31.5t32.5 24t18 9.5q6 0 19.5 -10.5t27 -25.5t24 -31t10.5 -26q0 -5 -12 -14.5t-30.5 -21t-41.5 -24t-45.5 -22t-42 -16t-30.5 -6.5zM117 -223q-53 0 -91 15.5t-62.5 41t-36 57
t-11.5 64.5q0 26 6.5 50.5t19 45t31 35t41.5 20.5q2 -49 37 -80t98 -31q35 0 70.5 15.5t67 50.5t57.5 91.5t42 137.5h-5q-18 -59 -42 -100t-51 -67t-55.5 -38t-57.5 -12q-64 0 -98 35t-34 99q0 56 18.5 104.5t41 95t41 94.5t18.5 103q0 36 -16.5 55.5t-58.5 19.5
q-19 0 -34 -7.5t-24.5 -19t-14.5 -26.5t-5 -30q0 -28 16 -50t49 -22q3 0 6 0.5t7 0.5q1 -20 -7 -41t-23 -38t-37 -27.5t-49 -10.5q-35 0 -64.5 13.5t-50.5 37t-32.5 56t-11.5 71.5q0 47 17 93t51 83.5t85.5 60.5t121.5 23q64 0 109 -14.5t73.5 -42t42 -67t13.5 -89.5
t-11 -96t-24 -85.5t-24 -71t-11 -52.5q0 -23 9 -33t23 -10q9 0 23 7t31 31t36.5 69.5t40.5 122.5l35 130q3 12 3 21q0 16 -5.5 25t-5.5 26q0 21 20.5 35.5t49 24.5t58 14.5t48.5 4.5q17 0 24 -8t7 -21q0 -4 -0.5 -7.5t-1.5 -8.5l-108 -414q-5 -18 -13.5 -51t-19 -73t-23 -85
t-24.5 -87q-16 -57 -49.5 -105.5t-79 -83.5t-100.5 -55t-116 -20z" />
    <glyph glyph-name="Thorn" unicode="&#xde;" horiz-adv-x="655" 
d="M134 -17q-39 0 -69 13.5t-50.5 36t-30.5 50.5t-10 58q0 28 9 55t26 48.5t42 35.5t57 17q1 -22 13.5 -40.5t43.5 -18.5q34 0 58.5 24t38.5 78l66 245q-34 -3 -57.5 -9.5t-37 -14.5t-19.5 -17.5t-6 -18.5q0 -12 8 -20.5t19 -8.5q12 0 21 6q2 -10 3.5 -19t1.5 -18
q0 -26 -9 -49.5t-25 -41.5t-39 -28.5t-52 -10.5q-28 0 -50 10.5t-37.5 29t-24 43t-8.5 51.5q0 39 19 81t60.5 77t107 58t158.5 25l8 29q14 51 43 75.5t66 24.5q31 0 50.5 -10.5t23.5 -25.5q-5 -7 -10.5 -18t-11.5 -31q-3 -11 -7.5 -26.5t-9.5 -35.5q46 -13 78.5 -35.5
t53.5 -50t30.5 -59t9.5 -64.5q0 -43 -15.5 -84t-43 -73t-65.5 -51.5t-83 -19.5q-28 0 -46.5 5.5t-29.5 16.5q-39 -154 -105 -224t-163 -70zM454 365q17 0 33 9t28 24t19.5 34.5t7.5 40.5q0 26 -14.5 50.5t-49.5 41.5q-14 -50 -27.5 -100t-24.5 -93q8 -3 14.5 -5t13.5 -2z
" />
    <glyph glyph-name="germandbls" unicode="&#xdf;" horiz-adv-x="529" 
d="M-34 -196q-30 0 -51.5 11t-33.5 29.5t-13.5 42.5t7.5 51q79 0 104 94l141 537q29 108 88 158t145 50q71 0 113.5 -23.5t61.5 -59.5t16 -79.5t-23 -84t-56 -72t-83 -44.5q-7 -20 1.5 -38t25 -36.5t37 -40t36 -48t22.5 -59.5t-3 -76q-12 -51 -55.5 -87t-113.5 -36
q-43 0 -72 17t-44.5 42t-19.5 55t1.5 55t19.5 42t35 17q13 0 13 -11q-1 -29 13 -50.5t32.5 -32t35 -7t19.5 23.5q4 24 -3 43.5t-18 38.5t-23.5 40t-21 46t-9 57t12.5 73q18 8 35.5 26.5t30.5 41.5t21 48t7 45.5t-11.5 33.5t-34.5 13q-16 0 -27.5 -3.5t-19.5 -12.5t-14.5 -25
t-12.5 -41l-147 -570l-11 -41q-8 -30 -22 -57.5t-33.5 -49t-44 -34t-53.5 -12.5z" />
    <glyph glyph-name="agrave" unicode="&#xe0;" 
d="M404 543q-11 0 -30.5 6.5t-42 16t-45.5 22t-41.5 24t-30.5 21t-12 14.5q0 10 10.5 26t24 31t27 25.5t19.5 10.5q4 0 18 -9.5t32.5 -24t38.5 -31.5t37 -32.5t28 -27t11 -14.5q0 -5 -5.5 -14.5t-12.5 -19.5t-14.5 -17t-11.5 -7zM77 -7q-68 0 -80 66t21 193l10 36
q31 115 77 167t107 52q41 0 62 -17.5t29 -49.5q17 24 46.5 42t67.5 18q21 0 30 -11.5t9 -28.5q0 -10 -3 -19l-69 -253q-6 -21 -6 -35q0 -26 26 -26v-12q0 -31 -12 -54t-29.5 -38t-38.5 -22.5t-39 -7.5q-35 0 -51.5 24.5t-16.5 61.5q0 17 3 35q-32 -63 -68.5 -92t-74.5 -29z
M180 144q17 0 32 22t23 47l38 153q-2 11 -8 17.5t-18 6.5q-7 0 -14.5 -3.5t-15.5 -16t-17.5 -37t-19.5 -65.5l-10 -36q-13 -49 -10 -68.5t20 -19.5z" />
    <glyph glyph-name="aacute" unicode="&#xe1;" 
d="M243 543q-4 0 -11.5 7t-14.5 17t-12.5 19.5t-5.5 14.5q0 3 11 14.5t28 27t37 32.5t38.5 31.5t32.5 24t18 9.5q6 0 19.5 -10.5t27 -25.5t24 -31t10.5 -26q0 -5 -12 -14.5t-30.5 -21t-41.5 -24t-45.5 -22t-42 -16t-30.5 -6.5zM77 -7q-68 0 -80 66t21 193l10 36
q31 115 77 167t107 52q41 0 62 -17.5t29 -49.5q17 24 46.5 42t67.5 18q21 0 30 -11.5t9 -28.5q0 -10 -3 -19l-69 -253q-6 -21 -6 -35q0 -26 26 -26v-12q0 -31 -12 -54t-29.5 -38t-38.5 -22.5t-39 -7.5q-35 0 -51.5 24.5t-16.5 61.5q0 17 3 35q-32 -63 -68.5 -92t-74.5 -29z
M180 144q17 0 32 22t23 47l38 153q-2 11 -8 17.5t-18 6.5q-7 0 -14.5 -3.5t-15.5 -16t-17.5 -37t-19.5 -65.5l-10 -36q-13 -49 -10 -68.5t20 -19.5z" />
    <glyph glyph-name="acircumflex" unicode="&#xe2;" 
d="M212 559q-4 0 -9 6t-10 13.5t-8.5 15.5t-3.5 12q0 2 9 13.5t22.5 26.5t31 32.5t34 32.5t31.5 24.5t24 9.5q15 0 33.5 -20.5t35 -46t27 -47.5t9.5 -25q-1 -4 -6.5 -12t-11.5 -15.5t-12 -13.5t-10 -6q-10 0 -22 8t-23.5 20t-22 25.5t-18.5 23.5q-10 -10 -22.5 -23.5
t-25 -25.5t-26 -20t-26.5 -8zM77 -7q-68 0 -80 66t21 193l10 36q31 115 77 167t107 52q41 0 62 -17.5t29 -49.5q17 24 46.5 42t67.5 18q21 0 30 -11.5t9 -28.5q0 -10 -3 -19l-69 -253q-6 -21 -6 -35q0 -26 26 -26v-12q0 -31 -12 -54t-29.5 -38t-38.5 -22.5t-39 -7.5
q-35 0 -51.5 24.5t-16.5 61.5q0 17 3 35q-32 -63 -68.5 -92t-74.5 -29zM180 144q17 0 32 22t23 47l38 153q-2 11 -8 17.5t-18 6.5q-7 0 -14.5 -3.5t-15.5 -16t-17.5 -37t-19.5 -65.5l-10 -36q-13 -49 -10 -68.5t20 -19.5z" />
    <glyph glyph-name="atilde" unicode="&#xe3;" 
d="M359 549q-18 0 -38.5 8.5t-40 18.5t-36 18.5t-28.5 8.5q-10 0 -19.5 -6.5t-18.5 -15t-18 -15t-17 -6.5q-6 0 -11 5.5t-8.5 13t-6 15.5t-2.5 13q0 11 11.5 28.5t28.5 34t37 28.5t36 12q14 0 33 -8.5t39 -18.5t38.5 -18.5t31.5 -8.5q12 0 24 7.5t22.5 17t19 17t15.5 7.5
q8 0 17.5 -15.5t9.5 -28.5q0 -11 -10 -30t-26.5 -37t-38 -31.5t-44.5 -13.5zM77 -7q-68 0 -80 66t21 193l10 36q31 115 77 167t107 52q41 0 62 -17.5t29 -49.5q17 24 46.5 42t67.5 18q21 0 30 -11.5t9 -28.5q0 -10 -3 -19l-69 -253q-6 -21 -6 -35q0 -26 26 -26v-12
q0 -31 -12 -54t-29.5 -38t-38.5 -22.5t-39 -7.5q-35 0 -51.5 24.5t-16.5 61.5q0 17 3 35q-32 -63 -68.5 -92t-74.5 -29zM180 144q17 0 32 22t23 47l38 153q-2 11 -8 17.5t-18 6.5q-7 0 -14.5 -3.5t-15.5 -16t-17.5 -37t-19.5 -65.5l-10 -36q-13 -49 -10 -68.5t20 -19.5z" />
    <glyph glyph-name="adieresis" unicode="&#xe4;" 
d="M235 572q-35 0 -54.5 24.5t-10.5 59.5q7 29 27.5 44t46.5 15q18 0 31.5 -7t22.5 -18.5t12 -26.5t-1 -31q-6 -23 -25 -41.5t-49 -18.5zM413 572q-36 0 -55 24.5t-10 59.5q7 29 27.5 44t45.5 15q18 0 32 -7t22.5 -18.5t11.5 -26.5t-1 -31q-5 -23 -24 -41.5t-49 -18.5z
M77 -7q-68 0 -80 66t21 193l10 36q31 115 77 167t107 52q41 0 62 -17.5t29 -49.5q17 24 46.5 42t67.5 18q21 0 30 -11.5t9 -28.5q0 -10 -3 -19l-69 -253q-6 -21 -6 -35q0 -26 26 -26v-12q0 -31 -12 -54t-29.5 -38t-38.5 -22.5t-39 -7.5q-35 0 -51.5 24.5t-16.5 61.5
q0 17 3 35q-32 -63 -68.5 -92t-74.5 -29zM180 144q17 0 32 22t23 47l38 153q-2 11 -8 17.5t-18 6.5q-7 0 -14.5 -3.5t-15.5 -16t-17.5 -37t-19.5 -65.5l-10 -36q-13 -49 -10 -68.5t20 -19.5z" />
    <glyph glyph-name="aring" unicode="&#xe5;" 
d="M304 540q-28 0 -50.5 10t-36.5 27.5t-19 40.5t2 49q14 43 45.5 66t73.5 23q28 0 50 -10.5t36 -28t18.5 -40t-1.5 -46.5q-4 -18 -14 -34t-25 -29t-35 -20.5t-44 -7.5zM309 605q20 0 31 13.5t12 29.5t-8.5 29.5t-29.5 13.5q-19 0 -30.5 -13.5t-13 -29.5t7.5 -29.5t31 -13.5
zM77 -7q-68 0 -80 66t21 193l10 36q31 115 77 167t107 52q41 0 62 -17.5t29 -49.5q17 24 46.5 42t67.5 18q21 0 30 -11.5t9 -28.5q0 -10 -3 -19l-69 -253q-6 -21 -6 -35q0 -26 26 -26v-12q0 -31 -12 -54t-29.5 -38t-38.5 -22.5t-39 -7.5q-35 0 -51.5 24.5t-16.5 61.5
q0 17 3 35q-32 -63 -68.5 -92t-74.5 -29zM180 144q17 0 32 22t23 47l38 153q-2 11 -8 17.5t-18 6.5q-7 0 -14.5 -3.5t-15.5 -16t-17.5 -37t-19.5 -65.5l-10 -36q-13 -49 -10 -68.5t20 -19.5z" />
    <glyph glyph-name="ae" unicode="&#xe6;" horiz-adv-x="574" 
d="M77 -7q-68 0 -80 66t21 193l10 36q31 115 77 167t107 52q41 0 62.5 -18t29.5 -51q22 35 53 52.5t78 17.5q54 0 85 -18.5t45 -46.5t14.5 -60t-6.5 -58q-17 -63 -60.5 -98t-98.5 -35q-34 0 -56 11q-5 -32 11 -48t41 -16q32 0 64.5 10t47.5 27q7 7 13.5 5t10 -11t3 -24.5
t-7.5 -35.5q-43 -117 -178 -117q-58 0 -92.5 36.5t-39.5 106.5q-35 -75 -73.5 -109t-80.5 -34zM374 267q23 -1 37 5.5t21.5 17t11 23t6.5 24.5q9 37 5 48.5t-17 11.5q-15 0 -26.5 -16t-22.5 -56l-13 -48q-2 -6 -2 -10zM180 144q16 0 30.5 20t22.5 45q2 21 7 44t12 49l8 29
l12 39q-6 20 -25 20q-7 0 -14.5 -3.5t-15.5 -16t-17.5 -37t-19.5 -65.5l-10 -36q-13 -49 -10 -68.5t20 -19.5z" />
    <glyph glyph-name="ccedilla" unicode="&#xe7;" horiz-adv-x="378" 
d="M223 264q0 24 10 53q2 8 7 23.5t5 27.5q0 15 -11 15q-17 0 -28.5 -24t-26.5 -81q-6 -21 -8.5 -38.5t-2.5 -31.5q0 -38 17 -53.5t46 -15.5q32 0 56 8.5t38 25.5q6 7 12 7t10.5 -8t4.5 -22q0 -31 -14 -59t-38 -49.5t-57.5 -34.5t-72.5 -14q1 -12 5.5 -28t4.5 -34
q0 -23 -8 -39.5t-21.5 -28t-30.5 -17t-34 -5.5q-16 0 -31 5t-27 14.5t-19 24t-7 34.5q0 36 18.5 53.5t40.5 17.5q5 0 8 -1q-4 -5 -5.5 -10t-1.5 -10q0 -14 9 -21.5t20 -7.5q20 0 27 16.5t13 38.5q-63 9 -96 51t-33 117q0 62 24 144q16 55 34.5 93t43.5 62t58 35t76 11
q47 0 76.5 -11.5t46 -30.5t23 -42.5t6.5 -47.5q0 -23 -3.5 -44t-8.5 -37q-10 -34 -37 -59t-68 -25q-50 0 -50 53z" />
    <glyph glyph-name="egrave" unicode="&#xe8;" horiz-adv-x="378" 
d="M375 543q-11 0 -30.5 6.5t-42 16t-45.5 22t-41.5 24t-30.5 21t-12 14.5q0 10 10.5 26t24 31t27 25.5t19.5 10.5q4 0 18 -9.5t32.5 -24t38.5 -31.5t37 -32.5t28 -27t11 -14.5q0 -5 -5.5 -14.5t-12.5 -19.5t-14.5 -17t-11.5 -7zM166 -7q-80 0 -122 42.5t-42 126.5
q0 34 7.5 73t23.5 96q12 43 29.5 76t41.5 55.5t57 34t77 11.5q42 0 69.5 -12t44.5 -30.5t24 -42t7 -47.5q0 -36 -12.5 -69t-34.5 -58.5t-52.5 -41t-66.5 -15.5q-35 0 -56 12q-1 -5 -1 -14q0 -26 15.5 -38.5t37.5 -12.5q32 0 64.5 10t47.5 27q5 5 10 5q16 0 16 -32
q0 -34 -15 -62.5t-40 -49.5t-58.5 -32.5t-71.5 -11.5zM177 267q23 -1 36.5 5.5t21 17t11.5 23t7 24.5q6 26 6 38q0 13 -5 17.5t-13 4.5q-15 0 -26.5 -16t-22.5 -56l-13 -48q-2 -6 -2 -10z" />
    <glyph glyph-name="eacute" unicode="&#xe9;" horiz-adv-x="378" 
d="M214 543q-4 0 -11.5 7t-14.5 17t-12.5 19.5t-5.5 14.5q0 3 11 14.5t28 27t37 32.5t38.5 31.5t32.5 24t18 9.5q6 0 19.5 -10.5t27 -25.5t24 -31t10.5 -26q0 -5 -12 -14.5t-30.5 -21t-41.5 -24t-45.5 -22t-42 -16t-30.5 -6.5zM166 -7q-80 0 -122 42.5t-42 126.5
q0 34 7.5 73t23.5 96q12 43 29.5 76t41.5 55.5t57 34t77 11.5q42 0 69.5 -12t44.5 -30.5t24 -42t7 -47.5q0 -36 -12.5 -69t-34.5 -58.5t-52.5 -41t-66.5 -15.5q-35 0 -56 12q-1 -5 -1 -14q0 -26 15.5 -38.5t37.5 -12.5q32 0 64.5 10t47.5 27q5 5 10 5q16 0 16 -32
q0 -34 -15 -62.5t-40 -49.5t-58.5 -32.5t-71.5 -11.5zM177 267q23 -1 36.5 5.5t21 17t11.5 23t7 24.5q6 26 6 38q0 13 -5 17.5t-13 4.5q-15 0 -26.5 -16t-22.5 -56l-13 -48q-2 -6 -2 -10z" />
    <glyph glyph-name="ecircumflex" unicode="&#xea;" horiz-adv-x="378" 
d="M183 559q-4 0 -9 6t-10 13.5t-8.5 15.5t-3.5 12q0 2 9 13.5t22.5 26.5t31 32.5t34 32.5t31.5 24.5t24 9.5q15 0 33.5 -20.5t35 -46t27 -47.5t9.5 -25q-1 -4 -6.5 -12t-11.5 -15.5t-12 -13.5t-10 -6q-10 0 -22 8t-23.5 20t-22 25.5t-18.5 23.5q-10 -10 -22.5 -23.5
t-25 -25.5t-26 -20t-26.5 -8zM166 -7q-80 0 -122 42.5t-42 126.5q0 34 7.5 73t23.5 96q12 43 29.5 76t41.5 55.5t57 34t77 11.5q42 0 69.5 -12t44.5 -30.5t24 -42t7 -47.5q0 -36 -12.5 -69t-34.5 -58.5t-52.5 -41t-66.5 -15.5q-35 0 -56 12q-1 -5 -1 -14q0 -26 15.5 -38.5
t37.5 -12.5q32 0 64.5 10t47.5 27q5 5 10 5q16 0 16 -32q0 -34 -15 -62.5t-40 -49.5t-58.5 -32.5t-71.5 -11.5zM177 267q23 -1 36.5 5.5t21 17t11.5 23t7 24.5q6 26 6 38q0 13 -5 17.5t-13 4.5q-15 0 -26.5 -16t-22.5 -56l-13 -48q-2 -6 -2 -10z" />
    <glyph glyph-name="edieresis" unicode="&#xeb;" horiz-adv-x="378" 
d="M206 572q-35 0 -54.5 24.5t-10.5 59.5q7 29 27.5 44t46.5 15q18 0 31.5 -7t22.5 -18.5t12 -26.5t-1 -31q-6 -23 -25 -41.5t-49 -18.5zM384 572q-36 0 -55 24.5t-10 59.5q7 29 27.5 44t45.5 15q18 0 32 -7t22.5 -18.5t11.5 -26.5t-1 -31q-5 -23 -24 -41.5t-49 -18.5z
M166 -7q-80 0 -122 42.5t-42 126.5q0 34 7.5 73t23.5 96q12 43 29.5 76t41.5 55.5t57 34t77 11.5q42 0 69.5 -12t44.5 -30.5t24 -42t7 -47.5q0 -36 -12.5 -69t-34.5 -58.5t-52.5 -41t-66.5 -15.5q-35 0 -56 12q-1 -5 -1 -14q0 -26 15.5 -38.5t37.5 -12.5q32 0 64.5 10
t47.5 27q5 5 10 5q16 0 16 -32q0 -34 -15 -62.5t-40 -49.5t-58.5 -32.5t-71.5 -11.5zM177 267q23 -1 36.5 5.5t21 17t11.5 23t7 24.5q6 26 6 38q0 13 -5 17.5t-13 4.5q-15 0 -26.5 -16t-22.5 -56l-13 -48q-2 -6 -2 -10z" />
    <glyph glyph-name="igrave" unicode="&#xec;" horiz-adv-x="220" 
d="M175 740q4 0 18 -9.5t32.5 -24t38.5 -31.5t37 -32.5t28 -27t11 -14.5q0 -5 -5.5 -14.5t-12.5 -19.5t-14.5 -17t-11.5 -7q-11 0 -30.5 6.5t-42 16t-45.5 22t-41.5 24t-30.5 21t-12 14.5q0 10 10.5 26t24 31t27 25.5t19.5 10.5zM215 507q23 0 30 -12.5t2 -32.5l-26 -92
l-52 -182q-8 -28 -6 -44.5t25 -16.5v-12q0 -31 -12 -54t-29.5 -38t-38.5 -22.5t-39 -7.5q-29 0 -46.5 12.5t-25 34t-6.5 49t10 57.5l11 41l49 184q3 14 1 21.5t-6.5 13t-8.5 11.5t-4 16q0 20 21 34t49.5 23t57.5 13t44 4z" />
    <glyph glyph-name="iacute" unicode="&#xed;" horiz-adv-x="220" 
d="M256 740q6 0 19.5 -10.5t27 -25.5t24 -31t10.5 -26q0 -5 -12 -14.5t-30.5 -21t-41.5 -24t-45.5 -22t-42 -16t-30.5 -6.5q-4 0 -11.5 7t-14.5 17t-12.5 19.5t-5.5 14.5q0 3 11 14.5t28 27t37 32.5t38.5 31.5t32.5 24t18 9.5zM215 507q23 0 30 -12.5t2 -32.5l-26 -92
l-52 -182q-8 -28 -6 -44.5t25 -16.5v-12q0 -31 -12 -54t-29.5 -38t-38.5 -22.5t-39 -7.5q-29 0 -46.5 12.5t-25 34t-6.5 49t10 57.5l11 41l49 184q3 14 1 21.5t-6.5 13t-8.5 11.5t-4 16q0 20 21 34t49.5 23t57.5 13t44 4z" />
    <glyph glyph-name="icircumflex" unicode="&#xee;" horiz-adv-x="220" 
d="M225 745q15 0 33.5 -20.5t35 -46t27 -47.5t9.5 -25q-1 -4 -6.5 -12t-11.5 -15.5t-12 -13.5t-10 -6q-10 0 -22 8t-23.5 20t-22 25.5t-18.5 23.5q-10 -10 -22.5 -23.5t-25 -25.5t-26 -20t-26.5 -8q-4 0 -9 6t-10 13.5t-8.5 15.5t-3.5 12q0 2 9 13.5t22.5 26.5t31 32.5
t34 32.5t31.5 24.5t24 9.5zM215 507q23 0 30 -12.5t2 -32.5l-26 -92l-52 -182q-8 -28 -6 -44.5t25 -16.5v-12q0 -31 -12 -54t-29.5 -38t-38.5 -22.5t-39 -7.5q-29 0 -46.5 12.5t-25 34t-6.5 49t10 57.5l11 41l49 184q3 14 1 21.5t-6.5 13t-8.5 11.5t-4 16q0 20 21 34
t49.5 23t57.5 13t44 4z" />
    <glyph glyph-name="idieresis" unicode="&#xef;" horiz-adv-x="220" 
d="M127 572q-35 0 -54.5 24.5t-10.5 59.5q7 29 27.5 44t46.5 15q18 0 31.5 -7t22.5 -18.5t12 -26.5t-1 -31q-6 -23 -25 -41.5t-49 -18.5zM313 715q18 0 32 -7t22.5 -18.5t11.5 -26.5t-1 -31q-5 -23 -24 -41.5t-49 -18.5q-36 0 -55 24.5t-10 59.5q7 29 27.5 44t45.5 15z
M215 507q23 0 30 -12.5t2 -32.5l-26 -92l-52 -182q-8 -28 -6 -44.5t25 -16.5v-12q0 -31 -12 -54t-29.5 -38t-38.5 -22.5t-39 -7.5q-29 0 -46.5 12.5t-25 34t-6.5 49t10 57.5l11 41l49 184q3 14 1 21.5t-6.5 13t-8.5 11.5t-4 16q0 20 21 34t49.5 23t57.5 13t44 4z" />
    <glyph glyph-name="eth" unicode="&#xf0;" horiz-adv-x="402" 
d="M166 -7q-62 0 -100 19.5t-55 56t-15 89t21 117.5l16 56q25 86 67 131.5t105 45.5q23 0 34 -11.5t15.5 -29t5.5 -36.5t4 -34q7 48 6.5 95.5t-10.5 84.5l-117 -40l-13 39l115 39q-13 23 -32.5 33.5t-47.5 4.5q0 11 5 24.5t16.5 25.5t30 20t46.5 8q41 0 71 -18t50 -50l60 21
l14 -38l-55 -19q27 -69 23.5 -171t-37.5 -218l-17 -62q-13 -48 -30 -82.5t-41.5 -57t-57 -33t-77.5 -10.5zM170 118q6 0 11.5 2.5t11.5 13t13.5 31t16.5 56.5l15 59q8 31 11.5 51t3 31.5t-5 16t-13.5 4.5q-6 0 -11.5 -2.5t-11.5 -11.5t-13 -27t-15 -48l-15 -56
q-10 -37 -14 -60.5t-3.5 -36.5t5.5 -18t14 -5z" />
    <glyph glyph-name="ntilde" unicode="&#xf1;" horiz-adv-x="440" 
d="M361 549q-18 0 -38.5 8.5t-40 18.5t-36 18.5t-28.5 8.5q-10 0 -19.5 -6.5t-18.5 -15t-18 -15t-17 -6.5q-6 0 -11 5.5t-8.5 13t-6 15.5t-2.5 13q0 11 11.5 28.5t28.5 34t37 28.5t36 12q14 0 33 -8.5t39 -18.5t38.5 -18.5t31.5 -8.5q12 0 24 7.5t22.5 17t19 17t15.5 7.5
q8 0 17.5 -15.5t9.5 -28.5q0 -11 -10 -30t-26.5 -37t-38 -31.5t-44.5 -13.5zM69 -7q-42 0 -60 25t-18 63q0 32 10 65l60 225q3 14 1 21.5t-6.5 13t-8.5 11.5t-4 16q0 20 18 34t42.5 23t50.5 13t41 4q21 0 27.5 -12.5t1.5 -32.5l-15 -54h2q31 48 68.5 73.5t79.5 25.5
q23 0 39.5 -8t26.5 -21.5t14.5 -31.5t4.5 -38q0 -31 -9 -63l-42 -157q-8 -28 -6 -44.5t25 -16.5v-12q0 -31 -12 -54t-29.5 -38t-38.5 -22.5t-39 -7.5q-42 0 -60 25t-18 63q0 32 10 65l54 201q8 26 -18 26q-12 0 -25 -6t-21 -17l-46 -162q-8 -28 -6 -44.5t25 -16.5v-12
q0 -31 -12 -54t-29.5 -38t-38.5 -22.5t-39 -7.5z" />
    <glyph glyph-name="ograve" unicode="&#xf2;" horiz-adv-x="402" 
d="M387 543q-11 0 -30.5 6.5t-42 16t-45.5 22t-41.5 24t-30.5 21t-12 14.5q0 10 10.5 26t24 31t27 25.5t19.5 10.5q4 0 18 -9.5t32.5 -24t38.5 -31.5t37 -32.5t28 -27t11 -14.5q0 -5 -5.5 -14.5t-12.5 -19.5t-14.5 -17t-11.5 -7zM166 -7q-90 0 -130 40.5t-40 113.5
q0 18 2 35.5t6 38.5t11.5 47.5t17.5 62.5q12 43 29.5 76t41.5 55.5t57 34t77 11.5q85 0 126.5 -40.5t41.5 -117.5q0 -18 -1.5 -33.5t-5.5 -34.5t-10.5 -44t-16.5 -62q-13 -48 -30 -82.5t-41.5 -57t-57 -33t-77.5 -10.5zM170 118q6 0 11.5 2.5t11.5 13t13.5 31t16.5 56.5
q9 35 15 58.5t9 39.5t4.5 25t1.5 16q0 23 -19 23q-6 0 -11.5 -2.5t-11.5 -11.5t-13 -27t-15 -48q-10 -38 -16.5 -63t-10 -41.5t-5 -26.5t-1.5 -19q0 -15 5 -20.5t15 -5.5z" />
    <glyph glyph-name="oacute" unicode="&#xf3;" horiz-adv-x="402" 
d="M226 543q-4 0 -11.5 7t-14.5 17t-12.5 19.5t-5.5 14.5q0 3 11 14.5t28 27t37 32.5t38.5 31.5t32.5 24t18 9.5q6 0 19.5 -10.5t27 -25.5t24 -31t10.5 -26q0 -5 -12 -14.5t-30.5 -21t-41.5 -24t-45.5 -22t-42 -16t-30.5 -6.5zM166 -7q-90 0 -130 40.5t-40 113.5
q0 18 2 35.5t6 38.5t11.5 47.5t17.5 62.5q12 43 29.5 76t41.5 55.5t57 34t77 11.5q85 0 126.5 -40.5t41.5 -117.5q0 -18 -1.5 -33.5t-5.5 -34.5t-10.5 -44t-16.5 -62q-13 -48 -30 -82.5t-41.5 -57t-57 -33t-77.5 -10.5zM170 118q6 0 11.5 2.5t11.5 13t13.5 31t16.5 56.5
q9 35 15 58.5t9 39.5t4.5 25t1.5 16q0 23 -19 23q-6 0 -11.5 -2.5t-11.5 -11.5t-13 -27t-15 -48q-10 -38 -16.5 -63t-10 -41.5t-5 -26.5t-1.5 -19q0 -15 5 -20.5t15 -5.5z" />
    <glyph glyph-name="ocircumflex" unicode="&#xf4;" horiz-adv-x="402" 
d="M195 559q-4 0 -9 6t-10 13.5t-8.5 15.5t-3.5 12q0 2 9 13.5t22.5 26.5t31 32.5t34 32.5t31.5 24.5t24 9.5q15 0 33.5 -20.5t35 -46t27 -47.5t9.5 -25q-1 -4 -6.5 -12t-11.5 -15.5t-12 -13.5t-10 -6q-10 0 -22 8t-23.5 20t-22 25.5t-18.5 23.5q-10 -10 -22.5 -23.5
t-25 -25.5t-26 -20t-26.5 -8zM166 -7q-90 0 -130 40.5t-40 113.5q0 18 2 35.5t6 38.5t11.5 47.5t17.5 62.5q12 43 29.5 76t41.5 55.5t57 34t77 11.5q85 0 126.5 -40.5t41.5 -117.5q0 -18 -1.5 -33.5t-5.5 -34.5t-10.5 -44t-16.5 -62q-13 -48 -30 -82.5t-41.5 -57t-57 -33
t-77.5 -10.5zM170 118q6 0 11.5 2.5t11.5 13t13.5 31t16.5 56.5q9 35 15 58.5t9 39.5t4.5 25t1.5 16q0 23 -19 23q-6 0 -11.5 -2.5t-11.5 -11.5t-13 -27t-15 -48q-10 -38 -16.5 -63t-10 -41.5t-5 -26.5t-1.5 -19q0 -15 5 -20.5t15 -5.5z" />
    <glyph glyph-name="otilde" unicode="&#xf5;" horiz-adv-x="402" 
d="M342 549q-18 0 -38.5 8.5t-40 18.5t-36 18.5t-28.5 8.5q-10 0 -19.5 -6.5t-18.5 -15t-18 -15t-17 -6.5q-6 0 -11 5.5t-8.5 13t-6 15.5t-2.5 13q0 11 11.5 28.5t28.5 34t37 28.5t36 12q14 0 33 -8.5t39 -18.5t38.5 -18.5t31.5 -8.5q12 0 24 7.5t22.5 17t19 17t15.5 7.5
q8 0 17.5 -15.5t9.5 -28.5q0 -11 -10 -30t-26.5 -37t-38 -31.5t-44.5 -13.5zM166 -7q-90 0 -130 40.5t-40 113.5q0 18 2 35.5t6 38.5t11.5 47.5t17.5 62.5q12 43 29.5 76t41.5 55.5t57 34t77 11.5q85 0 126.5 -40.5t41.5 -117.5q0 -18 -1.5 -33.5t-5.5 -34.5t-10.5 -44
t-16.5 -62q-13 -48 -30 -82.5t-41.5 -57t-57 -33t-77.5 -10.5zM170 118q6 0 11.5 2.5t11.5 13t13.5 31t16.5 56.5q9 35 15 58.5t9 39.5t4.5 25t1.5 16q0 23 -19 23q-6 0 -11.5 -2.5t-11.5 -11.5t-13 -27t-15 -48q-10 -38 -16.5 -63t-10 -41.5t-5 -26.5t-1.5 -19
q0 -15 5 -20.5t15 -5.5z" />
    <glyph glyph-name="odieresis" unicode="&#xf6;" horiz-adv-x="402" 
d="M218 572q-35 0 -54.5 24.5t-10.5 59.5q7 29 27.5 44t46.5 15q18 0 31.5 -7t22.5 -18.5t12 -26.5t-1 -31q-6 -23 -25 -41.5t-49 -18.5zM396 572q-36 0 -55 24.5t-10 59.5q7 29 27.5 44t45.5 15q18 0 32 -7t22.5 -18.5t11.5 -26.5t-1 -31q-5 -23 -24 -41.5t-49 -18.5z
M166 -7q-90 0 -130 40.5t-40 113.5q0 18 2 35.5t6 38.5t11.5 47.5t17.5 62.5q12 43 29.5 76t41.5 55.5t57 34t77 11.5q85 0 126.5 -40.5t41.5 -117.5q0 -18 -1.5 -33.5t-5.5 -34.5t-10.5 -44t-16.5 -62q-13 -48 -30 -82.5t-41.5 -57t-57 -33t-77.5 -10.5zM170 118
q6 0 11.5 2.5t11.5 13t13.5 31t16.5 56.5q9 35 15 58.5t9 39.5t4.5 25t1.5 16q0 23 -19 23q-6 0 -11.5 -2.5t-11.5 -11.5t-13 -27t-15 -48q-10 -38 -16.5 -63t-10 -41.5t-5 -26.5t-1.5 -19q0 -15 5 -20.5t15 -5.5z" />
    <glyph glyph-name="divide" unicode="&#xf7;" horiz-adv-x="622" 
d="M360 394q-21 0 -37 8t-26.5 21.5t-14 31.5t1.5 38q9 34 33 52t54 18q21 0 37 -8.5t26 -22t14 -31t-1 -36.5q-7 -28 -29.5 -49.5t-57.5 -21.5zM55 345h562l-33 -122h-561zM260 0q-21 0 -37 8t-26.5 21.5t-14 31.5t1.5 38q9 34 33 52t54 18q21 0 37 -8.5t26 -22t14 -31
t-1 -36.5q-7 -28 -29.5 -49.5t-57.5 -21.5z" />
    <glyph glyph-name="oslash" unicode="&#xf8;" horiz-adv-x="402" 
d="M166 -7q-62 0 -100 19.5t-55 56t-15 89t21 117.5l16 56q12 43 29.5 76t41.5 55.5t57 34t77 11.5q112 0 149 -70t2 -200l-17 -62q-13 -48 -30 -82.5t-41.5 -57t-57 -33t-77.5 -10.5zM259 353q0 40 -25 40q-6 0 -13 -4t-15 -15t-16.5 -30.5t-16.5 -49.5l-15 -56
q0 -2 -0.5 -3t-0.5 -3zM170 108q6 0 13 4.5t15 16.5t17 34t18 58l14 54l-103 -119q-1 -26 7 -37t19 -11z" />
    <glyph glyph-name="ugrave" unicode="&#xf9;" horiz-adv-x="438" 
d="M405 543q-11 0 -30.5 6.5t-42 16t-45.5 22t-41.5 24t-30.5 21t-12 14.5q0 10 10.5 26t24 31t27 25.5t19.5 10.5q4 0 18 -9.5t32.5 -24t38.5 -31.5t37 -32.5t28 -27t11 -14.5q0 -5 -5.5 -14.5t-12.5 -19.5t-14.5 -17t-11.5 -7zM79 -7q-31 0 -49.5 16t-26.5 44.5t-5.5 67.5
t14.5 84l43 166q3 14 1 21.5t-6.5 13t-8.5 11.5t-4 16q0 20 21 34t49.5 23t57.5 13t44 4q23 0 30 -12.5t2 -32.5l-26 -92l-47 -165q-11 -34 -5.5 -47.5t17.5 -13.5q17 0 32 19t23 43l44 165q3 14 1 21.5t-6.5 13t-8.5 11.5t-4 16q0 20 21 34t49.5 23t57.5 13t44 4
q23 0 30 -12.5t2 -32.5l-26 -92l-52 -182q-8 -28 -6 -44.5t25 -16.5v-12q0 -31 -12 -54t-29.5 -38t-38.5 -22.5t-39 -7.5q-44 0 -62 27.5t-16 69.5q-30 -51 -62.5 -74t-67.5 -23z" />
    <glyph glyph-name="uacute" unicode="&#xfa;" horiz-adv-x="438" 
d="M244 543q-4 0 -11.5 7t-14.5 17t-12.5 19.5t-5.5 14.5q0 3 11 14.5t28 27t37 32.5t38.5 31.5t32.5 24t18 9.5q6 0 19.5 -10.5t27 -25.5t24 -31t10.5 -26q0 -5 -12 -14.5t-30.5 -21t-41.5 -24t-45.5 -22t-42 -16t-30.5 -6.5zM79 -7q-31 0 -49.5 16t-26.5 44.5t-5.5 67.5
t14.5 84l43 166q3 14 1 21.5t-6.5 13t-8.5 11.5t-4 16q0 20 21 34t49.5 23t57.5 13t44 4q23 0 30 -12.5t2 -32.5l-26 -92l-47 -165q-11 -34 -5.5 -47.5t17.5 -13.5q17 0 32 19t23 43l44 165q3 14 1 21.5t-6.5 13t-8.5 11.5t-4 16q0 20 21 34t49.5 23t57.5 13t44 4
q23 0 30 -12.5t2 -32.5l-26 -92l-52 -182q-8 -28 -6 -44.5t25 -16.5v-12q0 -31 -12 -54t-29.5 -38t-38.5 -22.5t-39 -7.5q-44 0 -62 27.5t-16 69.5q-30 -51 -62.5 -74t-67.5 -23z" />
    <glyph glyph-name="ucircumflex" unicode="&#xfb;" horiz-adv-x="438" 
d="M213 559q-4 0 -9 6t-10 13.5t-8.5 15.5t-3.5 12q0 2 9 13.5t22.5 26.5t31 32.5t34 32.5t31.5 24.5t24 9.5q15 0 33.5 -20.5t35 -46t27 -47.5t9.5 -25q-1 -4 -6.5 -12t-11.5 -15.5t-12 -13.5t-10 -6q-10 0 -22 8t-23.5 20t-22 25.5t-18.5 23.5q-10 -10 -22.5 -23.5
t-25 -25.5t-26 -20t-26.5 -8zM79 -7q-31 0 -49.5 16t-26.5 44.5t-5.5 67.5t14.5 84l43 166q3 14 1 21.5t-6.5 13t-8.5 11.5t-4 16q0 20 21 34t49.5 23t57.5 13t44 4q23 0 30 -12.5t2 -32.5l-26 -92l-47 -165q-11 -34 -5.5 -47.5t17.5 -13.5q17 0 32 19t23 43l44 165
q3 14 1 21.5t-6.5 13t-8.5 11.5t-4 16q0 20 21 34t49.5 23t57.5 13t44 4q23 0 30 -12.5t2 -32.5l-26 -92l-52 -182q-8 -28 -6 -44.5t25 -16.5v-12q0 -31 -12 -54t-29.5 -38t-38.5 -22.5t-39 -7.5q-44 0 -62 27.5t-16 69.5q-30 -51 -62.5 -74t-67.5 -23z" />
    <glyph glyph-name="udieresis" unicode="&#xfc;" horiz-adv-x="438" 
d="M236 572q-35 0 -54.5 24.5t-10.5 59.5q7 29 27.5 44t46.5 15q18 0 31.5 -7t22.5 -18.5t12 -26.5t-1 -31q-6 -23 -25 -41.5t-49 -18.5zM414 572q-36 0 -55 24.5t-10 59.5q7 29 27.5 44t45.5 15q18 0 32 -7t22.5 -18.5t11.5 -26.5t-1 -31q-5 -23 -24 -41.5t-49 -18.5z
M79 -7q-31 0 -49.5 16t-26.5 44.5t-5.5 67.5t14.5 84l43 166q3 14 1 21.5t-6.5 13t-8.5 11.5t-4 16q0 20 21 34t49.5 23t57.5 13t44 4q23 0 30 -12.5t2 -32.5l-26 -92l-47 -165q-11 -34 -5.5 -47.5t17.5 -13.5q17 0 32 19t23 43l44 165q3 14 1 21.5t-6.5 13t-8.5 11.5t-4 16
q0 20 21 34t49.5 23t57.5 13t44 4q23 0 30 -12.5t2 -32.5l-26 -92l-52 -182q-8 -28 -6 -44.5t25 -16.5v-12q0 -31 -12 -54t-29.5 -38t-38.5 -22.5t-39 -7.5q-44 0 -62 27.5t-16 69.5q-30 -51 -62.5 -74t-67.5 -23z" />
    <glyph glyph-name="yacute" unicode="&#xfd;" horiz-adv-x="426" 
d="M238 543q-4 0 -11.5 7t-14.5 17t-12.5 19.5t-5.5 14.5q0 3 11 14.5t28 27t37 32.5t38.5 31.5t32.5 24t18 9.5q6 0 19.5 -10.5t27 -25.5t24 -31t10.5 -26q0 -5 -12 -14.5t-30.5 -21t-41.5 -24t-45.5 -22t-42 -16t-30.5 -6.5zM83 -237q-36 0 -60.5 9.5t-40 25.5t-22.5 36.5
t-7 41.5q0 30 12 57.5t32 41.5q3 -8 10.5 -15t18 -12t22 -8t22.5 -3q47 0 83.5 39t66.5 135q-32 -62 -67.5 -90t-73.5 -28q-43 0 -62.5 29.5t-19.5 80.5q0 45 15 102l43 166q3 14 1 21.5t-6.5 13t-8.5 11.5t-4 16q0 20 21 34t49.5 23t57.5 13t44 4q23 0 30 -12.5t2 -32.5
l-73 -257q-7 -21 -7 -36q0 -25 19 -25q16 0 30.5 17.5t23.5 40.5l45 169q3 14 1 21.5t-6.5 13t-8.5 11.5t-4 16q0 20 21 34t49.5 23t57.5 13t44 4q23 0 30 -12.5t2 -32.5l-108 -376q-25 -90 -55.5 -151.5t-65 -99.5t-73 -55t-80.5 -17z" />
    <glyph glyph-name="thorn" unicode="&#xfe;" horiz-adv-x="600" 
d="M13 -202q-29 0 -46.5 12.5t-25 34t-6.5 49t10 57.5l11 41l105 379l60 222q3 14 1 21.5t-6.5 13t-8.5 11.5t-4 16q0 20 21 34t49.5 23t57.5 13t44 4q23 0 30 -12.5t2 -32.5l-26 -92l-5 -18q-10 -35 -20 -66t-21 -62q26 29 54 45t57 16q36 0 56.5 -17t26.5 -49.5t0 -81
t-23 -111.5l-10 -36q-31 -114 -72.5 -166.5t-106.5 -52.5q-37 0 -58 24.5t-27 69.5q-2 -20 -5.5 -41t-10.5 -43l-3 -10q-8 -28 -6 -44.5t25 -16.5v-12q0 -32 -12 -55t-29.5 -38t-38.5 -22t-39 -7zM180 127q6 0 13.5 3t15.5 14t16.5 31.5t18.5 56.5l10 36q9 35 11.5 56
t0.5 32t-7 14t-12 3q-17 0 -29 -15l-62 -214q6 -17 24 -17z" />
    <glyph glyph-name="ydieresis" unicode="&#xff;" horiz-adv-x="426" 
d="M230 572q-35 0 -54.5 24.5t-10.5 59.5q7 29 27.5 44t46.5 15q18 0 31.5 -7t22.5 -18.5t12 -26.5t-1 -31q-6 -23 -25 -41.5t-49 -18.5zM408 572q-36 0 -55 24.5t-10 59.5q7 29 27.5 44t45.5 15q18 0 32 -7t22.5 -18.5t11.5 -26.5t-1 -31q-5 -23 -24 -41.5t-49 -18.5z
M83 -237q-36 0 -60.5 9.5t-40 25.5t-22.5 36.5t-7 41.5q0 30 12 57.5t32 41.5q3 -8 10.5 -15t18 -12t22 -8t22.5 -3q47 0 83.5 39t66.5 135q-32 -62 -67.5 -90t-73.5 -28q-43 0 -62.5 29.5t-19.5 80.5q0 45 15 102l43 166q3 14 1 21.5t-6.5 13t-8.5 11.5t-4 16q0 20 21 34
t49.5 23t57.5 13t44 4q23 0 30 -12.5t2 -32.5l-73 -257q-7 -21 -7 -36q0 -25 19 -25q16 0 30.5 17.5t23.5 40.5l45 169q3 14 1 21.5t-6.5 13t-8.5 11.5t-4 16q0 20 21 34t49.5 23t57.5 13t44 4q23 0 30 -12.5t2 -32.5l-108 -376q-25 -90 -55.5 -151.5t-65 -99.5t-73 -55
t-80.5 -17z" />
    <glyph glyph-name="dotlessi" unicode="&#x131;" horiz-adv-x="220" 
d="M215 507q23 0 30 -12.5t2 -32.5l-26 -92l-52 -182q-8 -28 -6 -44.5t25 -16.5v-12q0 -31 -12 -54t-29.5 -38t-38.5 -22.5t-39 -7.5q-29 0 -46.5 12.5t-25 34t-6.5 49t10 57.5l11 41l49 184q3 14 1 21.5t-6.5 13t-8.5 11.5t-4 16q0 20 21 34t49.5 23t57.5 13t44 4z" />
    <glyph glyph-name="Lslash" unicode="&#x141;" horiz-adv-x="610" 
d="M63 -30q-64 0 -94 28t-30 64q0 21 10.5 43t30.5 39t48.5 28t65.5 11q38 0 76 -8l13 40l-59 -5l2 28q2 19 13.5 32t29.5 15l36 3q3 12 7 25t8 27l3 10q-45 12 -84.5 32.5t-69 48t-46 62.5t-16.5 75q0 33 10 62t29 50.5t46.5 34.5t62.5 13q50 0 74.5 -29.5t32.5 -71.5
q-10 0 -20 -4t-18.5 -12.5t-14 -22.5t-5.5 -35q0 -60 51 -94l41 138q11 38 32 74.5t50.5 65t67 46t82.5 17.5q70 0 107 -41.5t37 -110.5q0 -62 -21 -116t-58.5 -95.5t-90 -68t-115.5 -32.5l-10 -33l86 8l-3 -28q-2 -18 -13.5 -31.5t-29.5 -15.5l-61 -5q-16 -48 -39 -88
q8 -1 14.5 -1.5t14.5 -0.5q57 0 84.5 19.5t27.5 43.5q0 18 -12 27q13 11 26 14.5t26 3.5q44 0 65.5 -30.5t21.5 -72.5q0 -34 -11 -66t-32.5 -56.5t-55 -39t-78.5 -14.5q-51 0 -92.5 22t-77.5 49q-41 -36 -85.5 -53.5t-89.5 -17.5zM416 435q34 6 61.5 24t47 43.5t30 56
t10.5 62.5q0 23 -8.5 36t-28.5 13q-41 0 -69 -90zM93 71q16 0 27.5 8t22.5 29q-26 13 -49 13q-16 0 -24.5 -8t-8.5 -18q0 -9 7.5 -16.5t24.5 -7.5z" />
    <glyph glyph-name="lslash" unicode="&#x142;" horiz-adv-x="217" 
d="M65 -7q-29 0 -46.5 12.5t-25 34t-6.5 49t10 57.5l11 41l16 59l-18 -6l-13 39l43 15l80 299q3 14 1 21.5t-6.5 13t-8.5 11.5t-4 16q0 20 21 34t49.5 23t57.5 13t44 4q23 0 30 -12.5t2 -32.5l-26 -92l-65 -238l18 6l14 -38l-46 -16l-32 -118q-8 -28 -6 -44.5t25 -16.5v-12
q0 -31 -12 -54t-29.5 -38t-38.5 -22.5t-39 -7.5z" />
    <glyph glyph-name="OE" unicode="&#x152;" horiz-adv-x="688" 
d="M442 -27q-39 0 -72 24t-54 66q-24 -33 -54.5 -51.5t-71.5 -18.5q-46 0 -79 16.5t-53.5 44t-30 63t-9.5 73.5q0 54 17 106t46 87q-26 20 -41.5 55t-15.5 79q0 49 17 93.5t50.5 78.5t82.5 54t113 20q78 0 122 -65q29 48 84.5 82t138.5 34q43 0 72 -11t46.5 -30t25 -44
t7.5 -53q0 -36 -11 -75q-10 -34 -37 -59t-68 -25q-49 0 -49 52q0 23 9 54q6 20 6 34q0 20 -9.5 30t-23.5 10q-20 0 -42 -20t-33 -60q-8 -29 -8 -61q0 -26 6.5 -50.5t22.5 -40.5q17 5 37 8.5t40 3.5q28 0 41.5 -11t13.5 -28v-6.5t-2 -7.5q-7 -23 -30 -41t-71 -18
q-20 0 -38 6.5t-32 18.5q-36 -12 -54.5 -37t-26.5 -51q-7 -21 -7 -44q0 -34 18 -56.5t55 -22.5t57.5 26t20.5 57q0 13 -5 28q5 2 10 2h9q37 0 64.5 -26.5t27.5 -77.5q0 -39 -15.5 -77.5t-45.5 -69t-73 -49.5t-98 -19zM207 186q19 0 36 20t31.5 53.5t26.5 77.5t22 91
q7 34 11 61.5t4 49.5q0 79 -59 79q-20 0 -35.5 -7.5t-25.5 -19.5t-15 -27t-5 -30q0 -23 11.5 -39.5t34.5 -16.5q19 0 28 11q2 -29 -10.5 -61t-44.5 -51q-8 -13 -14.5 -30t-11.5 -35.5t-7.5 -37t-2.5 -34.5q0 -23 6 -38.5t20 -15.5z" />
    <glyph glyph-name="oe" unicode="&#x153;" horiz-adv-x="596" 
d="M136 -7q-51 0 -83 19.5t-46 56t-11.5 89t21.5 117.5l16 56q12 43 29.5 76t41.5 55.5t57 34t77 11.5q38 0 64.5 -18.5t40.5 -53.5q22 35 55 53.5t89 18.5q42 0 67 -18.5t36.5 -46.5t11.5 -60t-7 -58q-17 -63 -60.5 -98t-98.5 -35q-34 0 -56 11q-5 -32 11 -48t41 -16
q32 0 64.5 10t47.5 27q7 7 13.5 5t10 -11t3 -24.5t-7.5 -35.5q-21 -58 -64.5 -87.5t-103.5 -29.5q-79 0 -110 80q-21 -41 -55 -60.5t-94 -19.5zM396 267q23 -1 37 5.5t21.5 17t11 23t6.5 24.5q9 37 5 48.5t-17 11.5q-15 0 -26.5 -16t-22.5 -56l-13 -48q-2 -6 -2 -10z
M170 118q6 0 11.5 2.5t11.5 13t13.5 31t16.5 56.5l15 59q8 31 11.5 51t3 31.5t-5 16t-13.5 4.5q-6 0 -11.5 -2.5t-11.5 -11.5t-13 -27t-15 -48l-15 -56q-10 -37 -14 -60.5t-3.5 -36.5t5.5 -18t14 -5z" />
    <glyph glyph-name="Scaron" unicode="&#x160;" horiz-adv-x="550" 
d="M527 812q59 -12 88 -46t29 -76q0 -34 -14 -60.5t-38.5 -45t-57.5 -28.5t-71 -10q-43 0 -77 10q13 -39 38.5 -70.5t51.5 -66t45.5 -76.5t19.5 -102q0 -51 -19.5 -99.5t-54.5 -87t-85 -61.5t-110 -23q-55 0 -99 17.5t-74.5 47.5t-46.5 70t-16 85q0 41 12 76t34.5 61.5
t54 41.5t70.5 15q52 0 80.5 -27t28.5 -62v-8t-1 -8q-5 9 -15 13t-21 4q-28 0 -43 -19t-15 -44q0 -29 19.5 -49t52.5 -20q23 0 40.5 9.5t29 25.5t17.5 36.5t6 41.5q0 30 -10.5 53.5t-25.5 44.5t-33.5 42.5t-33.5 46.5t-25.5 56.5t-10.5 72.5q0 10 1 15q-4 1 -11 1
q-34 0 -54.5 -18t-20.5 -41q0 -22 12.5 -32.5t29.5 -10.5q8 0 17 3q-1 -21 -10.5 -37.5t-25 -28.5t-35 -18.5t-40.5 -6.5q-29 0 -51.5 11t-38.5 30t-24 44.5t-8 55.5q0 34 12 64.5t35 53.5t56 36.5t75 13.5q32 0 59 -7.5t50 -19.5q27 51 76 81t113 34q-13 14 -26.5 33.5
t-24 38t-17 32.5t-5.5 16q2 4 6 13t9 18t10 16t9 7q11 0 22.5 -8t23 -20t22 -25t18.5 -24q11 11 23 24t24.5 25t26 20t26.5 8q4 0 10 -7t12 -16t10.5 -18t4.5 -13q0 -3 -12 -17.5t-30.5 -34t-39.5 -39.5t-39 -33zM453 624q29 0 51 11t22 34q0 14 -13 22.5t-39 8.5
q-29 0 -56 -14.5t-37 -45.5q38 -16 72 -16z" />
    <glyph glyph-name="scaron" unicode="&#x161;" horiz-adv-x="348" 
d="M271 547q-15 0 -33.5 20.5t-35 46t-27 47.5t-9.5 25q2 4 6 13t9 18t10 16t9 7q11 0 22.5 -8t23 -20t22 -25t18.5 -24q11 11 23 24t24.5 25t26 20t26.5 8q4 0 10 -7t12 -16t10.5 -18t4.5 -13q0 -2 -9 -13.5t-22.5 -26.5t-31 -32.5t-34 -32.5t-31.5 -24.5t-24 -9.5zM143 -7
q-37 0 -66.5 10.5t-50.5 28.5t-32.5 42.5t-11.5 53.5q0 18 3.5 34.5t10.5 29.5t16 21t20 8t13 -11q2 -16 9.5 -31t19.5 -27t26.5 -19t30.5 -7q23 0 35.5 7.5t12.5 21.5q0 13 -15 19t-28 14q-44 26 -66 66.5t-22 87.5q0 79 49.5 122t132.5 43q67 0 104 -32t37 -81
q0 -21 -6 -41.5t-16.5 -37.5t-26 -27.5t-34.5 -10.5q-26 0 -41.5 12.5t-15.5 36.5q0 18 9 40q16 40 -16 40q-27 0 -37.5 -22.5t-10.5 -46.5q0 -16 8.5 -31t34.5 -29q47 -26 72.5 -54.5t25.5 -67.5q0 -36 -13 -65.5t-36.5 -51t-55 -33.5t-69.5 -12z" />
    <glyph glyph-name="Ydieresis" unicode="&#x178;" horiz-adv-x="540" 
d="M341 822q-35 0 -54.5 24.5t-10.5 59.5q7 29 27.5 44t46.5 15q18 0 31.5 -7t22.5 -18.5t12 -26.5t-1 -31q-6 -23 -25 -41.5t-49 -18.5zM519 822q-36 0 -55 24.5t-10 59.5q7 29 27.5 44t45.5 15q18 0 32 -7t22.5 -18.5t11.5 -26.5t-1 -31q-5 -23 -24 -41.5t-49 -18.5z
M117 -223q-53 0 -91 15.5t-62.5 41t-36 57t-11.5 64.5q0 26 6.5 50.5t19 45t31 35t41.5 20.5q2 -49 37 -80t98 -31q35 0 70.5 15.5t67 50.5t57.5 91.5t42 137.5h-5q-18 -59 -42 -100t-51 -67t-55.5 -38t-57.5 -12q-64 0 -98 35t-34 99q0 56 18.5 104.5t41 95t41 94.5
t18.5 103q0 36 -16.5 55.5t-58.5 19.5q-19 0 -34 -7.5t-24.5 -19t-14.5 -26.5t-5 -30q0 -28 16 -50t49 -22q3 0 6 0.5t7 0.5q1 -20 -7 -41t-23 -38t-37 -27.5t-49 -10.5q-35 0 -64.5 13.5t-50.5 37t-32.5 56t-11.5 71.5q0 47 17 93t51 83.5t85.5 60.5t121.5 23
q64 0 109 -14.5t73.5 -42t42 -67t13.5 -89.5t-11 -96t-24 -85.5t-24 -71t-11 -52.5q0 -23 9 -33t23 -10q9 0 23 7t31 31t36.5 69.5t40.5 122.5l35 130q3 12 3 21q0 16 -5.5 25t-5.5 26q0 21 20.5 35.5t49 24.5t58 14.5t48.5 4.5q17 0 24 -8t7 -21q0 -4 -0.5 -7.5t-1.5 -8.5
l-108 -414q-5 -18 -13.5 -51t-19 -73t-23 -85t-24.5 -87q-16 -57 -49.5 -105.5t-79 -83.5t-100.5 -55t-116 -20z" />
    <glyph glyph-name="Zcaron" unicode="&#x17d;" horiz-adv-x="550" 
d="M421 797q-15 0 -33.5 20.5t-35 46t-27 47.5t-9.5 25q2 4 6 13t9 18t10 16t9 7q11 0 22.5 -8t23 -20t22 -25t18.5 -24q11 11 23 24t24.5 25t26 20t26.5 8q4 0 10 -7t12 -16t10.5 -18t4.5 -13q0 -2 -9 -13.5t-22.5 -26.5t-31 -32.5t-34 -32.5t-31.5 -24.5t-24 -9.5z
M-39 -17q-42 0 -64.5 21t-22.5 48q0 15 8 30.5t24.5 27.5t42.5 19.5t61 7.5q11 0 22.5 0.5t24.5 1.5q36 41 78 106t87.5 138t93.5 146.5t96 133.5q-32 11 -63 23t-70 12q-29 0 -49.5 -6.5t-33.5 -17.5t-19 -25t-6 -28q0 -31 18 -47t40 -16q15 0 28 8q-1 -39 -14 -68
t-33 -47.5t-45.5 -27.5t-52.5 -9q-33 0 -61.5 12.5t-49.5 35t-33 52.5t-12 66q0 45 19 86.5t56 73t91.5 50.5t124.5 19q47 0 81 -7t60.5 -17.5t49 -22.5t45.5 -23q31 29 61 45t59 16q34 0 51.5 -14t17.5 -40q0 -23 -9.5 -42.5t-25.5 -33.5t-37.5 -22.5t-45.5 -10.5
q-23 -34 -55 -91.5t-71.5 -124.5t-85.5 -137.5t-99 -131.5q13 1 25.5 1.5t23.5 0.5q57 0 84.5 19.5t27.5 43.5q0 18 -12 27q13 11 26 14.5t26 3.5q44 0 65.5 -30.5t21.5 -72.5q0 -34 -13.5 -66t-37 -56.5t-56 -39t-70.5 -14.5q-56 0 -115.5 18.5t-116.5 38.5
q-38 -26 -78.5 -41.5t-82.5 -15.5z" />
    <glyph glyph-name="zcaron" unicode="&#x17e;" horiz-adv-x="395" 
d="M305 547q-15 0 -33.5 20.5t-35 46t-27 47.5t-9.5 25q2 4 6 13t9 18t10 16t9 7q11 0 22.5 -8t23 -20t22 -25t18.5 -24q11 11 23 24t24.5 25t26 20t26.5 8q4 0 10 -7t12 -16t10.5 -18t4.5 -13q0 -2 -9 -13.5t-22.5 -26.5t-31 -32.5t-34 -32.5t-31.5 -24.5t-24 -9.5zM34 -16
q-10 0 -19.5 7.5t-16.5 20t-11 28t-4 31.5q0 39 15 70t39 57t55.5 49t64 46t64.5 47t58 53q-10 0 -20 0.5t-22 0.5q-40 0 -57.5 -8t-17.5 -26q0 -20 16 -27q-11 -9 -27.5 -16t-35.5 -7q-36 0 -56 25.5t-20 61.5q0 54 33 85.5t92 31.5q26 0 44.5 -4.5t35.5 -10.5t35 -10.5
t41 -4.5q21 0 36.5 5.5t19.5 17.5q1 7 8 7q13 0 22 -19.5t9 -42.5q0 -30 -15 -60t-47.5 -64.5t-82.5 -75.5t-121 -93q7 1 13.5 1.5t13.5 0.5q10 0 19.5 -0.5t20.5 -0.5q29 0 45.5 12t16.5 33v5q8 4 19 4q13 0 26 -6.5t23.5 -18t17 -27.5t6.5 -35q0 -26 -11 -50t-29.5 -42
t-43 -29t-52.5 -11q-34 0 -54 7t-35 15t-31 15t-42 7q-11 0 -17.5 -5.5t-6.5 -13.5q0 -3 2 -9.5t2 -9.5q0 -9 -5.5 -13t-12.5 -4z" />
    <glyph glyph-name="florin" unicode="&#x192;" horiz-adv-x="600" 
d="M161 0q-48 0 -74 25.5t-26 62.5q0 14 4 28.5t12 26.5t20 20.5t28 9.5q0 -18 10 -32t36 -14q23 0 35.5 14t18 38.5t6 57.5t-1.5 71h-86l28 99h55v14q0 58 9 113.5t34.5 99t71 70.5t119.5 27q62 0 96 -23t48.5 -55.5t14 -67.5t-6.5 -59q-9 -34 -36.5 -48.5t-55.5 -11.5
t-46 22t-9 52q3 11 3.5 22.5t-2.5 21t-11 16t-22 6.5q-23 0 -36.5 -19.5t-20.5 -48.5t-9.5 -64t-2.5 -67h152l-29 -99h-123q0 -58 -4.5 -113.5t-25 -98.5t-61 -69.5t-112.5 -26.5z" />
    <glyph glyph-name="circumflex" unicode="&#x2c6;" horiz-adv-x="328" 
d="M193 619q-4 0 -9 6t-10 13.5t-8.5 15.5t-3.5 12q0 2 9 13.5t22.5 26.5t31 32.5t34 32.5t31.5 24.5t24 9.5q15 0 33.5 -20.5t35 -46t27 -47.5t9.5 -25q-1 -4 -6.5 -12t-11.5 -15.5t-12 -13.5t-10 -6q-10 0 -22 8t-23.5 20t-22 25.5t-18.5 23.5q-10 -10 -22.5 -23.5
t-25 -25.5t-26 -20t-26.5 -8z" />
    <glyph glyph-name="caron" unicode="&#x2c7;" horiz-adv-x="327" 
d="M295 607q-15 0 -33.5 20.5t-35 46t-27 47.5t-9.5 25q2 4 6 13t9 18t10 16t9 7q11 0 22.5 -8t23 -20t22 -25t18.5 -24q11 11 23 24t24.5 25t26 20t26.5 8q4 0 10 -7t12 -16t10.5 -18t4.5 -13q0 -2 -9 -13.5t-22.5 -26.5t-31 -32.5t-34 -32.5t-31.5 -24.5t-24 -9.5z" />
    <glyph glyph-name="breve" unicode="&#x2d8;" horiz-adv-x="325" 
d="M306 665q-29 0 -52.5 9t-38 26t-20 41.5t1.5 55.5h78q-7 -25 5 -40t33 -15q24 0 41.5 17.5t19.5 37.5h74q0 -23 -11 -46.5t-30 -42.5t-45 -31t-56 -12z" />
    <glyph glyph-name="dotaccent" unicode="&#x2d9;" horiz-adv-x="204" 
d="M243 667q-33 0 -50.5 23t-9.5 55q7 26 26 40.5t42 14.5q17 0 29.5 -6.5t20.5 -17.5t11 -24.5t-1 -28.5q-5 -22 -22.5 -39t-45.5 -17z" />
    <glyph glyph-name="ring" unicode="&#x2da;" horiz-adv-x="258" 
d="M260 600q-28 0 -50.5 10t-36.5 27.5t-19 40.5t2 49q14 43 45.5 66t73.5 23q28 0 50 -10.5t36 -28t18.5 -40t-1.5 -46.5q-4 -18 -14 -34t-25 -29t-35 -20.5t-44 -7.5zM265 665q20 0 31 13.5t12 29.5t-8.5 29.5t-29.5 13.5q-19 0 -30.5 -13.5t-13 -29.5t7.5 -29.5t31 -13.5
z" />
    <glyph glyph-name="ogonek" unicode="&#x2db;" horiz-adv-x="254" 
d="M49 -200q-16 0 -32.5 6t-29 18t-20 29.5t-7.5 41.5q1 50 26.5 82t60.5 46l36 -14q-21 -16 -30.5 -33.5t-9.5 -32.5t8 -24.5t23 -9.5q14 0 23.5 8t14.5 18q8 -6 15 -17.5t6 -31.5q-1 -43 -26.5 -64.5t-57.5 -21.5z" />
    <glyph glyph-name="tilde" unicode="&#x2dc;" horiz-adv-x="417" 
d="M415 639q-18 0 -38.5 8.5t-40 18.5t-36 18.5t-28.5 8.5q-10 0 -19.5 -6.5t-18.5 -15t-18 -15t-17 -6.5q-6 0 -11 5.5t-8.5 13t-6 15.5t-2.5 13q0 11 11.5 28.5t28.5 34t37 28.5t36 12q14 0 33 -8.5t39 -18.5t38.5 -18.5t31.5 -8.5q12 0 24 7.5t22.5 17t19 17t15.5 7.5
q8 0 17.5 -15.5t9.5 -28.5q0 -11 -10 -30t-26.5 -37t-38 -31.5t-44.5 -13.5z" />
    <glyph glyph-name="hungarumlaut" unicode="&#x2dd;" horiz-adv-x="370" 
d="M194 623q-4 0 -10 4t-11 10t-9 12.5t-4 11.5t17 27t38.5 47t42 45t26.5 20t15 -3t17 -8.5t13.5 -13.5t5.5 -18q0 -5 -7.5 -17t-19 -27t-27 -30.5t-31 -29t-30.5 -22t-26 -8.5zM344 623q-4 0 -10 4t-11 10t-9 12.5t-4 11.5t17 27t38.5 47t42 45t26.5 20t15 -4t16.5 -10.5
t13 -15.5t5.5 -19q0 -7 -15.5 -28t-37.5 -43.5t-46 -39.5t-41 -17z" />
    <glyph glyph-name="gravecomb" unicode="&#x300;" horiz-adv-x="0" 
d="M79 603q-11 0 -30.5 6.5t-42 16t-45.5 22t-41.5 24t-30.5 21t-12 14.5q0 10 10.5 26t24 31t27 25.5t19.5 10.5q4 0 18 -9.5t32.5 -24t38.5 -31.5t37 -32.5t28 -27t11 -14.5q0 -5 -5.5 -14.5t-12.5 -19.5t-14.5 -17t-11.5 -7z" />
    <glyph glyph-name="acutecomb" unicode="&#x301;" horiz-adv-x="0" 
d="M-84 603q-4 0 -11.5 7t-14.5 17t-12.5 19.5t-5.5 14.5q0 3 11 14.5t28 27t37 32.5t38.5 31.5t32.5 24t18 9.5q6 0 19.5 -10.5t27 -25.5t24 -31t10.5 -26q0 -5 -12 -14.5t-30.5 -21t-41.5 -24t-45.5 -22t-42 -16t-30.5 -6.5z" />
    <glyph glyph-name="uni0302" unicode="&#x302;" horiz-adv-x="0" 
d="M-135 619q-4 0 -9 6t-10 13.5t-8.5 15.5t-3.5 12q0 2 9 13.5t22.5 26.5t31 32.5t34 32.5t31.5 24.5t24 9.5q15 0 33.5 -20.5t35 -46t27 -47.5t9.5 -25q-1 -4 -6.5 -12t-11.5 -15.5t-12 -13.5t-10 -6q-10 0 -22 8t-23.5 20t-22 25.5t-18.5 23.5q-11 -10 -23 -23.5
t-24.5 -25.5t-26 -20t-26.5 -8z" />
    <glyph glyph-name="tildecomb" unicode="&#x303;" horiz-adv-x="0" 
d="M-32 609q-18 0 -38.5 8.5t-40 18.5t-36 18.5t-28.5 8.5q-10 0 -19.5 -6.5t-18.5 -15t-18 -15t-17 -6.5q-6 0 -11 5.5t-8.5 13t-6 15.5t-2.5 13q0 11 11.5 28.5t28.5 34t36.5 28.5t36.5 12q14 0 33 -8.5t39 -18.5t38.5 -18.5t31.5 -8.5q12 0 24 7.5t22.5 17t19 17
t15.5 7.5q8 0 17.5 -15.5t9.5 -28.5q0 -11 -10 -30t-26.5 -37t-38 -31.5t-44.5 -13.5z" />
    <glyph glyph-name="uni0307" unicode="&#x307;" horiz-adv-x="0" 
d="M39 667q-33 0 -50.5 23t-9.5 55q7 26 26 40.5t42 14.5q17 0 29.5 -6.5t20.5 -17.5t11 -24.5t-1 -28.5q-5 -22 -22.5 -39t-45.5 -17z" />
    <glyph glyph-name="uni0308" unicode="&#x308;" horiz-adv-x="0" 
d="M-139 632q-35 0 -54.5 24.5t-10.5 59.5q7 29 27.5 44t46.5 15q18 0 31.5 -7t22.5 -18.5t12 -26.5t-1 -31q-6 -23 -25 -41.5t-49 -18.5zM39 632q-36 0 -55 24.5t-10 59.5q7 29 27.5 44t45.5 15q18 0 32 -7t22.5 -18.5t11.5 -26.5t-1 -31q-5 -23 -24 -41.5t-49 -18.5z" />
    <glyph glyph-name="uni030A" unicode="&#x30a;" horiz-adv-x="0" 
d="M2 600q-28 0 -50.5 10t-36.5 27.5t-19 40.5t2 49q14 43 45.5 66t73.5 23q28 0 50 -10.5t36 -28t18.5 -40t-1.5 -46.5q-4 -18 -14 -34t-25 -29t-35 -20.5t-44 -7.5zM7 665q20 0 31 13.5t12 29.5t-8.5 29.5t-29.5 13.5q-19 0 -30.5 -13.5t-13 -29.5t7.5 -29.5t31 -13.5z
" />
    <glyph glyph-name="uni030C" unicode="&#x30c;" horiz-adv-x="0" 
d="M-32 607q-15 0 -33.5 20.5t-35 46t-27 47.5t-9.5 25q1 4 5.5 13t9.5 18t10 16t9 7q10 0 22 -8t23.5 -20t22 -25t18.5 -24q10 11 22.5 24t25 25t26 20t26.5 8q4 0 10 -7t12 -16t10.5 -18t4.5 -13q0 -2 -9 -13.5t-22.5 -26.5t-31 -32.5t-34 -32.5t-31.5 -24.5t-24 -9.5z
" />
    <glyph glyph-name="uni0327" unicode="&#x327;" horiz-adv-x="0" 
d="M-214 -199q-16 0 -31 5t-27 14.5t-19 24t-7 34.5q0 36 18.5 53.5t40.5 17.5q5 0 8 -1q-4 -5 -5.5 -10t-1.5 -10q0 -14 9 -21.5t20 -7.5q17 0 24.5 12.5t12 29.5t10 36t19.5 33q15 15 32 19l11 -26q-13 -5 -21.5 -16t-8.5 -31q0 -13 5 -29.5t5 -36.5q0 -23 -8 -39.5
t-21.5 -28t-30.5 -17t-34 -5.5z" />
    <glyph glyph-name="uni03BC" unicode="&#x3bc;" horiz-adv-x="600" 
d="M107 -202q-29 0 -46.5 12.5t-25 34t-6.5 49t10 57.5l116 420q3 14 1 21.5t-6.5 13t-8.5 11.5t-4 16q0 20 21 34t49.5 23t57.5 13t44 4q23 0 30 -12.5t2 -32.5l-73 -257q-10 -35 -5 -48t17 -13q17 0 32 19t23 43l44 165q3 14 1 21.5t-6.5 13t-8.5 11.5t-4 16q0 20 21 34
t49.5 23t57.5 13t44 4q23 0 30 -12.5t2 -32.5l-78 -274q-8 -28 -6 -44.5t25 -16.5v-12q0 -31 -12 -54t-29.5 -38t-38.5 -22.5t-39 -7.5q-44 0 -62 27.5t-16 69.5q-30 -51 -62.5 -74t-67.5 -23q-4 -14 -1 -25t9.5 -19t17 -12.5t21.5 -4.5v-12q0 -32 -12 -55t-29.5 -38
t-38.5 -22t-39 -7z" />
    <glyph glyph-name="endash" unicode="&#x2013;" horiz-adv-x="603" 
d="M82 295q11 40 41.5 64t72.5 24h373l-17 -62q-11 -40 -41.5 -64t-72.5 -24h-373z" />
    <glyph glyph-name="emdash" unicode="&#x2014;" horiz-adv-x="545" 
d="M-118 295q11 40 41.5 64t72.5 24h715l-17 -62q-11 -40 -41.5 -64t-72.5 -24h-715z" />
    <glyph glyph-name="quoteleft" unicode="&#x2018;" horiz-adv-x="242" 
d="M295 734q14 0 19 -7.5t2 -16.5q-2 -8 -9 -14t-17 -14.5t-22 -21t-24 -33.5q-5 -8 -8.5 -17t-8.5 -20h6q16 0 28 -8.5t19.5 -22.5t9.5 -31.5t-3 -36.5q-9 -34 -33 -52t-54 -18q-42 0 -63 33t-8 90q8 35 27.5 69t43.5 61t49.5 43.5t45.5 16.5z" />
    <glyph glyph-name="quoteright" unicode="&#x2019;" horiz-adv-x="242" 
d="M149 407q-14 0 -19 7.5t-2 16.5q2 8 9 14t17 14.5t22 21t24 33.5q5 8 8.5 17t8.5 20h-6q-16 0 -28 8.5t-19.5 22.5t-9.5 31.5t3 36.5q9 34 33 52t54 18q42 0 63 -33t8 -90q-8 -34 -27.5 -68t-43.5 -61t-49.5 -44t-45.5 -17z" />
    <glyph glyph-name="quotesinglbase" unicode="&#x201a;" horiz-adv-x="243" 
d="M0 -151q-14 0 -19 7.5t-2 16.5q2 8 9 14t17 14.5t22 21t24 33.5q5 8 8.5 17t8.5 20h-6q-16 0 -28 8.5t-19.5 22.5t-9.5 31.5t3 36.5q9 34 33 52t54 18q42 0 63 -33t8 -90q-8 -34 -27.5 -68.5t-43.5 -61.5t-49.5 -43.5t-45.5 -16.5z" />
    <glyph glyph-name="quotedblleft" unicode="&#x201c;" horiz-adv-x="442" 
d="M295 734q14 0 19 -7.5t2 -16.5q-2 -8 -9 -14t-17 -14.5t-22 -21t-24 -33.5q-5 -8 -8.5 -17t-8.5 -20h6q16 0 28 -8.5t19.5 -22.5t9.5 -31.5t-3 -36.5q-9 -34 -33 -52t-54 -18q-42 0 -63 33t-8 90q8 35 27.5 69t43.5 61t49.5 43.5t45.5 16.5zM495 734q14 0 19 -7.5
t2 -16.5q-2 -8 -9 -14t-17 -14.5t-22 -21t-24 -33.5q-5 -8 -8.5 -17t-8.5 -20h6q16 0 28 -8.5t19.5 -22.5t9.5 -31.5t-3 -36.5q-9 -34 -33 -52t-54 -18q-42 0 -63 33t-8 90q8 35 27.5 69t43.5 61t49.5 43.5t45.5 16.5z" />
    <glyph glyph-name="quotedblright" unicode="&#x201d;" horiz-adv-x="442" 
d="M149 407q-14 0 -19 7.5t-2 16.5q2 8 9 14t17 14.5t22 21t24 33.5q5 8 8.5 17t8.5 20h-6q-16 0 -28 8.5t-19.5 22.5t-9.5 31.5t3 36.5q9 34 33 52t54 18q42 0 63 -33t8 -90q-8 -34 -27.5 -68t-43.5 -61t-49.5 -44t-45.5 -17zM349 407q-14 0 -19 7.5t-2 16.5q2 8 9 14
t17 14.5t22 21t24 33.5q5 8 8.5 17t8.5 20h-6q-16 0 -28 8.5t-19.5 22.5t-9.5 31.5t3 36.5q9 34 33 52t54 18q42 0 63 -33t8 -90q-8 -34 -27.5 -68t-43.5 -61t-49.5 -44t-45.5 -17z" />
    <glyph glyph-name="quotedblbase" unicode="&#x201e;" horiz-adv-x="443" 
d="M0 -151q-14 0 -19 7.5t-2 16.5q2 8 9 14t17 14.5t22 21t24 33.5q5 8 8.5 17t8.5 20h-6q-16 0 -28 8.5t-19.5 22.5t-9.5 31.5t3 36.5q9 34 33 52t54 18q42 0 63 -33t8 -90q-8 -34 -27.5 -68.5t-43.5 -61.5t-49.5 -43.5t-45.5 -16.5zM200 -151q-14 0 -19 7.5t-2 16.5
q2 8 9 14t17 14.5t22 21t24 33.5q5 8 8.5 17t8.5 20h-6q-16 0 -28 8.5t-19.5 22.5t-9.5 31.5t3 36.5q9 34 33 52t54 18q42 0 63 -33t8 -90q-8 -34 -27.5 -68.5t-43.5 -61.5t-49.5 -43.5t-45.5 -16.5z" />
    <glyph glyph-name="dagger" unicode="&#x2020;" horiz-adv-x="600" 
d="M314 599h-136l18 50q8 21 31 21h106l37 138h89l-37 -138h140l-18 -50q-4 -11 -12 -16t-19 -5h-110l-92 -345h-89z" />
    <glyph glyph-name="daggerdbl" unicode="&#x2021;" horiz-adv-x="600" 
d="M262 403h-135l18 50q8 21 31 21h105l33 125h-136l18 50q8 21 31 21h106l37 138h89l-37 -138h140l-18 -50q-4 -11 -12 -16t-19 -5h-110l-33 -125h141l-18 -50q-4 -11 -12 -16t-19 -5h-111l-40 -149h-89z" />
    <glyph glyph-name="bullet" unicode="&#x2022;" horiz-adv-x="325" 
d="M176 148q-31 0 -55.5 11.5t-40 32t-21 47.5t2.5 57q14 51 50 78t81 27q31 0 55 -12.5t39.5 -33t21 -47t-1.5 -54.5q-5 -21 -16.5 -40t-28 -33.5t-38 -23.5t-48.5 -9z" />
    <glyph glyph-name="ellipsis" unicode="&#x2026;" horiz-adv-x="649" 
d="M84 -7q-21 0 -37 8t-26.5 21.5t-14 31.5t1.5 38q9 34 33 52t54 18q21 0 37 -8.5t26 -22t14 -31t-1 -36.5q-7 -28 -29.5 -49.5t-57.5 -21.5zM288 -7q-21 0 -37 8t-26.5 21.5t-14 31.5t1.5 38q9 34 33 52t54 18q21 0 37 -8.5t26 -22t14 -31t-1 -36.5q-7 -28 -29.5 -49.5
t-57.5 -21.5zM492 -7q-21 0 -37 8t-26.5 21.5t-14 31.5t1.5 38q9 34 33 52t54 18q21 0 37 -8.5t26 -22t14 -31t-1 -36.5q-7 -28 -29.5 -49.5t-57.5 -21.5z" />
    <glyph glyph-name="perthousand" unicode="&#x2030;" horiz-adv-x="928" 
d="M166 327q-36 0 -57 18.5t-30 48.5t-6.5 68.5t12.5 79.5q20 82 57.5 128t103.5 46q37 0 57.5 -16t29 -43t6 -63t-12.5 -77q-9 -39 -22 -74t-32 -60.5t-45 -40.5t-61 -15zM556 691h89l-505 -691h-89zM182 421q9 0 17 8.5t15.5 22.5t13.5 32t11 37q5 18 8 36.5t3 33.5
t-4.5 24.5t-16.5 9.5q-19 0 -33 -27t-22 -61q-5 -18 -8.5 -38t-3.5 -37.5t4.5 -29t15.5 -11.5zM461 -10q-36 0 -56.5 18.5t-29.5 48.5t-7 68.5t12 79.5q20 82 58 128t103 46q37 0 57.5 -16t29 -43t6 -63t-11.5 -77q-9 -39 -22.5 -73.5t-32.5 -60.5t-45 -41t-61 -15zM741 -10
q-36 0 -56.5 18.5t-29.5 48.5t-7 68.5t12 79.5q20 82 58 128t103 46q37 0 57.5 -16t29 -43t6 -63t-11.5 -77q-9 -39 -22.5 -73.5t-32.5 -60.5t-45 -41t-61 -15zM477 84q9 0 17 8.5t15.5 22t14 32t11.5 37.5q5 18 8 36.5t2.5 33.5t-5 24.5t-16.5 9.5q-19 0 -32.5 -27
t-22.5 -61q-4 -18 -7.5 -38t-3.5 -37.5t4 -29t15 -11.5zM757 84q9 0 17 8.5t15.5 22t14 32t11.5 37.5q5 18 8 36.5t2.5 33.5t-5 24.5t-16.5 9.5q-19 0 -32.5 -27t-22.5 -61q-4 -18 -7.5 -38t-3.5 -37.5t4 -29t15 -11.5z" />
    <glyph glyph-name="guilsinglleft" unicode="&#x2039;" horiz-adv-x="306" 
d="M170 96q-20 0 -38 10.5t-29 29.5l-85 146l133 145q19 21 49 21h124l-170 -174l106 -178h-90z" />
    <glyph glyph-name="guilsinglright" unicode="&#x203a;" horiz-adv-x="305" 
d="M145 438q20 0 38 -10.5t29 -29.5l85 -146l-133 -145q-19 -21 -49 -21h-124l170 174l-106 178h90z" />
    <glyph glyph-name="fraction" unicode="&#x2044;" horiz-adv-x="272" 
d="M389 808h89l-561 -958h-89z" />
    <glyph glyph-name="uni2074" unicode="&#x2074;" horiz-adv-x="333" 
d="M244 229q-19 0 -30.5 8.5t-16.5 22.5t-4.5 32.5t6.5 38.5l9 34l14 51q-20 4 -40 6.5t-42 2.5q-38 0 -57.5 -8.5t-27.5 -19.5q-10 10 -10 30q0 23 17.5 48t38 49.5t38 48.5t17.5 45q0 16 -9 24.5t-21 8.5q-5 0 -11 -2q-3 9 -3 18q0 23 18 41.5t49 18.5q34 0 52 -22.5
t18 -54.5q0 -19 -8.5 -42.5t-22.5 -47.5t-32 -45.5t-36 -37.5q29 8 64 8q6 0 12 -1t14 -2l31 112q7 26 17.5 50t25.5 42.5t34.5 29.5t43.5 11q23 0 35 -11t12 -27q0 -5 -1 -8q-26 -10 -40 -36t-21 -51l-37 -130q21 2 35 8t23 13q10 -13 10 -28q0 -20 -19.5 -39t-59.5 -19h-7
l-9 -34q-7 -23 -5.5 -35t16.5 -12v-8q0 -21 -8 -36.5t-20 -25t-26 -14.5t-26 -5z" />
    <glyph glyph-name="Euro" unicode="&#x20ac;" horiz-adv-x="600" 
d="M350 0q-34 0 -67 12.5t-60.5 39t-47.5 67t-28 96.5h-99l21 82h74l3 38h-65l22 82h56q15 62 41.5 118.5t64.5 100t86 69.5t105 26q46 0 75.5 -10.5t46.5 -28t24 -40t7.5 -45t-3.5 -44t-8 -37.5q-6 -23 -21 -37t-33 -19.5t-37 -3.5t-33.5 11t-21.5 25t-1 38q2 6 4 17t2 22
t-4.5 19t-16.5 8q-20 0 -38.5 -15.5t-35 -41.5t-29.5 -60t-22 -72h237l-22 -82h-228q-1 -9 -1 -17.5v-16.5v-4h217l-22 -82h-181q17 -40 45.5 -55t59.5 -15q33 0 61 12t37 23q7 8 13.5 7t10 -10t3 -24.5t-7.5 -35.5q-9 -27 -28 -48.5t-43.5 -36.5t-53 -23.5t-58.5 -8.5z" />
    <glyph glyph-name="trademark" unicode="&#x2122;" horiz-adv-x="631" 
d="M241 471q-12 2 -28 0.5t-30 -1t-22 6t-4 20.5l38 143h-34q-15 0 -18 9t-0.5 21t7 24.5t5.5 20.5h185q15 0 18 -9t0.5 -21t-7 -24.5t-5.5 -20.5h-60zM414 471q-8 1 -21 0t-24.5 0t-19 6.5t-3.5 19.5l58 218h94l39 -109l101 109h87l-65 -244q-11 2 -27 0.5t-30 -1t-22 6
t-4 20.5l26 100l-91 -106q-8 -9 -17.5 -7t-13.5 13l-33 99z" />
    <glyph glyph-name="uniE001" unicode="&#xe001;" 
d="M450 -293q-66 0 -117.5 28.5t-83 81t-41 126.5t8.5 165q-32 -60 -67 -87.5t-73 -27.5q-68 0 -80 66t21 193l10 36q31 115 77 167t107 52q41 0 62 -17.5t29 -49.5q17 24 46.5 42t67.5 18q27 0 34.5 -19t1.5 -40l-68 -253q-21 -76 -23.5 -127.5t8.5 -83.5t31.5 -46
t44.5 -14q32 0 49.5 17t7.5 37q31 12 56 8t42.5 -19t27 -38.5t9.5 -50.5q0 -29 -11.5 -58t-34.5 -52.5t-58.5 -38.5t-83.5 -15zM180 144q17 0 32 22t23 47l38 153q-2 11 -8 17.5t-18 6.5q-7 0 -14.5 -3.5t-15.5 -16t-17.5 -37t-19.5 -65.5l-10 -36q-13 -49 -10 -68.5
t20 -19.5z" />
    <glyph glyph-name="uniE002" unicode="&#xe002;" horiz-adv-x="437" 
d="M450 -293q-66 0 -117.5 28.5t-83 81t-41 126.5t8.5 165q-32 -60 -67 -87.5t-73 -27.5q-68 0 -80 66t21 193l10 36q31 115 77 167t107 52q70 0 88 -55q8 47 20 95l13 46q3 14 1 21.5t-6.5 13t-8.5 11.5t-4 16q0 20 21 34t49.5 23t57.5 13t44 4q23 0 30 -12.5t2 -32.5
l-134 -496q-21 -76 -23 -127.5t8.5 -83.5t31 -46t44.5 -14q32 0 49.5 17t7.5 37q31 12 56 8t42.5 -19t27 -38.5t9.5 -50.5q0 -29 -11.5 -58t-34.5 -52.5t-58.5 -38.5t-83.5 -15zM180 144q17 0 32 22t23 47l38 153q-2 11 -8 17.5t-18 6.5q-7 0 -14.5 -3.5t-15.5 -16
t-17.5 -37t-19.5 -65.5l-10 -36q-13 -49 -10 -68.5t20 -19.5z" />
    <glyph glyph-name="uniE003" unicode="&#xe003;" 
d="M466 -293q-74 0 -131 32t-90.5 90t-40.5 140.5t19 182.5l9 35l43 160q8 26 -18 26q-13 0 -26 -6.5t-21 -18.5l-45 -160q-8 -28 -6 -44.5t25 -16.5v-12q0 -31 -12 -54t-29.5 -38t-38.5 -22.5t-39 -7.5q-29 0 -46.5 12.5t-25 34t-6.5 49t10 57.5l11 41l108 406q3 14 1 21.5
t-6.5 13t-8.5 11.5t-4 16q0 20 21 34t49.5 23t57.5 13t44 4q23 0 30 -12.5t2 -32.5l-26 -92l-5 -18q-11 -38 -21.5 -71t-22.5 -66h1q28 34 60 52t67 18q32 0 51 -15t27 -38t7 -52t-9 -57l-42 -157q-19 -76 -19.5 -127.5t11.5 -83.5t34 -46t47 -14q32 0 49.5 17t7.5 37
q31 12 56 8t42.5 -19t27 -38.5t9.5 -50.5q0 -29 -11.5 -58t-34.5 -52.5t-58.5 -38.5t-83.5 -15z" />
    <glyph glyph-name="uniE004" unicode="&#xe004;" horiz-adv-x="423" 
d="M470 -293q-74 0 -128.5 32t-86.5 90.5t-39.5 140.5t11.5 182q5 24 7.5 44.5t-0.5 36.5t-13.5 26.5t-31.5 14.5l-24 -86q-8 -28 -6 -44.5t25 -16.5v-12q0 -31 -12 -54t-29.5 -38t-38.5 -22.5t-39 -7.5q-29 0 -46.5 12.5t-25 34t-6.5 49t10 57.5l11 41l108 406q3 14 1 21.5
t-6.5 13t-8.5 11.5t-4 16q0 20 21 34t49.5 23t57.5 13t44 4q23 0 30 -12.5t2 -32.5l-103 -371q19 7 32.5 21.5t23.5 30.5t15.5 31t8.5 24q5 19 5 30.5t-3 18.5q14 18 38 28t53 10q44 0 67.5 -23t10.5 -67q-8 -27 -26.5 -49.5t-40.5 -38t-44.5 -24t-39.5 -8.5v-1
q10 0 24.5 -6t27 -19t19.5 -34.5t2 -53.5q-11 -74 -7.5 -124.5t18 -82t36.5 -45.5t47 -14q32 0 49.5 17t7.5 37q31 12 56 8t42.5 -19t27 -38.5t9.5 -50.5q0 -29 -11.5 -58t-34.5 -52.5t-58.5 -38.5t-83.5 -15z" />
    <glyph glyph-name="uniE005" unicode="&#xe005;" horiz-adv-x="661" 
d="M672 -293q-70 0 -123.5 32t-84.5 90t-36.5 140.5t20.5 182.5l9 35l43 160q8 26 -18 26q-12 0 -25 -6t-21 -17q0 -2 -0.5 -2.5t-0.5 -2.5l-42 -157q-8 -28 -6 -44.5t25 -16.5v-12q0 -31 -12 -54t-29.5 -38t-38.5 -22.5t-39 -7.5q-29 0 -46.5 12.5t-25 34t-6.5 49t10 57.5
l54 201q8 26 -18 26q-12 0 -25 -6t-21 -17l-46 -162q-8 -28 -6 -44.5t25 -16.5v-12q0 -31 -12 -54t-29.5 -38t-38.5 -22.5t-39 -7.5q-29 0 -46.5 12.5t-25 34t-6.5 49t10 57.5l11 41l49 184q3 14 1 21.5t-6.5 13t-8.5 11.5t-4 16q0 20 18 34t42.5 23t50.5 13t41 4
q21 0 27.5 -12.5t1.5 -32.5l-15 -54h2q31 48 68.5 73.5t79.5 25.5t61.5 -24t22.5 -59q29 40 64 61.5t73 21.5q32 0 51 -15t27 -38t7 -52t-9 -57l-42 -157q-19 -76 -22.5 -127.5t5 -83.5t27.5 -46t44 -14q32 0 49.5 17t7.5 37q31 12 56 8t42.5 -19t27 -38.5t9.5 -50.5
q0 -29 -11.5 -58t-34.5 -52.5t-58.5 -38.5t-83.5 -15z" />
    <glyph glyph-name="uniE006" unicode="&#xe006;" horiz-adv-x="440" 
d="M460 -293q-72 0 -127.5 32t-87.5 90.5t-38.5 140.5t20.5 182l9 35l43 160q8 26 -18 26q-12 0 -25 -6t-21 -17l-46 -162q-8 -28 -6 -44.5t25 -16.5v-12q0 -31 -12 -54t-29.5 -38t-38.5 -22.5t-39 -7.5q-29 0 -46.5 12.5t-25 34t-6.5 49t10 57.5l11 41l49 184q3 14 1 21.5
t-6.5 13t-8.5 11.5t-4 16q0 20 18 34t42.5 23t50.5 13t41 4q21 0 27.5 -12.5t1.5 -32.5l-15 -54h2q31 48 68.5 73.5t79.5 25.5q32 0 51 -15t27 -38t7 -52t-9 -57l-42 -157q-19 -76 -20.5 -127.5t9.5 -83.5t31 -46t43 -14q32 0 49.5 17t7.5 37q31 12 56 8t42.5 -19t27 -38.5
t9.5 -50.5q0 -29 -11.5 -58t-34.5 -52.5t-58.5 -38.5t-83.5 -15z" />
    <glyph glyph-name="uniE007" unicode="&#xe007;" horiz-adv-x="438" 
d="M452 -293q-66 0 -117 29t-82.5 81.5t-41 126.5t7.5 165q-32 -60 -67 -88t-73 -28q-31 0 -49.5 16t-26.5 44.5t-5.5 67.5t14.5 84l43 166q3 14 1 21.5t-6.5 13t-8.5 11.5t-4 16q0 20 21 34t49.5 23t57.5 13t44 4q23 0 30 -12.5t2 -32.5l-26 -92l-47 -165
q-11 -34 -5.5 -47.5t17.5 -13.5q17 0 32 19t23 43l44 165q3 14 1 21.5t-6.5 13t-8.5 11.5t-4 16q0 20 21 34t49.5 23t57.5 13t44 4q23 0 30 -12.5t2 -32.5l-26 -92l-52 -182q-21 -76 -23.5 -127.5t8.5 -83.5t31.5 -46t44.5 -14q32 0 49.5 17t7.5 37q31 12 56 8t42.5 -19
t27 -38.5t9.5 -50.5q0 -29 -11.5 -58t-34.5 -52.5t-58.5 -38.5t-83.5 -15z" />
    <glyph glyph-name="uniE008" unicode="&#xe008;" 
d="M-62 -329q-50 0 -86 15t-60 39.5t-35.5 55t-11.5 61.5q0 27 9 52.5t26 45t43 31.5t59 12q47 0 79 -26q-15 -17 -15 -40q0 -21 17 -39t59 -18q48 0 101 16t110 36q-11 52 -10 113t16 131q-35 -85 -76 -124t-86 -39q-68 0 -80 66t21 193l10 36q31 115 77 167t107 52
q41 0 62 -17.5t29 -49.5q17 24 46.5 42t67.5 18q27 0 34.5 -19t1.5 -40l-66 -253q-17 -66 -19 -125t8 -108q26 6 52.5 9.5t52.5 3.5q45 0 76.5 -10t51.5 -26.5t29 -39t9 -46.5q0 -25 -10 -50.5t-30.5 -45.5t-52.5 -33t-77 -13q-57 0 -104 21.5t-81 62.5q-41 -20 -85.5 -41
t-90 -38t-90.5 -27.5t-88 -10.5zM180 144q17 0 32 22t23 47l38 153q-2 11 -8 17.5t-18 6.5q-7 0 -14.5 -3.5t-15.5 -16t-17.5 -37t-19.5 -65.5l-10 -36q-13 -49 -10 -68.5t20 -19.5zM484 -186q19 0 28 7.5t9 16.5q0 8 -8.5 15t-25.5 7q-26 0 -63 -14q27 -32 60 -32z" />
    <glyph glyph-name="uniE009" unicode="&#xe009;" horiz-adv-x="437" 
d="M-62 -329q-50 0 -86 15t-60 39.5t-35.5 55t-11.5 61.5q0 27 9 52.5t26 45t43 31.5t59 12q47 0 79 -26q-15 -17 -15 -40q0 -21 17 -39t59 -18q48 0 100.5 15.5t109.5 35.5q-11 49 -11.5 107.5t13.5 124.5q-35 -78 -75 -114t-82 -36q-68 0 -80 66t21 193l10 36
q31 115 77 167t107 52q70 0 88 -55q8 47 20 95l13 46q3 14 1 21.5t-6.5 13t-8.5 11.5t-4 16q0 20 21 34t49.5 23t57.5 13t44 4q23 0 30 -12.5t2 -32.5l-134 -496q-17 -66 -19 -125.5t8 -107.5q27 6 53.5 9.5t53.5 3.5q45 0 76 -10t50.5 -26.5t28.5 -39t9 -46.5
q0 -25 -10 -50.5t-30.5 -45.5t-52.5 -33t-77 -13q-57 0 -103.5 21.5t-80.5 61.5q-41 -20 -85.5 -40.5t-89.5 -37.5t-90 -27.5t-88 -10.5zM180 144q17 0 32 22t23 47l38 153q-2 11 -8 17.5t-18 6.5q-7 0 -14.5 -3.5t-15.5 -16t-17.5 -37t-19.5 -65.5l-10 -36
q-13 -49 -10 -68.5t20 -19.5zM482 -186q19 0 28 7.5t9 16.5q0 8 -7.5 15t-24.5 7q-26 0 -65 -14q27 -32 60 -32z" />
    <glyph glyph-name="uniE00A" unicode="&#xe00a;" 
d="M-62 -329q-50 0 -86 15t-60 39.5t-35.5 55t-11.5 61.5q0 27 9 52.5t26 45t43 31.5t59 12q47 0 79 -26q-15 -17 -15 -40q0 -21 17 -39t59 -18q46 0 97 15t106 34q-17 57 -16 127t23 151l43 160q8 26 -18 26q-13 0 -26 -6.5t-21 -18.5l-45 -160q-8 -28 -6 -44.5t25 -16.5
v-12q0 -31 -12 -54t-29.5 -38t-38.5 -22.5t-39 -7.5q-29 0 -46.5 12.5t-25 34t-6.5 49t10 57.5l11 41l108 406q3 14 1 21.5t-6.5 13t-8.5 11.5t-4 16q0 20 21 34t49.5 23t57.5 13t44 4q23 0 30 -12.5t2 -32.5l-31 -110q-11 -38 -21.5 -71t-22.5 -66h1q28 34 60 52t67 18
q32 0 51 -15t27 -38t7 -52t-9 -57l-42 -157q-17 -66 -19 -125t8 -108q26 6 52.5 9.5t52.5 3.5q45 0 76.5 -10t51.5 -26.5t29 -39t9 -46.5q0 -25 -10 -50.5t-30.5 -45.5t-52.5 -33t-77 -13q-57 0 -105 21t-84 61q-41 -20 -85.5 -40.5t-89.5 -37t-90 -27t-87 -10.5zM486 -186
q19 0 28 7.5t9 16.5q0 8 -8.5 15t-25.5 7q-26 0 -63 -14q27 -32 60 -32z" />
    <glyph glyph-name="uniE00B" unicode="&#xe00b;" horiz-adv-x="423" 
d="M-62 -329q-50 0 -86 15t-60 39.5t-35.5 55t-11.5 61.5q0 27 9 52.5t26 45t43 31.5t59 12q47 0 79 -26q-15 -17 -15 -40q0 -21 17 -39t59 -18q49 0 103.5 17t113.5 37q-14 51 -16.5 111t4.5 127q3 24 5 44.5t-0.5 36.5t-12 26.5t-30.5 14.5l-24 -86q-8 -28 -6 -44.5
t25 -16.5v-12q0 -31 -12 -54t-29.5 -38t-38.5 -22.5t-39 -7.5q-29 0 -46.5 12.5t-25 34t-6.5 49t10 57.5l119 447q3 14 1 21.5t-6.5 13t-8.5 11.5t-4 16q0 20 21 34t49.5 23t57.5 13t44 4q23 0 30 -12.5t2 -32.5l-103 -371q19 7 32.5 21.5t23.5 30.5t15.5 31t8.5 24
q5 19 5 30.5t-3 18.5q14 18 38 28t53 10q44 0 67.5 -23t10.5 -67q-8 -27 -26.5 -49.5t-40.5 -38t-44.5 -24t-39.5 -8.5v-1q10 0 22.5 -6t23 -22t17.5 -44t5 -71q-2 -54 0 -104t10 -93q26 5 51.5 8.5t51.5 3.5q45 0 76.5 -10t51.5 -26.5t29.5 -39t9.5 -46.5q0 -25 -10 -50.5
t-30.5 -45.5t-52.5 -33t-77 -13q-60 0 -104.5 22t-76.5 63q-42 -20 -87 -41t-90.5 -38t-91.5 -28t-89 -11zM484 -186q19 0 28 7.5t9 16.5q0 8 -8.5 15t-25.5 7q-14 0 -30.5 -4t-35.5 -11q25 -31 63 -31z" />
    <glyph glyph-name="uniE00C" unicode="&#xe00c;" horiz-adv-x="661" 
d="M159 -329q-49 0 -85.5 15t-60.5 39.5t-35.5 55t-11.5 61.5q0 27 9 52.5t26 45t43 31.5t59 12q47 0 79 -26q-15 -17 -15 -40q0 -21 17 -39t59 -18q47 0 98.5 15t107.5 34q-16 57 -15 127t23 151l43 160q8 26 -18 26q-12 0 -25 -6t-21 -17q0 -2 -0.5 -2.5t-0.5 -2.5
l-42 -157q-8 -28 -6 -44.5t25 -16.5v-12q0 -31 -12 -54t-29.5 -38t-38.5 -22.5t-39 -7.5q-29 0 -46.5 12.5t-25 34t-6.5 49t10 57.5l54 201q8 26 -18 26q-12 0 -25 -6t-21 -17l-46 -162q-8 -28 -6 -44.5t25 -16.5v-12q0 -31 -12 -54t-29.5 -38t-38.5 -22.5t-39 -7.5
q-29 0 -46.5 12.5t-25 34t-6.5 49t10 57.5l11 41l49 184q3 14 1 21.5t-6.5 13t-8.5 11.5t-4 16q0 20 18 34t42.5 23t50.5 13t41 4q21 0 27.5 -12.5t1.5 -32.5l-15 -54h2q31 48 68.5 73.5t79.5 25.5t61.5 -24t22.5 -59q29 40 64 61.5t73 21.5q32 0 51 -15t27 -38t7 -52
t-9 -57l-42 -157q-17 -66 -19 -125t8 -108q26 6 52.5 9.5t52.5 3.5q45 0 76.5 -10t51.5 -26.5t29 -39t9 -46.5q0 -25 -10 -50.5t-30.5 -45.5t-52.5 -33t-77 -13q-57 0 -105.5 21t-83.5 61q-42 -20 -86.5 -40.5t-90.5 -37t-91 -27t-88 -10.5zM711 -186q19 0 28 7.5t9 16.5
q0 8 -8.5 15t-25.5 7q-26 0 -63 -14q27 -32 60 -32z" />
    <glyph glyph-name="uniE00D" unicode="&#xe00d;" horiz-adv-x="440" 
d="M-62 -329q-50 0 -86 15t-60 39.5t-35.5 55t-11.5 61.5q0 27 9 52.5t26 45t43 31.5t59 12q47 0 79 -26q-15 -17 -15 -40q0 -21 17 -39t59 -18q48 0 100 15.5t109 34.5q-15 57 -14.5 126.5t19.5 150.5l43 160q8 26 -18 26q-12 0 -25 -6t-21 -17l-46 -162q-8 -28 -6 -44.5
t25 -16.5v-12q0 -31 -12 -54t-30 -38t-39.5 -22.5t-41.5 -7.5q-27 0 -44 12.5t-24 34t-6 49t10 57.5l11 41l49 184q3 14 1 21.5t-6.5 13t-8.5 11.5t-4 16q0 20 18 34t42.5 23t50.5 13t41 4q21 0 27.5 -12.5t1.5 -32.5l-15 -54h2q31 48 68.5 73.5t79.5 25.5q32 0 51 -15
t27 -38t7 -52t-9 -57l-42 -157q-17 -66 -18.5 -125t8.5 -107q26 5 52 8.5t52 3.5q45 0 76.5 -10t51.5 -26.5t29 -39t9 -46.5q0 -25 -10 -50.5t-30.5 -45.5t-52.5 -33t-77 -13q-57 0 -105 21.5t-83 61.5q-42 -20 -86.5 -40.5t-90.5 -37.5t-91.5 -27.5t-88.5 -10.5zM490 -186
q19 0 28 7.5t9 16.5q0 8 -8.5 15t-25.5 7q-26 0 -63 -14q27 -32 60 -32z" />
    <glyph glyph-name="uniE00E" unicode="&#xe00e;" horiz-adv-x="438" 
d="M481 -32q45 0 76.5 -10t51.5 -26.5t29 -39t9 -46.5q0 -25 -10 -50.5t-30.5 -45.5t-52.5 -33t-77 -13q-57 0 -104 21.5t-81 62.5q-41 -20 -85.5 -41t-90 -38t-90.5 -27.5t-88 -10.5q-50 0 -86 15t-60 39.5t-35.5 55t-11.5 61.5q0 27 9 52.5t26 45t43 31.5t59 12
q47 0 79 -26q-15 -17 -15 -40q0 -21 17 -39t59 -18q48 0 101 16t110 36q-11 50 -10.5 108.5t14.5 125.5q-35 -80 -75 -116.5t-83 -36.5q-31 0 -49.5 16t-26.5 44.5t-5.5 67.5t14.5 84l43 166q3 14 1 21.5t-6.5 13t-8.5 11.5t-4 16q0 20 21 34t49.5 23t57.5 13t44 4
q23 0 30 -12.5t2 -32.5l-26 -92l-47 -165q-11 -34 -5.5 -47.5t17.5 -13.5q17 0 32 19t23 43l44 165q3 14 1 21.5t-6.5 13t-8.5 11.5t-4 16q0 20 21 34t49.5 23t57.5 13t44 4q23 0 30 -12.5t2 -32.5l-26 -92l-52 -182q-17 -66 -19 -125t8 -108q26 6 52.5 9.5t52.5 3.5z
M484 -186q19 0 28 7.5t9 16.5q0 8 -8.5 15t-25.5 7q-26 0 -63 -14q27 -32 60 -32z" />
    <glyph glyph-name="uniE00F" unicode="&#xe00f;" horiz-adv-x="430" 
d="M13 -7q-27 0 -34 19t-2 40l48 179l68 258q25 95 58 161.5t74 109t89.5 62t102.5 19.5q42 0 76 -11t58 -30.5t37 -47t13 -59.5q0 -44 -20.5 -73t-47.5 -42t-53 -9.5t-37 25.5q9 12 10.5 25t-4.5 24t-19.5 18t-33.5 7q-16 0 -34.5 -6.5t-36.5 -22.5t-33 -41.5t-26 -63.5
q-8 -26 -15.5 -49t-15.5 -46q59 68 128 68t78.5 -66t-23.5 -193l-10 -36q-31 -114 -72.5 -166.5t-106.5 -52.5q-36 0 -59 19.5t-32 55.5q-6 -15 -18.5 -28.5t-29 -24t-36.5 -16.5t-41 -6zM192 127q6 0 13.5 3t15.5 14t16.5 31.5t18.5 56.5l10 36q9 35 11.5 56t0.5 32t-7 14
t-12 3q-15 0 -24.5 -5t-18.5 -16v-4l-33 -117l-23 -84q3 -10 9.5 -15t22.5 -5z" />
    <glyph glyph-name="uniE010" unicode="&#xe010;" horiz-adv-x="437" 
d="M77 -7q-68 0 -80 66t21 193l10 36q31 115 77 167t107 52q70 0 88 -55q8 47 20 95q38 146 118.5 220t189.5 74q42 0 76 -11t58 -30.5t37 -47t13 -59.5q0 -44 -20.5 -73t-47.5 -42t-53 -9.5t-37 25.5q9 12 10.5 25t-4.5 24t-19.5 18t-33.5 7q-16 0 -34.5 -6.5t-36.5 -22.5
t-33 -41.5t-26 -63.5l-92 -346q-8 -28 -6 -44.5t25 -16.5v-12q0 -31 -12 -54t-29.5 -38t-38.5 -22.5t-39 -7.5q-21 0 -35.5 9.5t-22.5 26t-9.5 38.5t2.5 47q-32 -63 -68.5 -92t-74.5 -29zM180 144q17 0 32 22t23 47l38 153q-2 11 -8 17.5t-18 6.5q-7 0 -14.5 -3.5t-15.5 -16
t-17.5 -37t-19.5 -65.5l-10 -36q-13 -49 -10 -68.5t20 -19.5z" />
    <glyph glyph-name="uniE011" unicode="&#xe011;" 
d="M65 -7q-29 0 -46.5 12.5t-25 34t-6.5 49t10 57.5l90 343q25 95 58 161.5t74 109t89.5 62t102.5 19.5q42 0 76 -11t58 -30.5t37 -47t13 -59.5q0 -44 -20.5 -73t-47.5 -42t-53 -9.5t-37 25.5q9 12 10.5 25t-4.5 24t-19.5 18t-33.5 7q-16 0 -34.5 -6.5t-36.5 -22.5
t-33 -41.5t-26 -63.5q-8 -26 -15.5 -49.5t-16.5 -46.5q28 33 60 51t67 18q32 0 51 -15t27 -38t7 -52t-9 -57l-42 -157q-8 -28 -6 -44.5t25 -16.5v-12q0 -31 -12 -54t-29.5 -38t-38.5 -22.5t-39 -7.5q-29 0 -46.5 12.5t-25 34t-6.5 49t10 57.5l54 201q8 26 -18 26
q-13 0 -26 -6.5t-21 -18.5l-45 -160q-8 -28 -6 -44.5t25 -16.5v-12q0 -31 -12 -54t-29.5 -38t-38.5 -22.5t-39 -7.5z" />
    <glyph glyph-name="uniE012" unicode="&#xe012;" horiz-adv-x="423" 
d="M65 -7q-29 0 -46.5 12.5t-25 34t-6.5 49t10 57.5l90 343q25 95 58 161.5t74 109t89.5 62t102.5 19.5q42 0 76 -11t58 -30.5t37 -47t13 -59.5q0 -44 -20.5 -73t-47.5 -42t-53 -9.5t-37 25.5q9 12 10.5 25t-4.5 24t-19.5 18t-33.5 7q-16 0 -34.5 -6.5t-36.5 -22.5
t-33 -41.5t-26 -63.5l-61 -221q19 7 32.5 21.5t23.5 30.5t15.5 31t8.5 24q5 19 5 30.5t-3 18.5q14 18 38 28t53 10q44 0 67.5 -23t10.5 -67q-8 -27 -26.5 -49.5t-40.5 -38t-44.5 -24t-39.5 -8.5v-1q10 0 17.5 -3t14.5 -13.5t13.5 -30.5t13.5 -53q8 -28 18 -48.5t33 -20.5
l-1 -12q-5 -52 -35.5 -87t-80.5 -35q-56 0 -73 48t-6 146q2 16 3.5 30.5t0 25.5t-8 19t-20.5 11l-23 -85q-8 -28 -6 -44.5t25 -16.5v-12q0 -31 -12 -54t-29.5 -38t-38.5 -22.5t-39 -7.5z" />
    <glyph glyph-name="uniE013" unicode="&#xe013;" horiz-adv-x="217" 
d="M66 -7q-29 0 -46 12.5t-24.5 34t-6.5 49t9 57.5l89 343q24 94 57.5 161t74.5 109.5t89.5 62t102.5 19.5q42 0 76 -11t58 -30.5t37 -47t13 -59.5q0 -44 -20.5 -73t-47.5 -42t-53 -9.5t-37 25.5q9 12 10.5 25t-4.5 24t-19.5 18t-33.5 7q-16 0 -34.5 -6.5t-36.5 -22.5
t-33 -41.5t-26 -63.5l-95 -346q-8 -28 -6 -44.5t26 -16.5v-12q0 -31 -12 -54t-29.5 -38t-38.5 -22.5t-39 -7.5z" />
    <glyph glyph-name="uniE014" unicode="&#xe014;" horiz-adv-x="430" 
d="M13 -7q-27 0 -34 19t-2 40l119 448q20 74 48 132q-40 17 -80.5 29t-86.5 12q-41 0 -65.5 -8.5t-37 -20t-16 -23.5t-3.5 -20q0 -9 3.5 -19t11.5 -20q-20 -6 -38 -6q-37 0 -60.5 19.5t-32.5 48.5t-2.5 62.5t30 62.5t65 48.5t103.5 19.5q36 0 70 -9t67 -23t64.5 -31
t61.5 -34q48 63 108 95.5t128 32.5q72 0 111 -36.5t39 -93.5q0 -29 -11.5 -56.5t-36 -49t-63 -34.5t-93.5 -13q-28 0 -53 4t-49 11q-1 -2 -1 -3t-1 -3q-11 -38 -21.5 -71.5t-23.5 -66.5q60 71 127 71q36 0 56.5 -17t26.5 -49.5t0 -81t-23 -111.5l-10 -36
q-31 -114 -72.5 -166.5t-106.5 -52.5q-36 0 -59 19.5t-32 55.5q-6 -15 -18.5 -28.5t-29 -24t-36.5 -16.5t-41 -6zM375 651q35 0 52 14t17 29q0 11 -10 19.5t-31 8.5q-52 0 -90 -59q33 -12 62 -12zM192 127q6 0 13.5 3t15.5 14t16.5 31.5t18.5 56.5l10 36q9 35 11.5 56
t0.5 32t-7 14t-12 3q-15 0 -24.5 -5.5t-19.5 -16.5v-3l-55 -201q4 -10 10.5 -15t21.5 -5z" />
    <glyph glyph-name="uniE015" unicode="&#xe015;" horiz-adv-x="437" 
d="M77 -7q-68 0 -80 66t21 193l10 36q31 115 77 167t107 52q70 0 88 -55q8 47 20 95q6 23 14 45t17 42q-38 16 -77.5 27.5t-84.5 11.5q-41 0 -65.5 -8.5t-37 -20t-16 -23.5t-3.5 -20q0 -9 3.5 -19t11.5 -20q-19 -6 -38 -6q-37 0 -60.5 19.5t-32.5 48.5t-2.5 62.5t30 62.5
t65.5 48.5t103 19.5q35 0 69 -8.5t66 -22t63 -30.5t61 -34q47 58 108.5 92t131.5 34q72 0 111 -36.5t39 -93.5q0 -29 -11.5 -56.5t-36 -49t-63 -34.5t-93.5 -13q-28 0 -53 4t-49 11l-105 -392q-8 -28 -6 -44.5t25 -16.5v-12q0 -31 -12 -54t-29.5 -38t-38.5 -22.5t-39 -7.5
q-21 0 -35.5 9.5t-22.5 26t-9.5 38.5t2.5 47q-32 -63 -68.5 -92t-74.5 -29zM587 651q35 0 52 14t17 29q0 11 -10 19.5t-31 8.5q-54 0 -90 -59q32 -12 62 -12zM180 144q17 0 32 22t23 47l38 153q-2 11 -8 17.5t-18 6.5q-7 0 -14.5 -3.5t-15.5 -16t-17.5 -37t-19.5 -65.5
l-10 -36q-13 -49 -10 -68.5t20 -19.5z" />
    <glyph glyph-name="uniE016" unicode="&#xe016;" 
d="M65 -7q-29 0 -46.5 12.5t-25 34t-6.5 49t10 57.5l11 41l84 320q9 35 20.5 66t25.5 59q-40 17 -80.5 29t-85.5 12q-41 0 -65.5 -8.5t-37 -20t-16 -23.5t-3.5 -20q0 -9 3.5 -19t11.5 -20q-20 -6 -38 -6q-37 0 -60.5 19.5t-32.5 48.5t-2.5 62.5t30 62.5t65.5 48.5t103 19.5
q36 0 70 -8.5t66.5 -22.5t64 -31.5t61.5 -34.5q48 62 108.5 95t128.5 33q72 0 111 -36.5t39 -93.5q0 -29 -11.5 -56.5t-36 -49t-63 -34.5t-93.5 -13q-28 0 -53 4t-49 11q-1 -2 -1 -3t-1 -3q-11 -38 -21.5 -71t-22.5 -66h1q28 34 60 52t67 18q32 0 51 -15t27 -38t7 -52
t-9 -57l-42 -157q-8 -28 -6 -44.5t25 -16.5v-12q0 -31 -12 -54t-29.5 -38t-38.5 -22.5t-39 -7.5q-29 0 -46.5 12.5t-25 34t-6.5 49t10 57.5l54 201q8 26 -18 26q-13 0 -26 -6.5t-21 -18.5l-45 -160q-8 -28 -6 -44.5t25 -16.5v-12q0 -31 -12 -54t-29.5 -38t-38.5 -22.5
t-39 -7.5zM370 651q35 0 52 14t17 29q0 11 -10 19.5t-31 8.5q-52 0 -90 -59q33 -12 62 -12z" />
    <glyph glyph-name="uniE017" unicode="&#xe017;" horiz-adv-x="423" 
d="M65 -7q-29 0 -46.5 12.5t-25 34t-6.5 49t10 57.5l95 361q9 35 20.5 66t25.5 59q-40 17 -80.5 29t-85.5 12q-41 0 -65.5 -8.5t-37 -20t-16 -23.5t-3.5 -20q0 -9 3.5 -19t11.5 -20q-20 -6 -38 -6q-37 0 -60.5 19.5t-32.5 48.5t-2.5 62.5t30 62.5t65.5 48.5t103 19.5
q36 0 70 -8.5t66.5 -22.5t64 -31.5t61.5 -34.5q48 62 108.5 95t128.5 33q72 0 111 -36.5t39 -93.5q0 -29 -11.5 -56.5t-36 -49t-63 -34.5t-93.5 -13q-28 0 -53 4t-49 11q-1 -2 -1 -3t-1 -3l-72 -261q19 7 32.5 21.5t23.5 30.5t15.5 31t8.5 24q5 19 5 30.5t-3 18.5
q14 18 38 28t53 10q44 0 67.5 -23t10.5 -67q-8 -27 -26.5 -49.5t-40.5 -38t-44.5 -24t-39.5 -8.5v-1q10 0 17.5 -3t14.5 -13.5t13.5 -30.5t13.5 -53q8 -28 18 -48.5t33 -20.5l-1 -12q-5 -52 -35.5 -87t-80.5 -35q-56 0 -73 48t-6 146q2 16 3.5 30.5t0 25.5t-8 19t-20.5 11
l-23 -85q-8 -28 -6 -44.5t25 -16.5v-12q0 -31 -12 -54t-29.5 -38t-38.5 -22.5t-39 -7.5zM370 651q35 0 52 14t17 29q0 11 -10 19.5t-31 8.5q-52 0 -90 -59q33 -12 62 -12z" />
    <glyph glyph-name="uniE018" unicode="&#xe018;" horiz-adv-x="217" 
d="M66 -7q-42 0 -60 25t-18 63q0 32 10 65l94 361q9 35 20.5 66t25.5 59q-40 17 -80.5 29t-85.5 12q-41 0 -65.5 -8.5t-37 -20t-16 -23.5t-3.5 -20q0 -9 3.5 -19t11.5 -20q-20 -6 -38 -6q-48 0 -73.5 31t-25.5 73q0 27 12 55t36.5 50.5t62.5 37t91 14.5q36 0 70 -8.5
t66.5 -22.5t64 -31.5t61.5 -34.5q48 62 108.5 95t128.5 33q72 0 111 -36.5t39 -93.5q0 -29 -11.5 -56.5t-36 -49t-63 -34.5t-93.5 -13q-28 0 -53 4t-49 11q-1 -2 -1 -3t-1 -3l-106 -386q-3 -11 -5 -19.5t-2 -16.5q0 -12 6 -18.5t21 -6.5v-12q0 -31 -12 -54t-29.5 -38
t-38.5 -22.5t-39 -7.5zM370 651q35 0 52 14t17 29q0 11 -10 19.5t-31 8.5q-52 0 -90 -59q33 -12 62 -12z" />
    <glyph glyph-name="uniE019" unicode="&#xe019;" horiz-adv-x="437" 
d="M450 -293q-66 0 -117 28.5t-82.5 81t-41.5 127t8 165.5q-32 -60 -67 -88t-73 -28q-68 0 -80 66t21 193l10 36q31 115 77 167t107 52q70 0 88 -55q8 47 20 95q38 146 118.5 220t189.5 74q42 0 76 -11t58 -30.5t37 -47t13 -59.5q0 -44 -20.5 -73t-47.5 -42t-53 -9.5
t-37 25.5q9 12 10.5 25t-4.5 24t-19.5 18t-33.5 7q-16 0 -34 -6t-35.5 -20.5t-32.5 -37.5t-24 -56l-96 -360q-21 -76 -23 -127.5t8.5 -83.5t31 -46t44.5 -14q32 0 49.5 17t7.5 37q31 12 56 8t42.5 -19t27 -38.5t9.5 -50.5q0 -29 -11.5 -58t-34.5 -52.5t-58.5 -38.5
t-83.5 -15zM180 144q17 0 32 22t23 47l38 153q-2 11 -8 17.5t-18 6.5q-7 0 -14.5 -3.5t-15.5 -16t-17.5 -37t-19.5 -65.5l-10 -36q-13 -49 -10 -68.5t20 -19.5z" />
    <glyph glyph-name="uniE01A" unicode="&#xe01a;" 
d="M466 -293q-60 0 -108.5 20.5t-83 59t-53 93t-18.5 123.5q0 35 4.5 72t15.5 77l9 35l43 160q2 8 2 10q0 16 -20 16q-13 0 -26 -6.5t-21 -18.5l-45 -160q-6 -21 -6 -36q0 -12 5.5 -18.5t19.5 -6.5v-12q0 -31 -12 -54t-29.5 -38t-38.5 -22.5t-39 -7.5q-42 0 -60 25t-18 63
q0 32 10 65l90 343q25 95 58 161.5t74 109t89.5 62t102.5 19.5q42 0 76 -11t58 -30.5t37 -47t13 -59.5q0 -30 -10.5 -53.5t-27 -39.5t-35.5 -24t-37 -8q-16 0 -28.5 6t-19.5 20q11 14 11 29q0 18 -15 31.5t-43 13.5q-16 0 -34.5 -6.5t-36.5 -22.5t-33 -41.5t-26 -63.5
q-8 -26 -15.5 -49.5t-16.5 -46.5q28 33 60 51t67 18q23 0 39.5 -8t26.5 -21.5t14.5 -31.5t4.5 -38q0 -31 -9 -63l-42 -157q-11 -41 -15.5 -74.5t-4.5 -60.5q0 -74 28 -105t65 -31q26 0 43 12t17 29q0 7 -3 13q23 9 43 9q21 0 38 -9t29 -24t18.5 -34.5t6.5 -41.5
q0 -29 -11.5 -58t-34.5 -52.5t-58.5 -38.5t-83.5 -15z" />
    <glyph glyph-name="uniE01B" unicode="&#xe01b;" horiz-adv-x="423" 
d="M470 -293q-61 0 -109 21.5t-81 62t-50 98t-17 129.5q0 32 3.5 65t10.5 69q3 17 5.5 33t2.5 30q0 23 -10 38.5t-36 20.5l-24 -86q-6 -21 -6 -36q0 -12 5.5 -18.5t19.5 -6.5v-12q0 -31 -12 -54t-29.5 -38t-38.5 -22.5t-39 -7.5q-42 0 -60 25t-18 63q0 32 10 65l90 343
q25 95 58 161.5t74 109t89.5 62t102.5 19.5q42 0 76 -11t58 -30.5t37 -47t13 -59.5q0 -30 -10.5 -53.5t-27 -39.5t-35.5 -24t-37 -8q-16 0 -28.5 6t-19.5 20q11 14 11 29q0 18 -15 31.5t-43 13.5q-16 0 -34.5 -6.5t-36.5 -22.5t-33 -41.5t-26 -63.5l-61 -221q19 7 32.5 21.5
t23.5 30.5t15.5 31t8.5 24q3 10 4 17.5t1 14.5q0 11 -3 17q14 18 38 28t53 10q36 0 59 -16t23 -47q0 -14 -4 -27q-8 -27 -26.5 -49.5t-40.5 -38t-44.5 -24t-39.5 -8.5v-1q9 0 22 -5t24.5 -15.5t20 -27.5t8.5 -42q0 -5 -0.5 -11t-1.5 -12q-5 -28 -6.5 -52.5t-1.5 -45.5
q0 -46 8.5 -78t22.5 -52t32.5 -29t38.5 -9q26 0 43 12t17 29q0 7 -3 13q23 9 43 9q21 0 38 -9t29 -24t18.5 -34.5t6.5 -41.5q0 -29 -11.5 -58t-34.5 -52.5t-58.5 -38.5t-83.5 -15z" />
    <glyph glyph-name="uniE01C" unicode="&#xe01c;" horiz-adv-x="437" 
d="M-62 -329q-50 0 -86 15t-60 39.5t-35.5 55t-11.5 61.5q0 27 9 52.5t26 45t43 31.5t59 12q47 0 79 -26q-15 -17 -15 -40q0 -21 17 -39t59 -18q48 0 100.5 15.5t109.5 35.5q-11 50 -11 106q0 61 13 126q-35 -78 -75 -114t-82 -36q-83 0 -83 107q0 61 24 152l10 36
q31 115 77 167t107 52q70 0 88 -55q8 47 20 95q38 146 118.5 220t189.5 74q42 0 76 -11t58 -30.5t37 -47t13 -59.5q0 -30 -10.5 -53.5t-27 -39.5t-35.5 -24t-37 -8q-16 0 -28.5 6t-19.5 20q11 14 11 29q0 18 -15 31.5t-43 13.5q-16 0 -34 -6t-35.5 -20t-32.5 -37t-24 -57
l-96 -360q-19 -75 -19 -145q0 -24 2 -46t6 -42q27 6 53.5 9.5t53.5 3.5q45 0 76 -10t50.5 -26.5t28.5 -39t9 -46.5q0 -25 -10 -50.5t-30.5 -45.5t-52.5 -33t-77 -13q-57 0 -103.5 21.5t-80.5 61.5q-41 -20 -85.5 -40.5t-89.5 -37.5t-90 -27.5t-88 -10.5zM180 144q17 0 32 22
t23 47l38 153q-2 11 -8 17.5t-18 6.5q-7 0 -14.5 -3.5t-15.5 -16t-17.5 -37t-19.5 -65.5l-10 -36q-10 -39 -10 -60q0 -28 20 -28zM482 -186q19 0 28 7.5t9 16.5q0 8 -7.5 15t-24.5 7q-26 0 -65 -14q27 -32 60 -32z" />
    <glyph glyph-name="uniE01D" unicode="&#xe01d;" 
d="M-62 -329q-50 0 -86 15t-60 39.5t-35.5 55t-11.5 61.5q0 27 9 52.5t26 45t43 31.5t59 12q47 0 79 -26q-15 -17 -15 -40q0 -21 17 -39t59 -18q46 0 97 15t106 34q-8 26 -12 55.5t-4 61.5q0 38 6 77.5t17 83.5l43 160q2 8 2 10q0 16 -20 16q-13 0 -26 -6.5t-21 -18.5
l-45 -160q-6 -21 -6 -36q0 -12 5.5 -18.5t19.5 -6.5v-12q0 -31 -12 -54t-29.5 -38t-38.5 -22.5t-39 -7.5q-42 0 -60 25t-18 63q0 32 10 65l90 343q25 95 58 161.5t74 109t89.5 62t102.5 19.5q42 0 76 -11t58 -30.5t37 -47t13 -59.5q0 -30 -10.5 -53.5t-27 -39.5t-35.5 -24
t-37 -8q-16 0 -28.5 6t-19.5 20q11 14 11 29q0 18 -15 31.5t-43 13.5q-16 0 -34.5 -6.5t-36.5 -22.5t-33 -41.5t-26 -63.5q-8 -26 -15.5 -49.5t-16.5 -46.5q28 33 60 51t67 18q23 0 39.5 -8t26.5 -21.5t14.5 -31.5t4.5 -38q0 -31 -9 -63l-42 -157q-19 -75 -19 -145
q0 -45 8 -88q26 6 52.5 9.5t52.5 3.5q45 0 76.5 -10t51.5 -26.5t29 -39t9 -46.5q0 -25 -10 -50.5t-30.5 -45.5t-52.5 -33t-77 -13q-57 0 -105 21t-84 61q-41 -20 -85.5 -40.5t-89.5 -37t-90 -27t-87 -10.5zM486 -186q19 0 28 7.5t9 16.5q0 8 -8.5 15t-25.5 7q-26 0 -63 -14
q27 -32 60 -32z" />
    <glyph glyph-name="uniE01E" unicode="&#xe01e;" horiz-adv-x="423" 
d="M-62 -329q-50 0 -86 15t-60 39.5t-35.5 55t-11.5 61.5q0 27 9 52.5t26 45t43 31.5t59 12q47 0 79 -26q-15 -17 -15 -40q0 -21 17 -39t59 -18q49 0 103.5 17t113.5 37q-9 33 -13 69.5t-4 75.5q0 23 1.5 46t3.5 47q2 17 4 33t2 30q0 23 -9 38.5t-35 20.5l-24 -86
q-6 -21 -6 -36q0 -12 5.5 -18.5t19.5 -6.5v-12q0 -31 -12 -54t-29.5 -38t-38.5 -22.5t-39 -7.5q-42 0 -60 25t-18 63q0 32 10 65l90 343q25 95 58 161.5t74 109t89.5 62t102.5 19.5q42 0 76 -11t58 -30.5t37 -47t13 -59.5q0 -30 -10.5 -53.5t-27 -39.5t-35.5 -24t-37 -8
q-16 0 -28.5 6t-19.5 20q11 14 11 29q0 18 -15 31.5t-43 13.5q-16 0 -34.5 -6.5t-36.5 -22.5t-33 -41.5t-26 -63.5l-61 -221q19 7 32.5 21.5t23.5 30.5t15.5 31t8.5 24q3 10 4 17.5t1 14.5q0 11 -3 17q14 18 38 28t53 10q36 0 59 -16t23 -47q0 -14 -4 -27
q-8 -27 -26.5 -49.5t-40.5 -38t-44.5 -24t-39.5 -8.5v-1q10 0 22.5 -6t23 -22t17.5 -44t5 -71q-1 -13 -1 -26v-26q0 -39 2.5 -76t8.5 -69q26 5 51.5 8.5t51.5 3.5q45 0 76.5 -10t51.5 -26.5t29.5 -39t9.5 -46.5q0 -25 -10 -50.5t-30.5 -45.5t-52.5 -33t-77 -13
q-60 0 -104.5 22t-76.5 63q-42 -20 -87 -41t-90.5 -38t-91.5 -28t-89 -11zM484 -186q19 0 28 7.5t9 16.5q0 8 -8.5 15t-25.5 7q-14 0 -30.5 -4t-35.5 -11q25 -31 63 -31z" />
    <glyph glyph-name="uniE01F" unicode="&#xe01f;" horiz-adv-x="437" 
d="M450 -293q-55 0 -100 20t-77 57.5t-50 91t-18 120.5q0 52 12 112q-32 -60 -67 -87.5t-73 -27.5q-83 0 -83 107q0 61 24 152l10 36q31 115 77 167t107 52q70 0 88 -55q8 47 20 95q6 23 14 45t17 42q-38 16 -77.5 27.5t-84.5 11.5q-41 0 -65.5 -8.5t-37 -20t-16 -23.5
t-3.5 -20q0 -9 3.5 -19t11.5 -20q-19 -6 -38 -6q-48 0 -73.5 31t-25.5 73q0 27 12 55t36.5 50.5t63 37t90.5 14.5q35 0 69 -8.5t66 -22t63 -30.5t61 -34q47 58 108.5 92t131.5 34q72 0 111 -36.5t39 -93.5q0 -29 -11.5 -56.5t-36 -49t-63 -34.5t-93.5 -13q-28 0 -53 4
t-49 11l-105 -392q-12 -45 -17.5 -80.5t-5.5 -64.5q0 -69 25 -97.5t59 -28.5q26 0 43 12t17 29q0 7 -3 13q23 9 43 9q21 0 38 -9t29 -24t18.5 -34.5t6.5 -41.5q0 -29 -11.5 -58t-34.5 -52.5t-58.5 -38.5t-83.5 -15zM587 651q35 0 52 14t17 29q0 11 -10 19.5t-31 8.5
q-54 0 -90 -59q32 -12 62 -12zM180 144q17 0 32 22t23 47l38 153q-2 11 -8 17.5t-18 6.5q-7 0 -14.5 -3.5t-15.5 -16t-17.5 -37t-19.5 -65.5l-10 -36q-10 -39 -10 -60q0 -28 20 -28z" />
    <glyph glyph-name="uniE020" unicode="&#xe020;" 
d="M466 -293q-60 0 -108.5 20.5t-83 59t-53 93t-18.5 123.5q0 35 4.5 72t15.5 77l52 195q2 8 2 10q0 16 -20 16q-13 0 -26 -6.5t-21 -18.5l-45 -160q-6 -21 -6 -36q0 -12 5.5 -18.5t19.5 -6.5v-12q0 -31 -12 -54t-29.5 -38t-38.5 -22.5t-39 -7.5q-42 0 -60 25t-18 63
q0 32 10 65l95 361q9 35 20.5 66t25.5 59q-40 17 -80.5 29t-85.5 12q-41 0 -65.5 -8.5t-37 -20t-16 -23.5t-3.5 -20q0 -9 3.5 -19t11.5 -20q-20 -6 -38 -6q-48 0 -73.5 31t-25.5 73q0 27 12 55t36.5 50.5t62.5 37t91 14.5q36 0 70 -8.5t66.5 -22.5t64 -31.5t61.5 -34.5
q48 62 108.5 95t128.5 33q72 0 111 -36.5t39 -93.5q0 -29 -11.5 -56.5t-36 -49t-63 -34.5t-93.5 -13q-28 0 -53 4t-49 11q-1 -2 -1 -3t-1 -3q-11 -38 -21.5 -71t-22.5 -66h1q28 34 60 52t67 18q23 0 39.5 -8t26.5 -21.5t14.5 -31.5t4.5 -38q0 -31 -9 -63l-42 -157
q-11 -41 -15.5 -74.5t-4.5 -60.5q0 -74 28 -105t65 -31q26 0 43 12t17 29q0 7 -3 13q23 9 43 9q21 0 38 -9t29 -24t18.5 -34.5t6.5 -41.5q0 -29 -11.5 -58t-34.5 -52.5t-58.5 -38.5t-83.5 -15zM370 651q35 0 52 14t17 29q0 11 -10 19.5t-31 8.5q-52 0 -90 -59q33 -12 62 -12
z" />
    <glyph glyph-name="uniE021" unicode="&#xe021;" horiz-adv-x="423" 
d="M470 -293q-61 0 -109 21.5t-81 62t-50 98t-17 129.5q0 32 3.5 65t10.5 69q3 17 5.5 33t2.5 30q0 23 -10 38.5t-36 20.5l-24 -86q-6 -21 -6 -36q0 -12 5.5 -18.5t19.5 -6.5v-12q0 -31 -12 -54t-29.5 -38t-38.5 -22.5t-39 -7.5q-42 0 -60 25t-18 63q0 32 10 65l95 361
q9 35 20.5 66t25.5 59q-40 17 -80.5 29t-85.5 12q-41 0 -65.5 -8.5t-37 -20t-16 -23.5t-3.5 -20q0 -9 3.5 -19t11.5 -20q-20 -6 -38 -6q-48 0 -73.5 31t-25.5 73q0 27 12 55t36.5 50.5t62.5 37t91 14.5q36 0 70 -8.5t66.5 -22.5t64 -31.5t61.5 -34.5q48 62 108.5 95
t128.5 33q72 0 111 -36.5t39 -93.5q0 -29 -11.5 -56.5t-36 -49t-63 -34.5t-93.5 -13q-28 0 -53 4t-49 11q-1 -2 -1 -3t-1 -3l-72 -261q19 7 32.5 21.5t23.5 30.5t15.5 31t8.5 24q3 10 4 17.5t1 14.5q0 11 -3 17q14 18 38 28t53 10q36 0 59 -16t23 -47q0 -14 -4 -27
q-8 -27 -26.5 -49.5t-40.5 -38t-44.5 -24t-39.5 -8.5v-1q9 0 22 -5t24.5 -15.5t20 -27.5t8.5 -42q0 -5 -0.5 -11t-1.5 -12q-5 -28 -6.5 -52.5t-1.5 -45.5q0 -46 8.5 -78t22.5 -52t32.5 -29t38.5 -9q26 0 43 12t17 29q0 7 -3 13q23 9 43 9q21 0 38 -9t29 -24t18.5 -34.5
t6.5 -41.5q0 -29 -11.5 -58t-34.5 -52.5t-58.5 -38.5t-83.5 -15zM370 651q35 0 52 14t17 29q0 11 -10 19.5t-31 8.5q-52 0 -90 -59q33 -12 62 -12z" />
    <glyph glyph-name="uniE022" unicode="&#xe022;" horiz-adv-x="427" 
d="M-602 -326q-30 13 -50 40.5t-20 70.5q0 33 14 64t42.5 55t72 38.5t102.5 14.5q61 0 112 -7.5t97 -16t90 -16t93 -7.5q65 0 110 14.5t75.5 41.5t51 66t35.5 88q-33 -66 -70 -96.5t-76 -30.5q-83 0 -83 107q0 61 24 152l10 36q31 115 77 167t107 52q41 0 62 -17.5t29 -49.5
q17 24 46.5 42t67.5 18q21 0 30 -11.5t9 -28.5q0 -10 -3 -19l-19 -71l-77 -284q-27 -100 -72 -168t-101 -110t-120 -60t-129 -18q-62 0 -115.5 3.5t-101.5 8t-92.5 8t-87.5 3.5q-51 0 -88.5 -20.5t-51.5 -58.5zM180 144q15 0 28.5 17.5t21.5 39.5l43 165q-2 11 -8 17.5
t-18 6.5q-7 0 -14.5 -3.5t-15.5 -16t-17.5 -37t-19.5 -65.5l-10 -36q-10 -39 -10 -60q0 -28 20 -28z" />
    <glyph glyph-name="uniE023" unicode="&#xe023;" horiz-adv-x="227" 
d="M204 548q-38 0 -61.5 23.5t-23.5 61.5q0 47 29 76t76 29q38 0 61.5 -23.5t23.5 -61.5q0 -47 -29 -76t-76 -29zM-812 -326q-30 13 -50 40.5t-20 70.5q0 33 14 64t42.5 55t72 38.5t102.5 14.5q61 0 112 -7.5t97 -16t90 -16t93 -7.5q63 0 105.5 15t72 43t48 68.5t33.5 90.5
l65 244q3 14 1 21.5t-6.5 13t-8.5 11.5t-4 16q0 20 21 34t49.5 23t57.5 13t44 4q23 0 30 -12.5t2 -32.5l-104 -376q-28 -102 -73 -170.5t-101 -109.5t-119.5 -58.5t-128.5 -17.5q-62 0 -115.5 3.5t-101.5 8t-92.5 8t-87.5 3.5q-51 0 -88.5 -20.5t-51.5 -58.5z" />
    <glyph glyph-name="uniE024" unicode="&#xe024;" horiz-adv-x="418" 
d="M-818 -326q-30 13 -50 40.5t-20 70.5q0 33 14 64t42.5 55t72 38.5t102.5 14.5q61 0 112 -7.5t97 -16t90 -16t93 -7.5q63 0 105.5 15t71.5 43t47.5 68.5t33.5 90.5l68 244q2 10 2 14q0 9 -3 14.5t-7 10t-7 9.5t-3 14q0 20 18 34t42.5 23t50.5 13t41 4q17 0 24 -8t7 -21
q0 -4 -0.5 -7.5t-1.5 -8.5l-13 -45h1q30 44 64.5 67t69.5 23q45 0 65.5 -26t20.5 -77q0 -60 -26 -156l-10 -36q-31 -114 -72.5 -166.5t-106.5 -52.5q-38 0 -59.5 26t-26.5 74q-28 -104 -72 -173.5t-98.5 -111.5t-116.5 -60t-125 -18q-62 0 -115.5 3.5t-101.5 8t-92.5 8
t-87.5 3.5q-51 0 -88.5 -20.5t-51.5 -58.5zM180 127q6 0 13.5 3t15.5 14t16.5 31.5t18.5 56.5l10 36q13 53 13 76q0 19 -6 24t-14 5q-17 0 -29 -15l-62 -214q6 -17 24 -17z" />
    <glyph glyph-name="uniE025" unicode="&#xe025;" horiz-adv-x="426" 
d="M-602 -326q-30 13 -50 40.5t-20 70.5q0 33 14 64t42.5 55t72 38.5t102.5 14.5q61 0 112 -7.5t97 -16t90 -16t93 -7.5q63 0 107 14t75 39.5t51.5 62.5t35.5 83q-32 -60 -67.5 -88t-73.5 -28q-43 0 -62.5 29.5t-19.5 80.5q0 45 15 102l43 166q2 10 2 14q0 9 -3 14.5t-7 10
t-7 9.5t-3 14q0 20 21 34t49.5 23t57.5 13t44 4q18 0 26 -8t8 -21v-7.5t-2 -8.5l-73 -257q-7 -21 -7 -36q0 -25 19 -25q16 0 30.5 17.5t23.5 40.5l45 169q2 10 2 14q0 9 -3 14.5t-7 10t-7 9.5t-3 14q0 20 21 34t49.5 23t57.5 13t44 4q18 0 26 -8t8 -21v-7.5t-2 -8.5
l-108 -376q-28 -99 -73.5 -167t-101 -110t-119 -60.5t-128.5 -18.5q-62 0 -115.5 3.5t-101.5 8t-92.5 8t-87.5 3.5q-51 0 -88.5 -20.5t-51.5 -58.5z" />
    <glyph glyph-name="uniE026" unicode="&#xe026;" horiz-adv-x="427" 
d="M-11 -311q-72 0 -111 36.5t-39 93.5q0 29 11.5 56.5t36 49t63 34.5t93.5 13q29 0 55.5 -4.5t51.5 -12.5q32 62 69 158q-32 -63 -68 -91.5t-74 -28.5q-83 0 -83 107q0 61 24 152l10 36q31 115 77 167t107 52q41 0 62 -17.5t29 -49.5q17 24 46.5 42t67.5 18q21 0 30 -11.5
t9 -28.5q0 -10 -3 -19l-19 -71l-77 -284q-14 -53 -32 -98.5t-39 -85.5q38 -16 77 -27t83 -11q41 0 65.5 8.5t37 20t16 23.5t3.5 20q0 9 -3.5 19t-11.5 20q20 6 38 6q24 0 42 -9t31 -24.5t19.5 -36t6.5 -42.5q0 -29 -12 -59t-36.5 -54.5t-62.5 -40t-91 -15.5q-36 0 -70.5 10
t-67.5 26t-64.5 35.5t-61.5 38.5q-50 -60 -109 -90.5t-126 -30.5zM180 144q15 0 28.5 17.5t21.5 39.5l43 165q-2 11 -8 17.5t-18 6.5q-7 0 -14.5 -3.5t-15.5 -16t-17.5 -37t-19.5 -65.5l-10 -36q-10 -39 -10 -60q0 -28 20 -28zM20 -165q42 0 78 42q-25 9 -50 9
q-34 0 -48 -8.5t-14 -19.5q0 -9 9 -16t25 -7z" />
    <glyph glyph-name="uniE027" unicode="&#xe027;" horiz-adv-x="227" 
d="M204 548q-38 0 -61.5 23.5t-23.5 61.5q0 47 29 76t76 29q38 0 61.5 -23.5t23.5 -61.5q0 -47 -29 -76t-76 -29zM-221 -311q-72 0 -111 36.5t-39 93.5q0 29 11.5 56.5t36 49t63 34.5t93.5 13q29 0 55.5 -4.5t52.5 -12.5q32 66 60 172l64 244q2 10 2 14q0 9 -3 14.5t-7 10
t-7 9.5t-3 14q0 20 21 34t49.5 23t57.5 13t44 4q18 0 26 -8t8 -21v-7.5t-2 -8.5l-104 -376q-14 -53 -32 -98.5t-39 -85.5q38 -16 77 -27t83 -11q41 0 65.5 8.5t37 20t16 23.5t3.5 20q0 9 -3.5 19t-11.5 20q20 6 38 6q24 0 42 -9t31 -24.5t19.5 -36t6.5 -42.5q0 -29 -12 -59
t-36.5 -54.5t-62.5 -40t-91 -15.5q-36 0 -70.5 10t-67.5 26t-64.5 35.5t-61.5 38.5q-50 -60 -109 -90.5t-126 -30.5zM-190 -165q42 0 80 42q-27 9 -52 9q-34 0 -48 -8.5t-14 -19.5q0 -9 9 -16t25 -7z" />
    <glyph glyph-name="uniE028" unicode="&#xe028;" horiz-adv-x="418" 
d="M-231 -311q-72 0 -111 36.5t-39 93.5q0 29 11.5 56.5t36 49t63 34.5t93.5 13q29 0 56 -4.5t53 -12.5q34 71 62 176l67 240q2 10 2 14q0 9 -3 14.5t-7 10t-7 9.5t-3 14q0 20 18 34t42.5 23t50.5 13t41 4q17 0 24 -8t7 -21q0 -4 -0.5 -7.5t-1.5 -8.5l-13 -45h1
q30 44 64.5 67t69.5 23q45 0 65.5 -26t20.5 -77q0 -60 -26 -156l-10 -36q-31 -114 -72.5 -166.5t-106.5 -52.5q-38 0 -59.5 26t-26.5 74q-13 -55 -30.5 -102t-38.5 -87q39 -17 79 -28.5t85 -11.5q41 0 65.5 8.5t37 20t16 23.5t3.5 20q0 9 -3.5 19t-11.5 20q20 6 38 6
q24 0 42 -9t31 -24.5t19.5 -36t6.5 -42.5q0 -29 -12 -59t-36.5 -54.5t-62.5 -40t-91 -15.5q-36 0 -71 10t-68 26t-65 35.5t-62 39.5q-99 -122 -233 -122zM180 127q6 0 13.5 3t15.5 14t16.5 31.5t18.5 56.5l10 36q13 53 13 76q0 19 -6 24t-14 5q-17 0 -29 -15l-62 -214
q6 -17 24 -17zM-200 -165q42 0 80 41q-28 10 -52 10q-34 0 -48 -8.5t-14 -19.5q0 -9 9 -16t25 -7z" />
    <glyph glyph-name="uniE029" unicode="&#xe029;" horiz-adv-x="426" 
d="M-11 -311q-72 0 -111 36.5t-39 93.5q0 29 11.5 56.5t36 49t63 34.5t93.5 13q29 0 55.5 -4.5t51.5 -12.5q16 29 31.5 65.5t32.5 79.5q-31 -56 -65 -81.5t-70 -25.5q-43 0 -62.5 29.5t-19.5 80.5q0 45 15 102l43 166q2 10 2 14q0 9 -3 14.5t-7 10t-7 9.5t-3 14q0 20 21 34
t49.5 23t57.5 13t44 4q18 0 26 -8t8 -21v-7.5t-2 -8.5l-73 -257q-7 -21 -7 -36q0 -25 19 -25q16 0 30.5 17.5t23.5 40.5l45 169q2 10 2 14q0 9 -3 14.5t-7 10t-7 9.5t-3 14q0 20 21 34t49.5 23t57.5 13t44 4q18 0 26 -8t8 -21v-7.5t-2 -8.5l-108 -376q-15 -52 -33 -98
t-40 -85q38 -16 77.5 -27.5t84.5 -11.5q41 0 65.5 8.5t37 20t16 23.5t3.5 20q0 9 -3.5 19t-11.5 20q20 6 38 6q24 0 42 -9t31 -24.5t19.5 -36t6.5 -42.5q0 -29 -12 -59t-36.5 -54.5t-62.5 -40t-91 -15.5q-36 0 -70.5 10t-68 26t-65 35.5t-61.5 39.5q-50 -60 -108.5 -91
t-125.5 -31zM20 -165q42 0 78 42q-25 9 -50 9q-34 0 -48 -8.5t-14 -19.5q0 -9 9 -16t25 -7z" />
    <glyph glyph-name="uniE02A" unicode="&#xe02a;" horiz-adv-x="241" 
d="M66 -7q-29 0 -46.5 12.5t-25 34t-6.5 49t10 57.5l60 225q3 14 1 21.5t-6.5 13t-8.5 11.5t-4 16q0 20 13 34t31 23t37 13t30 4q21 0 27.5 -12.5t2.5 -32.5l-12 -71q9 29 25 66t37 76t47 75.5t55 65.5t61 46.5t65 17.5q35 0 60 -25t25 -60q0 -20 -7.5 -39t-20 -33.5
t-30 -23.5t-37.5 -9q-8 13 -21.5 18.5t-27.5 5.5q-31 0 -60.5 -20.5t-56 -57t-48.5 -87t-38 -109.5l-31 -110q-8 -28 -6 -44.5t25 -16.5v-12q0 -31 -12 -54t-29.5 -38t-38.5 -22.5t-39 -7.5z" />
    <glyph glyph-name="uniE02B" unicode="&#xe02b;" horiz-adv-x="395" 
d="M137 -7q-32 0 -55.5 15.5t-37.5 43t-19.5 66.5t-1.5 87l14 166q1 15 -1.5 22.5t-6.5 12.5t-7 11t-3 16q0 20 19 34t45 23t52 13t40 4q23 0 28.5 -12.5t3.5 -32.5l-28 -257q-4 -35 -2 -48t14 -13q20 0 36.5 26.5t28 68.5t18 94.5t6.5 104.5q0 31 -5 60.5t-13 54t-18.5 43
t-21.5 27.5q-9 8 4.5 23t39.5 30.5t60 27t67 11.5q35 0 44 -26t9 -87q0 -63 -12.5 -132.5t-34.5 -137t-52 -129t-64 -108.5t-71.5 -74.5t-74.5 -27.5z" />
    <glyph glyph-name="uniE02C" unicode="&#xe02c;" horiz-adv-x="624" 
d="M136 -7q-58 0 -87 47t-29 127q0 9 0.5 18.5t1.5 19.5l14 166q1 15 -1.5 22.5t-6.5 13t-7 11t-3 15.5q0 20 19 34t45 23t52 13t40 4q23 0 28.5 -12.5t3.5 -32.5l-28 -257q-3 -24 -3 -37q0 -14 3.5 -19t11.5 -5q15 0 28 25.5t23 61t16 74.5t6 66q1 15 -1.5 22.5t-6.5 12.5
t-7 11t-3 16q0 20 19 34t45 23t52 13t40 4q23 0 28.5 -12.5t3.5 -32.5l-28 -257q-3 -24 -3 -37q0 -14 3.5 -19t11.5 -5q20 0 36.5 26.5t28 68.5t18 94.5t6.5 104.5q0 31 -5 60.5t-13 54t-18.5 43t-21.5 27.5q-9 8 4.5 23t39.5 30.5t60 27t67 11.5q35 0 44 -26t9 -87
q0 -63 -12.5 -132.5t-34.5 -137t-52 -129t-64 -108.5t-71.5 -74.5t-74.5 -27.5q-29 0 -53.5 27t-35.5 80q-30 -51 -67.5 -79t-70.5 -28z" />
    <glyph glyph-name="uniE02D" unicode="&#xe02d;" horiz-adv-x="254" 
d="M101 -7q-45 0 -73 31t-28 88q0 33 10 69l12 45l92 330q1 2 1 3t1 3q-43 15 -86 27t-94 12q-24 0 -39 -14t-15 -31q0 -9 5 -19q-6 -4 -14.5 -5.5t-15.5 -1.5q-38 0 -57.5 25.5t-19.5 59.5q0 23 9 45.5t28 41.5t48.5 30.5t69.5 11.5q30 0 55.5 -7t49 -18t45 -25t43.5 -28
q1 13 9 22q17 17 40.5 35t46.5 32.5t43 24t29 9.5q18 0 26 -8t8 -21v-7.5t-2 -8.5l-41 -143q9 -1 18 -1.5t19 -0.5q31 0 53 5.5t35.5 14.5t20 19.5t6.5 20.5q0 8 -4 15q14 15 39 15q21 0 39 -14.5t18 -47.5q0 -21 -12 -41t-37 -36.5t-63 -26.5t-90 -10q-17 0 -33.5 1.5
t-32.5 3.5l-84 -291q-6 -22 -6 -39q0 -36 20.5 -48.5t44.5 -12.5v-12q0 -31 -14.5 -54t-36 -38t-45 -22.5t-41.5 -7.5z" />
    <glyph glyph-name="uniE02E" unicode="&#xe02e;" horiz-adv-x="915" 
d="M182 -27q-39 0 -69 13.5t-50.5 36t-30.5 50.5t-10 58q0 28 9 55t26 48.5t42 35.5t57 17q1 -22 13.5 -40.5t43.5 -18.5q34 0 58.5 24t38.5 78l79 299q10 36 28 58.5t41 33.5q-48 9 -99 9q-44 0 -73.5 -9.5t-47 -25t-24.5 -35t-7 -40.5q0 -41 18 -62t40 -21q15 0 28 8
q-1 -39 -14 -68t-33 -47.5t-45.5 -27.5t-52.5 -9q-33 0 -61.5 14t-49.5 39t-33 59t-12 74q0 51 22.5 98.5t66 84t107.5 58t147 21.5q25 0 61 -3.5t77.5 -10.5t85.5 -17.5t84.5 -23.5t74.5 -29t55 -34l4 -4q10 -12 4 -35l-31 -110q-11 -38 -21.5 -71t-22.5 -66h1q28 34 60 52
t67 18q32 0 51 -15t27 -38t7 -52t-9 -57l-42 -157q-8 -28 -6 -44.5t25 -16.5v-12q0 -31 -12 -54t-29.5 -38t-38.5 -22.5t-39 -7.5q-29 0 -46.5 12.5t-25 34t-6.5 49t10 57.5l54 201q8 26 -18 26q-13 0 -26 -6.5t-21 -18.5l-45 -160q-8 -28 -6 -44.5t25 -16.5v-12
q0 -31 -12 -54t-29.5 -38t-38.5 -22.5t-39 -7.5q-29 0 -46.5 12.5t-25 34t-6.5 49t10 57.5l11 41l129 485q-12 5 -23.5 9.5t-23.5 8.5q-5 -7 -9.5 -18t-9.5 -28q-7 -28 -20 -75.5t-27.5 -100t-28 -103.5t-21.5 -86q-39 -160 -105.5 -233t-165.5 -73z" />
    <glyph glyph-name="uniE030" unicode="&#xe030;" horiz-adv-x="543" 
d="M101 -7q-45 0 -73 31t-28 88q0 33 10 69l12 45l45 168q1 3 1 9q0 11 -6 17t-13.5 10.5t-13.5 10t-6 15.5q0 13 13.5 30.5t34.5 36.5t46.5 38t50 33.5t45 23.5t30.5 9q18 0 26 -8t8 -21v-7.5t-2 -8.5l-18 -65l-12 -43h10v1q21 0 44.5 11.5t47.5 28t47.5 36.5t45 36.5
t40 28t32.5 11.5q18 0 26 -8t8 -21v-7.5t-2 -8.5l-18 -65l-9 -30q-1 -3 -1 -6.5t4 -3.5q17 2 31 4.5t31 8.5q11 3 11 -16q0 -11 -4.5 -27t-12.5 -30.5t-19.5 -25t-25.5 -10.5h-44l-45 -154q-6 -22 -6 -39q0 -36 20.5 -48.5t44.5 -12.5v-12q0 -31 -14.5 -54t-36 -38
t-45 -22.5t-41.5 -7.5q-45 0 -73 31.5t-28 87.5q0 33 10 69l12 45l41 155l-109 -1l-44 -153q-6 -22 -6 -39q0 -36 20.5 -48.5t44.5 -12.5v-12q0 -31 -14.5 -54t-36 -38t-45 -22.5t-41.5 -7.5z" />
    <glyph glyph-name="uniE03A" unicode="&#xe03a;" horiz-adv-x="1153" 
d="M932 466q111 0 172.5 -36t61.5 -110q0 -37 -15.5 -65t-43 -47.5t-65.5 -29.5t-84 -10q-42 0 -84 8t-82.5 20.5t-81 29t-79.5 32.5q-24 -30 -37.5 -61t-13.5 -60q0 -32 16 -49t39 -17q26 0 39 19t13 39q0 14 -6 24l4 4q20 -10 33 -33t13 -50q0 -24 -7.5 -47.5t-25.5 -43
t-47 -31.5t-72 -12q-81 0 -130 44.5t-49 122.5q0 58 26.5 109.5t73.5 94.5q-40 14 -78.5 22.5t-76.5 8.5q-40 0 -66.5 -9.5t-42.5 -24.5t-23 -33t-7 -35q0 -26 12.5 -44.5t31.5 -16.5l3 -6q-25 -16 -51 -23.5t-52 -7.5q-24 0 -48 7.5t-43 24t-31 43.5t-12 67q0 48 18.5 83.5
t51.5 59.5t78 35.5t97 11.5q45 0 89.5 -8t88 -20.5t85.5 -28t82 -31.5q71 38 154.5 59t171.5 21zM842 316q42 0 61.5 15.5t19.5 32.5q0 10 -9 17.5t-40 7.5q-39 0 -77 -13t-73 -35q33 -11 62.5 -18t55.5 -7z" />
    <glyph glyph-name="uniE03B" unicode="&#xe03b;" horiz-adv-x="1095" 
d="M828 458q91 0 146.5 -14t85.5 -35t39.5 -45.5t9.5 -45.5q0 -36 -18.5 -61t-46 -40t-61 -22t-63.5 -7q-45 0 -98 14q-6 -36 -27.5 -69.5t-55.5 -59.5t-79.5 -42t-99.5 -16q-47 0 -85 12.5t-65 35.5t-41.5 55t-14.5 72q0 50 22 90.5t62 72.5q-34 11 -65 17.5t-60 6.5
q-54 0 -80 -21.5t-26 -47.5q0 -18 10.5 -29.5t27.5 -11.5t29 12l7 -5q-4 -27 -17 -47.5t-30.5 -34t-39 -20t-43.5 -6.5q-25 0 -48.5 8.5t-42.5 25t-30.5 41t-11.5 56.5q0 35 14 65t41 51.5t66 34t88 12.5q66 0 135.5 -20t138.5 -47q65 32 148.5 48.5t178.5 16.5zM815 288
q38 0 58 16.5t20 39.5q0 26 -27 46t-90 20q-54 0 -98.5 -15.5t-74.5 -43.5q46 -19 87.5 -34t77.5 -23q-7 25 -22 40l5 3q22 -7 36.5 -19.5t22.5 -29.5h5zM654 155q38 0 64.5 19t40.5 47q-48 17 -96.5 38t-96.5 42q-10 -25 -10 -50q0 -47 28.5 -71.5t69.5 -24.5z" />
    <glyph glyph-name="uniE03C" unicode="&#xe03c;" horiz-adv-x="1145" 
d="M476 -71q-28 0 -51 9t-40 25t-26.5 37.5t-9.5 46.5q0 24 9 48l7 1q7 -11 18.5 -18t25.5 -7q20 0 36.5 20t16.5 70q0 47 -17.5 82t-45 58t-60 34.5t-62.5 11.5q-24 0 -41.5 -6t-29 -16t-17 -22t-5.5 -23q0 -17 11 -28.5t32 -11.5q10 0 14 3q3 1 5 2l4 -7q-8 -38 -41 -65.5
t-82 -27.5q-31 0 -54.5 11.5t-39.5 30.5t-24.5 43t-8.5 49q0 36 15.5 67t46 54.5t74.5 36.5t101 13q81 0 159 -24t151 -52.5t141 -52.5t128 -24q29 0 48.5 6t31 15t16 20t4.5 20q0 18 -13.5 29.5t-33.5 11.5q-21 0 -41 -14l-5 9q16 19 40 35q20 13 51 23.5t75 10.5
q76 0 119 -35t43 -89q0 -30 -14.5 -59.5t-42 -53t-69 -38t-95.5 -14.5q-64 0 -128 19.5t-123 46.5t-110.5 54.5t-89.5 42.5l-3 -4q42 -30 71.5 -71.5t45.5 -86.5t18 -89t-11.5 -79t-44 -56.5t-79.5 -21.5zM724 44q-22 0 -37 15t-15 37t15 37t37 15t37 -15t15 -37t-15 -37
t-37 -15z" />
    <glyph glyph-name="uniE03D" unicode="&#xe03d;" horiz-adv-x="1223" 
d="M176 54q-40 0 -74.5 11.5t-60 33.5t-40 54t-14.5 72q0 39 16 77t52 67.5t95.5 48t146.5 18.5q95 0 188 -20t179 -43.5t161.5 -43.5t135.5 -20q46 0 75.5 12.5t45.5 29.5t19 35.5t-4 31.5l4 4q54 -11 83.5 -47t29.5 -87q0 -39 -18.5 -76.5t-53 -66t-83 -46t-109.5 -17.5
q-64 0 -119.5 19t-106 47t-97 61t-93.5 61t-96 47t-104 19q-33 0 -56.5 -7t-38.5 -19t-21.5 -27.5t-6.5 -32.5q0 -34 22 -52.5t54 -18.5q17 0 34 5.5t32 15.5t26 25.5t15 34.5l10 -2q0 -50 -20 -88t-52.5 -64t-73 -39t-82.5 -13z" />
    <glyph glyph-name="uniE03E" unicode="&#xe03e;" horiz-adv-x="1069" 
d="M813 112q-45 0 -96 9.5t-103 23.5t-103 30.5t-98 30.5t-87 23.5t-70 9.5q-29 0 -49 -10t-20 -39q0 -17 11.5 -30.5t29.5 -13.5l2 -3q-11 -12 -36.5 -20.5t-52.5 -8.5q-36 0 -63.5 11.5t-46.5 31t-28.5 44.5t-9.5 52q0 32 14 63.5t42.5 57t72.5 41t104 15.5
q54 0 106 -14.5t102 -36.5t97.5 -48t93 -48t88.5 -36.5t84 -14.5q51 0 74 21t23 43q0 15 -10 25.5t-29 10.5q-13 0 -22 -5l-6 6q19 24 47.5 36t58.5 12q29 0 51.5 -9.5t38.5 -25t24.5 -36t8.5 -43.5q0 -27 -14 -55t-43 -50t-75 -36t-111 -14z" />
    <glyph glyph-name="F.ss12" horiz-adv-x="527" 
d="M168 -30q-39 0 -70 13.5t-52 36t-32.5 50.5t-13.5 58q-2 28 6 55t24 48.5t40 35.5t56 17q2 -22 15.5 -40.5t44.5 -18.5q34 0 60.5 27.5t37.5 87.5l1 7q-20 -1 -40.5 -4.5t-40.5 -11.5q-8 13 -9 31t6.5 34t24.5 27t45 11h15.5t14.5 1l5 28q14 74 40.5 132t61.5 101
q-31 2 -64 3t-68 1q-32 0 -54.5 -8.5t-37 -22.5t-21 -32t-6.5 -37q0 -31 18 -47t40 -16q15 0 28 8q-1 -39 -14 -68t-33 -47.5t-45.5 -27.5t-52.5 -9q-33 0 -61.5 12.5t-49.5 35t-33 52.5t-12 66q0 50 22 95.5t61.5 80t95.5 55.5t123 21q41 0 75 -5t62.5 -11.5t53 -14
t47.5 -13.5q29 20 56.5 29.5t51.5 9.5t37.5 -9.5t18 -24t0.5 -31.5t-14.5 -31.5t-28.5 -24t-41 -9.5q-7 0 -13 0.5t-12 1.5q-25 -32 -47 -81.5t-33 -123.5l-4 -24q21 3 32.5 8.5t17.5 11t9.5 9.5t8.5 4q14 0 22 -11t10.5 -27t-2.5 -35t-16.5 -35t-31.5 -27t-48 -11h-19
l-7 -47q-25 -166 -93.5 -242.5t-167.5 -76.5z" />
    <glyph glyph-name="K.ss12" horiz-adv-x="723" 
d="M195 -30q-45 0 -77.5 14t-53 36.5t-30 50.5t-9.5 57q0 27 8 52.5t23.5 46.5t38 36t51.5 20q3 -23 20 -40.5t49 -17.5q21 0 36.5 9t27 23t19 33t12.5 38q10 40 22.5 88t27 95t31 87.5t35.5 64.5q-35 -4 -58.5 -0.5t-44.5 3.5q-28 0 -48.5 -8t-34 -20.5t-20.5 -28.5t-7 -33
q0 -29 14 -47t39 -18q16 0 30 8q3 -33 -5 -61t-27 -48.5t-47 -32t-65 -11.5q-56 0 -92.5 31.5t-51 79.5t-7 103t37.5 103t83.5 79.5t131.5 31.5q33 0 71.5 -6t73 -12.5t62 -12.5t39.5 -6t22 0.5t21.5 2t25.5 4t35 7.5l9 -26q-6 -11 -16.5 -34.5t-22 -50.5t-21 -54t-14.5 -45
q-6 -22 -16 -56.5t-22 -79.5q19 1 33.5 13t31 39.5t37 72.5t50.5 112q32 71 76.5 102t89.5 31q11 0 25.5 -3t28.5 -10q13 -7 11.5 -18.5t-11.5 -16.5q-29 -15 -55.5 -58.5t-52.5 -103.5q-38 -84 -74.5 -138t-82.5 -71q28 -15 47 -44t15 -79q-5 -65 2.5 -97t38.5 -27
q-3 -22 -12 -46t-25.5 -44t-40.5 -33t-59 -13q-28 0 -47.5 15.5t-28.5 42.5t-7 64.5t15 82.5q23 80 19 117t-42 42q-5 -17 -9 -34l-8 -34q-12 -51 -31.5 -107t-51 -103.5t-77.5 -78t-111 -30.5z" />
    <glyph glyph-name="V.ss12" horiz-adv-x="459" 
d="M92 -28q-45 0 -74 8.5t-46 22.5q27 35 48.5 82.5t36 99t23 102t9.5 91.5q2 48 -5.5 87t-21.5 66.5t-33.5 42.5t-42.5 15q-9 0 -23.5 1t-27.5 -13q1 62 16 105t38 70t51.5 39t58.5 12q48 0 79 -21.5t49.5 -57t26 -80.5t7.5 -92.5t-5 -93.5t-11 -82q-9 -51 -21 -96.5
t-26 -83.5q36 38 61.5 89.5t44.5 110t34.5 120.5t32 121t36.5 111.5t47.5 92t65.5 62.5t91 23q48 0 77 -13.5t43 -34t16 -46t-6 -49.5q-14 9 -25.5 11t-23.5 2q-51 0 -86 -35.5t-61 -93.5t-47.5 -132t-45 -151t-52 -151t-70.5 -132t-99.5 -93.5t-138.5 -35.5z" />
    <glyph glyph-name="W.ss12" horiz-adv-x="752" 
d="M53 -28q-35 0 -60.5 5.5t-42.5 14.5q42 34 72 82.5t49 102t28.5 106t10.5 95.5q2 48 -5.5 87t-22.5 66.5t-35.5 42.5t-46.5 15q-8 0 -19 -2t-25 -8q2 62 16 104.5t36 69t51 38.5t61 12q48 0 79 -21.5t49.5 -57t26 -80.5t7.5 -92.5t-5 -93.5t-11 -82q-6 -33 -13 -64
t-15 -59q28 52 48.5 112.5t39 122t38.5 118.5t49 101t69.5 70.5t98.5 26.5q26 0 35.5 -11t9.5 -27q0 -15 -5.5 -24.5t-12.5 -19t-14.5 -20.5t-11.5 -29q-6 -26 -2.5 -61t8 -78t7 -94.5t-6.5 -111.5l-9 -44q27 61 44.5 132.5t34 142.5t35 137.5t47 117.5t71 81.5t105.5 30.5
q42 0 68 -13t39 -33t15 -45t-5 -49q-15 7 -28.5 8.5t-21.5 1.5q-51 0 -85.5 -35.5t-60 -93.5t-45 -132t-40.5 -151t-47 -151t-63.5 -132t-90.5 -93.5t-128 -35.5q-35 0 -58.5 8.5t-31.5 22.5q41 70 64.5 134.5t35 124t13.5 112.5t-2 100q-16 -52 -33.5 -109t-39.5 -113
t-50 -106.5t-66 -89t-87.5 -61.5t-114.5 -23z" />
    <glyph glyph-name="A.swsh" horiz-adv-x="680" 
d="M615 -255q-66 0 -111 30.5t-68.5 85.5t-25.5 132.5t19 171.5q-32 2 -62.5 8t-60.5 14q-25 -54 -55 -110.5t-68.5 -102t-87.5 -74.5t-113 -29q-45 0 -77.5 14t-53 36.5t-30 50.5t-9.5 57q0 27 8 52.5t23.5 46.5t38 36t51.5 20q1 -22 18.5 -40t50.5 -18q19 0 39 5.5
t42 18.5t46 35.5t50 56.5q-69 42 -110.5 102t-41.5 136q0 33 10 62t29 50.5t46.5 34.5t62.5 13q50 0 74.5 -29.5t32.5 -71.5q-10 0 -20 -4t-18.5 -12.5t-14 -22.5t-5.5 -35q0 -59 32 -105l18 34t19 36q56 110 105.5 181.5t98.5 113.5t101.5 58.5t113.5 16.5q50 0 85 -23
q7 -5 10.5 -14t-10.5 -20q-23 -17 -41.5 -48t-30.5 -78l-74 -285q-17 -66 -29 -135t-10 -125.5t21.5 -92.5t65.5 -36q19 0 33 6t19 15q22 -29 25 -66.5t-13.5 -71.5t-53 -57.5t-94.5 -23.5zM455 261q1 1 1 2t1 3l107 327q5 17 11.5 33t16.5 33q-38 -16 -70.5 -56.5t-61 -93
t-54.5 -111.5t-53 -112q43 -19 102 -25z" />
    <glyph glyph-name="H.swsh" horiz-adv-x="797" 
d="M747 -244q-67 0 -113.5 39.5t-69.5 109.5t-21.5 164.5t30.5 203.5q-40 0 -83 -8q-15 -60 -39.5 -124t-63.5 -116.5t-94.5 -86t-132.5 -33.5q-45 0 -77.5 14t-53 36.5t-30 50.5t-9.5 57q0 27 8 52.5t23.5 46.5t38 36t51.5 20q1 -22 18.5 -40t50.5 -18q35 0 62 14
t46.5 37.5t32 53.5t19.5 63q11 40 23.5 88t27 95t31 87.5t34.5 64.5q-35 -4 -58.5 -0.5t-44.5 3.5q-28 0 -48.5 -8t-34 -20.5t-20.5 -28.5t-7 -33q0 -29 14 -47t39 -18q16 0 30 8q3 -33 -5 -61t-27 -48.5t-47 -32t-65 -11.5q-56 0 -92.5 31.5t-51 79.5t-7 103t37.5 103
t83.5 79.5t131.5 31.5q33 0 71.5 -6t73 -12.5t62 -12.5t39.5 -6t22 0.5t21.5 2t25.5 4t35 7.5l9 -26q-6 -11 -16.5 -34.5t-22 -50.5t-21 -54t-14.5 -45q-5 -19 -13.5 -50t-19.5 -69l-13 -50q23 2 43.5 1.5t40.5 -2.5l28 109q25 97 51 160t54.5 99.5t60 51t65.5 14.5
q57 0 86.5 -30t29.5 -71q0 -31 -16 -60q-46 14 -76 -5t-51 -62.5t-38 -108.5t-38 -145q-15 -65 -21.5 -133t0 -123t27 -90t57.5 -35q10 0 19.5 2.5t17.5 10.5q22 -29 25.5 -66.5t-11 -71.5t-47 -57.5t-83.5 -23.5z" />
    <glyph glyph-name="K.swsh" horiz-adv-x="743" 
d="M639 -173q-19 0 -41.5 7.5t-42.5 25t-35.5 46t-20.5 69.5t3 96.5t34 126.5q29 81 22 117.5t-45 41.5q-5 -17 -9 -34l-8 -34q-10 -41 -23.5 -85.5t-33 -87t-45 -81t-60 -67.5t-77.5 -46t-97 -17q-45 0 -77.5 14t-53 36.5t-30 50.5t-9.5 57q0 27 8 52.5t23.5 46.5t38 36
t51.5 20q1 -22 18.5 -40t50.5 -18q35 0 61 14t45.5 37.5t32.5 54t21 62.5q10 40 22.5 88t27 95t31 87.5t35.5 64.5q-35 -4 -58.5 -0.5t-44.5 3.5q-28 0 -48.5 -8t-34 -20.5t-20.5 -28.5t-7 -33q0 -29 14 -47t39 -18q16 0 30 8q3 -33 -5 -61t-27 -48.5t-47 -32t-65 -11.5
q-56 0 -92.5 31.5t-51 79.5t-7 103t37.5 103t83.5 79.5t131.5 31.5q33 0 71.5 -6t73 -12.5t62 -12.5t39.5 -6t22 0.5t21.5 2t25.5 4t35 7.5l9 -26q-6 -11 -16.5 -34.5t-22 -50.5t-21 -54t-14.5 -45q-6 -22 -16 -56.5t-22 -79.5q19 1 33.5 11.5t28 30t27 48.5t31.5 68
q24 55 44 99.5t43.5 76t55.5 48.5t80 17q44 0 68 -18.5t32.5 -44.5t2 -55.5t-23.5 -52.5q-11 13 -27.5 19t-32.5 6q-25 0 -44 -13.5t-33 -35.5t-25 -49l-22 -54q-21 -48 -52.5 -90t-76.5 -59q16 -8 31 -21.5t25 -35.5t12.5 -52.5t-5.5 -73.5q-12 -65 -10 -110t14 -72.5
t30.5 -38.5t38.5 -9q-3 -22 -12 -46t-25.5 -44.5t-40.5 -33.5t-59 -13z" />
    <glyph glyph-name="L.swsh" horiz-adv-x="751" 
d="M71 -151q-59 0 -97.5 23.5t-57 58.5t-16.5 76.5t24.5 76.5t66 58.5t106.5 23.5q47 0 93.5 -9.5t91.5 -23.5l10 24t10 25q-52 9 -98 29t-80.5 49t-55 66t-20.5 82q0 33 10 62t29 50.5t46.5 34.5t62.5 13q50 0 74.5 -29.5t32.5 -71.5q-10 0 -20 -4t-18.5 -12.5t-14 -22.5
t-5.5 -35q0 -40 23.5 -69t65.5 -43q4 14 8 28.5t8 30.5l42 166q38 146 106.5 220t159.5 74q58 0 94.5 -23.5t54 -62.5t17 -89.5t-16.5 -105t-46.5 -108.5t-74 -100t-98 -80t-118.5 -48q-11 -26 -21.5 -50t-21.5 -45q34 -10 65.5 -16.5t60.5 -6.5t51 6t36 15.5t21 21.5t5 23
q26 1 43.5 -19t24.5 -50t1 -65.5t-28.5 -66t-63.5 -51t-104 -20.5q-76 0 -132 22.5t-101 50.5q-58 -48 -118 -65.5t-117 -17.5zM503 290q42 18 73.5 49t53.5 67t34 73t13.5 67t-7.5 49t-29 19q-10 0 -21 -6.5t-23.5 -26t-26.5 -55t-29 -92.5zM102 -52q51 0 98 50
q-20 10 -39.5 15.5t-41.5 5.5q-31 0 -47 -11t-17.5 -24.5t10.5 -24.5t37 -11z" />
    <glyph glyph-name="M.swsh" horiz-adv-x="984" 
d="M923 -255q-74 0 -122 38.5t-68.5 107.5t-12.5 164.5t45 210.5l85 261h-5q-28 -41 -57 -98.5t-58.5 -119.5t-59 -122.5t-58 -108.5t-56 -78t-52.5 -30q-11 0 -22 6.5t-9 23.5q23 155 26.5 286.5t7.5 240.5h-3q-8 -33 -16.5 -68t-16.5 -67t-14.5 -59t-10.5 -44
q-48 -214 -134.5 -324t-217.5 -110q-45 0 -77.5 14t-53 36.5t-30 50.5t-9.5 57q0 27 8 52.5t23.5 46.5t38 36t51.5 20q1 -22 18.5 -40t50.5 -18q22 0 49 4t54.5 25t54.5 65t48 124q11 41 23.5 88t28.5 92.5t35 86.5t42 69q-26 -2 -52 0t-44 2q-55 0 -82.5 -29t-27.5 -65
q0 -26 14 -43.5t39 -17.5q16 0 30 8q3 -33 -5 -61t-27 -48.5t-47 -32t-65 -11.5q-56 0 -92.5 31.5t-51 79.5t-7 103t37.5 103t83.5 79.5t131.5 31.5q37 0 76 -5.5t79 -11.5t79.5 -11.5t76.5 -5.5q18 0 35.5 -3t30 -10.5t18 -20.5t-0.5 -33q-25 -80 -32.5 -154.5
t-10.5 -136.5q29 69 69.5 140t90 128.5t107 93.5t118.5 36q50 0 85 -23q7 -5 10.5 -14t-10.5 -20q-48 -34 -72 -126l-74 -285q-17 -66 -29 -135t-10 -125.5t22 -92.5t65 -36q19 0 33 6t19 15q22 -29 25 -66.5t-13.5 -71.5t-53 -57.5t-94.5 -23.5z" />
    <glyph glyph-name="P.swsh" horiz-adv-x="661" 
d="M88 -95q-45 0 -77.5 14t-53 36.5t-30 50.5t-9.5 57q0 27 8 52.5t23.5 46.5t38 36t51.5 20q1 -22 18.5 -40t50.5 -18q38 0 66.5 15t49 40.5t34.5 58t23 66.5l53 199q14 51 43 75.5t66 24.5q30 0 49.5 -10t24.5 -24q-7 -7 -12.5 -18.5t-9.5 -32.5q-10 -52 -30 -117.5
t-37 -129.5q8 -4 18 -4q28 0 53.5 45t49.5 152q10 39 10 74q0 125 -153 125q-52 0 -89 -14t-60 -36t-33.5 -47t-10.5 -48q0 -25 11 -41.5t30 -16.5q12 0 21 6q2 -10 3.5 -19t1.5 -18q0 -26 -9 -49.5t-25 -41.5t-39 -28.5t-52 -10.5q-33 0 -59 13t-43.5 35t-26.5 51.5
t-9 63.5q0 53 23.5 110.5t72.5 105t125 78.5t181 31q74 0 128 -18t89.5 -50.5t52.5 -78t17 -100.5q0 -46 -12 -97q-34 -147 -81.5 -219.5t-129.5 -72.5q-30 0 -49.5 7t-30.5 18q-17 -55 -42.5 -110t-63 -99t-89 -71t-120.5 -27z" />
    <glyph glyph-name="R.swsh" horiz-adv-x="655" 
d="M603 -188q-40 0 -74 17.5t-58 48t-35.5 72.5t-8.5 90q4 56 6 94.5t1 64t-7 39.5t-18 22q-16 -60 -40.5 -123t-63 -114.5t-93.5 -84.5t-132 -33q-45 0 -77.5 14t-53 36.5t-30 50.5t-9.5 57q0 27 8 52.5t23.5 46.5t38 36t51.5 20q1 -22 18.5 -40t50.5 -18q38 0 66.5 15
t49 40.5t34.5 58t23 66.5l53 199q14 51 43 75.5t66 24.5q30 0 49.5 -10t24.5 -24q-7 -7 -12.5 -18.5t-9.5 -32.5t-10 -47.5t-13 -55t-14.5 -56.5t-15.5 -53q29 3 49.5 17.5t34.5 36t23.5 48.5t16.5 56q10 43 7 79.5t-20 63t-49.5 41.5t-81.5 15q-54 0 -92 -15t-61.5 -37.5
t-34.5 -48.5t-11 -49t10 -38t28 -15q12 0 21 6q8 -31 3 -61t-21 -53.5t-42 -38t-60 -14.5q-33 0 -59 13t-43.5 35t-26.5 51.5t-9 63.5q0 53 23.5 110.5t72.5 105t125 78.5t181 31q90 0 152.5 -29t99 -74.5t47.5 -101t-3 -109.5q-8 -33 -24 -66t-40 -61.5t-55 -50.5t-69 -31
q26 -20 44.5 -61t25.5 -104q5 -49 20.5 -82.5t36.5 -53.5t45 -28.5t46 -7.5q6 -24 -1.5 -51t-26.5 -49t-47.5 -36.5t-65.5 -14.5z" />
    <glyph glyph-name="T.swsh" horiz-adv-x="524" 
d="M165 -95q-45 0 -77.5 14t-53 36.5t-30 50.5t-9.5 57q0 27 8 52.5t23.5 46.5t38 36t51.5 20q1 -22 18.5 -40t50.5 -18q37 0 65 14.5t48.5 38t34 54t22.5 63.5l79 299q16 58 54 83q-27 8 -56 13t-61 5t-54.5 -9.5t-37 -25t-21 -35t-6.5 -40.5q0 -41 18 -62t40 -21
q15 0 28 8q-1 -39 -14 -68t-33 -47.5t-45.5 -27.5t-52.5 -9q-33 0 -61.5 14t-49.5 39t-33 59t-12 74q0 51 22 98.5t61.5 84t95.5 58t123 21.5q53 0 95 -7t77.5 -16t67 -16t63.5 -7q51 0 81.5 17t30.5 46q0 15 -13 28q13 9 27.5 13t29.5 4q44 0 65.5 -26.5t21.5 -61.5
q0 -26 -13 -54.5t-36.5 -52t-57 -39t-74.5 -15.5q-26 0 -51 5.5t-50 13.5q-2 -6 -4 -13t-4 -16q-5 -28 -18 -76t-27.5 -100.5t-29 -103t-22.5 -85.5q-14 -60 -38 -126t-62.5 -121t-95.5 -91t-137 -36z" />
    <glyph glyph-name="U.swsh" horiz-adv-x="640" 
d="M586 -244q-49 0 -87.5 21.5t-65 60.5t-40.5 94t-14 121q0 23 1.5 47.5t5.5 50.5q-24 -46 -48 -76.5t-48 -48.5t-47.5 -25.5t-46.5 -7.5q-52 0 -79 32.5t-27 94.5q0 42 13 96t40 120q10 24 23.5 57t26 68.5t21 71t8.5 65.5q0 36 -16.5 58.5t-58.5 22.5q-19 0 -34 -7.5
t-24.5 -19t-14.5 -26.5t-5 -30q0 -28 16 -50t49 -22q6 0 10 1q3 -10 3 -23q0 -20 -8.5 -40t-23.5 -36.5t-36.5 -27t-47.5 -10.5q-35 0 -63 16.5t-47 44t-29 63t-10 74.5q0 47 15 93t47.5 83.5t82.5 60.5t120 23q64 0 109 -14.5t73.5 -42t42 -67t13.5 -89.5q0 -64 -20 -143.5
t-55 -173.5q-16 -42 -16 -68q0 -23 9 -33t23 -10q9 0 22 7.5t29.5 31.5t36.5 69.5t43 121.5l56 210q3 12 3 20q0 16 -5.5 25.5t-5.5 26.5q0 21 20.5 35.5t49 24.5t58 14.5t48.5 4.5q17 0 24 -8t7 -21q0 -4 -0.5 -7.5t-1.5 -8.5l-108 -408q-13 -48 -20 -98.5t-7 -96.5
q0 -39 5 -73t16 -59t28 -39.5t41 -14.5q10 0 19.5 2.5t17.5 10.5q26 -35 26 -81q0 -26 -9 -50.5t-26.5 -44t-44 -31.5t-62.5 -12z" />
    <glyph glyph-name="Y.swsh" horiz-adv-x="640" 
d="M731 -286q-51 0 -95 14.5t-84 38t-75 54t-68 62.5q-130 -126 -310 -126q-76 0 -126.5 30t-75.5 75t-23.5 97.5t29.5 97.5t82 75t135 30q68 0 130.5 -19.5t121.5 -48.5q17 21 33.5 44.5t31.5 49.5q26 47 46.5 99.5t34.5 112.5l-5 3q-17 -64 -40.5 -108t-51 -72
t-57.5 -40.5t-59 -12.5q-66 0 -104 35t-38 104q0 40 15.5 79.5t34 77t34 72.5t15.5 66q0 36 -16.5 55.5t-58.5 19.5q-37 0 -56.5 -24t-21.5 -53.5t14.5 -53.5t50.5 -24q3 0 6 0.5t7 0.5q0 -19 -8.5 -39t-24.5 -36t-38.5 -26t-51.5 -10q-66 0 -108.5 43t-42.5 133
q0 56 17 103t51.5 81t85.5 53t120 19q64 0 109 -14.5t73.5 -42t42 -67t13.5 -89.5q0 -17 -1 -33.5t-5 -35t-10.5 -40.5t-17.5 -51q-11 -30 -14 -51t0 -34.5t11.5 -19.5t18.5 -6q12 0 26 8t28.5 26t29 47t27.5 72l35 130q4 15 3 24t-3.5 16t-5 14.5t-2.5 17.5q0 21 20.5 35.5
t49 24.5t58 14.5t48.5 4.5q21 0 27.5 -12.5t1.5 -32.5l-108 -414q-28 -106 -63 -190q-30 -71 -65 -131q66 -38 126 -67t114 -29q26 0 46 6t33.5 15.5t20 21.5t4.5 23q26 1 43.5 -19t24.5 -50t1 -65.5t-28.5 -66t-63.5 -51t-104 -20.5zM159 -27q58 0 117 37q-30 24 -60 38.5
t-62 14.5q-34 0 -50.5 -14.5t-16.5 -31.5t17 -30.5t55 -13.5z" />
    </font>
</defs>
</svg>
