<svg xmlns="http://www.w3.org/2000/svg" viewBox="0 0 283.46 283.46" fill="#ffffff">
  <path d="M71.68,165.58c0-.73-.53-1.32-1.53-1.85-.99-.53-4.37-1.06-10.01-1.66-3.25-.2-5.63-.66-7.09-1.39-1.39-.8-2.26-2.72-2.58-5.7-.33-2.98-.47-10.8-.53-23.46,0-11.07,.2-21.81,.66-32.28,.8-15.18,1.19-24.26,1.19-27.11,0-2.45-.13-5.37-.46-8.75-.27-3.38-.66-6.16-1.26-8.22-1.52-5.37-6.03-8.09-13.59-8.09h-1.46c-3.91,0-6.83,1-8.75,2.92-1.93,1.92-3.45,5.9-4.58,11.93-2.45,11.73-3.64,26.71-3.64,45l.07,8.82c.4,25.91,1.86,41.16,4.38,45.73,2.92,6.36,9.15,10.21,18.69,11.6,1.39,.2,3.05,.27,5.1,.27,9.61,0,16.7-1.13,21.28-3.32,2.72-1.32,4.11-2.78,4.11-4.44ZM33.37,79.42c-.46,4.31-1,6.76-1.59,7.23-.27,.26-.73,.39-1.46,.39-1,0-1.99-.46-2.92-1.32-.46-.4-.8-.93-1-1.52-.26-.86-.4-2.85-.4-6.03,0-4.04,.13-7.43,.46-10.15,.6-5.1,1.33-8.22,2.06-9.48,.66-.86,1.52-1.26,2.52-1.26,.46,0,2.26-.2,3.64,2.19,.13,.19,.2,.73,.2,1.59,0,4.04-.53,10.15-1.52,18.36Z"/>
  <path d="M91.48,80.48c1.26,.26,2.52,.39,3.64,.39,2.12,0,3.78-.39,4.97-1.26,.46-.47,1.06-1.26,1.66-2.52,1.39-2.79,2.12-5.3,2.19-7.56,0-3.64-2.98-6.16-8.95-7.56-1.52-.33-3.05-.46-4.71-.46-6.76,0-11.07,1.92-12.99,5.77-.53,1.19-.8,2.45-.8,3.71,0,4.1,4.97,7.29,14.98,9.48Z"/>
  <path d="M90.62,166.05c5.7,0,9.41-1.19,11.07-3.51,.66-.87,1.26-2.52,1.79-4.84,1.79-8.15,2.98-17.57,3.64-28.1,.33-4.57,.47-8.75,.47-12.53,0-9.21-.67-15.44-1.93-18.76-1.13-2.85-3.18-4.9-6.16-6.16-3.51-1.65-7.16-2.52-10.87-2.52-2.98,0-5.63,.53-7.82,1.59-3.31,1.92-5.77,5.7-7.35,11.4-1.13,4.97-1.66,10.87-1.66,17.83,0,3.19,.26,8.55,.73,16.11,.46,7.49,1.99,14.31,4.44,20.41,2.12,4.44,4.77,7.16,7.89,8.02,2.85,.73,4.77,1.06,5.77,1.06Zm-8.68-43.68c-.6,0-1.26-.2-1.92-.6-1.26-.93-1.93-3.77-1.93-8.61,0-5.5,.8-9.81,2.32-12.93,.6-1.32,1.19-1.65,2.59-1.65,2.52,0,3.91,1.13,4.17,3.32,0,.73-.2,2.58-.66,5.5-1.13,7.76-1.99,12.33-2.58,13.72-.33,.86-1,1.26-1.99,1.26Z"/>
  <path d="M184.25,115.87c1.79-11.67,3.11-22.47,4.11-32.41,.46-4.71,1.52-13.78,3.05-27.3l-1.26-1c-.6-.6-1.39-.87-2.32-.87-2.26,0-3.98,.27-5.24,.87-1.59,.8-2.19,2.85-2.78,7.62-.6,3.98-1.99,11.14-4.04,21.41-6.5,31.88-10.01,47.86-10.54,47.86-.26,0-.86-3.32-1.72-9.94-2.06-15.71-3.84-32.01-5.37-48.92-1.39-14.98-2.79-24.66-4.18-29.1-1.92-6.56-6.7-9.28-16.24-9.28-8.95,0-13.12,2.66-15.25,9.81-2.19,7.16-3.31,16.24-3.31,27.31,0,2.19,.13,7.49,.46,15.84,.33,8.28,2.26,20.81,5.83,37.58,2.79,12.26,6.56,22.73,11.34,31.35,4.77,8.55,9.68,13.65,14.65,15.31,1.39,.33,2.78,.53,4.31,.53,2.72,0,6.1-.73,10.01-2.25,3.98-1.52,7.03-3.84,9.15-7.09,.99-1.99,2.39-7.5,4.11-16.44,1.79-8.95,3.51-19.29,5.24-30.89Zm-52.1-26.78l-2.72,.26c-1.39,0-2.45-.73-3.18-2.18-.73-1.52-1.32-4.71-1.92-9.68-.33-2.72-.46-5.44-.46-8.09,0-11.2,1.66-16.77,4.9-16.77,1.79,0,2.98,.53,3.58,1.52,.26,.47,.4,1.85,.4,4.17,0,3.19-.2,13.46-.6,30.76Z"/>
  <path d="M263.75,160.48c-.73-.2-1.72-.34-3.05-.34-.93,0-1.99,.07-3.18,.14-3.84,.26-7.16,.4-9.94,.4-4.31,0-7.29-.34-8.95-1-4.18-1.92-7.03-6.7-8.55-14.19-.47-1.92-.73-3.45-.73-4.5,0-1.13,.73-1.32,3.64-1.59,2.39-.2,5.17-.53,8.35-1,3.18-.53,6.03-1.06,8.61-1.52,2.59-.53,4.11-.93,4.51-1.13,.46-.47,.66-1.13,.66-2.12,0-1.66-.53-3.58-1.66-5.77-.86-1.52-1.79-2.72-2.85-3.45-.86-.6-2.45-.93-4.77-.93-1.13,0-6.5,.14-16.11,.4,0-1.78,.66-10.41,1.92-25.78,1.39-16.5,2.06-28.63,2.06-36.39,0-3.64-.26-6.83-.73-9.55,2.06-.33,4.24-.53,6.7-.73,11.8-.73,18.56-1.19,20.28-1.45,1.72-.27,2.91-.8,3.58-1.52,.87-.74,1.33-1.59,1.33-2.59,0-2.19-.33-3.77-1-4.77-1-1.39-3.64-1.92-10.21-2.66-5.5-.59-9.94-.93-13.32-.93-5.7,0-12.59,.93-20.68,2.72-3.78,.87-6.3,1.66-7.69,2.39-1.39,.73-2.71,1.85-4.11,3.45-1.39,1.52-2.39,3.05-2.98,4.57-1.79,4.97-3.18,13.06-4.31,24.2-1.06,11.13-1.59,23.33-1.66,36.52,0,10.28,.33,18.03,1.06,23.33,.73,5.31,2.12,10.01,4.11,14.05,5.1,11.54,13.86,18.3,26.38,20.35,2.78,.47,7.49,.73,14.18,.73,2.39-.06,5.77-.4,10.14-1,4.38-.6,7.22-1.26,8.55-1.98,1.39-.74,2.05-1.99,2.05-3.84,0-1.26-.53-2.12-1.66-2.52Zm-49.11-94.85c-.93,9.74-1.86,14.98-2.78,15.64-.46,.34-.86,.47-1.26,.47-2.06,0-3.32-1.26-3.71-3.84-.2-1.13-.26-2.65-.26-4.71,0-7.36,.6-12.33,1.79-14.98,.73-1.52,1.73-2.25,2.99-2.25,.46,0,.93,.06,1.39,.26,1.59,.47,2.26,1.19,2.26,3.32,0,1.46-.13,3.51-.4,6.1Z"/>
  <path d="M60.41,210.4c-.33-.6-4.37-9.04-5.59-9.99-1.53-1.16-2.69-1.88-3.53-2.21-.87-.27-1.73-.42-2.54-.42-2.45,0-3.68,.69-3.68,2.04,0,.51-.33,.74-1.8,1.43-.51,.24-1.01,.54-1.59,.87-2.72,1.7-4.85,4.72-6.31,9.03-1.23,3.56-1.86,7.63-1.86,12.21,0,4.96,.99,9.36,2.93,13.19,2.6,5.17,6.82,7.77,12.68,7.77,1.41,0,2.66-.11,3.77-.33,3.41-.63,5.89-2.63,7.42-6.04,1.98-4.16,2.96-8.73,2.96-13.73,0-2.36-.24-4.69-.75-6.94-.69-3.17-1.41-5.47-2.12-6.88Zm-6.7,23.95c-.63,1.23-1.05,1.86-1.29,1.86-.12,0-.42-1.02-.93-3.02-.51-2.27-.78-4.69-.78-7.24,0-2.93,.36-6.04,1.05-9.3,.63-2.87,1.08-4.31,1.37-4.31,.27,0,.84,1.47,1.68,4.43,.78,2.72,1.16,5.23,1.16,7.6,0,3.5-.75,6.81-2.27,9.98Z"/>
  <path d="M72.88,185.45c-1.88,0-3.02,.57-3.35,1.68-.09,.44-.15,1.07-.15,1.88,0,1.88,.21,4.04,.63,6.52,.27,1.55,.57,2.57,.87,3.02,.45,.44,1.23,.69,2.33,.69s1.83-.18,2.24-.51c.36-.42,.66-1.43,.9-3.08,.21-1.29,.3-2.63,.3-3.98,0-2.66-.3-4.4-.93-5.2-.51-.69-1.47-1.02-2.84-1.02Z"/>
  <path d="M111.1,188.95c-3.29-2.66-6.58-4.01-9.9-4.01h-.36c-3.89,0-7.39,1.58-10.47,4.76-3.83,3.92-6.37,9.19-7.66,15.86-.57,2.96-.84,6.01-.84,9.21,0,3.97,.45,8.13,1.32,12.47,.39,1.82,.81,3.41,1.29,4.76,.48,1.35,1.17,2.87,2.06,4.58,3.32,6.42,7.78,10.28,13.37,11.57,1.05,.21,1.91,.45,2.03,.48,.09,.03,.21,.03,.42,.03l1.91-.03c1.94-.09,3.56-.66,4.85-1.74,1.28-1.05,2.54-2.84,3.71-5.32,1.05-2.24,1.71-3.77,1.91-4.55,.57-1.82,1.26-4.36,2.04-7.69,.45-1.94,.65-3.23,.65-3.8,0-.21-.06-.36-.15-.51-.57-.66-1.29-1.14-2.15-1.41-.45-.15-.9-.24-1.32-.24-.51,0-.87,.12-1.08,.33-.27,.27-.78,1.62-1.5,4.04-1.52,5.54-3.74,9.79-6.61,12.68l-2.01,2.1-.63-1.41c-.63-1.46-1.23-3.58-1.8-6.31-1.01-4.99-1.52-10.02-1.52-15.13,0-5.36,.24-9.52,.72-12.5,1.08-5.96,2.9-10.32,5.51-13.13,1.11-1.23,2.09-1.88,2.93-2.04,.63,0,1.37,.75,2.18,2.21,.84,1.47,1.58,3.44,2.21,5.87,.39,1.52,.66,2.42,.81,2.69,.21,.39,.63,.81,1.19,1.2,1.11,.8,2.04,1.23,2.78,1.23,.6,0,.9-.48,.9-1.47,0-.41-.03-.93-.09-1.55-.63-5.53-2.87-9.93-6.73-13.22Z"/>
  <path d="M130,186.62c-.48-.12-.93-.18-1.35-.18-1.17,0-2.18,.54-3.05,1.64-.84,1.11-1.65,3.56-2.42,7.36-.57,2.66-.96,5.27-1.16,7.84-.18,2.36-.27,5.51-.27,9.48,0,5,.09,9.13,.3,12.38,.21,3.23,.6,6.97,1.17,11.19,.9,6.73,2.42,10.65,4.61,11.7,.36,.21,1.14,.3,2.34,.3,1.52,0,2.63-.06,3.26-.21,.81-.15,1.55-.54,2.27-1.19,.45-.39,.75-.83,.9-1.29,.15-.44,.24-1.62,.3-3.56l.15-11.03c.09-9.3,.24-15.74,.42-19.3,.15-3.14,.24-5.92,.24-8.4,0-6.43-.57-10.71-1.67-12.8-1.08-1.98-3.08-3.29-6.01-3.92Z"/>
  <path d="M169.79,210.4c-.33-.6-.48-.93-.48-.99,0-.06-3.89-8.05-5.11-9-1.53-1.16-2.69-1.88-3.53-2.21-.87-.27-1.73-.42-2.54-.42-2.45,0-3.68,.69-3.68,2.04,0,.51-.33,.74-1.8,1.43-.51,.24-1.01,.54-1.59,.87-2.72,1.7-4.85,4.72-6.31,9.03-1.23,3.56-1.86,7.63-1.86,12.21,0,4.96,.99,9.36,2.93,13.19,2.6,5.17,6.82,7.77,12.68,7.77,1.41,0,2.66-.11,3.77-.33,3.41-.63,5.89-2.63,7.42-6.04,1.98-4.16,2.96-8.73,2.96-13.73,0-2.36-.24-4.69-.75-6.94-.69-3.17-1.41-5.47-2.12-6.88Zm-6.7,23.95c-.63,1.23-1.05,1.86-1.29,1.86-.12,0-.42-1.02-.93-3.02-.51-2.27-.78-4.69-.78-7.24,0-2.93,.36-6.04,1.05-9.3,.63-2.87,1.08-4.31,1.37-4.31,.27,0,.84,1.47,1.68,4.43,.78,2.72,1.16,5.23,1.16,7.6,0,3.5-.75,6.81-2.27,9.98Z"/>
  <path d="M207.53,227.41c-.48-.15-.99-.21-1.52-.21-.24,0-1.17-.09-1.86,.63-.33,.36-1.01,1.62-2.12,3.8-1.05,2.01-1.91,3.53-2.63,4.58-.69,1.04-1.44,1.97-2.21,2.72l-1.23,1.16c-.3-1.04-.54-1.91-.72-2.63-.33-1.32-.54-3.09-.66-5.27-.21-3.08-.3-5.65-.3-7.72,0-.93,.03-1.73,.06-2.36,.51-7.66,1.94-14.15,4.31-19.44,.39-.93,.72-1.41,.98-1.41,.09,0,.18,0,.27,.03,.09,.03,.42,.63,.96,1.79,.39,.9,.83,1.47,1.32,1.74,.36,.21,.87,.3,1.52,.3,1.41,0,2.3-.21,2.75-.6,.27-.27,.42-.66,.42-1.23,0-1.94-.81-3.74-2.45-5.35-1.44-1.41-3.26-2.4-5.5-2.9-1.17-.27-2.33-.39-3.47-.39-2.09,0-4.1,.44-5.98,1.35-4.9,2.3-8.17,7.66-9.81,16.12-.6,2.9-.9,6.28-.9,10.14,0,13.32,3.74,20.97,11.22,23,.99,.24,2.03,.36,3.11,.36,2.22,0,4.16-.39,5.8-1.19,2.9-1.44,5.83-5.83,8.76-13.22,.63-1.59,.93-2.57,.93-2.99-.09-.36-.45-.63-1.05-.81Z"/>
  <path d="M228.24,227.42c5.46-2.43,16.38-9.26,16.38-12.93,0-.84,.62-3.15-1.18-4.94-1.59-1.56-4.43,.23-9.01,2.75-4.1,2.26-8.09,5.18-8.3,5.18-.15,0-.21-.3-.21-.9,0-1.2,.24-4.22,.72-9.1,.63-6.37,.96-11.06,.96-14.06v-2.45c0-1.52-.33-2.75-1.02-3.65-1.2-1.59-3.47-2.39-6.85-2.39-1.2,0-2.24,.09-3.23,1.02-3.44,2.84-5.15,22.58-5.15,43.55,0,11.9,.72,10.64,2.12,11.9,.15,.15,.36,.27,.69,.42,.93,.41,2,.63,3.29,.63,2.48,0,4.49-.48,6.01-1.47,1.11-.69,1.56-1.29,1.76-3.17,.04-.54,.1-2.29,.16-5.1,5.19,4.11,11.88,7.79,19.55,8.11,13.97,.58-4.53-5.91-16.71-13.41Z"/>
</svg>