<svg xmlns="http://www.w3.org/2000/svg" viewBox="0 0 283.46 283.46" fill="#ffffff">
<path d="m58.65,185.53c1.16-.04,2.52-.26,4.19-.61,7.84-1.65,13.52-3.85,17.07-6.83,2.11-1.8,3.13-3.54,2.98-5.34-.07-.79-.57-1.37-1.45-1.81-.88-.44-3.89-.72-8.51-.4-2.66.19-4.83.18-6.07-.39-1.23-.57-2.21-2.56-2.85-5.72-.64-3.15-1.75-11.59-3.36-25.18-1.4-11.9-2.61-23.56-3.47-34.89-1.24-16.43-1.96-26.35-2.32-29.42-.31-2.64-.84-5.78-1.56-9.34-.72-3.55-1.44-6.51-2.29-8.61-2.19-5.48-7.03-7.55-14.47-5.85-.57.13-.86.2-1.44.33-3.85.89-6.55,2.66-8.11,5.19-1.56,2.53-2.31,7.22-2.43,13.89-.23,13.03,1.17,29.44,4.28,48.98.62,3.76.94,5.64,1.56,9.41,4.74,27.58,8.67,43.6,11.23,47.88,3.5,5.85,9.05,8.95,17.01,8.71Z"/>
<path d="m107.93,96.38c-1.16-3-3.31-5.06-6.08-6.21-3.34-1.39-6.87-2.09-10.35-1.69-2.8.32-5.24,1.2-7.2,2.62-2.93,2.49-5.01,7.02-5.78,13.29-.66,5.41-.47,11.98.2,19.51.31,3.45,1.06,9.22,2.17,17.33,1.11,8.04,2.96,15.47,5.65,21.54,1.99,4.49,4.63,7.24,7.27,7.81,2.4.52,4.06.68,4.89.59,4.75-.53,7.78-2.09,9.05-4.73.51-.99.93-2.83,1.25-5.38,1.1-8.98,1.64-19.33,1.77-30.78.06-4.97,0-9.54-.17-13.64-.43-10.01-1.32-16.77-2.67-20.25Z"/>
<path d="m93.52,78.26c1.22.15,2.42.17,3.49.06,2.02-.2,3.57-.77,4.66-1.81.41-.55.94-1.45,1.44-2.87,1.18-3.14,1.78-5.96,1.69-8.38-.14-3.91-3.24-6.49-9.16-7.42-1.51-.21-3.01-.19-4.63-.02-6.61.73-10.65,3.4-12.16,7.82-.41,1.36-.54,2.76-.43,4.13.38,4.44,5.43,7.15,15.11,8.49Z"/>
<path d="m187.2,49.47c-2.23-.22-3.98-.09-5.23.45-1.61.7-2.28,2.97-3.17,8.04-.75,4.24-2.56,11.94-5,22.95-7.71,34.19-11.13,51.44-11.59,51.41-.23-.01-.65-3.64-1.22-10.88-1.36-17.17-2.57-34.99-3.66-53.41-.97-16.32-3.02-32.46-4.28-37.3-1.86-7.12-6.67-10.33-16.41-10.25-9.14.07-13.33,3.22-15.29,11.05-1.97,7.85-2.03,23.33-1.68,35.37.07,2.38.37,8.14.94,17.21.57,8.99,2.7,22.64,6.34,40.65,2.67,13.19,6.2,24.57,10.31,33.88,4.09,9.26,8.14,14.83,12.24,16.73,1.15.38,2.3.63,3.56.67,2.25.07,5.07-.63,8.36-2.1,3.34-1.49,5.99-3.83,7.92-7.23.92-2.1,2.32-8.03,4.29-17.59,1.97-9.58,4.06-20.72,6.33-33.14,2.28-12.5,4.25-24.12,5.84-34.81.76-5.06,2.36-14.81,4.84-29.32-.47-.48-.7-.73-1.17-1.21-.55-.71-1.32-1.08-2.23-1.17Z"/>
<path d="m242.68,174.66c1.24-.48,2.01-1.67,2.32-3.65.21-1.35-.08-2.39-.95-3.07-.57-.38-1.37-.75-2.47-1.04-.77-.2-1.66-.37-2.66-.54-3.2-.56-6-1.06-8.32-1.6-3.58-.84-6.03-1.74-7.33-2.74-3.24-2.81-5.05-8.43-5.45-16.76-.17-2.15-.21-3.84-.09-4.98.13-1.21.81-1.33,3.34-1.1,2.08.19,4.57.38,7.35.44,2.78.07,5.39.07,7.65.06,2.28,0,3.69-.13,4.06-.26.47-.4.75-1.06.9-2.13.26-1.78.13-4-.55-6.54-.48-1.8-1.15-3.3-1.97-4.3-.67-.82-2.02-1.52-4.07-1.99-.99-.23-5.75-1.21-14.3-2.57-1.89-28.55,4.96-38.22,9.03-39.16,0,0,20.38-3.19,24.35-4.61,8.11-2.9-3.5-14.64-14.95-16.52-7.89-1.3-13.48-2.84-21.39-1.53-15.44,4.24-16.39,12.93-18.72,18.23-2.19,5.14-2.85,8.32-3.98,13.58-2.33,10.91-1.91,31.67-1.69,37.49.21,5.83,1.04,11.08,2.4,15.69,3.4,13.09,10.03,21.44,20.13,25.68,2.24.95,6.16,2.11,11.58,3.25,1.93.41,4.79.66,8.46.92,3.68.26,6.12.17,7.32-.3Z"/>
<path d="m62.08,238.18c-.89-2.64-1.72-4.56-2.46-5.69-.34-.49-4.62-7.31-5.77-7.99-1.41-.83-2.53-1.35-3.26-1.51-.73-.15-1.54-.16-2.24-.07-2.12.28-3.1,1.02-2.96,2.18.05.43-.21.68-1.4,1.44-.41.26-.82.59-1.27.94-2.16,1.79-3.65,4.65-4.42,8.52-.64,3.2-.72,6.77-.2,10.7.57,4.25,1.92,7.91,3.97,10.95,2.77,4.11,6.56,5.85,11.44,5.2,1.17-.16,2.21-.39,3.1-.69,2.77-.91,4.61-2.91,5.58-5.97,1.19-3.75,1.65-7.81,1.17-12.11-.22-2.03-.66-4.02-1.29-5.89Zm-5.78,15.61c-.4,1.13-.69,1.71-.89,1.74-.1.01-.49-.84-1.09-2.5-.68-1.87-1.14-3.95-1.4-6.13-.3-2.52-.33-5.24-.06-8.11.23-2.53.48-3.82.74-3.86.23-.03.86,1.17,1.87,3.63.93,2.25,1.51,4.37,1.74,6.4.35,3.01.05,5.94-.91,8.82Z"/>
<path d="m70.69,210.37c-.5-.53-1.36-.74-2.56-.6-1.64.18-2.58.79-2.77,1.77-.04.39-.04.94.04,1.64.17,1.62.53,3.46,1.12,5.55.37,1.31.71,2.22,1.02,2.52.34.33,1.12.47,2.07.37.93-.1,1.62-.34,1.89-.66.29-.34.44-1.3.52-2.74.06-1.12.04-2.3-.08-3.46-.22-2.29-.65-3.76-1.24-4.39Z"/>
<path d="m109.12,240.39c-.52-.53-1.16-.91-1.91-1.08-.39-.1-.78-.15-1.13-.12-.43.03-.73.16-.89.35-.21.25-.56,1.44-1.01,3.58-.94,4.88-2.52,8.69-4.72,11.39-.61.78-.92,1.17-1.53,1.95-.25-.47-.37-.7-.62-1.17-.63-1.22-1.28-3.01-1.95-5.31-1.21-4.22-2-8.53-2.36-12.94-.38-4.62-.5-8.25-.27-10.84.45-5.18,1.78-9.12,3.85-11.73.88-1.14,1.76-1.85,2.41-1.97.47-.08,1.24.56,2.03,1.76.8,1.21,1.59,2.86,2.28,4.92.43,1.29.72,2.05.86,2.27.21.32.59.66,1.1.96,1,.62,1.82.93,2.47.88.51-.04.74-.47.68-1.32-.02-.36-.08-.8-.17-1.34-.86-4.74-3.06-8.47-6.62-10.98-2.95-2.08-5.99-3.01-8.88-2.76-.13.01-.19.02-.31.03-3.39.29-6.33,1.94-8.76,4.93-3.03,3.7-4.81,8.46-5.38,14.32-.25,2.6-.23,5.25.03,8.01.32,3.42,1.05,6.97,2.14,10.63.48,1.54.96,2.87,1.47,3.99.51,1.12,1.21,2.38,2.1,3.77,3.29,5.26,7.29,8.23,12.03,8.94.89.11,1.62.25,1.72.27.08.02.18.01.35,0,.63-.06.95-.1,1.59-.16,1.61-.21,2.91-.82,3.91-1.83.98-.99,1.93-2.62,2.75-4.83.74-2,1.2-3.36,1.32-4.05.37-1.61.8-3.85,1.25-6.76.27-1.7.36-2.83.33-3.32-.01-.18-.07-.31-.16-.43Z"/>
<path d="m126.11,244.54c-.35-8.05-.52-13.61-.53-16.7-.02-2.72-.07-5.13-.18-7.27-.29-5.56-.97-9.25-2.04-10.99-1.01-1.65-2.84-2.7-5.42-3.09-.42-.08-.82-.1-1.18-.08-1.02.06-1.89.59-2.57,1.58-.68.99-1.23,3.18-1.71,6.49-.33,2.33-.54,4.61-.57,6.84-.02,2.05.07,4.77.3,8.2.28,4.32.59,7.88.95,10.68.36,2.78.9,5.98,1.61,9.6,1.12,5.76,2.61,9.07,4.48,9.86.31.16.96.2,1.96.14,1.27-.08,2.2-.2,2.7-.34.63-.18,1.27-.54,1.83-1.14.35-.36.58-.76.69-1.15.1-.39.13-1.41.08-3.09-.15-3.82-.23-5.73-.38-9.54Z"/>
<path d="m155.22,231.5c-.67-2.72-1.33-4.71-1.98-5.91-.3-.52-.43-.8-.44-.84,0-.05-3.56-6.88-4.65-7.67-1.34-.97-2.4-1.59-3.12-1.82-.71-.22-1.51-.31-2.21-.29-2.12.07-3.16.71-3.11,1.88.02.44-.26.65-1.5,1.3-.43.22-.86.51-1.34.81-2.28,1.57-3.99,4.27-5.07,8.05-.9,3.12-1.27,6.67-1.07,10.63.21,4.29,1.24,8.06,3.02,11.29,2.4,4.36,6,6.46,10.9,6.29,1.18-.04,2.22-.17,3.14-.39,2.83-.63,4.83-2.45,6.05-5.4,1.5-3.61,2.29-7.61,2.18-11.94-.05-2.04-.32-4.06-.8-5.99Zm-7.03,14.97c-.49,1.08-.83,1.64-1.03,1.64-.1,0-.41-.88-.87-2.59-.52-1.93-.8-4.04-.88-6.24-.09-2.54.11-5.24.6-8.08.44-2.5.79-3.76,1.05-3.77.23,0,.76,1.25,1.56,3.79.74,2.33,1.14,4.5,1.2,6.54.1,3.03-.45,5.91-1.64,8.69Z"/>
<path d="m185.66,240.07c-.41-.13-.84-.19-1.29-.19-.2,0-.99-.09-1.58.53-.28.31-.85,1.4-1.79,3.28-.87,1.73-1.62,3.05-2.2,3.96-.58.89-1.2,1.7-1.85,2.35-.41.4-.62.6-1.03,1.01-.26-.9-.46-1.66-.62-2.27-.29-1.14-.47-2.68-.59-4.56-.18-2.65-.3-4.89-.32-6.68,0-.8.01-1.5.03-2.04.36-6.63,1.54-12.25,3.55-16.83.33-.8.61-1.22.84-1.22.08,0,.16,0,.24.03.08.03.39.55.84,1.55.35.77.73,1.27,1.15,1.51.31.18.75.26,1.32.26,1.21,0,1.99-.17,2.38-.5.23-.23.36-.57.36-1.06,0-1.68-.7-3.25-2.14-4.65-1.25-1.23-2.85-2.09-4.79-2.53-1.02-.23-2.03-.34-3.02-.34-1.82,0-3.56.4-5.18,1.19-4.23,2.02-6.96,6.7-8.21,14.04-.46,2.52-.65,5.45-.58,8.78.25,11.52,3.52,18.08,9.8,19.79.83.2,1.7.3,2.6.3,1.85,0,3.47-.35,4.85-1.04,2.42-1.24,4.87-5.03,7.35-11.41.53-1.37.83-2.25.79-2.58-.03-.29-.38-.55-.89-.71Z"/>
<path d="m219.7,217.03c4.34-6.33,6.48-10.03,6.4-11.1,0-.12-.04-.25-.11-.42-.2-.48-.53-.91-1.02-1.28-.94-.71-1.88-1.03-2.82-.96-.66.05-1.08.23-1.84,1.16-.31.39-1.51,2.03-3.59,4.92l-4.52,6.1c-.44.64-1.65,2.16-3.64,4.59-1.81,2.22-3.25,4.03-4.34,5.48.05-.43.1-.88.15-1.36.62-5.5.96-9.55.99-12.14.01-.85.02-1.27.03-2.12.02-1.32-.26-2.39-.85-3.18-1.03-1.4-3.01-2.15-5.96-2.2-1.05-.02-1.96.04-2.82.83-3.01,2.41-4.49,12.69-4.55,30.83-.04,10.3.53,16,1.7,17.1.12.13.3.24.57.37.77.37,1.67.57,2.74.59,2.07.04,3.75-.36,5.04-1.17.92-.58,1.35-1.1,1.52-2.71.07-.67.18-3.39.33-8.17l.13-2.5c1.58,1.85,3.57,3.98,5.96,6.39,4.13,4.16,6.65,6.22,7.56,6.2.1,0,.22-.03.38-.08.46-.16.9-.44,1.34-.87.85-.82,1.36-1.66,1.56-2.5.14-.6.1-.98-.48-1.7-.24-.3-1.29-1.44-3.15-3.42l-3.88-4.31c-.41-.42-1.36-1.57-2.87-3.45-.94-1.18-1.77-2.19-2.49-3.05,2.78-2.47,6.94-7.76,12.51-15.88Z"/>
<path d="m258.89,196.26c-.31-2.14-2.05-3.54-5.24-4.2l-.85-.15c-1.11-.16-2.04-.06-2.78.27-.76.33-1.52,1.21-2.26,2.61-2.15,3.87-4.05,8.39-5.62,13.58-1.11,3.79-2.04,8.53-2.85,14.19-.93,6.54-.97,10.91-.11,13.15.65,1.72,2.11,2.74,4.29,3.05,1.74.25,3.07.26,4.02.08,1.37-.38,2.57-1.31,3.03-2.32.31-.68,1.87-7.56,4.7-20.67,2.03-9.13,3.21-14.69,3.49-16.65.2-1.36.24-2.34.18-2.93Z"/>
<path d="m246.22,247.06c-.71-.5-1.67-.84-2.87-1.01-1.21-.17-2.26.02-3.13.62-.93.68-1.52,1.72-1.72,3.14-.32,2.23.68,3.82,2.99,4.82.52.19,1.08.33,1.7.41,1.34.19,2.36.14,3.02-.15,1.22-.61,1.92-1.75,2.16-3.43.11-.8.13-1.67-.84-2.97-.46-.68-.92-1.14-1.32-1.44Z"/>
</svg>