
<svg xmlns="http://www.w3.org/2000/svg" viewBox="0 0 283.46 283.46" fill="#fff">
  <path d="m54.3,153.25c0,2.56.83,4.51,2.48,5.84,1.65,1.33,3.86,2,6.64,2,2.02,0,3.86-.56,5.52-1.68,1.65-1.12,3.04-2.58,4.16-4.4,1.12-1.81,2-3.81,2.64-6,.64-2.18.96-4.4.96-6.64,0-5.22-1.97-9.54-5.92-12.96-3.95-3.41-9.49-5.12-16.64-5.12-8.85,0-15.92,2.29-21.2,6.88-5.28,4.59-7.92,11.09-7.92,19.52,0,5.01,1.17,9.68,3.52,14,2.34,4.32,5.86,7.87,10.56,10.64,1.39.85,2.88,1.6,4.48,2.24,1.6.64,2.4,1.66,2.4,3.04,0,1.49-.67,2.64-2,3.44-1.33.8-3.23,1.2-5.68,1.2-1.71,0-3.33-.37-4.88-1.12-1.55-.75-2.96-1.76-4.24-3.04-1.28-1.28-2.32-2.72-3.12-4.32-.8-1.6-1.31-3.25-1.52-4.96-.21-1.17-.91-1.76-2.08-1.76s-2.24.43-3.2,1.28c-.96.86-1.81,1.97-2.56,3.36-.74,1.39-1.3,2.96-1.68,4.72-.37,1.76-.56,3.6-.56,5.52,0,3.09.62,5.95,1.84,8.56,1.23,2.62,2.96,4.88,5.2,6.8s4.93,3.44,8.08,4.56c3.14,1.12,6.69,1.68,10.64,1.68s7.76-.64,11.12-1.92c3.36-1.28,6.29-3.06,8.8-5.36,2.5-2.29,4.45-5.01,5.84-8.16,1.38-3.14,2.08-6.64,2.08-10.48,0-4.16-1.36-7.76-4.08-10.8-2.72-3.04-6.59-5.94-11.6-8.72-2.77-1.49-4.61-3.04-5.52-4.64-.91-1.6-1.36-3.25-1.36-4.96,0-2.56.56-5.04,1.68-7.44,1.12-2.4,3.12-3.6,6-3.6,3.41,0,4.26,2.13,2.56,6.4-.96,2.35-1.44,4.48-1.44,6.4Z"/>
  <path d="m98.45,182.44c-.21-1.76.1-4.13.96-7.12l17.76-64.63,4.16-14.72c.53-2.13.42-3.86-.32-5.2-.75-1.33-2.35-2-4.8-2-1.6,0-3.95.21-7.04.64-3.09.43-6.16,1.12-9.2,2.08s-5.68,2.19-7.92,3.68c-2.24,1.5-3.36,3.31-3.36,5.44,0,1.07.21,1.92.64,2.56.42.64.88,1.25,1.36,1.84.48.59.83,1.28,1.04,2.08.21.8.16,1.95-.16,3.44l-17.28,64.95-1.76,6.56c-.96,3.2-1.49,6.27-1.6,9.2-.1,2.93.24,5.55,1.04,7.84.8,2.29,2.13,4.11,4,5.44,1.86,1.33,4.34,2,7.44,2,1.92,0,4-.4,6.24-1.2s4.29-2,6.16-3.6c1.86-1.6,3.44-3.62,4.72-6.08,1.28-2.45,1.92-5.33,1.92-8.64v-1.92c-2.45,0-3.79-.88-4-2.64Z"/>
  <path d="m139.73,117.73c5.01,0,9.06-1.54,12.16-4.64s4.64-7.14,4.64-12.16c0-4.05-1.25-7.33-3.76-9.84-2.51-2.5-5.79-3.76-9.84-3.76-5.01,0-9.07,1.55-12.16,4.64s-4.64,7.15-4.64,12.16c0,4.05,1.25,7.33,3.76,9.84,2.5,2.51,5.78,3.76,9.84,3.76Z"/>
  <path d="m133.81,182.44c-.22-1.76.1-4.13.96-7.12l12.48-43.83c.53-2.13.42-3.86-.32-5.2-.75-1.33-2.35-2-4.8-2-1.6,0-3.95.22-7.04.64-3.09.43-6.16,1.12-9.2,2.08-3.04.96-5.68,2.19-7.92,3.68-2.24,1.49-3.36,3.31-3.36,5.44,0,1.07.21,1.92.64,2.56.42.64.88,1.25,1.36,1.84.48.59.83,1.28,1.04,2.08.21.8.16,1.95-.16,3.44l-9.6,36c-.96,3.2-1.49,6.27-1.6,9.2-.1,2.93.24,5.55,1.04,7.84.8,2.29,2.13,4.11,4,5.44,1.86,1.33,4.34,2,7.44,2,1.92,0,4-.4,6.24-1.2s4.29-2,6.16-3.6c1.86-1.6,3.44-3.62,4.72-6.08,1.28-2.45,1.92-5.33,1.92-8.64v-1.92c-2.46,0-3.79-.88-4-2.64Z"/>
  <path d="m243.87,126.69c-2.03-1.6-4.75-2.4-8.16-2.4-4.05,0-7.95,1.15-11.68,3.44-3.73,2.29-7.15,5.57-10.24,9.84-.32-3.73-1.52-6.88-3.6-9.44-2.08-2.56-5.36-3.84-9.84-3.84s-8.72,1.36-12.72,4.08-7.65,6.64-10.96,11.76h-.32l2.4-8.64c.53-2.13.45-3.86-.24-5.2-.69-1.33-2.16-2-4.4-2-1.6,0-3.79.22-6.56.64-2.77.43-5.47,1.12-8.08,2.08-2.61.96-4.88,2.19-6.8,3.68-1.92,1.49-2.88,3.31-2.88,5.44,0,1.07.21,1.92.64,2.56.42.64.88,1.25,1.36,1.84.48.59.83,1.28,1.04,2.08.21.8.16,1.95-.16,3.44l-7.84,29.44-1.76,6.56c-.96,3.2-1.49,6.27-1.6,9.2-.1,2.93.24,5.55,1.04,7.84.8,2.29,2.13,4.11,4,5.44,1.87,1.33,4.34,2,7.44,2,1.92,0,4-.4,6.24-1.2,2.24-.8,4.29-2,6.16-3.6,1.86-1.6,3.44-3.62,4.72-6.08,1.28-2.45,1.92-5.33,1.92-8.64v-1.92c-2.45,0-3.79-.88-4-2.64-.21-1.76.1-4.13.96-7.12l7.36-25.92c.85-1.17,1.97-2.08,3.36-2.72,1.38-.64,2.72-.96,4-.96,2.77,0,3.73,1.39,2.88,4.16l-8.64,32.16c-.96,3.2-1.5,6.27-1.6,9.2-.11,2.93.24,5.55,1.04,7.84.8,2.29,2.13,4.11,4,5.44,1.86,1.33,4.34,2,7.44,2,1.92,0,4-.4,6.24-1.2,2.24-.8,4.29-2,6.16-3.6,1.86-1.6,3.44-3.62,4.72-6.08,1.28-2.45,1.92-5.33,1.92-8.64v-1.92c-2.45,0-3.79-.88-4-2.64-.21-1.76.1-4.13.96-7.12l6.72-25.12c0-.21.03-.34.08-.4.05-.05.08-.19.08-.4.85-1.17,1.97-2.08,3.36-2.72,1.38-.64,2.72-.96,4-.96,2.77,0,3.73,1.39,2.88,4.16l-8.64,32.16c-.96,3.2-1.49,6.27-1.6,9.2-.11,2.93.24,5.55,1.04,7.84.8,2.29,2.13,4.11,4,5.44,1.87,1.33,4.34,2,7.44,2,1.92,0,4-.4,6.24-1.2,2.24-.8,4.29-2,6.16-3.6,1.87-1.6,3.44-3.62,4.72-6.08,1.28-2.45,1.92-5.33,1.92-8.64v-1.92c-2.46,0-3.79-.88-4-2.64-.21-1.76.11-4.13.96-7.12l6.72-25.12c.85-2.98,1.33-6.02,1.44-9.12.11-3.09-.27-5.86-1.12-8.32-.85-2.45-2.29-4.48-4.32-6.08Z"/>
  <path d="m172.81,122.8c.58.42,1.36.62,2.32.62.6,0,1.25-.12,1.95-.35.7-.23,1.34-.6,1.92-1.1.58-.5,1.07-1.13,1.47-1.9.4-.77.6-1.68.6-2.75v-.6c-.77,0-1.18-.27-1.25-.82-.07-.55.03-1.29.3-2.22l.15-.5c.23-.73.41-1.45.52-2.15.12-.7.21-1.38.27-2.05.2,1.5.65,2.65,1.35,3.47.7.82,1.66,1.22,2.9,1.22,2.16,0,3.94-.87,5.32-2.62,1.38-1.75,2.59-4.52,3.62-8.31l.5-1.8c.87-3.2,1.3-5.79,1.3-7.79,0-1.7-.34-2.98-1.02-3.84-.68-.87-1.77-1.3-3.27-1.3-1.17,0-2.32.38-3.47,1.15-1.15.77-2.22,1.88-3.22,3.35h-.05l.65-2.25c.17-.67.14-1.21-.08-1.62-.22-.42-.67-.62-1.37-.62-.5,0-1.18.07-2.05.2-.87.13-1.71.35-2.52.65-.82.3-1.52.68-2.12,1.15-.6.47-.9,1.03-.9,1.7,0,.33.07.6.2.8.13.2.27.39.42.57.15.18.26.4.33.65.07.25.05.61-.05,1.07l-5.79,20.97c-.3,1-.47,1.96-.5,2.87-.03.92.08,1.73.32,2.45.25.72.67,1.28,1.25,1.7Zm12.56-27.33c.4-.5.88-.75,1.45-.75.27,0,.5.08.7.25.2.17.3.57.3,1.2,0,.77-.22,2.03-.65,3.79l-.5,1.8c-.33,1.2-.64,2.14-.92,2.82-.28.68-.56,1.21-.82,1.57-.27.37-.52.6-.77.7-.25.1-.47.15-.67.15-.6,0-1-.28-1.2-.85l3.1-10.68Z"/>
  <path d="m198.02,93.1c.15.18.26.4.32.65.07.25.05.61-.05,1.07l-2.45,9.19-.55,2.05c-.3,1-.47,1.96-.5,2.87-.03.92.07,1.73.32,2.45.25.72.67,1.28,1.25,1.7.58.42,1.36.62,2.32.62.6,0,1.25-.12,1.95-.37s1.34-.62,1.92-1.12c.58-.5,1.07-1.13,1.47-1.9.4-.77.6-1.66.6-2.7v-.6c-.77,0-1.18-.27-1.25-.82-.07-.55.03-1.29.3-2.22l2.35-8.24c.3-.67.72-1,1.25-1,.6,0,.8.43.6,1.3-.07.37-.13.72-.2,1.05-.07.33-.1.65-.1.95,0,.8.22,1.47.65,2.02.43.55,1.25.82,2.45.82.9,0,1.68-.23,2.35-.67s1.22-1.03,1.67-1.75c.45-.72.79-1.55,1.02-2.5.23-.95.35-1.92.35-2.92,0-.67-.07-1.31-.2-1.92-.13-.62-.36-1.15-.67-1.6s-.72-.81-1.22-1.07c-.5-.27-1.1-.4-1.8-.4-1.17,0-2.29.39-3.37,1.17-1.08.78-2.07,1.91-2.97,3.37h-.05l.65-2.3c.17-.67.14-1.21-.08-1.62-.22-.42-.67-.62-1.37-.62-.5,0-1.18.07-2.05.2-.87.13-1.71.35-2.52.65-.82.3-1.52.68-2.12,1.15-.6.47-.9,1.03-.9,1.7,0,.33.07.6.2.8s.28.39.42.57Z"/>
  <path d="m215.12,102.31c-.13.7-.23,1.34-.3,1.92-.07.58-.1,1.17-.1,1.77,0,2.43.67,4.32,2,5.67,1.33,1.35,3.5,2.02,6.49,2.02,1.5,0,2.79-.17,3.87-.52s2.03-.9,2.85-1.65,1.51-1.7,2.07-2.85c.57-1.15,1.06-2.52,1.5-4.12.33-1.23.61-2.26.82-3.1.22-.83.39-1.56.52-2.2.13-.63.22-1.21.27-1.72.05-.52.08-1.07.08-1.67,0-2.56-.69-4.52-2.07-5.87-1.38-1.35-3.49-2.02-6.32-2.02-1.46,0-2.75.19-3.84.57-1.1.38-2.05.95-2.85,1.7-.8.75-1.49,1.67-2.07,2.77-.58,1.1-1.07,2.36-1.47,3.79-.33,1.2-.62,2.24-.87,3.12-.25.88-.44,1.67-.57,2.37Zm7.36,2.9c.05-.33.13-.77.25-1.32.12-.55.28-1.24.5-2.07.22-.83.49-1.88.82-3.15.27-1,.52-1.8.75-2.4.23-.6.45-1.05.65-1.35.2-.3.39-.49.57-.57.18-.08.37-.12.57-.12.63,0,.95.38.95,1.15,0,.23-.02.5-.08.8-.05.3-.12.72-.22,1.25-.1.53-.25,1.19-.45,1.97-.2.78-.45,1.76-.75,2.92-.3,1.2-.57,2.14-.82,2.82-.25.68-.47,1.2-.67,1.55-.2.35-.39.57-.57.65-.18.08-.38.12-.57.12-.33,0-.58-.09-.75-.27-.17-.18-.25-.52-.25-1.02,0-.3.03-.62.08-.95Z"/>
  <path d="m260.8,77.57c-.23-.42-.73-.62-1.5-.62-.5,0-1.23.07-2.2.2-.97.13-1.92.35-2.87.65-.95.3-1.77.68-2.47,1.15-.7.47-1.05,1.03-1.05,1.7,0,.33.07.6.2.8s.27.39.42.57c.15.18.26.4.32.65.07.25.05.61-.05,1.07l-.65,2.3c-.4,1.6-.73,3.18-1,4.74-.6-1.83-2.06-2.75-4.39-2.75-2.03,0-3.81.87-5.34,2.6-1.53,1.73-2.81,4.51-3.84,8.34l-.5,1.8c-1.1,4.23-1.45,7.44-1.05,9.64.4,2.2,1.73,3.29,3.99,3.29,1.26,0,2.5-.48,3.72-1.45s2.35-2.5,3.42-4.59c-.13.83-.17,1.61-.12,2.35.05.73.22,1.37.5,1.92s.67.98,1.15,1.3,1.09.47,1.82.47c1.7,0,3.1-.57,4.19-1.72,1.1-1.15,1.65-2.6,1.65-4.37v-.6c-.77,0-1.18-.27-1.25-.82-.07-.55.03-1.29.3-2.22l5.39-20.17,1.3-4.59c.17-.67.13-1.21-.1-1.62Zm-14.08,25.14c-.27.83-.65,1.61-1.15,2.35-.5.73-1.03,1.1-1.6,1.1s-.9-.32-1-.97c-.1-.65.07-1.79.5-3.42l.5-1.8c.33-1.36.66-2.45.97-3.27.32-.81.61-1.43.87-1.85.27-.42.52-.68.77-.8.25-.12.49-.17.72-.17.4,0,.7.11.9.32.2.22.33.51.4.87l-1.9,7.64Z"/>
</svg>