
<svg xmlns="http://www.w3.org/2000/svg" viewBox="0 0 100 100" fill="#fff">
  <path d="M21.55,66.45a9.2,9.2,0,0,0,3-1.38,6.19,6.19,0,0,0,1.9-2.16A6.1,6.1,0,0,0,27.06,60a46.19,46.19,0,0,0-.51-7.21A38.78,38.78,0,0,0,25.17,47a41.5,41.5,0,0,0-2-5Q22.1,39.7,21,37.51t-2.22-4.38a42.59,42.59,0,0,1-2-4.69A33.9,33.9,0,0,1,15.42,23a38.45,38.45,0,0,1-.51-6.57,2.33,2.33,0,0,1,.68-1.74,3,3,0,0,1,2.14-.66,3,3,0,0,1,2.11.66,2.28,2.28,0,0,1,.71,1.74V27.2a2.23,2.23,0,0,0,.7,1.7,3,3,0,0,0,2.12.66h2.72a1,1,0,0,0,.73-.24.81.81,0,0,0,.24-.6V16.46a6,6,0,0,0-2.45-5,11.26,11.26,0,0,0-6.88-1.84,14.1,14.1,0,0,0-3.84.48A9.09,9.09,0,0,0,11,11.44a6.19,6.19,0,0,0-1.9,2.16,6.09,6.09,0,0,0-.66,2.86,38.25,38.25,0,0,0,.9,8.82,42.17,42.17,0,0,0,2.26,6.89q1.37,3.12,2.92,5.94t2.92,6a41.25,41.25,0,0,1,2.26,7,39.69,39.69,0,0,1,.9,9,2.35,2.35,0,0,1-.68,1.75,3,3,0,0,1-2.14.66,3,3,0,0,1-2.12-.66,2.29,2.29,0,0,1-.7-1.75V49.31a2.23,2.23,0,0,0-.71-1.7A3,3,0,0,0,12.09,47H9.37a1,1,0,0,0-.73.24.79.79,0,0,0-.25.6V60a6,6,0,0,0,2.46,5.05,11.24,11.24,0,0,0,6.88,1.84A14.32,14.32,0,0,0,21.55,66.45Z"/>
  <path d="M44.83,62.34H38.71V11.67a1.79,1.79,0,0,0-.8-1.52,3.5,3.5,0,0,0-2.09-.57H33a1.06,1.06,0,0,0-.75.24.87.87,0,0,0-.25.62V66.07a.87.87,0,0,0,.25.62,1.06,1.06,0,0,0,.75.24H46.32a1.22,1.22,0,0,0,.74-.2.7.7,0,0,0,.3-.62V64.72A2.27,2.27,0,0,0,46.67,63,2.58,2.58,0,0,0,44.83,62.34Z"/>
  <path d="M53,66.5a1.92,1.92,0,0,0,1.27.43h3.08a1.92,1.92,0,0,0,1.27-.43,1.28,1.28,0,0,0,.52-1v-55a.83.83,0,0,0-.25-.62,1,1,0,0,0-.74-.24H55.36a3.52,3.52,0,0,0-2.09.57,1.78,1.78,0,0,0-.79,1.52V65.46A1.28,1.28,0,0,0,53,66.5Z"/>
  <path d="M91.36,9.82a1.06,1.06,0,0,0-.75-.24H86.83a4.24,4.24,0,0,0-1.39.24,2.8,2.8,0,0,0-1.29,1.11,8.9,8.9,0,0,0-1.1,2.52,28.23,28.23,0,0,0-.84,4.48L77.83,52.59,73.5,17.93a22.69,22.69,0,0,0-.92-4.52,8.39,8.39,0,0,0-1.26-2.52A3.07,3.07,0,0,0,69.85,9.8a5.24,5.24,0,0,0-1.47-.22H65a1.06,1.06,0,0,0-.75.24.87.87,0,0,0-.25.62V66.07a.87.87,0,0,0,.25.62,1.06,1.06,0,0,0,.75.24h2.78A3.14,3.14,0,0,0,70,66.26a2.1,2.1,0,0,0,.7-1.74L69.18,24.28l5.17,40.6a2,2,0,0,0,1.14,1.46,4.62,4.62,0,0,0,2.29.59h.1a4.62,4.62,0,0,0,2.29-.59,2,2,0,0,0,1.14-1.46l5.13-40.51-1.5,40.15a2.1,2.1,0,0,0,.7,1.74,3.17,3.17,0,0,0,2.19.67h2.78a1.06,1.06,0,0,0,.75-.24.87.87,0,0,0,.25-.62V10.44A.87.87,0,0,0,91.36,9.82Z"/>
  <path d="M28.06,71.36a5.55,5.55,0,0,0-2.4-.39,16,16,0,0,0-3.34.4,14.88,14.88,0,0,0-3.67,1.33,10.55,10.55,0,0,0-3.15,2.5v.32a.18.18,0,0,1,.06.08,7.12,7.12,0,0,0,.69.92c.47.57.81.88,1,.93a1.36,1.36,0,0,0,.45.06l.62,0c.08,0,.12,0,.14,0a.48.48,0,0,0,.06-.14q.28-.87.42-1.23a1.46,1.46,0,0,0,.13-.37c0-.05,0-.07-.13-.07H18.7a3.15,3.15,0,0,1-.54-.06,6.09,6.09,0,0,1,1.54-1,6.61,6.61,0,0,1,1.83-.85l-3.45,8.64c-.27,0-.76,0-1.47,0-.47,0-.71.09-.71.28s.45.85,1.35,1.75a.31.31,0,0,1,.05.19A5.9,5.9,0,0,1,17,86a12.3,12.3,0,0,0-.71,3.16c0,.37,0,.64,0,.83v.29c0,.07,0,.1.06.1h.07a4.31,4.31,0,0,0,2.2-1.77,8.42,8.42,0,0,0,.5-.86s-.1-.1-.29-.17-.12-.06-.12-.12a9.45,9.45,0,0,1,.51-1.94c.15-.48.27-.84.36-1.09a.23.23,0,0,1,.15-.14,15.76,15.76,0,0,0,4.67-3.13A19.37,19.37,0,0,0,27.69,77,8.09,8.09,0,0,0,29,73.14,1.86,1.86,0,0,0,28.06,71.36Zm-1.77,4a16.64,16.64,0,0,1-1.42,1.94c-.57.66-1.14,1.29-1.73,1.87s-1.12,1-1.57,1.42a2.39,2.39,0,0,1-.87.55h0a53.31,53.31,0,0,1,3-7.11,5.35,5.35,0,0,0,.47-1,.2.2,0,0,1,.15-.11c.62-.07,1-.11,1.21-.11.87,0,1.31.31,1.31.92A3.27,3.27,0,0,1,26.29,75.36Z"/>
  <path d="M44.56,77.87a6,6,0,0,0-.38-1.69,3.3,3.3,0,0,0-1.42-1.75.46.46,0,0,1,.05-.21c-.07-.12-.56-.69-3.28-.69l-5.23.06h-.37c-.06,0-.09,0-.1.1v.53l-.32.21V78l-.37.21v.26a.37.37,0,0,1,.42.42s.22,0,.53-.05a.47.47,0,0,1,.16.05l-.06.32h-.26c-.06,0-.09,0-.1.1V83a.56.56,0,0,1-.22-.06c-.07,0-.1.06-.1.17a4.6,4.6,0,0,1-1.32.1s-.07.16,0,.16l1.32.06v2.74c0,.07.68.11.68.11v.15s-.67,0-.68.11v1.27c.7,0,3.85,0,3.85,0V86.43H38c.07,0,.11,0,.11-.1s0-.1-.11-.11h-.59V83.37h1c.16,0,.37.18.64.53a.62.62,0,0,1,.63.52l-.2.11c0,.14,1.53,2.59,1.53,2.59a.54.54,0,0,0-.26,0,5,5,0,0,0,.42.64c.6,0,4.17,0,4.17,0a2.89,2.89,0,0,0-.36-.64s.07-.07.21-.1-.55-.85-1.65-2.43c0-.07.09-.11.27-.11,0,0-.34-.58-.69-.58l-.47-.58H41.23c-.06,0-.11-.16-.11-.16l1.27,0,0-.16a.58.58,0,0,0,.26-.11L42,82l.79-.31a4.56,4.56,0,0,0,1.9-2.43c0-.08-.1-.11-.31-.11,0-.09,0-.13,0-.21h1.29v-.11H44.45C44.51,78.32,44.56,78,44.56,77.87ZM37.1,83.26c0,.08,0,.11-.1.11h-1c-.07,0-.1,0-.11-.11v-.05H37.1Zm1.21-.05a9.22,9.22,0,0,0-1,0,.41.41,0,0,0,0-.16l.31,0c0-.43.09-.63.16-.63h.48s.12.15.26.47Zm2.44-4a1.61,1.61,0,0,1-1.43.53H37.68v-.53H38l.21-.26h.47v-.11H37.36s.08-.29-.42-.31v-.32c.53,0,.42-.53.42-.53s0-1.29,0-1.32H38.8a2.51,2.51,0,0,1,1.05.16c.63.44.95.84.95,1.21v.42c0,.18-.08.69-.08.69h.56C41.28,79.07,41.1,79.19,40.75,79.19Z"/>
  <path d="M61.16,73.9a5.39,5.39,0,0,1,.93,1,5,5,0,0,1,.79,3.49A4.41,4.41,0,0,1,62,80.51c0,.12,0,.26,0,.39a9.65,9.65,0,0,1-.44,2.74,5.79,5.79,0,0,1-1,2,4.43,4.43,0,0,1-1.44,1.17,3.45,3.45,0,0,1-3.3,0,4.43,4.43,0,0,1-1.44-1.17,6,6,0,0,1-1-2A9,9,0,0,1,53,80.9a9.76,9.76,0,0,1,.43-3A6.42,6.42,0,0,1,54.8,75.4a3.69,3.69,0,0,1,2.26-1.2,3.27,3.27,0,0,1,2.46.53,2.22,2.22,0,0,1,1,1.8,1.88,1.88,0,0,1-.12.75,1.73,1.73,0,0,1-.47.64,2.22,2.22,0,0,1-.82.44,2.35,2.35,0,0,1-1,.12,3.36,3.36,0,0,1-1-.23,2.24,2.24,0,0,1-.83-.64,3,3,0,0,1-.56-1.1A2.45,2.45,0,0,0,55,77.57a3.1,3.1,0,0,0-.2,1.22A4.27,4.27,0,0,0,55,79.94a2.9,2.9,0,0,0,.49.91,3.13,3.13,0,0,0,1.29.88,3.63,3.63,0,0,0,1.56.22,4.21,4.21,0,0,0,1.5-.42,4.5,4.5,0,0,0,1.59-1.33,4.11,4.11,0,0,0,.79-1.86,4.31,4.31,0,0,0-.47-2.67,4.4,4.4,0,0,0-1.9-1.87,5.9,5.9,0,0,0-2.8-.66,7.17,7.17,0,0,0-2.8.58,8.79,8.79,0,0,0-2.49,1.53A7.78,7.78,0,0,0,50,77.59a6.77,6.77,0,0,0-.76,2.84v.51a6.73,6.73,0,0,0,2.84,5.65,9,9,0,0,0,5.62,1.66,8.74,8.74,0,0,0,5.5-1.87,6.87,6.87,0,0,0,2.6-5.95,6.78,6.78,0,0,0-1.37-3.84A8.48,8.48,0,0,0,61.16,73.9Z"/>
  <path d="M83.48,75.57h-1v-1h-1v-1H71.18v1h2v1h-1v1h-1v-2h-1v12.3h1v1H82.45v-1h1v-1h1V76.6h-1ZM80.4,82.75h-1v1h-2V76.6h2v1h1Z"/>
</svg>