<svg xmlns="http://www.w3.org/2000/svg" viewBox="0 0 100 100"><path d="M17.22,76.27a12,12,0,0,0,3.84-.58A8.5,8.5,0,0,0,24,74a7.34,7.34,0,0,0,1.91-2.63,8.79,8.79,0,0,0,.66-3.49,66.53,66.53,0,0,0-.52-8.79,54.63,54.63,0,0,0-1.39-7.17,56,56,0,0,0-2-6.06C22,44,21.24,42.19,20.49,40.42l-2.22-5.34a56.31,56.31,0,0,1-2-5.72,47.27,47.27,0,0,1-1.39-6.58,55.44,55.44,0,0,1-.52-8,3.13,3.13,0,0,1,.69-2.12,2.64,2.64,0,0,1,2.14-.81,2.67,2.67,0,0,1,2.13.81,3.08,3.08,0,0,1,.7,2.12V27.85a3.05,3.05,0,0,0,.71,2.08,2.7,2.7,0,0,0,2.13.8h2.73a.9.9,0,0,0,.73-.29,1.13,1.13,0,0,0,.25-.73V14.77a7.93,7.93,0,0,0-2.47-6.15,9.88,9.88,0,0,0-6.91-2.25A11.83,11.83,0,0,0,13.37,7a8.69,8.69,0,0,0-3,1.68,7.47,7.47,0,0,0-1.9,2.64,8.79,8.79,0,0,0-.66,3.49,56.41,56.41,0,0,0,.9,10.74A58.83,58.83,0,0,0,11,33.9c.92,2.54,1.89,5,2.93,7.25s2,4.72,2.93,7.28a57.91,57.91,0,0,1,2.27,8.51,58.65,58.65,0,0,1,.9,10.94A3.14,3.14,0,0,1,19.37,70a2.65,2.65,0,0,1-2.15.81A2.66,2.66,0,0,1,15.1,70a3.1,3.1,0,0,1-.71-2.12V54.8a3,3,0,0,0-.7-2.08,2.7,2.7,0,0,0-2.13-.8H8.83a.87.87,0,0,0-.73.29,1.08,1.08,0,0,0-.25.73V67.88A7.89,7.89,0,0,0,10.32,74,9.85,9.85,0,0,0,17.22,76.27Z"/><path d="M32.59,76.27H45.93a1.09,1.09,0,0,0,.74-.25.89.89,0,0,0,.3-.74v-1.7a3,3,0,0,0-.7-2.1,2.33,2.33,0,0,0-1.84-.8H38.29V8.92a2.35,2.35,0,0,0-.8-1.85,3.11,3.11,0,0,0-2.1-.7h-2.8a.89.89,0,0,0-.74.3,1.11,1.11,0,0,0-.25.75V75.23a1.07,1.07,0,0,0,.25.74A.89.89,0,0,0,32.59,76.27Z"/><path d="M53.91,76.27H57a1.7,1.7,0,0,0,1.27-.52,1.73,1.73,0,0,0,.53-1.27V7.42a1.11,1.11,0,0,0-.25-.75.93.93,0,0,0-.75-.3H55a3.09,3.09,0,0,0-2.09.7,2.32,2.32,0,0,0-.8,1.85V74.48a1.72,1.72,0,0,0,.52,1.27A1.74,1.74,0,0,0,53.91,76.27Z"/><path d="M91.14,6.67a.93.93,0,0,0-.75-.3H86.6a3.53,3.53,0,0,0-1.4.3A3,3,0,0,0,83.9,8a12.67,12.67,0,0,0-1.1,3.07A42.86,42.86,0,0,0,82,16.56L77.56,58.8,73.22,16.56A34.22,34.22,0,0,0,72.29,11,11,11,0,0,0,71,8a3.18,3.18,0,0,0-1.47-1.32,4.54,4.54,0,0,0-1.48-.28H64.68a.93.93,0,0,0-.75.3,1.11,1.11,0,0,0-.25.75V75.23a1.07,1.07,0,0,0,.25.74.93.93,0,0,0,.75.3h2.79a2.82,2.82,0,0,0,2.2-.82,2.87,2.87,0,0,0,.7-2.12l-1.5-49,5.2,49.48a2.36,2.36,0,0,0,1.14,1.77,4,4,0,0,0,2.3.72h.1a4,4,0,0,0,2.3-.72,2.41,2.41,0,0,0,1.15-1.77L86.2,24.4,84.7,73.33a2.87,2.87,0,0,0,.7,2.12,2.82,2.82,0,0,0,2.2.82h2.79a.93.93,0,0,0,.75-.3,1.07,1.07,0,0,0,.25-.74V7.42A1.11,1.11,0,0,0,91.14,6.67Z"/><path d="M80.89,88.28V86.13c0-.53-.78-.8-2.32-.8H74.18v3.76h4.39C80.11,89.09,80.89,88.82,80.89,88.28Z"/><path d="M43.47,86.67v-.81c0-.35-.51-.53-1.55-.53H36.76v1.88h5.16C43,87.21,43.47,87,43.47,86.67Z"/><path d="M56.37,89.18h4.39c1,0,1.55-.18,1.55-.54V85.77c0-.35-.52-.53-1.55-.53H56.37c-1,0-1.54.18-1.54.53v2.87C54.83,89,55.34,89.18,56.37,89.18Z"/><path d="M25.15,86.76v-.9c0-.35-.51-.53-1.55-.53H18.44v2H23.6C24.64,87.3,25.15,87.12,25.15,86.76Z"/><path d="M7.42,93.43h84V81h-84Zm62.11-9.36H79.6A14.14,14.14,0,0,1,84,84.6c1,.35,1.51.86,1.51,1.53v2.15c0,.68-.5,1.19-1.51,1.54a14.2,14.2,0,0,1-4.42.52H69.53Zm-19.35,1.7c0-.62.41-1.08,1.23-1.36A13.09,13.09,0,0,1,55.34,84h6.45a13.21,13.21,0,0,1,3.94.43c.81.28,1.22.74,1.22,1.36v2.87c0,.63-.41,1.08-1.22,1.37a13.28,13.28,0,0,1-3.94.42H55.34A13.16,13.16,0,0,1,51.41,90c-.82-.29-1.23-.74-1.23-1.37Zm-18.06-1.7H43a13.18,13.18,0,0,1,3.93.43c.82.28,1.23.74,1.23,1.36v.81a1.29,1.29,0,0,1-.71,1.16,5.85,5.85,0,0,1-2.26.54l3.22,2h-5l-3-1.88H36.76v1.88H32.12Zm-18.32,0H24.64a13.18,13.18,0,0,1,3.93.43c.82.28,1.23.74,1.23,1.36v.9c0,.63-.41,1.08-1.23,1.37a13.25,13.25,0,0,1-3.93.42h-6.2v1.79H13.8Z"/></svg>